<svg xmlns="http://www.w3.org/2000/svg" viewBox="0 0 414.65 736.44"><defs><style>.cls-1{fill:#9f5925;}.cls-1,.cls-2{stroke:#231f20;stroke-miterlimit:10;stroke-width:0.5px;}.cls-2,.cls-3{fill:#fff;}</style></defs><title>batik-frame</title><g id="Layer_2" data-name="Layer 2"><g id="Layer_3" data-name="Layer 3"><ellipse class="cls-1" cx="36.08" cy="692.52" rx="4.33" ry="11.68" transform="translate(-421.76 171.69) rotate(-38.33)"/><ellipse class="cls-1" cx="52.1" cy="692.52" rx="11.68" ry="4.33" transform="translate(-523.43 303.85) rotate(-51.67)"/><ellipse class="cls-1" cx="36.05" cy="711.68" rx="11.68" ry="4.33" transform="translate(-544.56 298.53) rotate(-51.67)"/><ellipse class="cls-1" cx="52.21" cy="711.68" rx="4.33" ry="11.68" transform="translate(-430.17 185.83) rotate(-38.33)"/><circle class="cls-2" cx="40.75" cy="698.42" r="1.55"/><circle class="cls-2" cx="30.92" cy="685.99" r="1.55"/><circle class="cls-2" cx="37.37" cy="694.15" r="1.1"/><circle class="cls-2" cx="34.36" cy="690.35" r="1.1"/><circle class="cls-2" cx="57.02" cy="717.99" r="1.55"/><circle class="cls-2" cx="47.18" cy="705.56" r="1.55"/><circle class="cls-2" cx="53.64" cy="713.72" r="1.1"/><circle class="cls-2" cx="50.63" cy="709.92" r="1.1"/><circle class="cls-2" cx="41.22" cy="705.61" r="1.55"/><circle class="cls-2" cx="30.93" cy="717.67" r="1.55"/><circle class="cls-2" cx="37.69" cy="709.76" r="1.1"/><circle class="cls-2" cx="34.54" cy="713.44" r="1.1"/><circle class="cls-2" cx="47.7" cy="698.17" r="1.55"/><circle class="cls-2" cx="57.45" cy="685.67" r="1.55"/><circle class="cls-2" cx="51.05" cy="693.87" r="1.1"/><circle class="cls-2" cx="54.03" cy="690.05" r="1.1"/><ellipse class="cls-1" cx="68.48" cy="692.52" rx="4.33" ry="11.68" transform="translate(-414.78 191.79) rotate(-38.33)"/><ellipse class="cls-1" cx="84.5" cy="692.52" rx="11.68" ry="4.33" transform="translate(-511.12 329.26) rotate(-51.67)"/><ellipse class="cls-1" cx="68.45" cy="711.68" rx="11.68" ry="4.33" transform="translate(-532.25 323.95) rotate(-51.67)"/><ellipse class="cls-1" cx="84.61" cy="711.68" rx="4.33" ry="11.68" transform="translate(-423.19 205.92) rotate(-38.33)"/><circle class="cls-2" cx="73.15" cy="698.42" r="1.55"/><circle class="cls-2" cx="63.32" cy="685.99" r="1.55"/><circle class="cls-2" cx="69.77" cy="694.15" r="1.1"/><circle class="cls-2" cx="66.77" cy="690.35" r="1.1"/><circle class="cls-2" cx="89.42" cy="717.99" r="1.55"/><circle class="cls-2" cx="79.58" cy="705.56" r="1.55"/><circle class="cls-2" cx="86.04" cy="713.72" r="1.1"/><circle class="cls-2" cx="83.03" cy="709.92" r="1.1"/><circle class="cls-2" cx="73.63" cy="705.61" r="1.55"/><circle class="cls-2" cx="63.34" cy="717.67" r="1.55"/><circle class="cls-2" cx="70.09" cy="709.76" r="1.1"/><circle class="cls-2" cx="66.95" cy="713.44" r="1.1"/><circle class="cls-2" cx="80.1" cy="698.17" r="1.55"/><circle class="cls-2" cx="89.85" cy="685.67" r="1.55"/><circle class="cls-2" cx="83.45" cy="693.87" r="1.1"/><circle class="cls-2" cx="86.43" cy="690.05" r="1.1"/><path class="cls-1" d="M414.4,14.71V.25H.4V14.71H.25v707H.4v14.46h414V721.73h-.32v-707Zm-27.32,707H27.25v-707H387.08Z"/><rect class="cls-3" x="9.25" y="14.71" width="9" height="707.03"/><rect class="cls-3" x="396.08" y="14.71" width="9" height="707.03"/><ellipse class="cls-1" cx="101.33" cy="692.56" rx="4.33" ry="11.68" transform="translate(-407.72 212.17) rotate(-38.33)"/><ellipse class="cls-1" cx="117.35" cy="692.56" rx="11.68" ry="4.33" transform="translate(-498.68 355.04) rotate(-51.67)"/><ellipse class="cls-1" cx="101.29" cy="711.72" rx="11.68" ry="4.33" transform="translate(-519.81 349.73) rotate(-51.67)"/><ellipse class="cls-1" cx="117.46" cy="711.72" rx="4.33" ry="11.68" transform="translate(-416.13 226.3) rotate(-38.33)"/><circle class="cls-2" cx="106" cy="698.46" r="1.55"/><circle class="cls-2" cx="96.16" cy="686.03" r="1.55"/><circle class="cls-2" cx="102.62" cy="694.19" r="1.1"/><circle class="cls-2" cx="99.61" cy="690.39" r="1.1"/><circle class="cls-2" cx="122.26" cy="718.03" r="1.55"/><circle class="cls-2" cx="112.43" cy="705.59" r="1.55"/><circle class="cls-2" cx="118.89" cy="713.76" r="1.1"/><circle class="cls-2" cx="115.88" cy="709.96" r="1.1"/><circle class="cls-2" cx="106.47" cy="705.65" r="1.55"/><circle class="cls-2" cx="96.18" cy="717.71" r="1.55"/><circle class="cls-2" cx="102.94" cy="709.79" r="1.1"/><circle class="cls-2" cx="99.79" cy="713.48" r="1.1"/><circle class="cls-2" cx="112.95" cy="698.2" r="1.55"/><circle class="cls-2" cx="122.7" cy="685.7" r="1.55"/><circle class="cls-2" cx="116.3" cy="693.91" r="1.1"/><circle class="cls-2" cx="119.28" cy="690.09" r="1.1"/><ellipse class="cls-1" cx="133.73" cy="692.56" rx="4.33" ry="11.68" transform="translate(-400.73 232.26) rotate(-38.33)"/><ellipse class="cls-1" cx="149.75" cy="692.56" rx="11.68" ry="4.33" transform="translate(-486.37 380.45) rotate(-51.67)"/><ellipse class="cls-1" cx="133.7" cy="711.72" rx="11.68" ry="4.33" transform="translate(-507.5 375.14) rotate(-51.67)"/><ellipse class="cls-1" cx="149.86" cy="711.72" rx="4.33" ry="11.68" transform="translate(-409.14 246.4) rotate(-38.33)"/><circle class="cls-2" cx="138.4" cy="698.46" r="1.55"/><circle class="cls-2" cx="128.56" cy="686.03" r="1.55"/><circle class="cls-2" cx="135.02" cy="694.19" r="1.1"/><circle class="cls-2" cx="132.01" cy="690.39" r="1.1"/><circle class="cls-2" cx="154.66" cy="718.03" r="1.55"/><circle class="cls-2" cx="144.83" cy="705.59" r="1.55"/><circle class="cls-2" cx="151.29" cy="713.76" r="1.1"/><circle class="cls-2" cx="148.28" cy="709.96" r="1.1"/><circle class="cls-2" cx="138.87" cy="705.65" r="1.55"/><circle class="cls-2" cx="128.58" cy="717.71" r="1.55"/><circle class="cls-2" cx="135.34" cy="709.79" r="1.1"/><circle class="cls-2" cx="132.19" cy="713.48" r="1.1"/><circle class="cls-2" cx="145.35" cy="698.2" r="1.55"/><circle class="cls-2" cx="155.1" cy="685.7" r="1.55"/><circle class="cls-2" cx="148.7" cy="693.91" r="1.1"/><circle class="cls-2" cx="151.68" cy="690.09" r="1.1"/><ellipse class="cls-1" cx="166.52" cy="692.28" rx="4.33" ry="11.68" transform="translate(-393.49 252.54) rotate(-38.33)"/><ellipse class="cls-1" cx="182.54" cy="692.28" rx="11.68" ry="4.33" transform="translate(-473.71 406.07) rotate(-51.67)"/><ellipse class="cls-1" cx="166.49" cy="711.45" rx="11.68" ry="4.33" transform="translate(-494.83 400.76) rotate(-51.67)"/><ellipse class="cls-1" cx="182.65" cy="711.45" rx="4.33" ry="11.68" transform="translate(-401.9 266.68) rotate(-38.33)"/><circle class="cls-2" cx="171.19" cy="698.19" r="1.55"/><circle class="cls-2" cx="161.36" cy="685.75" r="1.55"/><circle class="cls-2" cx="167.81" cy="693.92" r="1.1"/><circle class="cls-2" cx="164.81" cy="690.11" r="1.1"/><circle class="cls-2" cx="187.46" cy="717.75" r="1.55"/><circle class="cls-2" cx="177.62" cy="705.32" r="1.55"/><circle class="cls-2" cx="184.08" cy="713.48" r="1.1"/><circle class="cls-2" cx="181.07" cy="709.68" r="1.1"/><circle class="cls-2" cx="171.67" cy="705.38" r="1.55"/><circle class="cls-2" cx="161.38" cy="717.44" r="1.55"/><circle class="cls-2" cx="168.13" cy="709.52" r="1.1"/><circle class="cls-2" cx="164.99" cy="713.21" r="1.1"/><circle class="cls-2" cx="178.14" cy="697.93" r="1.55"/><circle class="cls-2" cx="187.9" cy="685.43" r="1.55"/><circle class="cls-2" cx="181.49" cy="693.64" r="1.1"/><circle class="cls-2" cx="184.47" cy="689.81" r="1.1"/><ellipse class="cls-1" cx="198.92" cy="692.28" rx="4.33" ry="11.68" transform="translate(-386.5 272.64) rotate(-38.33)"/><ellipse class="cls-1" cx="214.94" cy="692.28" rx="11.68" ry="4.33" transform="translate(-461.4 431.49) rotate(-51.67)"/><ellipse class="cls-1" cx="198.89" cy="711.45" rx="11.68" ry="4.33" transform="translate(-482.53 426.18) rotate(-51.67)"/><ellipse class="cls-1" cx="215.06" cy="711.45" rx="4.33" ry="11.68" transform="translate(-394.91 286.78) rotate(-38.33)"/><circle class="cls-2" cx="203.59" cy="698.19" r="1.55"/><circle class="cls-2" cx="193.76" cy="685.75" r="1.55"/><circle class="cls-2" cx="200.22" cy="693.92" r="1.1"/><circle class="cls-2" cx="197.21" cy="690.11" r="1.1"/><circle class="cls-2" cx="219.86" cy="717.75" r="1.55"/><circle class="cls-2" cx="210.03" cy="705.32" r="1.55"/><circle class="cls-2" cx="216.48" cy="713.48" r="1.1"/><circle class="cls-2" cx="213.48" cy="709.68" r="1.1"/><circle class="cls-2" cx="204.07" cy="705.38" r="1.55"/><circle class="cls-2" cx="193.78" cy="717.44" r="1.55"/><circle class="cls-2" cx="200.54" cy="709.52" r="1.1"/><circle class="cls-2" cx="197.39" cy="713.21" r="1.1"/><circle class="cls-2" cx="210.54" cy="697.93" r="1.55"/><circle class="cls-2" cx="220.3" cy="685.43" r="1.55"/><circle class="cls-2" cx="213.89" cy="693.64" r="1.1"/><circle class="cls-2" cx="216.88" cy="689.81" r="1.1"/><ellipse class="cls-1" cx="231.81" cy="691.88" rx="4.33" ry="11.68" transform="translate(-379.16 292.95) rotate(-38.33)"/><ellipse class="cls-1" cx="247.83" cy="691.88" rx="11.68" ry="4.33" transform="translate(-448.6 457.13) rotate(-51.67)"/><ellipse class="cls-1" cx="231.77" cy="711.04" rx="11.68" ry="4.33" transform="translate(-469.72 451.81) rotate(-51.67)"/><ellipse class="cls-1" cx="247.94" cy="711.04" rx="4.33" ry="11.68" transform="translate(-387.57 307.09) rotate(-38.33)"/><circle class="cls-2" cx="236.47" cy="697.78" r="1.55"/><circle class="cls-2" cx="226.64" cy="685.34" r="1.55"/><circle class="cls-2" cx="233.1" cy="693.51" r="1.1"/><circle class="cls-2" cx="230.09" cy="689.71" r="1.1"/><circle class="cls-2" cx="252.74" cy="717.35" r="1.55"/><circle class="cls-2" cx="242.91" cy="704.91" r="1.55"/><circle class="cls-2" cx="249.37" cy="713.08" r="1.1"/><circle class="cls-2" cx="246.36" cy="709.27" r="1.1"/><circle class="cls-2" cx="236.95" cy="704.97" r="1.55"/><circle class="cls-2" cx="226.66" cy="717.03" r="1.55"/><circle class="cls-2" cx="233.42" cy="709.11" r="1.1"/><circle class="cls-2" cx="230.27" cy="712.8" r="1.1"/><circle class="cls-2" cx="243.43" cy="697.52" r="1.55"/><circle class="cls-2" cx="253.18" cy="685.02" r="1.55"/><circle class="cls-2" cx="246.78" cy="693.23" r="1.1"/><circle class="cls-2" cx="249.76" cy="689.41" r="1.1"/><ellipse class="cls-1" cx="264.21" cy="691.88" rx="4.33" ry="11.68" transform="translate(-372.18 313.05) rotate(-38.33)"/><ellipse class="cls-1" cx="280.23" cy="691.88" rx="11.68" ry="4.33" transform="translate(-436.29 482.54) rotate(-51.67)"/><ellipse class="cls-1" cx="264.18" cy="711.04" rx="11.68" ry="4.33" transform="translate(-457.42 477.23) rotate(-51.67)"/><ellipse class="cls-1" cx="280.34" cy="711.04" rx="4.33" ry="11.68" transform="translate(-380.59 327.19) rotate(-38.33)"/><circle class="cls-2" cx="268.88" cy="697.78" r="1.55"/><circle class="cls-2" cx="259.04" cy="685.34" r="1.55"/><circle class="cls-2" cx="265.5" cy="693.51" r="1.1"/><circle class="cls-2" cx="262.49" cy="689.71" r="1.1"/><circle class="cls-2" cx="285.14" cy="717.35" r="1.55"/><circle class="cls-2" cx="275.31" cy="704.91" r="1.55"/><circle class="cls-2" cx="281.77" cy="713.08" r="1.1"/><circle class="cls-2" cx="278.76" cy="709.27" r="1.1"/><circle class="cls-2" cx="269.35" cy="704.97" r="1.55"/><circle class="cls-2" cx="259.06" cy="717.03" r="1.55"/><circle class="cls-2" cx="265.82" cy="709.11" r="1.1"/><circle class="cls-2" cx="262.67" cy="712.8" r="1.1"/><circle class="cls-2" cx="275.83" cy="697.52" r="1.55"/><circle class="cls-2" cx="285.58" cy="685.02" r="1.55"/><circle class="cls-2" cx="279.18" cy="693.23" r="1.1"/><circle class="cls-2" cx="282.16" cy="689.41" r="1.1"/><ellipse class="cls-1" cx="296.9" cy="691.88" rx="4.33" ry="11.68" transform="translate(-365.13 333.33) rotate(-38.33)"/><ellipse class="cls-1" cx="312.92" cy="691.88" rx="11.68" ry="4.33" transform="translate(-423.88 508.19) rotate(-51.67)"/><ellipse class="cls-1" cx="296.87" cy="711.04" rx="11.68" ry="4.33" transform="translate(-445 502.88) rotate(-51.67)"/><ellipse class="cls-1" cx="313.04" cy="711.04" rx="4.33" ry="11.68" transform="translate(-373.54 347.46) rotate(-38.33)"/><circle class="cls-2" cx="301.57" cy="697.78" r="1.55"/><circle class="cls-2" cx="291.74" cy="685.34" r="1.55"/><circle class="cls-2" cx="298.2" cy="693.51" r="1.1"/><circle class="cls-2" cx="295.19" cy="689.71" r="1.1"/><circle class="cls-2" cx="317.84" cy="717.35" r="1.55"/><circle class="cls-2" cx="308.01" cy="704.91" r="1.55"/><circle class="cls-2" cx="314.46" cy="713.08" r="1.1"/><circle class="cls-2" cx="311.45" cy="709.27" r="1.1"/><circle class="cls-2" cx="302.05" cy="704.97" r="1.55"/><circle class="cls-2" cx="291.76" cy="717.03" r="1.55"/><circle class="cls-2" cx="298.51" cy="709.11" r="1.1"/><circle class="cls-2" cx="295.37" cy="712.8" r="1.1"/><circle class="cls-2" cx="308.52" cy="697.52" r="1.55"/><circle class="cls-2" cx="318.28" cy="685.02" r="1.55"/><circle class="cls-2" cx="311.87" cy="693.23" r="1.1"/><circle class="cls-2" cx="314.86" cy="689.41" r="1.1"/><ellipse class="cls-1" cx="329.3" cy="691.88" rx="4.33" ry="11.68" transform="translate(-358.14 353.42) rotate(-38.33)"/><ellipse class="cls-1" cx="345.32" cy="691.88" rx="11.68" ry="4.33" transform="translate(-411.57 533.61) rotate(-51.67)"/><ellipse class="cls-1" cx="329.27" cy="711.04" rx="11.68" ry="4.33" transform="translate(-432.7 528.29) rotate(-51.67)"/><ellipse class="cls-1" cx="345.44" cy="711.04" rx="4.33" ry="11.68" transform="translate(-366.55 367.56) rotate(-38.33)"/><circle class="cls-2" cx="333.97" cy="697.78" r="1.55"/><circle class="cls-2" cx="324.14" cy="685.34" r="1.55"/><circle class="cls-2" cx="330.6" cy="693.51" r="1.1"/><circle class="cls-2" cx="327.59" cy="689.71" r="1.1"/><circle class="cls-2" cx="350.24" cy="717.35" r="1.55"/><circle class="cls-2" cx="340.41" cy="704.91" r="1.55"/><circle class="cls-2" cx="346.86" cy="713.08" r="1.1"/><circle class="cls-2" cx="343.86" cy="709.27" r="1.1"/><circle class="cls-2" cx="334.45" cy="704.97" r="1.55"/><circle class="cls-2" cx="324.16" cy="717.03" r="1.55"/><circle class="cls-2" cx="330.92" cy="709.11" r="1.1"/><circle class="cls-2" cx="327.77" cy="712.8" r="1.1"/><circle class="cls-2" cx="340.93" cy="697.52" r="1.55"/><circle class="cls-2" cx="350.68" cy="685.02" r="1.55"/><circle class="cls-2" cx="344.27" cy="693.23" r="1.1"/><circle class="cls-2" cx="347.26" cy="689.41" r="1.1"/><ellipse class="cls-1" cx="361.94" cy="692.03" rx="4.33" ry="11.68" transform="translate(-351.2 373.7) rotate(-38.33)"/><ellipse class="cls-1" cx="377.96" cy="692.03" rx="11.68" ry="4.33" transform="translate(-399.3 559.27) rotate(-51.67)"/><ellipse class="cls-1" cx="361.91" cy="711.2" rx="11.68" ry="4.33" transform="translate(-420.43 553.95) rotate(-51.67)"/><ellipse class="cls-1" cx="378.08" cy="711.2" rx="4.33" ry="11.68" transform="translate(-359.61 387.84) rotate(-38.33)"/><circle class="cls-2" cx="366.61" cy="697.94" r="1.55"/><circle class="cls-2" cx="356.78" cy="685.5" r="1.55"/><circle class="cls-2" cx="363.24" cy="693.67" r="1.1"/><circle class="cls-2" cx="360.23" cy="689.86" r="1.1"/><circle class="cls-2" cx="382.88" cy="717.51" r="1.55"/><circle class="cls-2" cx="373.05" cy="705.07" r="1.55"/><circle class="cls-2" cx="379.5" cy="713.24" r="1.1"/><circle class="cls-2" cx="376.5" cy="709.43" r="1.1"/><circle class="cls-2" cx="367.09" cy="705.13" r="1.55"/><circle class="cls-2" cx="356.8" cy="717.19" r="1.55"/><circle class="cls-2" cx="363.56" cy="709.27" r="1.1"/><circle class="cls-2" cx="360.41" cy="712.96" r="1.1"/><circle class="cls-2" cx="373.56" cy="697.68" r="1.55"/><circle class="cls-2" cx="383.32" cy="685.18" r="1.55"/><circle class="cls-2" cx="376.91" cy="693.39" r="1.1"/><circle class="cls-2" cx="379.9" cy="689.56" r="1.1"/><ellipse class="cls-1" cx="35.55" cy="24.84" rx="4.33" ry="11.68" transform="matrix(0.78, -0.62, 0.62, 0.78, -7.74, 27.4)"/><ellipse class="cls-1" cx="51.57" cy="24.84" rx="11.68" ry="4.33" transform="translate(0.1 49.88) rotate(-51.67)"/><ellipse class="cls-1" cx="35.51" cy="44" rx="11.68" ry="4.33" transform="translate(-21.03 44.57) rotate(-51.67)"/><ellipse class="cls-1" cx="51.68" cy="44" rx="4.33" ry="11.68" transform="translate(-16.15 41.54) rotate(-38.33)"/><circle class="cls-2" cx="40.22" cy="30.74" r="1.55"/><circle class="cls-2" cx="30.38" cy="18.31" r="1.55"/><circle class="cls-2" cx="36.84" cy="26.47" r="1.1"/><circle class="cls-2" cx="33.83" cy="22.67" r="1.1"/><circle class="cls-2" cx="56.48" cy="50.31" r="1.55"/><circle class="cls-2" cx="46.65" cy="37.87" r="1.55"/><circle class="cls-2" cx="53.11" cy="46.04" r="1.1"/><circle class="cls-2" cx="50.1" cy="42.23" r="1.1"/><circle class="cls-2" cx="40.69" cy="37.93" r="1.55"/><circle class="cls-2" cx="30.4" cy="49.99" r="1.55"/><circle class="cls-2" cx="37.16" cy="42.07" r="1.1"/><circle class="cls-2" cx="34.01" cy="45.76" r="1.1"/><circle class="cls-2" cx="47.17" cy="30.48" r="1.55"/><circle class="cls-2" cx="56.92" cy="17.98" r="1.55"/><circle class="cls-2" cx="50.52" cy="26.19" r="1.1"/><circle class="cls-2" cx="53.5" cy="22.37" r="1.1"/><ellipse class="cls-1" cx="67.95" cy="24.84" rx="4.33" ry="11.68" transform="translate(-0.76 47.5) rotate(-38.33)"/><ellipse class="cls-1" cx="83.97" cy="24.84" rx="11.68" ry="4.33" transform="translate(12.4 75.3) rotate(-51.67)"/><ellipse class="cls-1" cx="67.92" cy="44" rx="11.68" ry="4.33" transform="translate(-8.72 69.98) rotate(-51.67)"/><ellipse class="cls-1" cx="84.08" cy="44" rx="4.33" ry="11.68" transform="translate(-9.16 61.64) rotate(-38.33)"/><circle class="cls-2" cx="72.62" cy="30.74" r="1.55"/><circle class="cls-2" cx="62.78" cy="18.31" r="1.55"/><circle class="cls-2" cx="69.24" cy="26.47" r="1.1"/><circle class="cls-2" cx="66.23" cy="22.67" r="1.1"/><circle class="cls-2" cx="88.88" cy="50.31" r="1.55"/><circle class="cls-2" cx="79.05" cy="37.87" r="1.55"/><circle class="cls-2" cx="85.51" cy="46.04" r="1.1"/><circle class="cls-2" cx="82.5" cy="42.23" r="1.1"/><circle class="cls-2" cx="73.09" cy="37.93" r="1.55"/><circle class="cls-2" cx="62.8" cy="49.99" r="1.55"/><circle class="cls-2" cx="69.56" cy="42.07" r="1.1"/><circle class="cls-2" cx="66.41" cy="45.76" r="1.1"/><circle class="cls-2" cx="79.57" cy="30.48" r="1.55"/><circle class="cls-2" cx="89.32" cy="17.98" r="1.55"/><circle class="cls-2" cx="82.92" cy="26.19" r="1.1"/><circle class="cls-2" cx="85.9" cy="22.37" r="1.1"/><ellipse class="cls-1" cx="100.79" cy="24.87" rx="4.33" ry="11.68" transform="matrix(0.78, -0.62, 0.62, 0.78, 6.3, 67.88)"/><ellipse class="cls-1" cx="116.81" cy="24.87" rx="11.68" ry="4.33" transform="translate(24.85 101.07) rotate(-51.67)"/><ellipse class="cls-1" cx="100.76" cy="44.04" rx="11.68" ry="4.33" transform="translate(3.72 95.76) rotate(-51.67)"/><ellipse class="cls-1" cx="116.93" cy="44.04" rx="4.33" ry="11.68" transform="translate(-2.11 82.02) rotate(-38.33)"/><circle class="cls-2" cx="105.46" cy="30.78" r="1.55"/><circle class="cls-2" cx="95.63" cy="18.34" r="1.55"/><circle class="cls-2" cx="102.09" cy="26.51" r="1.1"/><circle class="cls-2" cx="99.08" cy="22.7" r="1.1"/><circle class="cls-2" cx="121.73" cy="50.35" r="1.55"/><circle class="cls-2" cx="111.9" cy="37.91" r="1.55"/><circle class="cls-2" cx="118.35" cy="46.08" r="1.1"/><circle class="cls-2" cx="115.34" cy="42.27" r="1.1"/><circle class="cls-2" cx="105.94" cy="37.97" r="1.55"/><circle class="cls-2" cx="95.65" cy="50.03" r="1.55"/><circle class="cls-2" cx="102.4" cy="42.11" r="1.1"/><circle class="cls-2" cx="99.26" cy="45.8" r="1.1"/><circle class="cls-2" cx="112.41" cy="30.52" r="1.55"/><circle class="cls-2" cx="122.17" cy="18.02" r="1.55"/><circle class="cls-2" cx="115.76" cy="26.23" r="1.1"/><circle class="cls-2" cx="118.75" cy="22.4" r="1.1"/><ellipse class="cls-1" cx="133.2" cy="24.87" rx="4.33" ry="11.68" transform="translate(13.29 87.98) rotate(-38.33)"/><ellipse class="cls-1" cx="149.21" cy="24.87" rx="11.68" ry="4.33" transform="translate(37.15 126.49) rotate(-51.67)"/><ellipse class="cls-1" cx="133.16" cy="44.04" rx="11.68" ry="4.33" transform="translate(16.02 121.18) rotate(-51.67)"/><ellipse class="cls-1" cx="149.33" cy="44.04" rx="4.33" ry="11.68" transform="translate(4.88 102.12) rotate(-38.33)"/><circle class="cls-2" cx="137.86" cy="30.78" r="1.55"/><circle class="cls-2" cx="128.03" cy="18.34" r="1.55"/><circle class="cls-2" cx="134.49" cy="26.51" r="1.1"/><circle class="cls-2" cx="131.48" cy="22.7" r="1.1"/><circle class="cls-2" cx="154.13" cy="50.35" r="1.55"/><circle class="cls-2" cx="144.3" cy="37.91" r="1.55"/><circle class="cls-2" cx="150.75" cy="46.08" r="1.1"/><circle class="cls-2" cx="147.75" cy="42.27" r="1.1"/><circle class="cls-2" cx="138.34" cy="37.97" r="1.55"/><circle class="cls-2" cx="128.05" cy="50.03" r="1.55"/><circle class="cls-2" cx="134.81" cy="42.11" r="1.1"/><circle class="cls-2" cx="131.66" cy="45.8" r="1.1"/><circle class="cls-2" cx="144.82" cy="30.52" r="1.55"/><circle class="cls-2" cx="154.57" cy="18.02" r="1.55"/><circle class="cls-2" cx="148.16" cy="26.23" r="1.1"/><circle class="cls-2" cx="151.15" cy="22.4" r="1.1"/><ellipse class="cls-1" cx="165.99" cy="24.6" rx="4.33" ry="11.68" transform="translate(20.53 108.26) rotate(-38.33)"/><ellipse class="cls-1" cx="182.01" cy="24.6" rx="11.68" ry="4.33" transform="translate(49.82 152.11) rotate(-51.67)"/><ellipse class="cls-1" cx="165.96" cy="43.76" rx="11.68" ry="4.33" transform="translate(28.69 146.79) rotate(-51.67)"/><ellipse class="cls-1" cx="182.12" cy="43.76" rx="4.33" ry="11.68" transform="translate(12.12 122.4) rotate(-38.33)"/><circle class="cls-2" cx="170.66" cy="30.5" r="1.55"/><circle class="cls-2" cx="160.82" cy="18.07" r="1.55"/><circle class="cls-2" cx="167.28" cy="26.23" r="1.1"/><circle class="cls-2" cx="164.27" cy="22.43" r="1.1"/><circle class="cls-2" cx="186.92" cy="50.07" r="1.55"/><circle class="cls-2" cx="177.09" cy="37.63" r="1.55"/><circle class="cls-2" cx="183.55" cy="45.8" r="1.1"/><circle class="cls-2" cx="180.54" cy="42" r="1.1"/><circle class="cls-2" cx="171.13" cy="37.69" r="1.55"/><circle class="cls-2" cx="160.84" cy="49.75" r="1.55"/><circle class="cls-2" cx="167.6" cy="41.83" r="1.1"/><circle class="cls-2" cx="164.45" cy="45.52" r="1.1"/><circle class="cls-2" cx="177.61" cy="30.24" r="1.55"/><circle class="cls-2" cx="187.36" cy="17.74" r="1.55"/><circle class="cls-2" cx="180.96" cy="25.95" r="1.1"/><circle class="cls-2" cx="183.94" cy="22.13" r="1.1"/><ellipse class="cls-1" cx="198.39" cy="24.6" rx="4.33" ry="11.68" transform="translate(27.52 128.36) rotate(-38.33)"/><ellipse class="cls-1" cx="214.41" cy="24.6" rx="11.68" ry="4.33" transform="translate(62.13 177.52) rotate(-51.67)"/><ellipse class="cls-1" cx="198.36" cy="43.76" rx="11.68" ry="4.33" transform="translate(41 172.21) rotate(-51.67)"/><ellipse class="cls-1" cx="214.52" cy="43.76" rx="4.33" ry="11.68" transform="translate(19.11 142.5) rotate(-38.33)"/><circle class="cls-2" cx="203.06" cy="30.5" r="1.55"/><circle class="cls-2" cx="193.23" cy="18.07" r="1.55"/><circle class="cls-2" cx="199.68" cy="26.23" r="1.1"/><circle class="cls-2" cx="196.68" cy="22.43" r="1.1"/><circle class="cls-2" cx="219.33" cy="50.07" r="1.55"/><circle class="cls-2" cx="209.49" cy="37.63" r="1.55"/><circle class="cls-2" cx="215.95" cy="45.8" r="1.1"/><circle class="cls-2" cx="212.94" cy="42" r="1.1"/><circle class="cls-2" cx="203.54" cy="37.69" r="1.55"/><circle class="cls-2" cx="193.25" cy="49.75" r="1.55"/><circle class="cls-2" cx="200" cy="41.83" r="1.1"/><circle class="cls-2" cx="196.85" cy="45.52" r="1.1"/><circle class="cls-2" cx="210.01" cy="30.24" r="1.55"/><circle class="cls-2" cx="219.76" cy="17.74" r="1.55"/><circle class="cls-2" cx="213.36" cy="25.95" r="1.1"/><circle class="cls-2" cx="216.34" cy="22.13" r="1.1"/><ellipse class="cls-1" cx="231.27" cy="24.19" rx="4.33" ry="11.68" transform="translate(34.86 148.66) rotate(-38.33)"/><ellipse class="cls-1" cx="247.29" cy="24.19" rx="11.68" ry="4.33" transform="translate(74.93 203.16) rotate(-51.67)"/><ellipse class="cls-1" cx="231.24" cy="43.36" rx="11.68" ry="4.33" transform="translate(53.8 197.85) rotate(-51.67)"/><ellipse class="cls-1" cx="247.4" cy="43.36" rx="4.33" ry="11.68" transform="matrix(0.78, -0.62, 0.62, 0.78, 26.45, 162.8)"/><circle class="cls-2" cx="235.94" cy="30.1" r="1.55"/><circle class="cls-2" cx="226.11" cy="17.66" r="1.55"/><circle class="cls-2" cx="232.56" cy="25.83" r="1.1"/><circle class="cls-2" cx="229.56" cy="22.02" r="1.1"/><circle class="cls-2" cx="252.21" cy="49.66" r="1.55"/><circle class="cls-2" cx="242.37" cy="37.23" r="1.55"/><circle class="cls-2" cx="248.83" cy="45.39" r="1.1"/><circle class="cls-2" cx="245.82" cy="41.59" r="1.1"/><circle class="cls-2" cx="236.42" cy="37.29" r="1.55"/><circle class="cls-2" cx="226.13" cy="49.35" r="1.55"/><circle class="cls-2" cx="232.88" cy="41.43" r="1.1"/><circle class="cls-2" cx="229.74" cy="45.12" r="1.1"/><circle class="cls-2" cx="242.89" cy="29.84" r="1.55"/><circle class="cls-2" cx="252.65" cy="17.34" r="1.55"/><circle class="cls-2" cx="246.24" cy="25.55" r="1.1"/><circle class="cls-2" cx="249.22" cy="21.72" r="1.1"/><ellipse class="cls-1" cx="263.67" cy="24.19" rx="4.33" ry="11.68" transform="matrix(0.78, -0.62, 0.62, 0.78, 41.84, 168.76)"/><ellipse class="cls-1" cx="279.69" cy="24.19" rx="11.68" ry="4.33" transform="translate(87.24 228.58) rotate(-51.67)"/><ellipse class="cls-1" cx="263.64" cy="43.36" rx="11.68" ry="4.33" transform="translate(66.11 223.26) rotate(-51.67)"/><ellipse class="cls-1" cx="279.81" cy="43.36" rx="4.33" ry="11.68" transform="translate(33.43 182.9) rotate(-38.33)"/><circle class="cls-2" cx="268.34" cy="30.1" r="1.55"/><circle class="cls-2" cx="258.51" cy="17.66" r="1.55"/><circle class="cls-2" cx="264.97" cy="25.83" r="1.1"/><circle class="cls-2" cx="261.96" cy="22.02" r="1.1"/><circle class="cls-2" cx="284.61" cy="49.66" r="1.55"/><circle class="cls-2" cx="274.78" cy="37.23" r="1.55"/><circle class="cls-2" cx="281.23" cy="45.39" r="1.1"/><circle class="cls-2" cx="278.23" cy="41.59" r="1.1"/><circle class="cls-2" cx="268.82" cy="37.29" r="1.55"/><circle class="cls-2" cx="258.53" cy="49.35" r="1.55"/><circle class="cls-2" cx="265.29" cy="41.43" r="1.1"/><circle class="cls-2" cx="262.14" cy="45.12" r="1.1"/><circle class="cls-2" cx="275.29" cy="29.84" r="1.55"/><circle class="cls-2" cx="285.05" cy="17.34" r="1.55"/><circle class="cls-2" cx="278.64" cy="25.55" r="1.1"/><circle class="cls-2" cx="281.63" cy="21.72" r="1.1"/><ellipse class="cls-1" cx="296.37" cy="24.19" rx="4.33" ry="11.68" transform="translate(48.89 189.04) rotate(-38.33)"/><ellipse class="cls-1" cx="312.39" cy="24.19" rx="11.68" ry="4.33" transform="translate(99.65 254.22) rotate(-51.67)"/><ellipse class="cls-1" cx="296.34" cy="43.36" rx="11.68" ry="4.33" transform="translate(78.52 248.91) rotate(-51.67)"/><ellipse class="cls-1" cx="312.5" cy="43.36" rx="4.33" ry="11.68" transform="translate(40.48 203.18) rotate(-38.33)"/><circle class="cls-2" cx="301.04" cy="30.1" r="1.55"/><circle class="cls-2" cx="291.21" cy="17.66" r="1.55"/><circle class="cls-2" cx="297.66" cy="25.83" r="1.1"/><circle class="cls-2" cx="294.65" cy="22.02" r="1.1"/><circle class="cls-2" cx="317.31" cy="49.66" r="1.55"/><circle class="cls-2" cx="307.47" cy="37.23" r="1.55"/><circle class="cls-2" cx="313.93" cy="45.39" r="1.1"/><circle class="cls-2" cx="310.92" cy="41.59" r="1.1"/><circle class="cls-2" cx="301.51" cy="37.29" r="1.55"/><circle class="cls-2" cx="291.22" cy="49.35" r="1.55"/><circle class="cls-2" cx="297.98" cy="41.43" r="1.1"/><circle class="cls-2" cx="294.83" cy="45.12" r="1.1"/><circle class="cls-2" cx="307.99" cy="29.84" r="1.55"/><circle class="cls-2" cx="317.74" cy="17.34" r="1.55"/><circle class="cls-2" cx="311.34" cy="25.55" r="1.1"/><circle class="cls-2" cx="314.32" cy="21.72" r="1.1"/><ellipse class="cls-1" cx="328.77" cy="24.19" rx="4.33" ry="11.68" transform="translate(55.88 209.14) rotate(-38.33)"/><ellipse class="cls-1" cx="344.79" cy="24.19" rx="11.68" ry="4.33" transform="translate(111.96 279.64) rotate(-51.67)"/><ellipse class="cls-1" cx="328.74" cy="43.36" rx="11.68" ry="4.33" transform="translate(90.83 274.33) rotate(-51.67)"/><ellipse class="cls-1" cx="344.9" cy="43.36" rx="4.33" ry="11.68" transform="translate(47.47 223.28) rotate(-38.33)"/><circle class="cls-2" cx="333.44" cy="30.1" r="1.55"/><circle class="cls-2" cx="323.61" cy="17.66" r="1.55"/><circle class="cls-2" cx="330.06" cy="25.83" r="1.1"/><circle class="cls-2" cx="327.06" cy="22.02" r="1.1"/><circle class="cls-2" cx="349.71" cy="49.66" r="1.55"/><circle class="cls-2" cx="339.87" cy="37.23" r="1.55"/><circle class="cls-2" cx="346.33" cy="45.39" r="1.1"/><circle class="cls-2" cx="343.32" cy="41.59" r="1.1"/><circle class="cls-2" cx="333.92" cy="37.29" r="1.55"/><circle class="cls-2" cx="323.63" cy="49.35" r="1.55"/><circle class="cls-2" cx="330.38" cy="41.43" r="1.1"/><circle class="cls-2" cx="327.24" cy="45.12" r="1.1"/><circle class="cls-2" cx="340.39" cy="29.84" r="1.55"/><circle class="cls-2" cx="350.14" cy="17.34" r="1.55"/><circle class="cls-2" cx="343.74" cy="25.55" r="1.1"/><circle class="cls-2" cx="346.72" cy="21.72" r="1.1"/><ellipse class="cls-1" cx="361.41" cy="24.35" rx="4.33" ry="11.68" transform="translate(62.82 229.42) rotate(-38.33)"/><ellipse class="cls-1" cx="377.43" cy="24.35" rx="11.68" ry="4.33" transform="translate(124.23 305.3) rotate(-51.67)"/><ellipse class="cls-1" cx="361.38" cy="43.52" rx="11.68" ry="4.33" transform="translate(103.1 299.99) rotate(-51.67)"/><ellipse class="cls-1" cx="377.54" cy="43.52" rx="4.33" ry="11.68" transform="translate(54.41 243.56) rotate(-38.33)"/><circle class="cls-2" cx="366.08" cy="30.26" r="1.55"/><circle class="cls-2" cx="356.25" cy="17.82" r="1.55"/><circle class="cls-2" cx="362.7" cy="25.98" r="1.1"/><circle class="cls-2" cx="359.69" cy="22.18" r="1.1"/><circle class="cls-2" cx="382.35" cy="49.82" r="1.55"/><circle class="cls-2" cx="372.51" cy="37.39" r="1.55"/><circle class="cls-2" cx="378.97" cy="45.55" r="1.1"/><circle class="cls-2" cx="375.96" cy="41.75" r="1.1"/><circle class="cls-2" cx="366.56" cy="37.44" r="1.55"/><circle class="cls-2" cx="356.26" cy="49.5" r="1.55"/><circle class="cls-2" cx="363.02" cy="41.59" r="1.1"/><circle class="cls-2" cx="359.87" cy="45.27" r="1.1"/><circle class="cls-2" cx="373.03" cy="30" r="1.55"/><circle class="cls-2" cx="382.78" cy="17.5" r="1.55"/><circle class="cls-2" cx="376.38" cy="25.7" r="1.1"/><circle class="cls-2" cx="379.36" cy="21.88" r="1.1"/></g></g></svg>