<svg xmlns="http://www.w3.org/2000/svg" viewBox="0 0 414.03 736"><defs><style>.cls-1{fill:#a55625;}.cls-2{fill:#f9a148;}.cls-3{fill:#ca7d2e;}.cls-4{fill:#a55626;}.cls-5{fill:#aa5e2d;}.cls-6{fill:#fdc58d;}.cls-7{fill:#ffeede;}.cls-8{fill:#fffdfa;}.cls-9{fill:#fffdfb;}.cls-10{fill:#fff7ef;}.cls-11{fill:#fed8b2;}.cls-12{fill:#fcbb7c;}.cls-13{fill:#381811;}</style></defs><title>frame-2</title><g id="Layer_2" data-name="Layer 2"><g id="Layer_3" data-name="Layer 3"><path class="cls-1" d="M365.63,715.21c-3.15,2.9-3.53,6.08-1.09,9.2a7.67,7.67,0,0,0,9.91,1.74c2.65-1.72,2.67-4.71,0-6.42a8.2,8.2,0,0,0-4.74-1.15c-.32,0-.77.21-.43-.42,3.51-1.29,7.12-.84,10.7-.56a35.56,35.56,0,0,0,9.5-.19,14.13,14.13,0,0,0,5.77-2.21,7.46,7.46,0,0,0,3.36-6.35c.06-6.17-.36-12.35.29-18.5a12,12,0,0,1,4.14-8.07c7.17-6.41,11.4-14.27,10.93-24.17a24.44,24.44,0,0,0-2.87-10.64c-.4,2.21-.72,4.11-1.1,6a24.62,24.62,0,0,1-2,5.89,8.77,8.77,0,0,1-4,4.36c-.48.23-1.09.48-1,1.13s.67.82,1.16,1c1.09.54,2.21,1,3.31,1.56a2.08,2.08,0,0,1,1.22,2.71,10.62,10.62,0,0,1-2.53,4.76c.11-1,.2-1.5.22-2a4.32,4.32,0,0,0-3.39-4.76c-2-.44-3.81.58-4.78,2.76l-.31.66c-1,1.89,0,3.27,1.27,4.51.79.81,1.62,1.54,1.15,2.81s-1.66,1.66-2.91,1.85c-.52.08-1,.08-1.15-.56-.2-1.06-.68-2.19-.2-3.22a15.07,15.07,0,0,0,1.45-7,7.73,7.73,0,0,0-1.75-5.07,34.73,34.73,0,0,0-6.77-6.66c-.86-.68-1.23-.35-1.67.39a9.66,9.66,0,0,0-1.47,5c.08,5.33,1.82,9.92,6.15,13.3.39.31.83.53.72,1.14a15.05,15.05,0,0,1-1.14,4.5,28.65,28.65,0,0,0-7.25-5.28c2.09-2,3-4.23,1.53-6.89a4.72,4.72,0,0,0-4.78-2.41c-2.92.49-4.13,2.53-4.45,5.52-1-1.64-1.44-3.09-.91-4.7s2.2-2,3.43-3.55c-4.8-.19-8.06-2.27-9.81-6.8-1.72,5.84.91,13.36,5.55,16.44,3.3,2.19,6.86,4,9.82,6.7a45.66,45.66,0,0,1,5.58,5.8,14.57,14.57,0,0,1,3.23,9.51c-.08,3.35,0,6.71,0,10.07,0,4.63-2.33,7-7.33,7.42a32.32,32.32,0,0,0,3.28-4.69c3.21-5.84,1.69-14.65-3.36-19-3-2.61-6.51-2.85-10.16-1.65a2.53,2.53,0,0,0-1.81,3.17,2.56,2.56,0,0,0,5.07-.57c-.06-1.24.5-1.07,1.3-1,4,.49,6.17,5,6.71,8.65.63,4.31-1.05,7.89-4,10.91a7.75,7.75,0,0,1-4.84,2.34c-2.49.26-5,.56-7.46.85-.51.28-1-.12-1.54,0-.67.18-1.35.32-2,.54S365.94,714.46,365.63,715.21Z"/><path class="cls-1" d="M309.62,674.08c-.23-.36-.48-.71-.69-1.08-2.08-3.76-1.72-4.85,2.15-6.53.45-.2.9-.38,1.34-.6s1.12-.42,1.13-1.06-.61-.88-1.1-1.11a9.27,9.27,0,0,1-4.31-5.05,39.64,39.64,0,0,1-2.67-11.24,22.78,22.78,0,0,0-2.89,9.85c-.75,9.73,2.93,17.8,10,24.14a15.35,15.35,0,0,1,5.27,12.12c.06,5,.13,10,0,15-.07,3.58,1.64,5.91,4.66,7.43a21.15,21.15,0,0,0,10.17,1.85c3.18-.07,6.33-.6,9.52-.49a14.62,14.62,0,0,1,5,.82c.22.75-.38.5-.7.53a13.18,13.18,0,0,0-2.26.12c-2.84.82-4.39,2.37-4.28,4.28s2,3.59,4.77,4.06a7.51,7.51,0,0,0,8.73-6.76c.2-2.28-1.1-3.75-2.61-5.14a2,2,0,0,0-.93-.77,8,8,0,0,0-1.14-.47c-.57-.18-1.11-.4-1.69-.54s-1.18.31-1.76-.06c-2.42-.27-4.86-.48-7.27-.84-4.53-.69-8.58-5.6-8.91-10.54a13.76,13.76,0,0,1,2.47-8.62,6.5,6.5,0,0,1,4.56-2.74c.71-.15,1.11-.11,1.07.86a2.57,2.57,0,0,0,5.09.68c.33-1.64-.53-2.68-2-3.24a10,10,0,0,0-11.81,3.81c-4.7,6.84-4.36,14.22.94,20.59l.74.86a6.49,6.49,0,0,1-7.23-6.31c0-3.66.09-7.33,0-11a14.5,14.5,0,0,1,3.43-9.79,42.68,42.68,0,0,1,11.27-9.81c2-1.2,4.11-2.2,5.76-3.87,2.76-2.78,3.85-6.3,4.13-10.11.1-1.4,0-2.81,0-4.21a1.28,1.28,0,0,0-.21-.42,2,2,0,0,0-.45.4c-1.72,4-4.9,5.92-9.85,6.17,3.41,2.25,5.32,4.57,2.72,8.31-.11-3-1.38-5-4.28-5.59a4.81,4.81,0,0,0-4.92,2.47c-1.19,2.11-.73,4.22,1.55,6.83a27.92,27.92,0,0,0-7.24,5.33,19.82,19.82,0,0,1-1.08-4.27c-.2-1,.48-1.25,1.06-1.69,4.25-3.26,6.76-10.41,5.44-15.46-1-3.79-1.65-4-4.55-1.57a36.25,36.25,0,0,0-2.94,2.74c-4.38,4.62-4.89,7-2,13.93.73,1.75-.25,3.2-.15,4.8a.37.37,0,0,1-.53.33c-1.06-.46-2.31-.19-3.32-.9-1.72-1.2-1.88-3.11-.24-4.44a4.5,4.5,0,0,0,1.92-4.45,4.26,4.26,0,0,0-3.67-3.58c-1.94-.27-3.45.75-4.63,3.12C309.63,672.08,310.72,673.31,309.62,674.08Z"/><path class="cls-2" d="M355.72,692.19c2.47-1.65,2.47-1.65,5-.12,0-.71.08-1.35.08-2,0-13.69,0-27.38,0-41.07a51.72,51.72,0,0,1,3.31-17.55,10.21,10.21,0,0,1,6.35-6.59,30.89,30.89,0,0,0,11.95-8.61c3.45-3.78,4.66-8.5,4.72-13.53a8.33,8.33,0,0,0-.44-2.51c-.78-2.57-1.12-2.63-3-.72-2.06,2.1-4.13,4.19-7.19,5.21.9.81,2,.78,2.87,1.15,2,.84,2.51,1.71,2,3.84a6.56,6.56,0,0,1-7.06,5.1,2.89,2.89,0,0,1-2.77-3.46c.38-.1.54.18.75.4a3.52,3.52,0,0,0,4,1,2.65,2.65,0,0,0,1.75-2.75,4.19,4.19,0,0,0-2.43-4,4.81,4.81,0,0,0-4.41.21c-3.84,2.08-6.52,5.31-8.75,8.93-1.49,2.42-2.78,5-4.26,7.65-1-1.91-2-3.66-2.88-5.42a32.77,32.77,0,0,0-6.47-8.6,12.41,12.41,0,0,0-4.4-2.9,4.32,4.32,0,0,0-5.89,3,3,3,0,0,0,1.12,3.59,3.36,3.36,0,0,0,3.79-.11c.52-.3.74-1,1.42-1.07a2.84,2.84,0,0,1-2.51,3.47c-3.67.72-7.65-2.71-7.51-6.46a2.13,2.13,0,0,1,1.45-2.12c1.13-.43,2.29-.81,3.74-1.31a23.27,23.27,0,0,1-8.48-6.61c-.56-.63-.83-.07-1.09.33a7.39,7.39,0,0,0-1.16,4.18c.11,5.78,1.75,10.91,6.14,15a35.89,35.89,0,0,0,11.56,7.6,7.8,7.8,0,0,1,4.32,4c2.36,4.66,3.21,9.71,4,14.79a42.63,42.63,0,0,1,.36,6.58q0,19.62,0,39.24Z"/><path class="cls-3" d="M349.22,631.05a33.1,33.1,0,0,1-15.57-7.74,40.2,40.2,0,0,1-10-13.78c-.26.14-.41.17-.46.26-5.26,9.36-10.74,18.62-14.51,28.73A29.75,29.75,0,0,0,307,650.76a11.85,11.85,0,0,0,3.34,7.75c2.8,2.87,6.27,4.08,10.19,2.79,4.11-1.36,6.07-4.57,6.5-8.71a12.46,12.46,0,0,0-2.68-8.92,5.88,5.88,0,0,0-6.84-2.16,3.7,3.7,0,0,0-2.72,4.67c.57,2.32,2,3.23,4.49,3,.77-.07,2-1.31,2.34.45s-1.14,1.83-2.24,2.08c-2.84.63-5.09-1-5.84-4.14a15.86,15.86,0,0,1,.44-7.25c1.21-5.43,3.3-10.36,8.24-13.54,3-1.92,5.67-1.57,8,1.12,1.11,1.3,2.11,2.69,3.24,4a6.86,6.86,0,0,0,6.07,2.35,28.08,28.08,0,0,0,7.14-1.53A4.85,4.85,0,0,0,349.22,631.05Z"/><path class="cls-3" d="M393,609.32c-5.23,11.17-13.21,18.93-25.48,21.74.17.86,1,1,1.57,1.29a24.08,24.08,0,0,0,8.9,1.91,6.5,6.5,0,0,0,5.16-2.37c1.13-1.27,2.13-2.67,3.24-4,2.31-2.7,5-3,8-1.12,5.06,3.27,7.09,8.35,8.33,13.9a17.74,17.74,0,0,1,.43,6.37c-.53,3.78-3.52,5.66-6.83,4.41-1-.38-1.61-1-1.3-2.05s1.18-.46,1.81-.34c2.82.52,4.45-.48,5-3.13.49-2.24-.77-4-3.34-4.6a5.52,5.52,0,0,0-6,2.08c-2.91,3.78-3.93,8-2.05,12.56,2.78,6.72,11.58,7.81,16.26,2.07,2.78-3.4,3.29-7.37,2.89-11.58A40.41,40.41,0,0,0,405.6,633c-3.7-7.78-7.78-15.36-12.06-22.83A9.75,9.75,0,0,0,393,609.32Z"/><path class="cls-2" d="M382,586.86c-1,.32-1,1.07-1.34,1.63-.78,1.45-1.47,3-2.31,4.36a9.28,9.28,0,0,1-1.74,2.11c-1,.88-2.51,1.87-3.36.88s.83-1.92,1.67-2.62c1.73-1.43,3.34-2.88,3.55-5.31.31-3.77-1.07-6.14-4.51-7.77-.47-.23-1.23-.21-1.29-.87s.7-.68,1.18-.87a1.84,1.84,0,0,0,1.25-2.18,1.76,1.76,0,0,0-1.6-1.53,1.91,1.91,0,0,0-2.2,1.25c-.37,1-.59,2-.93,3a7.54,7.54,0,0,1-1.86,3.12,1.59,1.59,0,0,1-1.85.42c-.72-.37-.15-1-.06-1.45a18.16,18.16,0,0,0,.2-5.1,2.89,2.89,0,0,1,2.11-3.4c1.23-.42,2.27-1.08,2-2.61-.18-1.21-1.83-2.12-3.35-1.93a3.83,3.83,0,0,0-2.87,1.76c-2.59,4.06-4.56,8.35-4.75,13.28a9,9,0,0,0,1.8,6c1.62,2.15,3.2,4.32,4.81,6.47a9.17,9.17,0,0,1,2.2,5.51c0,1.54,1,2,2.2,1.58a57.93,57.93,0,0,0,7.06-2.49c2.19-1,3.31-3,3.89-5.28A16.6,16.6,0,0,0,382,586.86Z"/><path class="cls-2" d="M334.82,586.56c-2.58,6.26.48,12.88,6.38,14.61,1.28.38,2.52.93,3.81,1.3,1.91.56,2.57.08,2.7-1.9a9,9,0,0,1,2-4.84c1.39-1.86,2.71-3.77,4.19-5.55,2.77-3.32,3.17-7,2.1-11a28.92,28.92,0,0,0-4.28-9.46,3.66,3.66,0,0,0-4.5-1.5,2.28,2.28,0,0,0-1.71,1.94,1.91,1.91,0,0,0,1.46,2.09c2.47.71,3,2.35,2.63,4.65a11.93,11.93,0,0,0,.37,4.36c.09.39.46.83,0,1.17a1.38,1.38,0,0,1-1.4,0,4.06,4.06,0,0,1-1.7-1.87,21.57,21.57,0,0,1-1.56-4.29,2,2,0,0,0-2.18-1.56,1.72,1.72,0,0,0-1.72,1.6,1.81,1.81,0,0,0,1.47,2.18c.42.11.92.16,1,.68.06.68-.58.68-1,.84a7.28,7.28,0,0,0-1.65,12.92,7.21,7.21,0,0,1,1.37,1.22c.45.51,1.29,1.14.74,1.8s-1.4.24-2.07-.06a8.42,8.42,0,0,1-3.68-4C336.65,590.25,335.84,588.56,334.82,586.56Z"/><path class="cls-2" d="M359.74,617.65c1.06-2.2,2.08-4.42,3.2-6.59a6.06,6.06,0,0,1,2.54-3c1.33-.63,1.36-1.54,1-2.71-1.58-5-4.49-9.32-7.53-13.54-.5-.7-.94-.62-1.41,0-3,4.16-5.86,8.43-7.48,13.37-.39,1.18-.39,2.16,1,2.89,1.64.85,2.33,2.62,3.14,4.18,1,1.83,1.78,3.73,2.85,5.58A164.2,164.2,0,0,1,358,599a1.23,1.23,0,0,0,.31-.77c0-.54,0-1.09,0-1.63a1.1,1.1,0,0,0-.22-.78c.38.42.16,1,.22,1.49a12.73,12.73,0,0,0,0,1.38c.19.44.05,1,.28,1.39a122.39,122.39,0,0,1,.72,16.46C359.31,617,358.84,617.55,359.74,617.65Z"/><path class="cls-3" d="M324.46,639.33c1.58,1.26,2.81,2.23,4,3.22,5.27,4.22,7.23,9.76,6.49,16.36-.08.73-.18,1.46-.2,2.19,0,.58-.17,1.34.51,1.62s1.25-.33,1.67-.83A16,16,0,0,0,340.6,654c.3-1.85.92-2.59,2.83-3.12,4.16-1.16,7.1-4.12,9.34-7.76.27-.44.74-1.07.32-1.5s-1.12.08-1.59.38c-4.16,2.66-8.49,3.56-12.89.78a20.61,20.61,0,0,0-8.22-3.31A29.86,29.86,0,0,0,324.46,639.33Z"/><path class="cls-3" d="M392.07,639.32c-4.86-.24-9.18.1-12.89,2.71-4.56,3.2-9,3.1-13.68.3-.63-.37-1.37-1.37-2-.69s.18,1.48.61,2.09c2.62,3.66,5.73,6.69,10.37,7.53.87.16,1,.51,1.15,1.27a19.06,19.06,0,0,0,3.69,9.05c.47.6,1,1.49,1.9,1.14s.64-1.38.54-2.12a22.83,22.83,0,0,1-.21-6.75,17,17,0,0,1,6.61-11.41C389.34,641.53,390.51,640.56,392.07,639.32Z"/><path class="cls-2" d="M358.26,575.89c1.46-4.1,3.62-7.28,5.36-10.69a7.86,7.86,0,0,0,.34-6.87,74.88,74.88,0,0,0-5-10c-.44-.78-.8-1-1.35-.07a77.39,77.39,0,0,0-5.14,10.31,7.59,7.59,0,0,0,.4,6.51C354.58,568.55,356.76,571.74,358.26,575.89Z"/><path class="cls-4" d="M367.93,683.31c-3.62,1.68-3.59,4.69-2.91,7.93.14,0,.34,0,.35,0,1-3.61,3.9-4.83,7.15-5.35a22.22,22.22,0,0,1,13.78,2.59c.51.26.93.84,1.78.55a20.8,20.8,0,0,0-8.49-5.59,32.19,32.19,0,0,1-6.77-3.18c-4.65-3-8.13-6.79-9-12.7C361.09,673.32,362.57,678.9,367.93,683.31Z"/><path class="cls-4" d="M330.77,688.07c4.28-1.81,8.68-3,13.36-2.18,3.24.59,6.16,1.77,7,5.52,1.69-2.85.65-6.23-2.64-8.18a10,10,0,0,0,5.15-6.89,18,18,0,0,0-.83-9.07c-1.81,9.22-8.2,13.29-15.82,16.12a18.42,18.42,0,0,0-7,4.22C330,688.27,330.26,688.34,330.77,688.07Z"/><path class="cls-5" d="M330.77,688.07a.81.81,0,0,1-.77-.46l-2,1.56A4.11,4.11,0,0,0,330.77,688.07Z"/><path class="cls-6" d="M359.74,617.65c-.46-.26-.25-.76-.4-1.13a1.6,1.6,0,0,0-.31,1.17c0,.23,0,.54.33.47C359.51,618.13,359.61,617.83,359.74,617.65Z"/><path class="cls-7" d="M358.62,600.06l0-1.45c-.15-.23-.23-.57-.63-.35V599Z"/><path class="cls-8" d="M344.52,619.26a27.51,27.51,0,0,1,10.73,7.61c.61-.29.42-.6.31-.85a33.69,33.69,0,0,0-5.45-8.86c-.34-.38-.71-1-1.32-.39C347.69,617.87,346.23,618.37,344.52,619.26Z"/><path class="cls-9" d="M360.84,626.93a31.81,31.81,0,0,1,11.09-7.67,23.75,23.75,0,0,1-4.35-2.56c-.66-.6-1.05.31-1.39.71A28.94,28.94,0,0,0,360.84,626.93Z"/><path class="cls-10" d="M369,590.3c1.74.29,3,.5,3.84-.66,1-1.37.36-2.76-.39-4.52A11.9,11.9,0,0,1,369,590.3Z"/><path class="cls-10" d="M347.4,590.31a11.63,11.63,0,0,1-3.22-5.16c-.9,1.62-1.4,3-.57,4.38S345.77,590.61,347.4,590.31Z"/><path class="cls-11" d="M358,598.26l.63.35c0-.49,0-1,0-1.45-.28-.17.1-.94-.64-.7Z"/><path class="cls-12" d="M358,596.46c.22.23.43.46.64.7a6.14,6.14,0,0,0,0-1c-.05-.24-.14-.66-.51-.45C358,595.74,358,596.18,358,596.46Z"/><path class="cls-13" d="M355.69,729c0-2.2,0-5.41,0-10.18,0-3.6,0-3.6-3.56-3.77-.48-.27-1-.08-1.49-.09a12.54,12.54,0,0,0-1.44-.44l-1.63-.6c-.38-.15-.8-.21-1-.62-5.19-2.59-8.15-6.89-9.36-12.52-.47-2.21-.33-2.41,1.83-2.33a30.43,30.43,0,0,1,12.34,3.12c1.41.68,2.08,1,2.42-1.06a13.54,13.54,0,0,1,3.41-6.85c.8-.91,1.34-.93,2.17,0,2.21,2.47,3.22,5.46,3.9,8.78l1.88-.87a33.7,33.7,0,0,1,12.71-3.15c1.56-.07,1.88.52,1.6,1.94-1.15,5.8-4.09,10.23-9.39,12.93-.22.44-.67.5-1.06.66a8.56,8.56,0,0,0-1.7.59,24.87,24.87,0,0,1-2.84.52c-.3,0-.61,0-.91,0-2.69.22-2.69.22-2.69,2.95v11h0"/><line class="cls-13" x1="355.82" y1="728.56" x2="360.84" y2="728.59"/><rect class="cls-13" y="727.98" width="414" height="8.02"/><path class="cls-1" d="M48.4,20.79c3.15-2.9,3.53-6.08,1.09-9.2a7.67,7.67,0,0,0-9.91-1.74c-2.66,1.72-2.67,4.71,0,6.42a8.2,8.2,0,0,0,4.74,1.15c.32,0,.77-.21.43.42-3.51,1.29-7.12.84-10.7.56a35.56,35.56,0,0,0-9.5.19,14.13,14.13,0,0,0-5.77,2.21,7.46,7.46,0,0,0-3.36,6.35c-.06,6.17.36,12.35-.29,18.5A12,12,0,0,1,11,53.72C3.79,60.13-.43,68,0,77.89A24.46,24.46,0,0,0,2.91,88.53c.4-2.21.71-4.11,1.1-6a24.18,24.18,0,0,1,2-5.89,8.73,8.73,0,0,1,4-4.36c.48-.23,1.09-.48,1.05-1.13s-.67-.82-1.16-1c-1.1-.54-2.21-1-3.31-1.56a2.08,2.08,0,0,1-1.22-2.71,10.62,10.62,0,0,1,2.53-4.76c-.12,1-.2,1.5-.22,2a4.32,4.32,0,0,0,3.38,4.76c2,.44,3.82-.58,4.79-2.76.1-.22.2-.44.31-.66,1-1.89,0-3.27-1.27-4.51-.79-.81-1.62-1.54-1.15-2.81s1.66-1.66,2.91-1.85c.51-.08,1-.08,1.14.56C18,56.88,18.47,58,18,59a15.19,15.19,0,0,0-1.44,7,7.73,7.73,0,0,0,1.75,5.07,34.73,34.73,0,0,0,6.77,6.66c.86.68,1.22.35,1.67-.39a9.56,9.56,0,0,0,1.46-5c-.07-5.33-1.82-9.92-6.14-13.3-.4-.31-.84-.53-.72-1.14a15.05,15.05,0,0,1,1.14-4.5,28.47,28.47,0,0,0,7.25,5.28c-2.1,2-3,4.23-1.53,6.89A4.72,4.72,0,0,0,33,68c2.92-.49,4.13-2.53,4.45-5.52,1,1.64,1.44,3.09.9,4.7s-2.19,2-3.43,3.55c4.81.19,8.07,2.27,9.82,6.8,1.72-5.84-.91-13.36-5.55-16.44-3.3-2.19-6.86-4-9.82-6.7a45.66,45.66,0,0,1-5.58-5.8,14.63,14.63,0,0,1-3.24-9.51c.08-3.35,0-6.71,0-10.07,0-4.63,2.33-7,7.33-7.42a33.2,33.2,0,0,0-3.29,4.69c-3.2,5.84-1.68,14.65,3.37,19,3,2.61,6.51,2.85,10.16,1.65a2.53,2.53,0,0,0,1.81-3.17,2.56,2.56,0,0,0-5.07.57c.06,1.24-.5,1.07-1.3,1-4-.49-6.18-5-6.71-8.65-.63-4.31,1-7.89,4-10.91a7.75,7.75,0,0,1,4.84-2.34c2.49-.26,5-.56,7.46-.85.51-.28,1,.12,1.54,0,.67-.18,1.35-.32,2-.54S48.09,21.54,48.4,20.79Z"/><path class="cls-1" d="M104.41,61.92c.23.36.48.71.69,1.08,2.08,3.76,1.72,4.85-2.15,6.53-.45.2-.9.38-1.34.6s-1.12.42-1.13,1.06.61.88,1.1,1.11a9.21,9.21,0,0,1,4.3,5,39.31,39.31,0,0,1,2.68,11.24,22.78,22.78,0,0,0,2.89-9.85c.75-9.73-2.93-17.8-10-24.14a15.32,15.32,0,0,1-5.27-12.12c-.06-5-.13-10,0-15,.07-3.58-1.64-5.91-4.66-7.43A21.17,21.17,0,0,0,81.3,18.17c-3.18.07-6.33.6-9.52.49a14.54,14.54,0,0,1-5-.82c-.22-.75.38-.5.7-.53a13.18,13.18,0,0,0,2.26-.12c2.84-.82,4.39-2.37,4.28-4.28s-2-3.59-4.77-4.06a7.51,7.51,0,0,0-8.73,6.76c-.2,2.28,1.09,3.75,2.61,5.14a2,2,0,0,0,.93.77,8,8,0,0,0,1.14.47c.56.18,1.11.4,1.68.54s1.19-.31,1.77.06c2.42.27,4.86.48,7.27.84,4.52.69,8.58,5.6,8.91,10.54a13.82,13.82,0,0,1-2.47,8.62,6.5,6.5,0,0,1-4.56,2.74c-.71.15-1.11.11-1.07-.86a2.42,2.42,0,0,0-2.49-2.78,2.39,2.39,0,0,0-2.6,2.1c-.34,1.64.53,2.68,2,3.24a10,10,0,0,0,11.81-3.81c4.7-6.84,4.36-14.22-.94-20.59l-.74-.86A6.49,6.49,0,0,1,91,28.08c0,3.66-.09,7.33,0,11a14.45,14.45,0,0,1-3.44,9.79,42.48,42.48,0,0,1-11.26,9.81c-2,1.2-4.11,2.2-5.76,3.87-2.76,2.78-3.85,6.3-4.13,10.11-.1,1.4,0,2.81,0,4.21a1.28,1.28,0,0,0,.21.42,2,2,0,0,0,.45-.4c1.72-4,4.9-5.92,9.85-6.17-3.41-2.25-5.32-4.57-2.72-8.31.11,3,1.38,5,4.28,5.59a4.81,4.81,0,0,0,4.92-2.47c1.19-2.11.73-4.22-1.55-6.83a27.92,27.92,0,0,0,7.24-5.33,19.82,19.82,0,0,1,1.08,4.27c.2.95-.48,1.25-1.06,1.69-4.25,3.26-6.76,10.41-5.44,15.46,1,3.79,1.65,4,4.55,1.57a38,38,0,0,0,2.94-2.74c4.38-4.62,4.89-7,2-13.93-.73-1.75.25-3.2.15-4.8a.37.37,0,0,1,.53-.33c1.06.46,2.31.19,3.32.9,1.72,1.2,1.88,3.11.24,4.44a4.48,4.48,0,0,0-1.92,4.45,4.26,4.26,0,0,0,3.67,3.58c1.94.27,3.45-.75,4.62-3.12C104.4,63.92,103.31,62.69,104.41,61.92Z"/><path class="cls-2" d="M58.31,43.81c-2.47,1.65-2.47,1.65-5,.12,0,.71-.09,1.35-.09,2,0,13.69,0,27.38,0,41.07a51.73,51.73,0,0,1-3.32,17.55,10.17,10.17,0,0,1-6.34,6.59,30.89,30.89,0,0,0-12,8.61c-3.46,3.78-4.67,8.5-4.72,13.53a8.64,8.64,0,0,0,.43,2.51c.78,2.57,1.13,2.63,3,.72,2.06-2.1,4.12-4.19,7.19-5.21-.9-.81-2-.78-2.87-1.15-2-.84-2.51-1.71-2-3.84a6.55,6.55,0,0,1,7.06-5.1,2.88,2.88,0,0,1,2.76,3.46c-.37.1-.54-.18-.74-.4a3.52,3.52,0,0,0-4-1A2.65,2.65,0,0,0,36,126a4.19,4.19,0,0,0,2.43,4,4.81,4.81,0,0,0,4.41-.21c3.83-2.08,6.52-5.31,8.75-8.93,1.49-2.42,2.78-5,4.26-7.65,1,1.91,2,3.66,2.88,5.42a32.74,32.74,0,0,0,6.46,8.6,12.54,12.54,0,0,0,4.41,2.9,4.32,4.32,0,0,0,5.89-3,3,3,0,0,0-1.12-3.59,3.38,3.38,0,0,0-3.8.11c-.51.3-.73,1-1.41,1.07a2.84,2.84,0,0,1,2.51-3.47c3.67-.72,7.65,2.71,7.51,6.46a2.15,2.15,0,0,1-1.45,2.12c-1.13.43-2.29.81-3.75,1.31a23.23,23.23,0,0,1,8.49,6.61c.56.63.83.07,1.09-.33a7.39,7.39,0,0,0,1.16-4.18c-.11-5.78-1.76-10.91-6.14-15A35.93,35.93,0,0,0,67,110.65a7.86,7.86,0,0,1-4.32-4c-2.36-4.66-3.2-9.71-4-14.79a42.63,42.63,0,0,1-.36-6.58q0-19.62,0-39.24Z"/><path class="cls-3" d="M64.81,105a33.1,33.1,0,0,1,15.57,7.74,40.2,40.2,0,0,1,10,13.78c.26-.14.41-.17.46-.26,5.26-9.36,10.73-18.62,14.5-28.73A29.59,29.59,0,0,0,107,85.24a11.9,11.9,0,0,0-3.34-7.75c-2.8-2.87-6.27-4.08-10.19-2.79-4.12,1.36-6.07,4.57-6.5,8.71a12.46,12.46,0,0,0,2.68,8.92,5.88,5.88,0,0,0,6.84,2.16,3.7,3.7,0,0,0,2.72-4.67c-.57-2.32-2-3.23-4.49-3-.77.07-2,1.31-2.34-.45s1.14-1.83,2.24-2.08c2.84-.63,5.09,1,5.84,4.14a16,16,0,0,1-.44,7.25c-1.22,5.43-3.3,10.36-8.25,13.54-3,1.92-5.66,1.57-8-1.12-1.11-1.3-2.11-2.69-3.24-4a6.87,6.87,0,0,0-6.07-2.35,28.08,28.08,0,0,0-7.14,1.53A4.85,4.85,0,0,0,64.81,105Z"/><path class="cls-3" d="M21.08,126.68c5.22-11.17,13.2-18.93,25.48-21.74-.17-.86-1-1-1.57-1.29a24.08,24.08,0,0,0-8.9-1.91,6.5,6.5,0,0,0-5.16,2.37c-1.13,1.27-2.13,2.67-3.24,4-2.31,2.7-5,3-8,1.12-5.06-3.27-7.1-8.35-8.33-13.9A17.74,17.74,0,0,1,11,88.93c.54-3.78,3.53-5.66,6.84-4.41,1,.38,1.61,1,1.3,2s-1.18.46-1.81.34c-2.82-.52-4.45.48-5,3.13-.49,2.24.77,4,3.33,4.6a5.53,5.53,0,0,0,6.05-2.08c2.91-3.78,3.93-8,2.05-12.56-2.78-6.72-11.58-7.81-16.26-2.07-2.78,3.4-3.29,7.37-2.89,11.58A40.41,40.41,0,0,0,8.43,103c3.7,7.78,7.78,15.36,12.05,22.83C20.63,126.08,20.82,126.31,21.08,126.68Z"/><path class="cls-2" d="M32,149.14c1-.32,1-1.07,1.34-1.63.78-1.45,1.47-2.95,2.31-4.36A9.28,9.28,0,0,1,37.4,141c1-.88,2.51-1.87,3.36-.88s-.83,1.92-1.67,2.62c-1.73,1.43-3.35,2.88-3.55,5.31-.31,3.77,1.07,6.14,4.51,7.77.47.23,1.23.21,1.29.87s-.7.68-1.18.87a1.84,1.84,0,0,0-1.25,2.18,1.75,1.75,0,0,0,1.6,1.53,1.91,1.91,0,0,0,2.2-1.25c.37-1,.59-2,.93-3A7.54,7.54,0,0,1,45.5,154a1.59,1.59,0,0,1,1.85-.42c.72.37.14,1,.06,1.45a18.16,18.16,0,0,0-.2,5.1,2.89,2.89,0,0,1-2.11,3.4c-1.23.42-2.27,1.08-2,2.61.17,1.21,1.83,2.12,3.35,1.93a3.83,3.83,0,0,0,2.87-1.76c2.59-4.06,4.56-8.35,4.75-13.28a9.14,9.14,0,0,0-1.8-6c-1.62-2.15-3.2-4.32-4.81-6.47a9.17,9.17,0,0,1-2.2-5.51c0-1.54-1-2-2.2-1.58A57.93,57.93,0,0,0,36,135.93c-2.19,1-3.31,3-3.9,5.28A16.73,16.73,0,0,0,32,149.14Z"/><path class="cls-2" d="M79.2,149.44c2.59-6.26-.47-12.88-6.37-14.61-1.28-.38-2.52-.93-3.81-1.3-1.91-.56-2.57-.08-2.7,1.9a9,9,0,0,1-2,4.84c-1.39,1.86-2.71,3.77-4.19,5.55-2.77,3.32-3.17,7-2.1,11a28.71,28.71,0,0,0,4.28,9.46,3.65,3.65,0,0,0,4.5,1.5,2.28,2.28,0,0,0,1.71-1.94,1.91,1.91,0,0,0-1.46-2.09c-2.48-.71-3-2.35-2.63-4.65a11.72,11.72,0,0,0-.38-4.36c-.08-.39-.45-.83,0-1.17a1.38,1.38,0,0,1,1.4,0,4,4,0,0,1,1.69,1.87,21,21,0,0,1,1.57,4.29,2,2,0,0,0,2.18,1.56,1.72,1.72,0,0,0,1.72-1.6,1.81,1.81,0,0,0-1.48-2.18c-.41-.11-.92-.16-1-.68-.06-.68.58-.68,1-.84a7.28,7.28,0,0,0,1.65-12.92,6.92,6.92,0,0,1-1.37-1.22c-.45-.51-1.29-1.14-.75-1.8s1.41-.24,2.08.06a8.42,8.42,0,0,1,3.68,4C77.38,145.75,78.19,147.44,79.2,149.44Z"/><path class="cls-2" d="M54.29,118.35c-1.06,2.2-2.08,4.42-3.2,6.59a6.06,6.06,0,0,1-2.54,3c-1.33.63-1.37,1.54-1,2.71,1.58,5,4.49,9.32,7.53,13.54.5.7.94.62,1.41,0,3-4.16,5.86-8.43,7.48-13.37.38-1.18.39-2.16-1-2.89-1.65-.85-2.33-2.62-3.15-4.18-1-1.83-1.77-3.73-2.84-5.58a164.2,164.2,0,0,1-.9,18.83,1.17,1.17,0,0,0-.31.77c0,.54,0,1.09,0,1.63,0,.3,0,.6.21.78-.37-.42-.15-1-.22-1.49a10.6,10.6,0,0,0,0-1.38c-.19-.44,0-1-.29-1.39a122.38,122.38,0,0,1-.71-16.46C54.72,119,55.19,118.45,54.29,118.35Z"/><path class="cls-3" d="M89.57,96.67l-4-3.22c-5.26-4.22-7.22-9.76-6.48-16.36.08-.73.18-1.46.2-2.19s.17-1.34-.51-1.62-1.25.33-1.67.83A16,16,0,0,0,73.43,82c-.3,1.85-.93,2.59-2.83,3.12-4.16,1.16-7.11,4.12-9.34,7.76-.28.44-.74,1.07-.32,1.5s1.11-.08,1.59-.38c4.16-2.66,8.48-3.56,12.88-.78a20.71,20.71,0,0,0,8.23,3.31A29.83,29.83,0,0,0,89.57,96.67Z"/><path class="cls-3" d="M22,96.68c4.86.24,9.18-.1,12.89-2.71,4.56-3.2,9-3.1,13.68-.3.63.37,1.37,1.37,2,.69s-.18-1.48-.61-2.09c-2.62-3.66-5.73-6.69-10.37-7.53-.87-.16-1-.51-1.15-1.27a19.07,19.07,0,0,0-3.7-9c-.47-.6-1-1.49-1.89-1.14s-.64,1.38-.54,2.12a23.17,23.17,0,0,1,.21,6.75A17,17,0,0,1,25.9,93.56C24.69,94.47,23.52,95.44,22,96.68Z"/><path class="cls-2" d="M55.77,160.11c-1.46,4.1-3.62,7.28-5.37,10.69a7.89,7.89,0,0,0-.33,6.87,74.82,74.82,0,0,0,5,10c.45.78.81,1,1.36.07a78.62,78.62,0,0,0,5.14-10.31,7.59,7.59,0,0,0-.4-6.51C59.45,167.45,57.27,164.26,55.77,160.11Z"/><path class="cls-4" d="M46.1,52.69C49.72,51,49.69,48,49,44.76c-.14,0-.34,0-.35,0-1,3.61-3.9,4.83-7.15,5.35a22.22,22.22,0,0,1-13.78-2.59c-.51-.26-.93-.84-1.78-.55a20.73,20.73,0,0,0,8.49,5.59,32.19,32.19,0,0,1,6.77,3.18c4.65,3,8.13,6.79,9,12.7C52.94,62.68,51.46,57.1,46.1,52.69Z"/><path class="cls-4" d="M83.25,47.93C79,49.74,74.58,51,69.9,50.11c-3.24-.59-6.16-1.77-7-5.52-1.69,2.85-.66,6.23,2.64,8.18a10,10,0,0,0-5.15,6.89,18.08,18.08,0,0,0,.82,9.07C63,59.51,69.43,55.44,77,52.61a18.38,18.38,0,0,0,7-4.22C84.08,47.73,83.77,47.66,83.25,47.93Z"/><path class="cls-5" d="M83.25,47.93a.81.81,0,0,1,.78.46l2-1.56A4.13,4.13,0,0,0,83.25,47.93Z"/><path class="cls-6" d="M54.29,118.35c.46.26.25.76.4,1.13a1.55,1.55,0,0,0,.3-1.17c0-.23,0-.54-.32-.47S54.41,118.17,54.29,118.35Z"/><path class="cls-7" d="M55.4,135.94l0,1.45c.15.23.23.57.63.35V137Z"/><path class="cls-8" d="M69.51,116.74a27.51,27.51,0,0,1-10.73-7.61c-.61.29-.43.6-.32.85a33.72,33.72,0,0,0,5.46,8.86c.34.38.71,1,1.32.39C66.34,118.13,67.8,117.63,69.51,116.74Z"/><path class="cls-9" d="M53.19,109.07a31.9,31.9,0,0,1-11.09,7.67,23.75,23.75,0,0,1,4.35,2.56c.66.6,1-.31,1.39-.71A28.94,28.94,0,0,0,53.19,109.07Z"/><path class="cls-10" d="M45,145.7c-1.74-.29-3-.5-3.85.66-1,1.37-.35,2.76.4,4.52A11.9,11.9,0,0,1,45,145.7Z"/><path class="cls-10" d="M66.63,145.69a11.72,11.72,0,0,1,3.22,5.16c.9-1.62,1.4-3,.57-4.38S68.26,145.39,66.63,145.69Z"/><path class="cls-11" d="M56.06,137.74l-.63-.35c0,.49,0,1,0,1.45.28.17-.1.94.63.7Z"/><path class="cls-12" d="M56.05,139.54l-.63-.7a6.14,6.14,0,0,0,0,1c0,.24.14.66.51.45C56.07,140.26,56,139.82,56.05,139.54Z"/><path class="cls-13" d="M58.34,7c0,2.2,0,5.41,0,10.18,0,3.6,0,3.6,3.56,3.77.48.27,1,.08,1.49.09a12,12,0,0,0,1.44.44l1.63.6c.37.15.8.21,1,.62,5.2,2.59,8.16,6.89,9.37,12.52.47,2.21.33,2.41-1.83,2.33a30.43,30.43,0,0,1-12.34-3.12c-1.41-.68-2.09-1-2.42,1.06a13.7,13.7,0,0,1-3.41,6.85c-.8.91-1.34.93-2.17,0-2.21-2.47-3.22-5.46-3.9-8.78l-1.88.87A33.79,33.79,0,0,1,36.2,37.59c-1.56.07-1.88-.52-1.6-1.94,1.15-5.8,4.09-10.23,9.39-12.93.22-.44.67-.5,1.06-.66a8.56,8.56,0,0,0,1.7-.59A24.87,24.87,0,0,1,49.59,21c.3,0,.61,0,.91,0,2.69-.22,2.68-.22,2.68-3,0-5.32,0-8.66,0-10.8V7h0"/><line class="cls-13" x1="58.2" y1="7.44" x2="53.19" y2="7.41"/><rect class="cls-13" x="0.03" width="414" height="8.02" transform="translate(414.06 8.02) rotate(180)"/></g></g></svg>