<svg xmlns="http://www.w3.org/2000/svg" viewBox="0 0 157.04 61.52"><defs><style>.cls-1{font-size:12px;fill:#231f20;font-family:MyriadPro-Regular, Myriad Pro;}.cls-2{letter-spacing:0.01em;}.cls-3{letter-spacing:-0.01em;}.cls-4{letter-spacing:-0.01em;}.cls-5{letter-spacing:-0.01em;}.cls-6{letter-spacing:0.41em;}.cls-7{letter-spacing:0.3em;}.cls-8{letter-spacing:-0.03em;}.cls-9{letter-spacing:-0.01em;}.cls-10{letter-spacing:0em;}.cls-11{letter-spacing:-0.01em;}.cls-12{letter-spacing:-0.01em;}.cls-13{letter-spacing:0.09em;}.cls-14{letter-spacing:0.01em;}.cls-15{letter-spacing:0.09em;}.cls-16{letter-spacing:0em;}.cls-17{letter-spacing:0em;}</style></defs><title>SP-1</title><g id="Layer_2" data-name="Layer 2"><g id="STEP_1" data-name="STEP 1"><text class="cls-1" transform="translate(0 10.04)"><tspan class="cls-2">I</tspan><tspan x="2.99" y="0">n</tspan><tspan class="cls-3" x="9.65" y="0">f</tspan><tspan x="13" y="0">o</tspan><tspan class="cls-4" x="19.58" y="0">g</tspan><tspan class="cls-5" x="26.22" y="0">r</tspan><tspan x="30.08" y="0">afik</tspan><tspan class="cls-6" x="47.77" y="0"> </tspan><tspan x="55.18" y="0">mengenai</tspan><tspan class="cls-7" x="105.84" y="0"> </tspan><tspan class="cls-8" x="111.99" y="0">W</tspan><tspan class="cls-9" x="121.75" y="0">a</tspan><tspan class="cls-10" x="127.43" y="0">y</tspan><tspan x="133.04" y="0">an</tspan><tspan class="cls-11" x="145.48" y="0">g</tspan><tspan x="152.01" y="0">, </tspan><tspan x="0" y="14.4">Bud</tspan><tspan class="cls-12" x="19.88" y="14.4">a</tspan><tspan class="cls-10" x="25.57" y="14.4">y</tspan><tspan x="31.18" y="14.4">a</tspan><tspan class="cls-13" x="36.96" y="14.4"> </tspan><tspan x="40.57" y="14.4">dan</tspan><tspan class="cls-13" x="59.78" y="14.4"> </tspan><tspan class="cls-14" x="63.38" y="14.4">R</tspan><tspan x="69.98" y="14.4">agam</tspan><tspan class="cls-15" x="98.27" y="14.4"> </tspan><tspan x="101.87" y="14.4">t</tspan><tspan class="cls-16" x="105.85" y="14.4">r</tspan><tspan x="109.71" y="14.4">adisional </tspan><tspan x="0" y="28.8">da</tspan><tspan class="cls-17" x="12.55" y="28.8">r</tspan><tspan x="16.52" y="28.8">i be</tspan><tspan class="cls-17" x="34.71" y="28.8">r</tspan><tspan x="38.69" y="28.8">bagai dae</tspan><tspan class="cls-16" x="87.71" y="28.8">r</tspan><tspan x="91.57" y="28.8">ah.</tspan></text></g></g></svg>