<svg xmlns="http://www.w3.org/2000/svg" viewBox="0 0 309.65 117.4"><defs><style>.cls-1{font-size:12px;fill:#231f20;font-family:MyriadPro-Regular, Myriad Pro;}.cls-2{letter-spacing:-0.01em;}.cls-3{letter-spacing:1.06em;}.cls-4{letter-spacing:1.06em;}.cls-5{letter-spacing:0em;}.cls-6{letter-spacing:1.05em;}.cls-7{letter-spacing:0.01em;}.cls-8{letter-spacing:0em;}.cls-9{letter-spacing:0.55em;}.cls-10{letter-spacing:-0.01em;}.cls-11{letter-spacing:-0.01em;}.cls-12{letter-spacing:0.02em;}.cls-13,.cls-14,.cls-28,.cls-29{fill:none;stroke-miterlimit:10;}.cls-13,.cls-14{stroke:#000;}.cls-13{stroke-width:2px;}.cls-14{stroke-width:0.75px;}.cls-15{fill:#c4c2c2;}.cls-16{fill:#20222c;}.cls-17{fill:#22232d;}.cls-18{fill:#fff;}.cls-19{fill:#fbfbfb;}.cls-20{fill:#32323a;}.cls-21{fill:#393841;}.cls-22{fill:#3e3d45;}.cls-23{fill:#383840;}.cls-24{fill:#3f3d45;}.cls-25{fill:#37373f;}.cls-26{fill:#37363f;}.cls-27{fill:#3f3d46;}.cls-28{stroke:#c0a42f;}.cls-29{stroke:#221e13;}.cls-30{letter-spacing:-0.03em;}</style></defs><title>Asset 4</title><g id="Layer_2" data-name="Layer 2"><g id="STEP_3" data-name="STEP 3"><text class="cls-1" transform="translate(140.52 33.34)"><tspan class="cls-2">A</tspan><tspan x="7.27" y="0">sah</tspan><tspan class="cls-3" x="24.47" y="0"> </tspan><tspan x="39.7" y="0">pengetahuan</tspan><tspan class="cls-4" x="107.39" y="0"> </tspan><tspan x="122.62" y="0">umum </tspan><tspan class="cls-2" x="0" y="14.4">t</tspan><tspan x="3.9" y="14.4">e</tspan><tspan class="cls-5" x="9.91" y="14.4">n</tspan><tspan x="16.52" y="14.4">tang</tspan><tspan class="cls-6" x="39.65" y="14.4"> </tspan><tspan class="cls-7" x="54.8" y="14.4">I</tspan><tspan x="57.79" y="14.4">ndonesia</tspan><tspan class="cls-6" x="103.82" y="14.4"> </tspan><tspan x="118.97" y="14.4">melalui </tspan><tspan x="0" y="28.8">pe</tspan><tspan class="cls-8" x="12.84" y="28.8">r</tspan><tspan x="16.81" y="28.8">maianan</tspan><tspan class="cls-9" x="60.3" y="28.8"> </tspan><tspan x="69.5" y="28.8">sede</tspan><tspan class="cls-8" x="93.04" y="28.8">r</tspan><tspan x="97.01" y="28.8">hana</tspan><tspan class="cls-9" x="121.9" y="28.8"> </tspan><tspan class="cls-5" x="131.1" y="28.8">y</tspan><tspan x="136.7" y="28.8">ang </tspan><tspan x="0" y="43.2">me</tspan><tspan class="cls-10" x="16.02" y="43.2">n</tspan><tspan class="cls-11" x="22.52" y="43.2">y</tspan><tspan x="28.06" y="43.2">enang</tspan><tspan class="cls-12" x="59.88" y="43.2">k</tspan><tspan x="65.72" y="43.2">an.</tspan></text><rect class="cls-13" x="22.01" y="15.02" width="82.02" height="82.02" rx="12" ry="12"/><path class="cls-14" d="M111,28V86c0,6.6,3.65,12,8.11,12h5.76V16h-5.76C114.66,16,111,21.42,111,28Z"/><path class="cls-14" d="M15,85V27c0-6.6-3.33-12-7.41-12H.38V97H7.62C11.7,97,15,91.64,15,85Z"/><path d="M44.1,45.48c1.29-1.82,3-1.22,4.31-.95a22.52,22.52,0,0,1,4.27,1c3.19,1.36,6.39.65,9.6.14.89-.15,1.32-.85,1.88-1.4,2.88-2.86,4-3.06,7.61-1.4,2.73,1.24,5.69,1.94,8.2,3.68a10,10,0,0,1,1.8,1.57c1.27,1.4,1.85,3.35,3.94,4.16a1.89,1.89,0,0,1,.48,3A28.08,28.08,0,0,0,84,58.68c-.42.72-1.29,1-1.7.76-1.42-.94-1.86.21-2.74.83a16.38,16.38,0,0,1-3.4,1.34c-2.26.9-4,2.29-4.45,4.86-.17,1-1,.35-1.46.69s-1.17.12-1.37.78.4.89.81,1.23c.74.63.09,2.48-1,2.86a3.43,3.43,0,0,1-1.27.18c-.91,0-2.15,0-2.45-.82s.93-1.15,1.56-1.51a2.24,2.24,0,0,0,.81-3.58c-1.3-1.67-1.88-4-4.28-4.79-.64-.21-1-1.15-1.55-1.77a6.55,6.55,0,0,0-4.37-2.81c-1.74-.19-2.62-2-4.52-2.08-1.33-.05-2.43.66-3.77.48A5.53,5.53,0,0,1,44,51.21a4.71,4.71,0,0,0-1.84-2.6c-1.48-1.08-1.47-1.65,0-2.6.57-.36.45-.56.07-.95s-1.61-.76-1.13-1.83c.2-.45.78-.35,1.18-.28a1.78,1.78,0,0,1,1.68,1.83A4.43,4.43,0,0,0,44.1,45.48Z"/><path d="M79.5,65.48c.78,0,2.56,2.42,2.39,3.3a9.48,9.48,0,0,1-.34,1.42c-.23.58-.49,1.14-1.32.59-.5-.33-1.16-.42-1.68-.73-.83-.49-2.32-.31-2.11-1.93A3.16,3.16,0,0,1,79.5,65.48Z"/><path class="cls-15" d="M76,65.7a1.17,1.17,0,0,1-.82.89c-.26.06-.42-.35-.33-.52a2.05,2.05,0,0,1,.71-.78C75.77,65.17,76,65.42,76,65.7Z"/><path class="cls-16" d="M69.13,47a3.47,3.47,0,0,1,1.29.15A3.25,3.25,0,0,1,72,52.58a7.34,7.34,0,0,1-1,1,2.2,2.2,0,0,0-.89,1.91,1,1,0,0,1-1,1,1,1,0,0,1-1.1-.88,3.77,3.77,0,0,1,.73-2.77,12.55,12.55,0,0,1,1.32-1.31,2,2,0,0,0,.68-1.17.88.88,0,0,0-.38-.94,2.06,2.06,0,0,0-2-.19.84.84,0,0,0-.41.42,1,1,0,0,1-1.38.52,1,1,0,0,1-.51-1.39A3.09,3.09,0,0,1,68.84,47,1.31,1.31,0,0,1,69.13,47Z"/><path class="cls-17" d="M69.05,60.16a1.22,1.22,0,0,1-1.18-1.23,1.21,1.21,0,1,1,1.18,1.23Z"/><path class="cls-18" d="M68.39,55a3.34,3.34,0,0,1,1.08-2.36l.82-.76a3.66,3.66,0,0,0,.39-.4,1.73,1.73,0,0,0,.4-1.73,1.68,1.68,0,0,0-1.5-1,2.31,2.31,0,0,0-.94,0,1.37,1.37,0,0,0-1,.76.63.63,0,0,1-.87.32.65.65,0,0,1-.35-.89,2.26,2.26,0,0,1,1.41-1.37,3.81,3.81,0,0,1,3.1.12,2.86,2.86,0,0,1,.83,4.62,15.62,15.62,0,0,1-1.23,1.21,2.06,2.06,0,0,0-.73,1.59c0,.69-.25,1-.71,1S68.38,55.81,68.39,55Z"/><path class="cls-19" d="M69.07,59.81A.87.87,0,1,1,70,59,.9.9,0,0,1,69.07,59.81Z"/><path class="cls-20" d="M71.58,51.73A3.57,3.57,0,0,0,72,50.31a2,2,0,0,0-.7-1.64c-.07-.07-.24-.15-.12-.26s.18.06.26.14a2.47,2.47,0,0,1,.23,3.3C71.59,51.86,71.54,51.83,71.58,51.73Z"/><path class="cls-21" d="M70.63,48.05a1.19,1.19,0,0,1-.87-.25A1,1,0,0,1,70.63,48.05Z"/><path class="cls-22" d="M71.58,51.73l.11.12a1.29,1.29,0,0,1-.51.56C71.19,52.06,71.44,51.93,71.58,51.73Z"/><path class="cls-23" d="M69.59,47.81c0,.1-.14.06-.22.06s-.12,0-.1-.11.14-.07.22-.06A.1.1,0,0,1,69.59,47.81Z"/><path class="cls-24" d="M69.44,59.31c-.25.25-.48.22-.75-.05.24-.09.46.11.64-.06S69.46,59.21,69.44,59.31Z"/><path class="cls-25" d="M69.44,59.31l-.11-.11a.44.44,0,0,0,0-.51.14.14,0,0,1,.11-.11A.46.46,0,0,1,69.44,59.31Z"/><path class="cls-26" d="M69.44,58.58l-.11.11-.48-.16C69.11,58.37,69.28,58.39,69.44,58.58Z"/><path class="cls-27" d="M68.58,58.69a.23.23,0,0,1,.17-.08.07.07,0,0,1,.06.12c-.07.06,0,.22-.17.21S68.56,58.86,68.58,58.69Z"/><polygon class="cls-28" points="289.29 11.91 299.2 6.39 309.11 0.87 308.56 12.81 308 24.75 298.64 18.33 289.29 11.91"/><rect class="cls-28" x="142.13" y="85.37" width="39.5" height="5.53"/><rect class="cls-28" x="189.23" y="95.75" width="29.22" height="6"/><rect class="cls-29" x="27.62" y="101.75" width="32.71" height="15.16" rx="5.64" ry="5.64"/><rect class="cls-29" x="66.42" y="101.75" width="32.71" height="15.16" rx="5.64" ry="5.64"/><text class="cls-1" transform="translate(32.12 113.19)">BALI</text><text class="cls-1" transform="translate(71.87 113.19)">RI<tspan class="cls-30" x="9.32" y="0">A</tspan><tspan x="16.33" y="0">U</tspan></text></g></g></svg>