<svg xmlns="http://www.w3.org/2000/svg" viewBox="0 0 310.97 154.21"><defs><style>.cls-1,.cls-241,.cls-242{fill:none;}.cls-1{stroke:#c0a42f;}.cls-1,.cls-242,.cls-243{stroke-miterlimit:10;}.cls-2{fill:#1f1a18;}.cls-3{fill:#f7f5f3;}.cls-4{fill:#252121;}.cls-5{fill:#24201f;}.cls-6{fill:#262020;}.cls-7{fill:#3d3937;}.cls-8{fill:#201b19;}.cls-9{fill:#201b18;}.cls-10{fill:#201a18;}.cls-11{fill:#fefefe;}.cls-12{fill:#1f1c1b;}.cls-13{fill:#fdfcfc;}.cls-14{fill:#fcfcfb;}.cls-15{fill:#f9f9f7;}.cls-16{fill:#232020;}.cls-17{fill:#f2f0ee;}.cls-18{fill:#373433;}.cls-19{fill:#4b4845;}.cls-20{fill:#393735;}.cls-21{fill:#e3e0de;}.cls-22{fill:#e0dddb;}.cls-23{fill:#e2dedb;}.cls-24{fill:#f5f3f2;}.cls-25{fill:#43403e;}.cls-26{fill:#eae5e4;}.cls-27{fill:#d9d5d3;}.cls-28{fill:#afa9a7;}.cls-29{fill:#3a3736;}.cls-30{fill:#3e3c3b;}.cls-31{fill:#575451;}.cls-32{fill:#bbb7b4;}.cls-33{fill:#454241;}.cls-34{fill:#413e3c;}.cls-35{fill:#ccc9c7;}.cls-36{fill:#454341;}.cls-37{fill:#43413f;}.cls-38{fill:#d4d0cd;}.cls-39{fill:#3f3d3b;}.cls-40{fill:#dddad8;}.cls-41{fill:#44403e;}.cls-42{fill:#a29d9a;}.cls-43{fill:#0c0908;}.cls-44{fill:#494543;}.cls-45{fill:#eae5e1;}.cls-46{fill:#4a4746;}.cls-47{fill:#4f4d4b;}.cls-48{fill:#7e7a7a;}.cls-49{fill:#484644;}.cls-50{fill:#cdc7c5;}.cls-51{fill:#fefefd;}.cls-52{fill:#fcf9f7;}.cls-53{fill:#5b5858;}.cls-54{fill:#dddad7;}.cls-55{fill:#c2bdba;}.cls-56{fill:#444241;}.cls-57{fill:#928e8c;}.cls-58{fill:#6f6867;}.cls-59{fill:#6e6a6a;}.cls-60{fill:#3a3735;}.cls-61{fill:#cfcbc8;}.cls-62{fill:#595554;}.cls-63{fill:#585554;}.cls-64{fill:#84817f;}.cls-65{fill:#a39d9a;}.cls-66{fill:#0d0c0a;}.cls-67{fill:#9e9a98;}.cls-68{fill:#3f3d3d;}.cls-69{fill:#cdc9c6;}.cls-70{fill:#272524;}.cls-71{fill:#565351;}.cls-72{fill:#5a5756;}.cls-73{fill:#8f8b8a;}.cls-74{fill:#cac5c2;}.cls-75{fill:#494644;}.cls-76{fill:#6d6b6a;}.cls-77{fill:#3f3d3c;}.cls-78{fill:#c4bfbe;}.cls-79{fill:#f0eeec;}.cls-80{fill:#beb8b5;}.cls-81{fill:#908a87;}.cls-82{fill:#413d3d;}.cls-83{fill:#ece3e4;}.cls-84{fill:#edeae7;}.cls-85{fill:#514e4d;}.cls-86{fill:#c0bab7;}.cls-87{fill:#433f3d;}.cls-88{fill:#1c1b1a;}.cls-89{fill:#cfc9c6;}.cls-90{fill:#fdfdfd;}.cls-91{fill:#f3f1ee;}.cls-92{fill:#e3dedb;}.cls-93{fill:#e0ddd9;}.cls-94{fill:#403c39;}.cls-95{fill:#474443;}.cls-96{fill:#6f6a67;}.cls-97{fill:#c4bfbc;}.cls-98{fill:#8a8582;}.cls-99{fill:#3c3837;}.cls-100{fill:#3e3936;}.cls-101{fill:#9a9592;}.cls-102{fill:#464343;}.cls-103{fill:#3c3a38;}.cls-104{fill:#585350;}.cls-105{fill:#8b8683;}.cls-106{fill:#3b3734;}.cls-107{fill:#514d4a;}.cls-108{fill:#5a5552;}.cls-109{fill:#9e9996;}.cls-110{fill:#8e8986;}.cls-111{fill:#c8c2bf;}.cls-112{fill:#a8a29f;}.cls-113{fill:#dbd6d3;}.cls-114{fill:#d7d3cf;}.cls-115{fill:#a29c99;}.cls-116{fill:#8e8885;}.cls-117{fill:#a09b98;}.cls-118{fill:#55504d;}.cls-119{fill:#cec9c6;}.cls-120{fill:#beb9b6;}.cls-121{fill:#ada8a5;}.cls-122{fill:#a39e9b;}.cls-123{fill:#928d8a;}.cls-124{fill:#999491;}.cls-125{fill:#6b6663;}.cls-126{fill:#3d3835;}.cls-127{fill:#8f8987;}.cls-128{fill:#918c89;}.cls-129{fill:#9b9693;}.cls-130{fill:#cdc8c5;}.cls-131{fill:#938e8b;}.cls-132{fill:#6a6562;}.cls-133{fill:#faf6f4;}.cls-134{fill:#c7c1be;}.cls-135{fill:#75706d;}.cls-136{fill:#ebe6e3;}.cls-137{fill:#494340;}.cls-138{fill:#eee9e6;}.cls-139{fill:#837e7b;}.cls-140{fill:#696461;}.cls-141{fill:#544f4c;}.cls-142{fill:#fefdfd;}.cls-143{fill:#fbfbfb;}.cls-144{fill:#dad5d2;}.cls-145{fill:#d7d2cf;}.cls-146{fill:#d8d4d1;}.cls-147{fill:#a7a3a0;}.cls-148{fill:#d5d1ce;}.cls-149{fill:#b2aeab;}.cls-150{fill:#c9c4c1;}.cls-151{fill:#9c9896;}.cls-152{fill:#a49e9c;}.cls-153{fill:#aea8a6;}.cls-154{fill:#a19b98;}.cls-155{fill:#c5bfbc;}.cls-156{fill:#65605d;}.cls-157{fill:#56514e;}.cls-158{fill:#bfb9b6;}.cls-159{fill:#aaa1a2;}.cls-160{fill:#95918e;}.cls-161{fill:#aea9a6;}.cls-162{fill:#979390;}.cls-163{fill:#a39e9c;}.cls-164{fill:#a9a4a0;}.cls-165{fill:#726d6a;}.cls-166{fill:#86817e;}.cls-167{fill:#c7c2bf;}.cls-168{fill:#f5f3f1;}.cls-169{fill:#ccc7c4;}.cls-170{fill:#d4cfcc;}.cls-171{fill:#d5d0cd;}.cls-172{fill:#c8c3c0;}.cls-173{fill:#c9c5c2;}.cls-174{fill:#c5bfbd;}.cls-175{fill:#eeeae8;}.cls-176{fill:#cecbc8;}.cls-177{fill:#d9d5d2;}.cls-178{fill:#75716e;}.cls-179{fill:#efeae7;}.cls-180{fill:#ece9e6;}.cls-181{fill:#e6e2df;}.cls-182{fill:#e0dcd9;}.cls-183{fill:#d0cbc8;}.cls-184{fill:#736f6b;}.cls-185{fill:#dcd9d8;}.cls-186{fill:#afa8a6;}.cls-187{fill:#fbfaf9;}.cls-188{fill:#faf9f9;}.cls-189{fill:#b5b0ad;}.cls-190{fill:#413c39;}.cls-191{fill:#c3bebc;}.cls-192{fill:#b0aaa8;}.cls-193{fill:#aca6a2;}.cls-194{fill:#ada7a4;}.cls-195{fill:#85817d;}.cls-196{fill:#999492;}.cls-197{fill:#6b6763;}.cls-198{fill:#d5d0cc;}.cls-199{fill:#5d5855;}.cls-200{fill:#e5e1de;}.cls-201{fill:#cdc7c4;}.cls-202{fill:#a8a3a1;}.cls-203{fill:#e2dddb;}.cls-204{fill:#ddd8d5;}.cls-205{fill:#c3beba;}.cls-206{fill:#a49f9c;}.cls-207{fill:#dfdbd8;}.cls-208{fill:#d1ccc9;}.cls-209{fill:#989390;}.cls-210{fill:#c0bbb8;}.cls-211{fill:#bbb5b3;}.cls-212{fill:#c4c0be;}.cls-213{fill:#e6e1de;}.cls-214{fill:#b0adaa;}.cls-215{fill:#9b9293;}.cls-216{fill:#9e9898;}.cls-217{fill:#e1ddda;}.cls-218{fill:#73706f;}.cls-219{fill:#bebab7;}.cls-220{fill:#201c19;}.cls-221{fill:#423f3d;}.cls-222,.cls-243{font-size:12px;fill:#231f20;font-family:MyriadPro-Regular, Myriad Pro;}.cls-223{letter-spacing:0.01em;}.cls-224{letter-spacing:-0.01em;}.cls-225{letter-spacing:-0.01em;}.cls-226{letter-spacing:-0.01em;}.cls-227{letter-spacing:0.08em;}.cls-228{letter-spacing:0.03em;}.cls-229{letter-spacing:-0.03em;}.cls-230{letter-spacing:-0.01em;}.cls-231{letter-spacing:0em;}.cls-232{letter-spacing:0em;}.cls-233{letter-spacing:0.97em;}.cls-234{letter-spacing:0em;}.cls-235{letter-spacing:0.57em;}.cls-236{letter-spacing:0.57em;}.cls-237{letter-spacing:0em;}.cls-238{letter-spacing:0.02em;}.cls-239{letter-spacing:0em;}.cls-240{letter-spacing:-0.01em;}.cls-242,.cls-243{stroke:#231f20;}.cls-242{stroke-width:2px;}</style></defs><title>Asset 1</title><g id="Layer_2" data-name="Layer 2"><g id="STEP_1" data-name="STEP 1"><rect class="cls-1" x="279.06" y="124.65" width="31.42" height="8.86" rx="4.43" ry="4.43"/><polygon class="cls-1" points="14.94 111.02 21.98 123.21 29.01 135.4 14.94 135.4 0.87 135.4 7.9 123.21 14.94 111.02"/><path class="cls-2" d="M90,121.37a5,5,0,0,0,2.56.87,9.33,9.33,0,0,0,3.49-.36,4.88,4.88,0,0,1-2.15,2.75,12.57,12.57,0,0,1-2.57,1.07,9.11,9.11,0,0,0-2.57,1.19,5.26,5.26,0,0,0-2.08,4.81,43,43,0,0,0,.46,4.39,31.3,31.3,0,0,1,.34,6.34c0,.18,0,.35-.07.6a15.17,15.17,0,0,1-2.91-5.58,19.35,19.35,0,0,1-.35-7.8,2.43,2.43,0,0,0,0-.27.47.47,0,0,1,0-.31,1.27,1.27,0,0,0,.1-.52c0-.14.08-.29.1-.34a2.52,2.52,0,0,1-.1.32,1.11,1.11,0,0,1-.08.44c-.05.14,0,.31-.17.41a11.7,11.7,0,0,0-.41,4.48,28.35,28.35,0,0,1-1,6.29q-1.45,6.89-3,13.77c0,.1-.07.19-.1.29H77.47c-.22-.31-.06-.63,0-.93.64-2.79,1.26-5.57,1.89-8.36.32-1.39.65-2.77.94-4.16a.66.66,0,0,0,0-.5c-.25.18-.26.46-.32.7q-1.57,6.25-3.13,12.51c-.07.27-.07.58-.37.74H74.56c-.12-.15-.06-.3,0-.46,1.38-4.88,2.72-9.76,4.15-14.63a1,1,0,0,1,.1-.24.5.5,0,0,0-.1.21A13.1,13.1,0,0,1,75.84,144a7,7,0,0,1-2.65,1.8,1,1,0,0,0-.69.81c-.48,2.23-1,4.45-1.49,6.68a1.79,1.79,0,0,1-.34.94H68.94a1.12,1.12,0,0,1-.15-.82c0-3.62,0-7.23,0-10.85,0-2.36-.14-4.73-.21-7.1,0-.44-.11-.89-.1-1.34,0-.19,0-.39,0-.59a6,6,0,0,1,0-1.12v-.95a9.88,9.88,0,0,0,5.8,0c.35-.1.49-.2.42-.65a22.33,22.33,0,0,1,2.09-13.66c.14-.29.26-.36.58-.21a8.72,8.72,0,0,0,4.72,1,15.14,15.14,0,0,0,2.22-.6c.5-.13.79-.27.7-.83,0-.21.17-.25.3-.32.53-.33,1.07-.64,1.64-1a4.35,4.35,0,0,0-3.6-.88c-2,.22-3.9.9-5.87,1.28-.58.12-1.17.2-1.75.3a1.72,1.72,0,0,1-1.42,0,3.67,3.67,0,0,1-1.5-.45,15.63,15.63,0,0,0,2.27-.54,2.35,2.35,0,0,0,1.08-.54c-.05-.08,0-.13.06-.17s.27-.17.4-.24h.07a2.42,2.42,0,0,0,1-1.76c.11-.49.2-1,.31-1.47a.84.84,0,0,1,.24-.49c.08,0,.09,0,.08,0-.07.9.15,1.36.7,1.5a2,2,0,0,0,2-.88.79.79,0,0,1,.85-.52,4.58,4.58,0,0,0,.53,0c1,0,1.38-.42,1.34-1.38a19.39,19.39,0,0,1-.18-2.85A2,2,0,0,1,85,104.3c.16-.06.34-.09.44-.27a9.46,9.46,0,0,1,3.07-3.19,1,1,0,0,1,.41-.3c.28-.14.56-.28.83-.45l.21-.1c.89-.22,1.76-.47,2.63-.74l.15,0a1.64,1.64,0,0,0,.54-.13l.13,0a1.06,1.06,0,0,0,.39-.13.63.63,0,0,1,.2-.1c.53,0,1-.42,1.52-.41a.25.25,0,0,1,.17.16c0,.29-.25.39-.44.51-.87.57-1.77,1.1-2.69,1.58L90,102a4.07,4.07,0,0,0-2.46,3,7.17,7.17,0,0,1,3.55-2.89c1-.46,2.11-.83,3.14-1.3.56-.25,1.1-.52,1.65-.8a.73.73,0,0,1,.5-.16.22.22,0,0,1,.15.16c0,.33-.29.44-.5.59-1.1.75-2.24,1.44-3.34,2.19a8.85,8.85,0,0,0-2.32,2.08,2.05,2.05,0,0,0-.45,1.48,5.16,5.16,0,0,1,3.42-3.45,27.7,27.7,0,0,0,3.4-1.36.52.52,0,0,1,.42-.06.2.2,0,0,1,.12.19,4.27,4.27,0,0,1-1.23,1A137.28,137.28,0,0,0,111.28,98c4.69-1.68,9.36-3.41,14.14-4.82a6.21,6.21,0,0,1,2-.48.24.24,0,0,1,.18.18c0,.1,0,.16-.17.13a1.53,1.53,0,0,0-.78.17c-5.69,2-11.24,4.34-16.78,6.7-4.51,1.93-9.05,3.8-13.69,5.37a4,4,0,0,1-2.37-.1c-.32-.09-.37-.41-.42-.75a11.65,11.65,0,0,0-2.79,2.86,14.51,14.51,0,0,0-1.28,2.36.43.43,0,0,0,.08.56c1.06,1.21,1,2.08,0,3.32A9.43,9.43,0,0,0,88,115.24c-.16.32-.5.66-.17,1.07-.34.16-.35-.19-.55-.33a5.7,5.7,0,0,1-.32,2.35c0,.07-.11.17,0,.22.47.19.64.66,1,1a5.51,5.51,0,0,0,1,.94,1,1,0,0,1,.18.1c.13.13.22.3.39.38S89.9,121.17,90,121.37Z"/><path class="cls-2" d="M127.46,93l.13-.09c.14-.19.44-.19.54-.43.28-.22.65-.21,1-.38-.94.22-1.82.4-2.69.62s-.95.17-1.43-.55c-2.27-3.46-4.63-6.85-7-10.23a1.05,1.05,0,0,0-1.22-.53,3.1,3.1,0,0,1-1.54-.15,2.07,2.07,0,0,1-1.3-3c.06-.13.12-.28.28-.28s.21.18.27.3a4.45,4.45,0,0,0,1,1.42,1.7,1.7,0,0,0,1,.47c.06-.21-.09-.31-.18-.43-2.76-3.84-5.63-7.6-8.55-11.33-1.39-1.77-2.77-3.54-4.17-5.3-.26-.32-.45-.49-.92-.36a22.75,22.75,0,0,1-2.34.35,24.26,24.26,0,0,0-3.57.81c-.59.18-.61.25-.3.78a13.22,13.22,0,0,1,1.7,4.7,11.55,11.55,0,0,1-.8,6.33A21.88,21.88,0,0,1,94,81.07c-.55.67-1.2,1.25-1.74,1.92a.52.52,0,0,1-.41.22c-.29-.09,0-.36-.16-.49a2.82,2.82,0,0,1,0-1.9,1.5,1.5,0,0,0,0-1.26c2.42,0,3.64-1.55,4.54-3.42a12.62,12.62,0,0,0,.42-9.49,18,18,0,0,0-2.78-5.42c-.1-.14-.18-.3-.27-.44s-.18-.35-.3-.5a.81.81,0,0,0-.31-.44c-.09-.05-.16-.15-.29-.12a16.07,16.07,0,0,0-1.29-1.32c.18-.31.44-.1.66-.12a50.92,50.92,0,0,0,8.18-.78c1-.15,2-.27,3-.41-.08.29-.36.31-.51.47a10,10,0,0,1-1.23.9,4.71,4.71,0,0,0-.45.33c-.16.1-.29.23-.45.32s-.31.3-.48.42a1.52,1.52,0,0,0-.4.32,1.13,1.13,0,0,1,.37-.28,4,4,0,0,1,.55-.45,3.75,3.75,0,0,1,.44-.35,5.59,5.59,0,0,1,.47-.33,3.38,3.38,0,0,1,1.31-.73c.08,0,.13.07.09.17-.29.31-.61.61-.87,1a1.3,1.3,0,0,0-.31,1.13c.3-.42.53-.81.81-1.16a3.61,3.61,0,0,1,1.84-1.49c.68-.18.87-.12,1.25.46,2.61,4,5.25,8,8,11.86.13.19.29.36.43.54a10,10,0,0,1,1.36,1.75,1.62,1.62,0,0,0,.34.44,11.92,11.92,0,0,1,.9,1.12s0,.1.06.11,0-.07.06-.1a5.52,5.52,0,0,0,.16-.54,2.66,2.66,0,0,1,.79-1.19,2.43,2.43,0,0,1,.29-.26.27.27,0,0,1,.36,0,.42.42,0,0,1-.06.44,1.41,1.41,0,0,0-.44.88.33.33,0,0,1,0,.13c-.13.15-.09.38-.23.52-.29,0-.18-.24-.25-.39-.16.26,0,.33.22.49.47.37.94.75,1.43,1.1a.89.89,0,0,0,.38.31,2.2,2.2,0,0,1,.67.58c.08.12.23.23.12.41-.45.18-.88-.06-1.32-.09-.19,0-.38-.09-.66-.13.6.81,1.15,1.57,1.74,2.3.2.24.3.11.38-.09a1.88,1.88,0,0,0,.06-1.32c-.06-.17-.22-.36,0-.54h.15a6.71,6.71,0,0,1,.58.48,1,1,0,0,1,.32.49,1,1,0,0,0,.22.5.42.42,0,0,1,0,.22,1.89,1.89,0,0,0,0,.75c0,.29-.07.59-.38.74s-.35.34-.12.63c2,2.6,4.09,5.15,6.26,7.63l.12.17c0,.28,0,.29-.38.11A24.56,24.56,0,0,1,124.46,85c-1.32-1.51-2.62-3-3.92-4.59.81,1,1.67,2,2.52,3.06,2.13,2.51,4.26,5,6.55,7.37a4.94,4.94,0,0,0,1.32,1l.87.46v3.24A1.35,1.35,0,0,1,131,96c-6.34,2.15-12.82,3.81-19.3,5.49-4.48,1.16-9,2.39-13.39,3.73l-.36.08c-.11,0-.16,0-.15-.11,3.1-1.35,6.24-2.57,9.39-3.79,5.43-2.11,10.93-4,16.26-6.4,1.23-.54,2.43-1.13,3.64-1.71C127.22,93.23,127.42,93.2,127.46,93Z"/><path class="cls-2" d="M87.63,154.21c.27-5.57.27-11.14.19-16.72,0-2.5-.2-5-.3-7.49,0-.8,0-.79.78-.71a6.21,6.21,0,0,0,4.81-1.43,10.87,10.87,0,0,0,2.07-2.46,1.07,1.07,0,0,1,.37-.4c-.25,1.06-.49,2.12-.74,3.17q-2.94,12.65-5.89,25.27c-.06.26-.14.52-.21.77Z"/><path class="cls-2" d="M95.74,126.48c0,.79-.27,1.56-.25,2.35a1.3,1.3,0,0,1,0,.65,3.64,3.64,0,0,0-.11,1.09.65.65,0,0,1,0,.31,1.21,1.21,0,0,0-.17.66,5.54,5.54,0,0,0-.12.69.81.81,0,0,0,0,.51.58.58,0,0,1,0,.23,2.89,2.89,0,0,0-.18.92,1.27,1.27,0,0,0-.06.39c0,.25-.11.49-.11.74a8.2,8.2,0,0,1-.1.85,3.07,3.07,0,0,1,0,.53,4.47,4.47,0,0,1-.3,1.3c-.51,3.25-.85,6.53-1.11,9.81-.13.28.1.53,0,.8s0,.51-.15.72a40.72,40.72,0,0,0-.21,5.18H89.14c.4-1.79.8-3.59,1.22-5.38q2.56-11,5.15-22c0-.16.08-.31.12-.47C95.73,126.34,95.79,126.36,95.74,126.48Z"/><path class="cls-2" d="M65.59,154.21c.11-1.21.41-2.4.6-3.6.43-2.69.84-5.39,1.13-8.1q.48-4.41.94-8.84c0-.37,0-.75,0-1.13.29,0,.18.25.19.4s0,.59,0,.89a1.51,1.51,0,0,1,0,.3c.06,3.61.22,7.21.24,10.82,0,1.22,0,2.45,0,3.67,0,1.69.07,3.38,0,5.07a.92.92,0,0,1,0,.52Z"/><path class="cls-2" d="M95.29,154.21a13.23,13.23,0,0,0-.81-1.9.62.62,0,0,1-.06-.5,3.58,3.58,0,0,1,2.38-2.36,3.75,3.75,0,0,0,1.83-.84,1.59,1.59,0,0,1-.67.91c-.31.3-.66.56-.94.88a.9.9,0,0,0,.2,1.43c1.13.47,1.24,1.37,1.21,2.38Z"/><path class="cls-3" d="M68.83,154.21q-.17-9.93-.34-19.87c0-.11,0-.22,0-.32s.06-.05.09,0c.34,5.79.36,11.6.37,17.4,0,.93,0,1.86,0,2.79Z"/><path class="cls-4" d="M86.11,154.21a6.47,6.47,0,0,1,.17-2.11,15.81,15.81,0,0,0,.7,2.11Z"/><path class="cls-5" d="M93.35,154.21c.05-.07.09-.14.15-.21s.32-.67.55-.6.5.46.6.81Z"/><path class="cls-6" d="M63.87,154.21a3.86,3.86,0,0,1,.16-1.6l.48,1.6Z"/><path class="cls-7" d="M71.53,154.21c0-.2.12-.31.26-.45l.39.45Z"/><path class="cls-2" d="M62.59,61.79A52.24,52.24,0,0,0,69,60.61a1,1,0,0,1,1,.19A5.27,5.27,0,0,1,72,66.32a44,44,0,0,1-1.31,4.25l-2.24-2a15.78,15.78,0,0,0-8.17-3.66A76.63,76.63,0,0,0,48.42,64c-1.56-.09-3.12,0-4.68,0-.16,0-.39.14-.5-.13L56.5,62.61c1.2-.12,2.39-.28,3.58-.42.19,0,.37,0,.34-.29a12.7,12.7,0,0,1,.43-3.73,5.08,5.08,0,0,0-2-5.41l3.31.53c.14,0,.29,0,.43.06s.25-.05.22-.26A21.58,21.58,0,0,1,63.07,47c.29-2.38.4-4.74-.71-7a12.4,12.4,0,0,0-4.23-4.58l-1.27-.84a7.9,7.9,0,0,1,2-.37,14.51,14.51,0,0,1,8.48,2.47c.73.45,1.43,1,2.15,1.42.35,0,.55.32.79.53a34.46,34.46,0,0,1,4.79,4.87c0,.05.1.1.1.14-.23-.36-.42-.77-.63-1.18a13.12,13.12,0,0,0-.73-1.25,5.13,5.13,0,0,0-1.55-1.56c-.45-.3-.45-.34-.11-.79s.92-1.16,1.35-1.76c.2-.26.42-.52.62-.79s.14-.31.33-.37c.51-.38,1-.77.77-1.52-.44-1.59.21-3,.68-4.48.24-.75.47-1.5.73-2.24.12-.31.08-.42-.26-.53-1.05-.33-2.1-.71-3.15-1.07-.06,0-.11-.06-.2-.1,3.4-1.41,6-1,8.36,1.73a3.52,3.52,0,0,0,.62.66c.29.08.38.36.55.56a12.22,12.22,0,0,0,2.34,2.73A5.3,5.3,0,0,0,88,32.89a10.2,10.2,0,0,0,2-.07c.43-.07.91-.16,1.25.28.11.17.24.33.36.49s.2.32.31.47.27.37.42.54.15.23.23.33.22.29.33.43l.32.43c.12.14.22.29.32.43a4.48,4.48,0,0,1,.32.44,2.91,2.91,0,0,1,.26.33,6.13,6.13,0,0,1,.38.51l.34.45c.08.11.17.21.25.33s.19.22.15.38a1.51,1.51,0,0,1,.32,1.3,12.19,12.19,0,0,0-.13,1.71,1,1,0,0,1-.25.63c-1.45,1.88-2.9,3.78-4.33,5.68l5.66-5.54c.1,0,.13.05.14.13a1.46,1.46,0,0,1-.37.65c-1.39,1.79-2.74,3.6-4.12,5.39-.19.22-.35.45-.53.68s-.26.32-.37.5-.21.24-.31.37l-.33.44c-.12.18-.26.35-.39.52s-.17.23-.26.35-.26.34-.39.52-.17.23-.26.34-.29.38-.42.59c-1.78,2.24-3.48,4.54-5.22,6.81a15.26,15.26,0,0,0-1.85,2.71,3.21,3.21,0,0,0-.25,2.89c-.14.26-.31.07-.46,0s-.34-.16-.51-.24a1.34,1.34,0,0,1-.72-.49,2.22,2.22,0,0,1-.45-.79,3.37,3.37,0,0,0-.21-.77,5.16,5.16,0,0,1,.71-3.14A6.05,6.05,0,0,1,81.29,58a1.06,1.06,0,0,0,.29-1.44.38.38,0,0,1-.17-.34c0-.25.08-.49.08-.74a4.39,4.39,0,0,0-.19-1.44.93.93,0,0,0-.78-.64c-.43-.06-.6.18-.78.5-.36.62-.74,1.23-1.12,1.84a3.05,3.05,0,0,0-.52,1.32A1.89,1.89,0,0,1,77,58.42a12.28,12.28,0,0,1-3.83,1.19,3.34,3.34,0,0,0-.69.18,9.11,9.11,0,0,0,5.68-1.44l-.7,1.34a8.86,8.86,0,0,0,1,10c.47.61.94,1.22,1.43,1.82A4.75,4.75,0,0,1,81,74.2a26.63,26.63,0,0,1,.45,3.89c-.06.82-.14,1-.94,1.09l-2.44.41a.65.65,0,0,1-.63-.18A3.92,3.92,0,0,1,76,77.13a8.28,8.28,0,0,0-3.21-4.78.61.61,0,0,1-.19-.89,16.94,16.94,0,0,0,1.24-7.14,5.1,5.1,0,0,0-2.06-4.2.53.53,0,0,1-.19-.7,3.14,3.14,0,0,0,.14-1.33,1.69,1.69,0,0,0-2.33-1.57l-1,.27c-1.65.42-2.23,1.58-1.5,3.09.23.48.12.58-.32.69-1.35.35-2.7.73-4,1.1-.14.14-.32.13-.49.18a2.14,2.14,0,0,1-.34.09c-.07,0,0,.05,0,.05s.29-.1.43-.16A3,3,0,0,1,62.59,61.79Z"/><path class="cls-2" d="M98.47,37.25l-2.74,1.47c-.15.08-.23,0-.33-.06a1,1,0,0,1-.36-.4,3.49,3.49,0,0,1-.25-.32c-.09-.17-.25-.28-.34-.45s-.29-.31-.37-.51a3,3,0,0,0-.23-.27,1.66,1.66,0,0,0-.32-.43,4.1,4.1,0,0,0-.35-.5c-.1-.15-.22-.28-.32-.43s-.22-.29-.32-.43l-.24-.33-.42-.54c-.1-.16-.23-.3-.32-.46a3.34,3.34,0,0,1-.36-.48.75.75,0,0,0-.84-.33,8.18,8.18,0,0,1-3,0A7.44,7.44,0,0,1,83,29.69c-.19-.25-.36-.5-.53-.75s-.34-.39-.39-.66A7.26,7.26,0,0,0,78,24.9a7.68,7.68,0,0,0-4.32.39l-.56.19a.86.86,0,0,1-.16,0,8.17,8.17,0,0,1,4.55-5.8c1.53-.81,3-1.73,4.51-2.6.18-.1.34-.28.58-.22a6,6,0,0,1,1.29.51.72.72,0,0,0,.57-.07c.72-.26,1.43-.57,2.17-.79.41-.12.48-.45.62-.74.08-.73.08-.73.69-.35a65.3,65.3,0,0,1,6.14,4.14,19.11,19.11,0,0,1,5,5.78c.81,1.51,1.49,3.1,2.22,4.65l.35.78c.16.08.19.25.27.39a.86.86,0,0,1,.09.27,1.43,1.43,0,0,0,.14.61.71.71,0,0,1,.09.28,1.31,1.31,0,0,0,0,.59,7.84,7.84,0,0,1-.11,1,5.94,5.94,0,0,0-.27.57l0,.16c0,.08,0,.12-.1.16a1.35,1.35,0,0,0-.37.3c-.12.12-.2.27-.36.34a.73.73,0,0,1-.36.08c-.14,0-.28,0-.42,0-.29-.05-.59-.14-.52.35a.13.13,0,0,1-.07.13c-.36.08,0,.15,0,.22,0,.39-.4.49-.62.72a5.46,5.46,0,0,1-.44.38A.17.17,0,0,1,98.47,37.25Z"/><path class="cls-2" d="M77.66,100a50.09,50.09,0,0,0,.88-10.71c-.19.09-.17.27-.21.41A6,6,0,0,1,76.49,93a5.17,5.17,0,0,1-1.47.77c-.9.35-1,.52-.56,1.39,0,.09.14.17.05.33L69.8,92.12A8.29,8.29,0,0,0,72.52,92a10,10,0,0,0,3.36-1.88,13.3,13.3,0,0,1,2.42-1.59.37.37,0,0,0,.25-.41c0-.78-.11-1.55-.14-2.32,0-.35-.16-.45-.52-.46a31.33,31.33,0,0,1-7.89-1C64.46,82.7,61.22,79,59.87,73.45A29.42,29.42,0,0,1,59.13,68c0-.19-.12-.44.28-.39a44.29,44.29,0,0,1,6.67,1.15,22.77,22.77,0,0,1,4.32,1.9c.24.13.25.26.18.51a18.09,18.09,0,0,0-.72,3.63,6,6,0,0,0,.7,3.85,4.59,4.59,0,0,0,3.37,1.89,8.48,8.48,0,0,0,1,.15c1,0,1.62.85,2.4,1.34a1.08,1.08,0,0,0,.94.29,10.65,10.65,0,0,1,2.25.07c.21,0,.23.17.27.28.57,1.45,1.12,2.9,1.69,4.35a1.39,1.39,0,0,1,.07.53c0,.83,0,1.66,0,2.49a13.27,13.27,0,0,1-4.25,9.5A1.91,1.91,0,0,1,77.66,100Z"/><path class="cls-2" d="M50.94,114.42c-.17.93-.37,1.85-.52,2.79a22.31,22.31,0,0,0-.29,6.92c.51,3.38,2.18,5.17,5.5,5.9,1.46.32,2.95.41,4.43.62a10.82,10.82,0,0,1,3.56,1,1,1,0,0,0,.26,0,9.27,9.27,0,0,1-1-2.4,10.58,10.58,0,0,1,.37-5.21,19,19,0,0,0,.81-3.72,3.82,3.82,0,0,0-1.76-3.49,15.2,15.2,0,0,0-5.18-2.14c-1.82-.49-3.67-.79-5.63-1.12a17.91,17.91,0,0,1,3.69-1,9.43,9.43,0,0,1,6,.7,9.18,9.18,0,0,1,4,4.33,52.65,52.65,0,0,1,2,5.15,10.77,10.77,0,0,1-1.53,10.73.66.66,0,0,1-.18.19c-1.67,1.08-3.24,2.32-5,3.24a8.59,8.59,0,0,1-7.88,0,10.09,10.09,0,0,1-5.94-8.22c-.61-4.07.56-7.81,2.44-11.37a23.34,23.34,0,0,1,1.78-2.91Z"/><path class="cls-2" d="M40.19,76.89l.32-7.81h.1c0,.54.09,1.09.12,1.64q.41,6.86.79,13.73.13,2.23.3,4.47c0,.13-.08.38.18.36s.14-.22.13-.35c-.19-3.27-.4-6.54-.58-9.8q-.25-4.26-.47-8.52A23.42,23.42,0,0,1,41,67.77c1.28,1.48,2.84,1.11,4.36.86.43-.08.44.07.38.4-.69,3.58-1.12,7.2-1.47,10.83C44,82.58,43.8,85.3,43.67,88c0,.17,0,.35,0,.54,1-.53,1.24-1.57.9-3.48a2,2,0,0,1,.64,3.53,4.24,4.24,0,0,1-1.28.9.61.61,0,0,0-.38.62C43.39,94.1,43.2,98.06,43,102a1.53,1.53,0,0,1-.07.21,2.17,2.17,0,0,1-.13-.79c-.19-3.5-.38-7-.59-10.5,0-.23.14-.67-.21-.65s-.09.43-.08.65q.42,7.3.85,14.6a7.86,7.86,0,0,0,.1,1.45,3,3,0,0,1-1.4,1.54,2.82,2.82,0,0,1-2,.47,3.53,3.53,0,0,1-1.8-1.29c-.13-.15-.08-.31-.06-.46.56-3,1-6,1.36-9a.68.68,0,0,0-.28-.64,8.87,8.87,0,0,1-2.56-3.73A5.64,5.64,0,0,1,36,91.16c.05-.25.14-.29.35-.23l.26.07a2.41,2.41,0,0,0,2.55-.52,6.59,6.59,0,0,1-2-1.34A4.79,4.79,0,0,1,35.56,85a3.5,3.5,0,0,1,.92-1.91c.24-.26.15-.39-.08-.54l-.18-.11a1.21,1.21,0,0,1-.81-1.65,2.59,2.59,0,0,0,1.92.75c.26,0,.45,0,.43-.38a1.33,1.33,0,0,1,.47-.89,2.59,2.59,0,0,0,.57-2.69c0-.07,0-.13,0-.2s0,0,.06-.08c.49.27,1,.5,1.2,1.11a5.62,5.62,0,0,1,0,1.36C40.05,78.8,40.18,77.85,40.19,76.89Z"/><path class="cls-2" d="M87.73,72.13c.26-.08.24-.29.21-.48a5.24,5.24,0,0,1,1-3.59,7.64,7.64,0,0,0,1.44-4.8,1.4,1.4,0,0,0-.15-.67c-.46-.81-.9-1.63-1.38-2.51-1,1-1.79,2.09-2.77,3a.28.28,0,0,1,0-.3l3.08-3.94Q93.57,53.3,98,47.75c.25-.31.4-.37.78-.18a14.3,14.3,0,0,0,10,.85,46.26,46.26,0,0,0,6-1.92l.25-.07c.24-.09.31,0,.23.22l-3.31,4.25a.44.44,0,0,1-.44.22c-2.24-.16-4.48-.3-6.72-.44l-5.22-.34a.92.92,0,0,0-.59.21,33.41,33.41,0,0,0-7.24,6.33c-.67.73-1.3,1.49-2,2.22-.21.23-.19.35,0,.55.67.59,1.29,1.26,2,1.81a11.31,11.31,0,0,1,2.87,4,7.65,7.65,0,0,1,.85,3.41,14.59,14.59,0,0,1-.61,4.48c-.56,1.85-1.85,3-3.12,4.26a1.14,1.14,0,0,1-1.7.12c-.45-.34-1-.79-1.49-.75s-.84.66-1.26,1l-1.17,1.08c-.78-1.26-1.52-2.47-2.29-3.68a.44.44,0,0,1,0-.49c.17-.33.33-.67.5-1-.53-.15-1,.16-1.51-.15a.57.57,0,0,1-.24-.45c.06-.16,0-.27-.11-.39a5.85,5.85,0,0,1-.72-3.06,24.68,24.68,0,0,0,4.94,2c.14.06.29,0,.42,0a.59.59,0,0,1,.27,0A1,1,0,0,0,87.73,72.13Z"/><path class="cls-2" d="M72.89,102c-4.41-2.12-8.9-3.85-13-6.32A32.81,32.81,0,0,1,48.49,84.19l-.06-.13a.21.21,0,0,1,.26,0A64.4,64.4,0,0,0,63,90.18a31.74,31.74,0,0,1,9.77,4.61c.85.62,1.68,1.28,2.49,2a.46.46,0,0,1,.15.59A8.93,8.93,0,0,1,73.68,100,2.92,2.92,0,0,0,72.89,102Z"/><path class="cls-2" d="M102,31.37l-.11-.13a5.62,5.62,0,0,0-.1-.7,16.4,16.4,0,0,0-1.43-4,21.43,21.43,0,0,0-6.68-7.84A63.29,63.29,0,0,0,88.18,15a.37.37,0,0,1-.18-.22c.92.06,1.84.14,2.76.16,2.14,0,4,1.09,6,1.62.23.06.44.18.67.22,2,.35,3.34,1.86,4.81,3.09s2.79,2.33,4.14,3.53a18.09,18.09,0,0,1,2.06,2.55c1.73,2.21,3.43,4.43,5.14,6.65.07.1.13.2.22.35-.85,0-1.34-.65-2-1a1.58,1.58,0,0,1-.75-.5,7.24,7.24,0,0,0-1.34-1.07,1.53,1.53,0,0,0-2.06.13,1.14,1.14,0,0,1-.29.15,4,4,0,0,0-.87,1.44.75.75,0,0,1-.45.47l-3.37,1.19a1.1,1.1,0,0,1-.26,0c-.29-.31-.09-.72-.21-1.06,0-.13,0-.26,0-.38l-.12-.24C102.1,31.85,102,31.62,102,31.37Z"/><path class="cls-2" d="M46.81,114.49a32.14,32.14,0,0,0-2.65,6.32,20.41,20.41,0,0,0,.06,12.3c1.37,4,3.8,7,7.87,8.5a12.51,12.51,0,0,0,9.77-.74A21.26,21.26,0,0,0,67,137.45a1.19,1.19,0,0,1,.53-.39,6.5,6.5,0,0,1-.13,1.82c-.26,2.46-.55,4.92-.83,7.38,0,.44,0,.82-.66.91a22.77,22.77,0,0,1-12-1.27A17.94,17.94,0,0,1,42.7,132a23,23,0,0,1,2.11-14.3,22.7,22.7,0,0,1,1.87-3.37C46.79,114.33,46.85,114.36,46.81,114.49Z"/><path class="cls-2" d="M50.92,106.19a25.14,25.14,0,0,1,5-5.34,9.14,9.14,0,0,1,8.89-1.45c2,.66,3.81,1.62,5.7,2.47l1.75.77a22,22,0,0,0-2.11,3.55,6,6,0,0,0-.6,3.13c0,.25,0,.39-.32.38a5.27,5.27,0,0,1-4.78-2.38c-1.5-2.44-3.76-2.9-6.35-2.63a38.35,38.35,0,0,0-6.78,1.41Z"/><path class="cls-2" d="M62.44,130.46A6.11,6.11,0,0,0,59,128.3c-1.19-.35-2.4-.61-3.57-1A5.84,5.84,0,0,1,51,121.53a26,26,0,0,1,.57-6.58c0-.18,0-.44.38-.37a19.45,19.45,0,0,1,5.93,2,6.6,6.6,0,0,1,3.28,4.92c.24,1.43.28,2.86.41,4.29a21,21,0,0,0,.79,4.17A.8.8,0,0,1,62.44,130.46Z"/><path class="cls-2" d="M74.45,36l-.23.46c-.32.16-.48.47-.72.7-.55.62-1.19,1.15-1.69,1.81a.57.57,0,0,1-.92.11,5.62,5.62,0,0,1-1.3-1,21.06,21.06,0,0,1-1.74-2,3.74,3.74,0,0,0-1.69-1l2.67-.59c.32-.07.54-.12.25-.52a4.06,4.06,0,0,1-.51-1.12A2.63,2.63,0,0,1,69.09,30c.34-.4.69-.78,1-1.18.13-.15.21-.29-.07-.4a17.53,17.53,0,0,1-2.78-1.62,5.29,5.29,0,0,0-3.37-.94,3.55,3.55,0,0,1,4-1.19c.8.3,1.56.71,2.35,1a3.41,3.41,0,0,0,1.84.31.8.8,0,0,1,.46.09c1.09.44,2.18.91,3.28,1.34.32.12.33.25.23.55-.43,1.23-.75,2.51-1.25,3.71A7.59,7.59,0,0,0,74.45,36Z"/><path class="cls-2" d="M68,68.86a23.13,23.13,0,0,0-6.88-1.38,69,69,0,0,0-9.54-.08,80.39,80.39,0,0,0-9.16,1,.44.44,0,0,1-.46-.14,3.37,3.37,0,0,1-1.26-1.75,3.45,3.45,0,0,1,.47-2.11c.1-.2.28-.14.43-.14,3.4,0,6.8,0,10.19.19A52.13,52.13,0,0,1,61.9,66a18,18,0,0,1,5.82,2.56A.55.55,0,0,1,68,68.86Z"/><path class="cls-2" d="M66.79,113.15a14.84,14.84,0,0,1,3.11,1,4.07,4.07,0,0,1,1.86,1.57,1.59,1.59,0,0,1,0,1.76,11.2,11.2,0,0,0-1.59,4.07,6,6,0,0,0,.44,3,8.05,8.05,0,0,1,.25,4.71,1.11,1.11,0,0,1-.47.73c-.88.59-1.73,1.22-2.6,1.84-.09-.19.07-.27.14-.38a9.39,9.39,0,0,0,1.55-3.68,5.39,5.39,0,0,0-.73-3.78,23.51,23.51,0,0,1-2.39-5.26,10.81,10.81,0,0,0-4.8-6,2.55,2.55,0,0,1-.23-.19l3.16.22a1.73,1.73,0,0,1,.75,0c.3.08.61.09.9.17A.89.89,0,0,1,66.79,113.15Z"/><path class="cls-2" d="M76.17,103.48s.13,0,.15,0c.88-1.44,2.17-2.55,3.14-3.92.26-.37.49-.75.73-1.12.2,0,.14.11.1.22a7,7,0,0,0,0,2.19,1.94,1.94,0,0,0,1.51,1.57l.1,0c.36.14.9,0,1.06.41a2.7,2.7,0,0,1,.33,1.81c-.21.76-.38,1.53-.56,2.29a5.59,5.59,0,0,0-.13,2.3c.06.3,0,.35-.28.42a8.25,8.25,0,0,1-4.1-.06,11.67,11.67,0,0,0-1.31-.26,2,2,0,0,0-1.63.37,14.31,14.31,0,0,1,.31-4.59.42.42,0,0,1,0-.27,3.36,3.36,0,0,0,.14-.45.79.79,0,0,1,.08-.26,1,1,0,0,0,.2-.41A.35.35,0,0,1,76.17,103.48Z"/><path class="cls-2" d="M76.29,114.25l-.11.11-3.61-.54c-1.58-.23-3.16-.45-4.74-.71-.35-.06-.71,0-1-.13-.14.09-.28,0-.43,0-.36-.08-.74-.09-1.09-.2a1.81,1.81,0,0,1-.76-.15c-2.85-.53-5.73-.92-8.6-1.32-2.36-.32-4.72-.65-7.09-.92s-4.92-.54-7.39-.7c-.22,0-.56.07-.63-.15s.22-.38.38-.54l.43-.4a10.32,10.32,0,0,0,1.38-1.5,4.51,4.51,0,0,0,0-2.07,42.18,42.18,0,0,0,4.66,2.13,81.09,81.09,0,0,0,13.24,3.63l1.16.22a10.35,10.35,0,0,1,2.07.31c1.19.22,2.34.57,3.54.69a.32.32,0,0,1,.17,0,12.18,12.18,0,0,0,1.78.44c2,.41,4.07.91,6.08,1.43C76,114,76.23,113.94,76.29,114.25Z"/><path class="cls-2" d="M91.64,82.72c.06,0,.17-.13.16.06s0,.23-.07.35c-.2.9-.62,1.72-.84,2.61a25.93,25.93,0,0,0-.63,3.5,3.64,3.64,0,0,1-.05.74,16.36,16.36,0,0,0-.06,2.21v1a2.12,2.12,0,0,0,.06.71,9.52,9.52,0,0,0,.11,1.06,3,3,0,0,1,0,.67c0,.15,0,.36-.18.4s-.13-.12-.13-.22c-.16.13-.3-.44-.51,0-.06.13-.19.24-.22.4a.35.35,0,0,1-.08.13c-.34.2-.55-.17-.84-.2-.39-.2-.7-.51-1.09-.69s-.29-.38-.26-.65c.08-.54.15-1.09.26-1.64a.77.77,0,0,0-.25-.77,4.62,4.62,0,0,0-1.25-1.08c-.2-.1-.42-.15-.63-.24a.53.53,0,0,1-.23-.19,20,20,0,0,1,1.33-5.55c.44-1.17.92-2.32,1.39-3.49.34.21.66.42,1,.62A1.07,1.07,0,0,0,90,82.25c.69-.6.75-.58,1.23.18a1.92,1.92,0,0,0,.27.39C91.64,83,91.6,82.76,91.64,82.72Z"/><path class="cls-2" d="M67.86,112.09h-.07c-1.16-.1-2.26-.47-3.4-.65a10.88,10.88,0,0,1-2-.51,127.3,127.3,0,0,1-12.61-3.37,38.27,38.27,0,0,1-5.64-2.38c0-.1,0-.17.13-.12,2.5.67,5,1.37,7.53,2,4.65,1.13,9.34,2.1,14.08,2.76a49.78,49.78,0,0,0,8.27.57c.21,0,.37,0,.48.24a3.87,3.87,0,0,0,1.86,1.8c.49.26.7.54.38,1.06a1.8,1.8,0,0,0-.12.47l0,0c-.28.21-.56.07-.83,0-2-.48-4-.94-6.06-1.35A15.06,15.06,0,0,1,67.86,112.09Z"/><path class="cls-2" d="M85,90.82l.18.07a2.92,2.92,0,0,0,.61.31,3.28,3.28,0,0,1,.67.45,2.07,2.07,0,0,1,.73,2.4c-.12.36-.2.73-.29,1.1a.54.54,0,0,0,.45.76,3.31,3.31,0,0,1,2.2,1.76,3.83,3.83,0,0,0,1.27,1.44c.3.19.27.39,0,.58a5.8,5.8,0,0,1-.87.42l-.12.13c-.37,0-.61.28-.94.35a1.26,1.26,0,0,1-.46.16,5.23,5.23,0,0,0-2.53,2c-.19.24-.36.5-.57.79a5.38,5.38,0,0,0-4.57-2.26l1.51-1.72a10.9,10.9,0,0,0,2.6-6.64C84.87,92.22,84.91,91.52,85,90.82Z"/><path class="cls-2" d="M75.85,104.16v.28c-.16.06-.18.21-.24.34a1.83,1.83,0,0,1-.18.3,7.75,7.75,0,0,0-1.23,4.59c0,.18,0,.26-.21.24q-1.63-.19-3.27-.36c-.3,0-.34-.12-.28-.42a28.55,28.55,0,0,1,3.43-8.41,39.17,39.17,0,0,0,3.54-6.91c.28-.79.51-1.59.8-2.49a28.79,28.79,0,0,1-.14,4,26.76,26.76,0,0,1-1.87,7.92,1.15,1.15,0,0,0,0,.26.18.18,0,0,1-.1.19A3.64,3.64,0,0,1,75.85,104.16Z"/><path class="cls-2" d="M119,74.74c-.49-.12-.76-.58-1.2-.77-.15-.07-.14-.53-.46-.19.12-.25-.33-.27-.23-.54a.82.82,0,0,1,.32-.47c.11.21-.08.48.15.66.1-.19.08-.42.21-.6h0a1.57,1.57,0,0,1,.42-.91l.12-.44a.38.38,0,0,1,0-.21s0-.06,0-.06-.19.19-.3.27-.3.16-.26.37A2.55,2.55,0,0,0,117,73c-.16.13-.15.36-.29.5s-.12.08-.18,0c-.39-.28-.49-.8-.9-1.07a3.74,3.74,0,0,0-.28-.52c-.37-.65-.87-1.2-1.25-1.84s0-1.29.19-2c.19.17.18.4.26.59a2.54,2.54,0,0,0,1.83,1.59,1.53,1.53,0,0,1,1.15.61c.12.21.25,0,.35,0A2.36,2.36,0,0,0,119,69.25c0-.15,0-.33.12-.46a1.62,1.62,0,0,1,.29,2c-.29.66-.29.66.38.85a3.89,3.89,0,0,1,2.79,3.4,6.26,6.26,0,0,1-.68,3.75.39.39,0,0,0-.06.32A2.23,2.23,0,0,0,124.15,78c.24-.37.41-.4.74,0a6.74,6.74,0,0,1,1.57,5.67c0,.4-.12.81-.18,1.22-.12.06-.15,0-.2-.1a5.81,5.81,0,0,0-2.64-3.93,13.42,13.42,0,0,0-1.92-1.16c-.18-.09-.36-.17-.3-.42l.32-.75c0-.27,0-.53,0-.8l0-.2a.89.89,0,0,1-.2-.44l-.31-.4a1.92,1.92,0,0,0-.56-.54h0c-.23-.15-.27-.5-.59-.55l-.54-.54A.53.53,0,0,1,119,74.74Z"/><path class="cls-2" d="M84.73,64.34a.81.81,0,0,0-.26.37c-.14.35-.34.48-.61.13s-.39-.13-.56,0c-.38.26-.74.55-1.22.91.43-1.31,1.11-2.37,1.55-3.54a1.39,1.39,0,0,1,.24-.59,1.43,1.43,0,0,0,.21-.45A26.42,26.42,0,0,1,86,58.08a1.13,1.13,0,0,0,.31-.38,1.2,1.2,0,0,1,.18-.31,2.86,2.86,0,0,0,.42-.5,3.61,3.61,0,0,0,.33-.44,2.85,2.85,0,0,1,.23-.26c.19-.2.29-.5.6-.57,1.11-1.18,2.19-2.38,3.38-3.48,1.41-1.3,2.94-2.48,4.4-3.72a1.63,1.63,0,0,1,.35-.17A14.37,14.37,0,0,1,95,50.48a75.93,75.93,0,0,1-7,9.12,31,31,0,0,0-2.92,3.93,2.28,2.28,0,0,0-.36.83Z"/><path class="cls-2" d="M75.75,116.07h1a37.72,37.72,0,0,0-1.68,4.48,31.83,31.83,0,0,0-1.16,10.18c0,.41-.07.51-.48.5-.82,0-1.65,0-2.52,0,.24-.91.5-1.79.71-2.69a45.9,45.9,0,0,0,1-10.32c0-.56,0-1.12,0-1.67s.12-.49.48-.46.83,0,1.24,0A2.45,2.45,0,0,1,75.75,116.07Z"/><path class="cls-2" d="M86.56,57.42l-.13.37a.58.58,0,0,0-.32.35,32.37,32.37,0,0,0-2,3.11,2.62,2.62,0,0,0-.24.34c-.12.18-.18.39-.37.51l-.37.52c-.1,0-.14,0-.16-.13a2.68,2.68,0,0,1,.49-1.07,87,87,0,0,1,5.34-8.49c.13-.2.3-.38.42-.59s.18-.21.25-.33.3-.34.41-.55.18-.21.26-.33.32-.36.41-.59a2.07,2.07,0,0,0,.34-.44c.09-.13.24-.21.32-.36s.23-.29.33-.44a6.05,6.05,0,0,1,.55-.68A30,30,0,0,1,96,44.5c.55-.48,1.1-1,1.69-1.42.16-.11.26-.22.14-.44a.63.63,0,0,1,0-.47c.08-.37.35-.45.61-.19.11.11.2.32.36.14s.08-.37-.11-.51a1.18,1.18,0,0,0-.19-.11c-.7-.27-.78-.85-.74-1.49l0-.06h.91c.14,0,.3,0,.29.2s-.15.15-.26.16-.41-.1-.46.15.13.39.34.49l.23.14c.43.19.8.41.54,1.06a8.57,8.57,0,0,1,2.92-1,34.31,34.31,0,0,1-2.54,3.28,34.89,34.89,0,0,1-5.94,5.05,28.94,28.94,0,0,0-5.74,5.8,1.08,1.08,0,0,0-.12.24,2.11,2.11,0,0,1-.45.69,3.65,3.65,0,0,1-.26.32c-.06.18-.22.28-.31.43S86.66,57.24,86.56,57.42Z"/><path class="cls-2" d="M114.29,33.58A46.83,46.83,0,0,0,121.18,40c1.24,1,2.47,1.92,3.78,3a5.5,5.5,0,0,0-1.37.47,1.44,1.44,0,0,1-1.43-.08,9.78,9.78,0,0,0-1.72-.76c-.22-.09-.31,0-.42.15-.27.46-.58.9-.85,1.37a.48.48,0,0,1-.52.27c-.32,0-.65,0-1,0s-.69-.07-.61.49c0,.26-.22.17-.36.16l-2.48-.11a.93.93,0,0,0-.69.21,11.85,11.85,0,0,0-1.33,1c-.72.76-1.59.6-2.46.56-.24,0-.29-.19-.37-.34-.41-.71-.82-1.43-1.22-2.15-.09-.16-.18-.34-.38-.34s-.23.25-.3.4c-.26.59-.52,1.18-.76,1.78a.42.42,0,0,1-.48.31,4.36,4.36,0,0,0-1,0,2.15,2.15,0,0,1-1.87-.74c-.34-.32-.21-.7,0-1A5.36,5.36,0,0,1,104,44c.15.06.17.25.27.39s.15.18,0,.28-.15.11-.24,0c-.31-.25-.37.09-.46.23s-.06.33.11.51c.7.77,1.62.52,2.47.56.16,0,.18-.14.23-.26.26-.63.53-1.26.81-1.88.07-.16.06-.47.32-.41s.65,0,.84.35c.35.68.75,1.34,1.1,2a.85.85,0,0,0,.81.53,2.11,2.11,0,0,0,1.72-.56l.09,0c1.8-1.31,1.8-1.32,4-1.08.35,0,.72.12.62-.46,0-.2.1-.23.27-.21a4.49,4.49,0,0,1,.64,0c1,.27,1.52-.29,1.88-1.1,0-.1.17-.21,0-.28-.62-.31-1.1-.92-1.93-.83-.43,0-.33.31-.37.56a.57.57,0,0,0,.4.67.25.25,0,0,0,.27-.37c-.06-.13-.2-.2,0-.35s.23,0,.3.09.4.15.26.38a7.47,7.47,0,0,1-.59.77c-.06.06-.12,0-.19,0a1.81,1.81,0,0,1-.74-2,.22.22,0,0,1,.22-.12,5.83,5.83,0,0,1,1.38,0,1,1,0,0,0-.23-.74c-.84-1.71-1.93-3.27-2.91-4.9a15.09,15.09,0,0,1-1.18-2.16C114.13,33.6,114.18,33.57,114.29,33.58Z"/><path class="cls-2" d="M82.53,73.31a.58.58,0,0,1,.24.45,5.49,5.49,0,0,0,.85,1.95c.71,1.26,1.49,2.49,2.23,3.73.26.43.47.89.71,1.33a3.52,3.52,0,0,1-.16,3.44,11.5,11.5,0,0,0-1.49,3.36c-.29-.07-.11-.29-.14-.44a4.58,4.58,0,0,0,0-.64,16.61,16.61,0,0,0-.91-4c0-.1-.07-.21-.19-.24a2.13,2.13,0,0,1-.38-.87,1.17,1.17,0,0,0-.19-.57.5.5,0,0,1,0-.13,1.47,1.47,0,0,0-.11-.46c0-.1,0-.22,0-.33a19.34,19.34,0,0,1-.6-3.64A9.17,9.17,0,0,1,82.53,73.31Z"/><path class="cls-2" d="M82.82,16.82c-.55-.22-.63-.63-.61-1.18,0-1,0-2,0-3a.71.71,0,0,1,.42-.72c1-.55,1-.56,1.81.21s1.69,1.57,2.54,2.33a.56.56,0,0,1,.22.51c0,.27,0,.54,0,.81s-.15.49-.41.59c-.92.35-1.83.74-2.78,1A3.2,3.2,0,0,1,82.82,16.82Z"/><path class="cls-2" d="M105.71,38.48a1,1,0,0,0,.34-.11,2.14,2.14,0,0,1,2.22-.18,5.71,5.71,0,0,0,2.5.26.48.48,0,0,0,.43-.32,3.72,3.72,0,0,1,1.16-1.53,2.27,2.27,0,0,0,.58-.62c.22-.41.35-.28.59,0a6.65,6.65,0,0,1,1.54,2.37,7.14,7.14,0,0,0,1.31,2.24,15.72,15.72,0,0,1-4-.46c-1.89-.44-3.71-1.12-5.64-1.39l-1.06-.15Z"/><path class="cls-2" d="M75,78.36c-.42-.09-.85,0-1.28-.15a2.64,2.64,0,0,1-2.27-2.6,7.79,7.79,0,0,1,.09-2.1.84.84,0,0,1,1.39-.61,4.68,4.68,0,0,1,1.32,1.48A17.87,17.87,0,0,1,76,78c.11.29.12.47-.3.39A6.16,6.16,0,0,0,75,78.36Z"/><path class="cls-8" d="M89.5,63.8A7.46,7.46,0,0,1,88,66.53a7.25,7.25,0,0,1-5.17,2.65c-3.08.2-5.63-1.69-5.58-5a12.19,12.19,0,0,1,1.89-5.82c.12.07.09.16.08.23s0,.13-.07.2a15.31,15.31,0,0,0-.77,4.93,5.58,5.58,0,0,0,1.15,3.51,4.3,4.3,0,0,0,5,1.09,8.81,8.81,0,0,0,4.62-4C89.19,64.11,89.22,63.9,89.5,63.8Z"/><path class="cls-9" d="M83.31,81.32a2.44,2.44,0,0,1,.32.94c-.23.14,0,.29,0,.42a29.14,29.14,0,0,1,.42,5.75A38.17,38.17,0,0,1,83,97a6.36,6.36,0,0,1-.92,2.27c-.34.46-.73.42-1,0a.42.42,0,0,1,0-.48,19.28,19.28,0,0,0,2-6.86,33,33,0,0,0,.22-5.71,37,37,0,0,0-.82-6.45c.17,0,.19.19.29.28s.15.18.19.29.1.25.13.38l0,.13A1.39,1.39,0,0,1,83.31,81.32Z"/><path class="cls-2" d="M99.63,36.2c0-.06-.08-.13-.16-.09s-.18.2-.23,0a.15.15,0,0,1,.15-.18c.26,0,.32,0,.19-.3s.16-.45.27-.39c.28.15.61,0,.85.19s.21-.13.35-.12l.26-.32c.22,0,.3-.29.52-.33l0-.06c.2-.06.19.07.19.2L102,38.18a.71.71,0,0,1-.1.35l-1.72,2.86a4.28,4.28,0,0,0-1.84-3.27c-.32-.26-.3-.4,0-.59a.34.34,0,0,0,.13-.28h0c.25,0,.32-.26.5-.37s.53-.44.81-.64l.12-.09c-.07,0-.08.07-.14.08A.19.19,0,0,1,99.63,36.2Z"/><path class="cls-10" d="M103.1,36.79c0-.65-.09-1.27-.12-1.89a1,1,0,0,1,.81-1.21c.39-.12.8-.2,1.19-.31.19-.06.31.06.44.14a7.38,7.38,0,0,0,3.65,1.13c.28,0,.41.07.35.36a1.5,1.5,0,0,0,0,.22c-.08,1.2-.08,1.2-1.28.91a10.56,10.56,0,0,0-2.1-.42,3.35,3.35,0,0,0-2.53.84,2.37,2.37,0,0,1-.3.23Z"/><path class="cls-9" d="M111.71,32.07c.69,1.11,1.56,2.09,2.33,3.14a9.44,9.44,0,0,1,.68,1c-1.18-1-2.68-1.27-4-2a4.79,4.79,0,0,1-.82-.6.42.42,0,0,1-.2-.35A1.31,1.31,0,0,0,108,32c-.41.1-.81.26-1.24.37.66-.36.4-1.1.7-1.6s.71-.71,1.33-.4a2.41,2.41,0,0,1,.84.65,1.87,1.87,0,0,0,1.55.8C111.42,31.83,111.62,31.84,111.71,32.07Z"/><path class="cls-2" d="M90.63,79.65a1.94,1.94,0,0,1-1.81,2,2,2,0,0,1,0-4A2,2,0,0,1,90.63,79.65Z"/><path class="cls-11" d="M88.93,52.93c-1.06,1.64-2.13,3.27-3.17,4.92s-1.88,3.06-2.68,4.66a2.3,2.3,0,0,1-.27.65,2,2,0,0,0-.26.48l-1,1.69A1.4,1.4,0,0,1,81.2,64a7,7,0,0,1,1.65-3.39q2.72-3.59,5.46-7.15c.16-.21.34-.41.52-.61C88.92,52.8,89,52.82,88.93,52.93Z"/><path class="cls-8" d="M87.31,71.92l-.24.1c0-.16-.24-.17-.31-.3a9.24,9.24,0,0,0-4.3-1.87c-.06-.22.16-.1.21-.18a8,8,0,0,0,4.93-1.58c0,.06,0,.12,0,.15A2.56,2.56,0,0,0,87.37,71c.14.33.24.67.35,1C87.54,72.17,87.42,72.08,87.31,71.92Z"/><path class="cls-8" d="M81.47,56.27l.11.3a8.9,8.9,0,0,1-2.32,2.86c.69-1.42.36-2.88.69-4.25a6,6,0,0,1,.56-1.54,4.58,4.58,0,0,1,.86,2A.87.87,0,0,1,81.47,56.27Z"/><path class="cls-12" d="M107.92,42.75c.64-.23.92.22,1.16.8s.44.94.67,1.41a.61.61,0,0,0,1.06.17c.6-.59,1.2-1.18,1.78-1.79a1,1,0,0,1,.75-.34c.76,0,1.51,0,2.27,0,.14,0,.36-.07.36.18s-.23.16-.35.17a14.62,14.62,0,0,1-1.62.06,1.79,1.79,0,0,0-1.62.71c-.41.5-.91.92-1.36,1.39a.9.9,0,0,1-.51.24,1,1,0,0,1-1.24-.77c-.17-.51-.47-1-.68-1.46a.41.41,0,0,0-.49-.3c-.41,0-.82-.07-1.24.18-.67.41-.58,1-.61,1.6,0,.24.12.59-.12.69a3,3,0,0,1-1,.12c-.15,0-.16-.14-.16-.24s.17-.17.29-.15c.6.1.64-.24.63-.72C105.86,43.35,106.49,42.76,107.92,42.75Z"/><path class="cls-13" d="M69.59,38c.49.33,1,.64,1.47,1,.24.18.38.11.57-.09A25,25,0,0,1,73.47,37q.16,0,.12.12a21.23,21.23,0,0,1-1.46,1.93c-.14.19-.17.27.06.39a5.62,5.62,0,0,1,2.17,2.41c.36.67.7,1.34,1,2a45.46,45.46,0,0,0-5.87-5.82Z"/><path class="cls-14" d="M130.93,91.76a1.73,1.73,0,0,1-1.22-.67c-3-3.07-5.72-6.35-8.47-9.63-.27-.33-.56-.66-.82-1-.09-.11-.31-.24-.12-.4s.27.08.36.19c1.1,1.31,2.19,2.63,3.3,3.92s2,2.41,3.16,3.53c.72.61,1.35,1.31,2,2,.3.41.73.71,1,1.13A2.69,2.69,0,0,1,130.93,91.76Z"/><path class="cls-15" d="M111.71,32.07a.28.28,0,0,0-.09,0,3.08,3.08,0,0,1-2.45-1.28c-.58-.6-1.08-.53-1.67,0l-.12-.11a1.57,1.57,0,0,1,2.34-.43,12,12,0,0,1,2.1,1.72Z"/><path class="cls-16" d="M96.9,42a.3.3,0,0,0,0-.16c-.14-.2-.53-.13-.49-.54s.08-1,.6-1.26.45-.61.45-1-.21-.85.12-.86.16.53.21.82a1.36,1.36,0,0,1,0,1h0a1.77,1.77,0,0,1-.52.6c-.38.34-.37.53,0,.86.15.11.3.22.23.44a.39.39,0,0,1-.48.25A.38.38,0,0,1,96.9,42Z"/><path class="cls-17" d="M84,17.28c.92-.35,1.83-.71,2.75-1a.66.66,0,0,0,.48-.49h.11c.09.49-.13.73-.6.88-.78.24-1.54.56-2.3.85-.19.07-.36.15-.54,0S83.89,17.33,84,17.28Z"/><path class="cls-18" d="M129.07,89.75a18.9,18.9,0,0,1-1.95-2c.12-.11.24.34.36,0l1.72,2C129.21,89.74,129.19,89.79,129.07,89.75Z"/><path class="cls-19" d="M43.24,63.84c.18.14.38.08.57.08h4c.19,0,.4-.07.57.09H42V64Z"/><path class="cls-20" d="M79.51,63.82l.45.71c.06.32.43.41.53.71a2.8,2.8,0,0,0,.87.65c0,.09,0,.16-.12.09a2.94,2.94,0,0,1-1.83-1.93C79.36,63.94,79.32,63.83,79.51,63.82Z"/><path class="cls-21" d="M43,107.12a2.49,2.49,0,0,1-1.38,1.5l-.12-.1a8.52,8.52,0,0,0,1.4-1.54Z"/><path class="cls-22" d="M114.08,70.1a6.17,6.17,0,0,1,1.31,1.81c.06.11,0,.12-.1.11L114,70.18Z"/><path class="cls-23" d="M62.35,110.93l2.05.43c0,.21-.15.12-.26.1a11.06,11.06,0,0,1-2-.43Z"/><path class="cls-24" d="M40.19,76.89a31.15,31.15,0,0,1-.15,3.2,6,6,0,0,1,0-1.69c.19-.3.05-.63.09-1S40,77.06,40.19,76.89Z"/><path class="cls-25" d="M88.47,63.6a2,2,0,0,1-.78,1.34,8.71,8.71,0,0,0,.67-1.58C88.47,63.4,88.41,63.53,88.47,63.6Z"/><path class="cls-26" d="M102.3,32.61a6.45,6.45,0,0,1,.13,1.17.41.41,0,0,1-.22.23c-.14,0-.18,0-.13-.17a3.45,3.45,0,0,1,.11-1C102.18,32.77,102.08,32.62,102.3,32.61Z"/><path class="cls-27" d="M102.72,57.75l-1.26.78c-.12,0-.14,0-.12-.11a7.85,7.85,0,0,1,1.3-.85l.11.09s0,.06,0,.07Z"/><path class="cls-28" d="M75.75,116.07H74.33v-.18h1.42Z"/><path class="cls-29" d="M86.09,62.81l0,.3a3,3,0,0,1-.66.71.12.12,0,0,1-.17,0A5.82,5.82,0,0,1,86.09,62.81Z"/><path class="cls-30" d="M46.81,114.49l-.13-.14a5.57,5.57,0,0,1,.67-1.06c.1,0,.16,0,.11.12A6.59,6.59,0,0,1,46.81,114.49Z"/><path class="cls-31" d="M84.73,86.49c.24.33,0,.74.18,1.08l-.12,1.18c-.09,0-.14,0-.09-.1Z"/><path class="cls-32" d="M68.49,133.83c-.15-.42,0-.88-.18-1.29,0-.15.08-.16.19-.15a3.4,3.4,0,0,1,.1,1.1C68.52,133.59,68.62,133.74,68.49,133.83Z"/><path class="cls-33" d="M129.07,89.75l.13-.11c.33.38.79.66,1,1.17A6.14,6.14,0,0,1,129.07,89.75Z"/><path class="cls-34" d="M115.48,46a2.9,2.9,0,0,1,1-.62,1.72,1.72,0,0,1-1,.79A.12.12,0,0,1,115.48,46Z"/><path class="cls-35" d="M84,17.28l-.1.19a6,6,0,0,1-1.21-.62l.18,0C83.23,16.89,83.54,17.23,84,17.28Z"/><path class="cls-36" d="M79.51,63.82l-.1.23a1.8,1.8,0,0,1-.19-1C79.53,63.23,79.46,63.55,79.51,63.82Z"/><path class="cls-37" d="M93.22,60.25c.06.19.65.12.27.54a1.26,1.26,0,0,1-.52-.7C93.11,60.05,93.17,60.14,93.22,60.25Z"/><path class="cls-38" d="M87.43,56.15a2.71,2.71,0,0,1,.51-.66l.13.13-.55.65A.14.14,0,0,1,87.43,56.15Z"/><path class="cls-39" d="M85.3,63.8l.17,0a5.51,5.51,0,0,1-.62.66c-.26.2-.09-.07-.12-.14v0C85,64.23,85.09,64,85.3,63.8Z"/><path class="cls-34" d="M115.17,46.65a.2.2,0,0,0-.23-.22v-.21a.53.53,0,0,1,.53,0A.66.66,0,0,1,115.17,46.65Z"/><path class="cls-40" d="M80.49,65.24c-.21-.21-.55-.33-.53-.71l.64.58Z"/><path class="cls-41" d="M88.4,62.85v-.61a1.4,1.4,0,0,1,.1,1.06C88.36,63.18,88.5,63,88.4,62.85Z"/><path class="cls-38" d="M82.12,28.28l.41.55c0,.05,0,.12-.11.13L82,28.4Z"/><path class="cls-42" d="M81.47,56.27a1.91,1.91,0,0,1-.1-.67l.12-.11C81.58,55.75,81.69,56,81.47,56.27Z"/><path class="cls-43" d="M115.47,46.21h-.53l-.39,0c.31-.15.65,0,.93-.23l0,.17A.11.11,0,0,1,115.47,46.21Z"/><path class="cls-44" d="M82.76,63.11a1.25,1.25,0,0,1,.32-.6l.1.11a2,2,0,0,1-.41.67A.14.14,0,0,1,82.76,63.11Z"/><path class="cls-45" d="M64.51,112.65l.76.11a.06.06,0,0,1,0,.07l0,0a1.78,1.78,0,0,1-.76-.11Z"/><path class="cls-46" d="M84.07,66.43a4.42,4.42,0,0,0,1-.11s0,0,0,.05,0,0,0,0a1.51,1.51,0,0,1-1,.1s0,0,0,0Z"/><path class="cls-47" d="M102.72,57.75a.32.32,0,0,1,0-.09c.18,0,.32-.26.54-.11h0c-.06.21-.27.25-.42.35Z"/><path class="cls-48" d="M84.07,66.43v.07a1.85,1.85,0,0,1-.93-.07Z"/><path class="cls-49" d="M96.9,42H97c0,.3-.09.5-.43.51l-.08-.07A.86.86,0,0,1,96.9,42Z"/><path class="cls-50" d="M101.78,30.54c.08.23.29.44.1.7-.16-.12-.14-.31-.19-.48Z"/><path class="cls-51" d="M102.08,33.84l.13.17c0,.2-.15.31-.29.42A.84.84,0,0,1,102.08,33.84Z"/><path class="cls-52" d="M88.37,100.75l.44-.22c.11-.06.12,0,.1.09l-.42.22Z"/><path class="cls-53" d="M47.46,113.41l-.11-.12.31-.44a.19.19,0,0,1,.1.1A1,1,0,0,1,47.46,113.41Z"/><path class="cls-54" d="M83.55,62.1l.31-.55c.09,0,.15,0,.09.11s-.13.41-.32.54Z"/><path class="cls-55" d="M62.59,61.79c-.16.14-.37.07-.55.1s-.14,0-.1-.1l.53-.12Z"/><path class="cls-56" d="M81.24,66l.12-.09.53.22c0,.1,0,.15-.12.09A.93.93,0,0,1,81.24,66Z"/><path class="cls-57" d="M82.67,69.67l-.21.18c-.13,0-.23,0-.36-.15A1,1,0,0,1,82.67,69.67Z"/><path class="cls-58" d="M92,58.29c-.2.11-.46-.06-.66.12-.11-.06-.18-.17,0-.18A3,3,0,0,1,92,58.29Z"/><path class="cls-59" d="M126.08,84.77l.2.1a.47.47,0,0,1-.15.43A.91.91,0,0,1,126.08,84.77Z"/><path class="cls-60" d="M114.29,33.58l-.11.14a1.51,1.51,0,0,1-.3-.58A.64.64,0,0,1,114.29,33.58Z"/><path class="cls-61" d="M66.4,112.94l.39,0v.17l-.65-.11C66.16,112.83,66.3,112.94,66.4,112.94Z"/><path class="cls-62" d="M81.77,66.2l.12-.09.44.14A.48.48,0,0,1,81.77,66.2Z"/><path class="cls-38" d="M95.08,38.22a1.09,1.09,0,0,1,.32.44h-.17L95,38.33A.18.18,0,0,1,95.08,38.22Z"/><path class="cls-63" d="M84.72,89a2.4,2.4,0,0,1-.06.7,1.26,1.26,0,0,1,0-.69S84.68,89,84.72,89Z"/><path class="cls-64" d="M92.59,59.73c0-.06,0-.17.08-.15a.39.39,0,0,1,.26.23c0,.07-.11.11-.1.19A.53.53,0,0,1,92.59,59.73Z"/><path class="cls-65" d="M87.31,71.92a.6.6,0,0,0,.41.1v.11C87.51,72.23,87.32,72.25,87.31,71.92Z"/><path class="cls-66" d="M88.4,62.85c.13.13,0,.31.1.45l0,.3-.11-.24Z"/><path class="cls-67" d="M92.83,60a.2.2,0,0,1,.1-.19c.13.12.34.19.29.44L93,60.09Z"/><path class="cls-68" d="M47.76,113l-.1-.1a.48.48,0,0,1,.27-.29C48,112.75,47.84,112.84,47.76,113Z"/><path class="cls-69" d="M86.76,71.72c.11.09.39,0,.31.3l-.43-.2Z"/><path class="cls-70" d="M82.76,63.11v.18a.53.53,0,0,1-.22.35C82.4,63.38,82.7,63.29,82.76,63.11Z"/><path class="cls-71" d="M80.29,98.61l-.1-.22c0-.11,0-.24.18-.3A.6.6,0,0,1,80.29,98.61Z"/><path class="cls-72" d="M103.29,57.55c0-.2.13-.25.32-.27,0,.24-.16.26-.33.26Z"/><path class="cls-73" d="M84.72,89h-.1a.29.29,0,0,1,.08-.34l.09.1A.18.18,0,0,1,84.72,89Z"/><path class="cls-74" d="M75.43,105.08l.11-.32c.1,0,.16,0,.11.12s0,.16-.09.2Z"/><path class="cls-75" d="M44.23,105.06l-.13.12-.34-.15A.36.36,0,0,1,44.23,105.06Z"/><path class="cls-76" d="M86.31,66.05a.74.74,0,0,1-.21.07s0-.06-.08-.09l.19-.08C86.28,65.93,86.3,66,86.31,66.05Z"/><path class="cls-77" d="M85,66.4v-.08l.43-.07C85.34,66.47,85.17,66.4,85,66.4Z"/><path class="cls-78" d="M82.9,80.33,82.77,80l.11-.11a.41.41,0,0,1,.12.31C83.05,80.32,83,80.35,82.9,80.33Z"/><path class="cls-2" d="M89.08,120.62H89a11.51,11.51,0,0,1-1-1.08c-.15-.24-.29-.5-.44-.74-.5-.83-.4-1.48.38-2.51A22.55,22.55,0,0,1,91,112.19a8.11,8.11,0,0,0,2.13-6.28c0-.21,0-.42,0-.69a9.58,9.58,0,0,1,5.44,5.37,10.39,10.39,0,0,1-.15,8.51,4.62,4.62,0,0,1-4.12,2.73,9.37,9.37,0,0,1-4.17-.56,1.29,1.29,0,0,1-.59-.28C89.34,120.92,89.24,120.73,89.08,120.62Z"/><path class="cls-2" d="M95,133v-.21c-.08-.14,0-.26,0-.4a4.41,4.41,0,0,1,.13-.81.81.81,0,0,1,.16-.64v-.31a8,8,0,0,1,.12-1c.07-.25,0-.52.18-.75.31-1.27.6-2.54.93-3.81a.37.37,0,0,0-.19-.48l-.59-.41a1.66,1.66,0,0,0,.51-1.46c0-.41,0-1,.37-1.1.24-.09.51.42.73.69a11,11,0,0,1,2.48,8.89,23.29,23.29,0,0,1-5.44,12,.67.67,0,0,1-.41.33c.12-1.92.23-3.81.34-5.7a5.5,5.5,0,0,1,.14-1.4c0-.18,0-.35,0-.53a2.72,2.72,0,0,0,.11-.85,2.38,2.38,0,0,0,.1-.75c0-.13.07-.28.11-.41A1.93,1.93,0,0,1,95,133Z"/><path class="cls-9" d="M93.24,147.84a3,3,0,0,1,1.45-2.07.53.53,0,0,1,0,.5,1.89,1.89,0,0,0,.69,2.11,1.75,1.75,0,0,1,.2.19c.45.49.43.57-.17.8a3.94,3.94,0,0,0-2,1.84,2.73,2.73,0,0,1-.32.49,14.87,14.87,0,0,0,0-2.67,2.05,2.05,0,0,1,0-.7C93.15,148.17,93.1,148,93.24,147.84Z"/><path class="cls-79" d="M87.91,116.3s0,0,0,0a2.53,2.53,0,0,0,.18,3.17c0,.12,0,.15-.12.13a8.31,8.31,0,0,1-.71-.86c-.17-.27-.28-.2-.46,0a7.58,7.58,0,0,0,.4-3.13c.43.06.29.64.69.65Z"/><path class="cls-80" d="M94.52,136.39a6.74,6.74,0,0,1-.19,1.42l-.1-.11a4.82,4.82,0,0,1,.18-1.31S94.48,136.34,94.52,136.39Z"/><path class="cls-81" d="M93.24,147.84a.5.5,0,0,1-.09.44s-.07.05-.11,0c0-.26-.07-.53.08-.77C93.19,147.61,93.06,147.78,93.24,147.84Z"/><path class="cls-82" d="M95.74,126.48l-.11-.13.12-.65s.06,0,.09,0A1.47,1.47,0,0,1,95.74,126.48Z"/><path class="cls-83" d="M95.6,128.83l-.11.75c-.1,0-.15,0-.11-.12s0-.44.11-.63Z"/><path class="cls-84" d="M89.57,121l.55.32-.12.1a1.48,1.48,0,0,1-.53-.33C89.45,121,89.46,120.89,89.57,121Z"/><path class="cls-85" d="M97.59,105.42a1.38,1.38,0,0,1-.55.19c.07-.25.28-.22.42-.29S97.58,105.35,97.59,105.42Z"/><path class="cls-86" d="M93,148.28h.11l0,.75H93Z"/><path class="cls-87" d="M95.84,125.7h-.09l.14-.6C96,125.38,96,125.55,95.84,125.7Z"/><path class="cls-88" d="M97.59,105.42l-.13-.1.32-.12.15.11C97.84,105.41,97.71,105.39,97.59,105.42Z"/><path class="cls-89" d="M84,129.38l.11-.42c.09,0,.14,0,.09.1l0,.32Z"/><path class="cls-2" d="M90.3,89.19l.12-.53c.12.31.21.51.28.71a10.65,10.65,0,0,0,2.64,3.75,6.23,6.23,0,0,1,1.6,1.94c.09.22.24.18.4.16a3.09,3.09,0,0,0,3-1.78,3.12,3.12,0,0,1-2.6,3.31,5.4,5.4,0,0,0-.58.11c-.32.07-.51.3-.36.59.35.66-.09.93-.54,1.21l-.39.24-.1.13a1.54,1.54,0,0,0-.46.11h0c-.16.1-.4,0-.53.22H92.7c-.3-.1-.58.06-.89.05a.76.76,0,0,1-.82-.6c-.21-.8-.42-1.59-.59-2.4a2,2,0,0,0-.06-.43c0-.36-.07-.71-.08-1.06a9,9,0,0,1-.13-1.16,5.54,5.54,0,0,0-.07-.81c0-.25,0-.5,0-.75A14.4,14.4,0,0,1,90.14,90C90.2,89.74,90.1,89.44,90.3,89.19Z"/><path class="cls-90" d="M74.57,138.31c.26-1.56.77-3.06,1.15-4.58.2-.76.42-1.51.64-2.32a11.56,11.56,0,0,1-1.54.51c1-1.51,2.64-2.17,4.06-3.1-.63,1.08-1.26,2.13-1.8,3.24A43.8,43.8,0,0,0,75,137.61c-.08.24-.18.47-.26.71A.08.08,0,0,1,74.57,138.31Z"/><path class="cls-13" d="M90.52,96.33c.21.8.43,1.59.61,2.4.08.4.3.49.67.51s.63-.14.9.11a20.8,20.8,0,0,1-2.81.76c.29-.33.73-.42,1.08-.74a3.45,3.45,0,0,1-1.68-1.79A2.9,2.9,0,0,0,87.21,96c-.56-.09-.57-.41-.51-.8a5.67,5.67,0,0,1,.26-1,2.12,2.12,0,0,0-1-2.78l-.3-.21c0-.11,0-.17.13-.13.76.22,1.09,1,1.66,1.4.11.09,0,.27,0,.41-.1.62-.19,1.24-.3,1.85a.42.42,0,0,0,.24.52,12.16,12.16,0,0,1,1.07.69,5.13,5.13,0,0,1,1.17,1,2.81,2.81,0,0,0,.75.75c0-.43-.2-.84-.06-1.25A.16.16,0,0,1,90.52,96.33Z"/><path class="cls-79" d="M69.85,112.51l5.51,1.14,1.37.27a.52.52,0,0,1-.44.33c-1.66-.54-3.38-.87-5.07-1.28l-1.62-.36C69.61,112.4,69.75,112.5,69.85,112.51Z"/><path class="cls-91" d="M83.22,120.89a12.56,12.56,0,0,0-.54,1.26c-.11.31-.41.15-.59.34a11.77,11.77,0,0,1-1.26,1.06c-.11,0-.14,0-.12-.12a27.67,27.67,0,0,0,2.39-2.69Q83.28,120.73,83.22,120.89Z"/><path class="cls-92" d="M80.71,123.43l.12.12-1,.88-.11-.11Z"/><path class="cls-93" d="M88,119.65l.12-.13a7.47,7.47,0,0,1,.91,1.11A3.44,3.44,0,0,1,88,119.65Z"/><path class="cls-94" d="M73.15,143.84l-.34,1.32a2.35,2.35,0,0,1,.23-1.31C73.07,143.79,73.11,143.79,73.15,143.84Z"/><path class="cls-95" d="M96.35,99.88l.85-.59a1.34,1.34,0,0,1-.7.74Z"/><path class="cls-96" d="M73.26,143a3.92,3.92,0,0,1,.31-1.3s.07-.05.1,0L73.35,143C73.33,143,73.29,143,73.26,143Z"/><path class="cls-97" d="M88.91,100.62l-.1-.09c.3-.14.57-.42,1-.29Z"/><path class="cls-98" d="M81.67,127.32a3.63,3.63,0,0,1-.3,1.15,4,4,0,0,1,.21-1.15S81.64,127.27,81.67,127.32Z"/><path class="cls-99" d="M127.45,92.75a1.35,1.35,0,0,1,.68-.2c0,.4-.36.23-.54.34Z"/><path class="cls-100" d="M79.32,136.94l.22-.77a.72.72,0,0,1-.12.76S79.35,137,79.32,136.94Z"/><path class="cls-101" d="M80.73,131.54a1.75,1.75,0,0,1,.21-.74,1.17,1.17,0,0,1-.1.74C80.8,131.59,80.76,131.58,80.73,131.54Z"/><path class="cls-102" d="M97.11,101.5l.7-.44c-.1.37-.37.43-.57.56Z"/><path class="cls-103" d="M95.48,98.47l.57-.31c.11,0,.12,0,.1.1l-.53.34Z"/><path class="cls-104" d="M73.26,143h.09c-.06.29-.13.58-.2.87H73A1.76,1.76,0,0,1,73.26,143Z"/><path class="cls-105" d="M81.16,129.38l.16-.81c0,.28.1.56-.07.8C81.22,129.42,81.19,129.42,81.16,129.38Z"/><path class="cls-106" d="M80.06,134.87l-.29.86a1,1,0,0,1,.19-.85S80,134.83,80.06,134.87Z"/><path class="cls-107" d="M80.06,134.87H80a1.74,1.74,0,0,1,.2-.87.17.17,0,0,1,.1.1Z"/><path class="cls-108" d="M79.32,136.94h.1a2,2,0,0,1-.2.77c-.07,0-.08-.07-.11-.11Z"/><path class="cls-109" d="M74.21,139.62l-.13.5c-.06-.21-.12-.42,0-.6A.18.18,0,0,1,74.21,139.62Z"/><path class="cls-97" d="M82.43,123.22l-.12.64s-.06,0-.08,0a.92.92,0,0,1,.1-.65S82.39,123.16,82.43,123.22Z"/><path class="cls-110" d="M73.73,141l.11-.55.15,0-.13.55Z"/><path class="cls-111" d="M74.55,138.34l-.17.64a.65.65,0,0,1,.05-.65C74.47,138.28,74.51,138.29,74.55,138.34Z"/><path class="cls-112" d="M86.74,119.32c-.08.17,0,.4-.28.53a1.29,1.29,0,0,1,.18-.65C86.71,119.21,86.71,119.27,86.74,119.32Z"/><path class="cls-113" d="M83.22,120.89l-.12-.15.26-.43A.61.61,0,0,1,83.22,120.89Z"/><path class="cls-114" d="M82.43,123.22h-.1a1,1,0,0,1,.15-.69C82.6,122.81,82.42,123,82.43,123.22Z"/><path class="cls-115" d="M77.82,126.38a.54.54,0,0,1-.37.38A.51.51,0,0,1,77.82,126.38Z"/><path class="cls-55" d="M80.73,131.54h.11c0,.21,0,.45-.18.64C80.55,131.93,80.74,131.75,80.73,131.54Z"/><path class="cls-116" d="M92.82,99.35c.05-.39.35-.16.53-.22C93.22,99.32,93,99.26,92.82,99.35Z"/><path class="cls-117" d="M81.13,129.92a.72.72,0,0,1-.2.67l.13-.67Z"/><path class="cls-118" d="M84.18,128.52l.13-.49c.1.2.11.34,0,.48S84.22,128.56,84.18,128.52Z"/><path class="cls-119" d="M89.57,121l-.1.09c-.18-.1-.39-.16-.39-.42A1.15,1.15,0,0,1,89.57,121Z"/><path class="cls-120" d="M82.23,123.87h.08l-.1.54c0,.06-.06.06-.09,0S82.08,124,82.23,123.87Z"/><path class="cls-121" d="M82.12,124.41h.09l-.11.65s-.06,0-.09,0A1,1,0,0,1,82.12,124.41Z"/><path class="cls-122" d="M82,125.05h.09l-.11.54s-.06.06-.08,0A.65.65,0,0,1,82,125.05Z"/><path class="cls-123" d="M79.11,138c0,.15,0,.31-.18.4-.13-.19.07-.34.08-.51C79.1,137.9,79.16,137.92,79.11,138Z"/><path class="cls-117" d="M81.91,125.59H82l-.12.65H81.8A.93.93,0,0,1,81.91,125.59Z"/><path class="cls-124" d="M81.8,126.24h.07l-.1.54s0,0-.08,0S81.64,126.4,81.8,126.24Z"/><path class="cls-86" d="M86.74,119.32l-.1-.12c0-.13,0-.29.16-.34C86.9,119.05,86.75,119.17,86.74,119.32Z"/><path class="cls-125" d="M86.21,120.62c0-.12,0-.25.16-.3.09.16-.06.27-.06.4S86.17,120.73,86.21,120.62Z"/><path class="cls-126" d="M86.22,121.05a.48.48,0,0,1-.14.34c-.13-.12-.08-.23,0-.33S86.18,121,86.22,121.05Z"/><path class="cls-127" d="M81.69,126.78h.08l-.1.54h-.09A.73.73,0,0,1,81.69,126.78Z"/><path class="cls-128" d="M77,127.31c.1-.16.13-.31.37-.3C77.24,127.16,77.2,127.3,77,127.31Z"/><path class="cls-129" d="M84.18,128.52h.11c0,.19,0,.39-.11.55l-.09-.1Z"/><path class="cls-123" d="M81.13,129.92h-.07l.1-.54h.09A.76.76,0,0,1,81.13,129.92Z"/><path class="cls-130" d="M80.64,132.29c.11.21,0,.35-.08.63C80.47,132.62,80.48,132.45,80.64,132.29Z"/><path class="cls-131" d="M80.27,133.58c0-.14,0-.31.21-.42l-.12.51s-.08,0-.11,0S80.26,133.61,80.27,133.58Z"/><path class="cls-132" d="M80.27,133.58l.09.09c0,.15-.06.29-.1.44l-.1-.1C80.17,133.86,80.14,133.7,80.27,133.58Z"/><path class="cls-133" d="M74.64,137.57h.11l-.11.43c-.09,0-.15,0-.09-.11S74.53,137.66,74.64,137.57Z"/><path class="cls-134" d="M74.21,139.62l-.09-.1c0-.14,0-.29.15-.39C74.35,139.32,74.21,139.46,74.21,139.62Z"/><path class="cls-23" d="M68.49,133.83l.11-.34V134h-.09Z"/><path class="cls-135" d="M79.11,138l-.1-.11.1-.33.11.11A.49.49,0,0,1,79.11,138Z"/><path class="cls-136" d="M74.55,137.9l.09.11-.09.33h-.12C74.45,138.18,74.43,138,74.55,137.9Z"/><path class="cls-137" d="M76,128.66c.06.16,0,.27,0,.29s-.08-.07-.06-.13A.76.76,0,0,1,76,128.66Z"/><path class="cls-138" d="M78.79,139h-.11a.42.42,0,0,1,.16-.34A.25.25,0,0,1,78.79,139Z"/><path class="cls-139" d="M93.34,99.14c.13-.14.28-.22.46-.11C93.68,99.17,93.51,99.15,93.34,99.14Z"/><path class="cls-140" d="M76.22,128.48c0-.15,0-.29.15-.26s0,.12,0,.18A.41.41,0,0,1,76.22,128.48Z"/><path class="cls-141" d="M86.22,121.05H86.1c0-.15,0-.32.11-.44l.1.1Z"/><path class="cls-105" d="M73.67,141.68h-.1l.06-.43C73.81,141.42,73.66,141.55,73.67,141.68Z"/><path class="cls-142" d="M101.82,60.38A12.84,12.84,0,0,1,104.13,62a71.07,71.07,0,0,1,8.43,8.48c2.35,2.69,4.59,5.48,6.86,8.24l.14.16c.07.1.17.2,0,.32s-.23,0-.3-.11l-1.62-1.95a139.51,139.51,0,0,0-11.14-12.3c-1.16-1.1-2.36-2.15-3.62-3.14A4.25,4.25,0,0,1,101.82,60.38Z"/><path class="cls-143" d="M120.32,76.08a2.53,2.53,0,0,1-.1,2.23,1.05,1.05,0,0,1-.15.21l-2.28-3a11,11,0,0,0,2.35.45C120.28,75.88,120.33,75.94,120.32,76.08Z"/><path class="cls-144" d="M99,60.24,97.47,62l1.61-1.63Z"/><path class="cls-145" d="M100,59.58a2.17,2.17,0,0,1-.75.6,1.88,1.88,0,0,1,.74-.74A.08.08,0,0,1,100,59.58Z"/><path class="cls-100" d="M118,71.49a3.1,3.1,0,0,1,.65-.67c-.07.32-.32.44-.32.67l-.32.11s0,0,0-.07S118,71.49,118,71.49Z"/><path class="cls-146" d="M118.18,71.93l-.42.91A.68.68,0,0,1,118.18,71.93Z"/><path class="cls-147" d="M121.54,77.71a.75.75,0,0,1,0,.8A.75.75,0,0,1,121.54,77.71Z"/><path class="cls-148" d="M100,59.58v-.14c.16-.13.26-.35.51-.35h0v0A1.26,1.26,0,0,1,100,59.58Z"/><path class="cls-149" d="M120.32,76.08c-.1,0-.13-.09-.18-.16l-.27-.33c.37,0,.51.24.59.55Z"/><path class="cls-150" d="M100.58,59.15a.21.21,0,0,0,0-.06c0-.2.22-.27.39-.34s.12,0,.08.09A.76.76,0,0,1,100.58,59.15Z"/><path class="cls-151" d="M120.45,76.13c.34,0,.47.26.56.54A1.92,1.92,0,0,1,120.45,76.13Z"/><path class="cls-146" d="M116.51,73.53a.15.15,0,0,0,.19-.09c.09,0,.15,0,.1.11l0,.4C116.56,73.87,116.45,73.76,116.51,73.53Z"/><path class="cls-74" d="M101,58.84l-.08-.09a1,1,0,0,1,.41-.33l.12.11Z"/><path class="cls-152" d="M117.76,72.83a.6.6,0,0,1-.21.6C117.58,73.21,117.41,72.93,117.76,72.83Z"/><path class="cls-153" d="M116.8,73.55l-.1-.11c.06-.16,0-.39.28-.4Z"/><path class="cls-154" d="M121.32,77.07a.67.67,0,0,1,.2.44C121.23,77.47,121.23,77.29,121.32,77.07Z"/><path class="cls-155" d="M115.29,72l.1-.11c.13.16.29.31.22.55C115.42,72.37,115.4,72.17,115.29,72Z"/><path class="cls-149" d="M94.11,61.17a.67.67,0,0,1-.42-.36C93.94,60.77,94,60.94,94.11,61.17Z"/><path class="cls-156" d="M118,71.49v.11l-.22.26C117.61,71.61,117.87,71.6,118,71.49Z"/><path class="cls-117" d="M97,62.53a.43.43,0,0,1-.3.31C96.73,62.66,96.77,62.54,97,62.53Z"/><path class="cls-157" d="M96.32,63.36c0-.08,0-.14,0-.16s.09-.11.14-.11.07.06,0,.1S96.4,63.28,96.32,63.36Z"/><path class="cls-158" d="M119,74.74l.36.31C119.11,75.06,118.91,75.05,119,74.74Z"/><path class="cls-159" d="M95.38,129.46l.11.12a3.47,3.47,0,0,1-.19,1A1.6,1.6,0,0,1,95.38,129.46Z"/><path class="cls-160" d="M95,133l-.13,1s-.06,0-.1,0C94.78,133.58,94.67,133.22,95,133Z"/><path class="cls-161" d="M94.65,135a1.63,1.63,0,0,1-.11.87s-.06,0-.09,0l.11-.87A.06.06,0,0,1,94.65,135Z"/><path class="cls-162" d="M95.17,131.53l-.11.86c-.1,0-.15,0-.1-.11a1.5,1.5,0,0,1,.12-.75S95.14,131.49,95.17,131.53Z"/><path class="cls-163" d="M94.65,135h-.09l.1-.75s.06,0,.1,0A1.5,1.5,0,0,1,94.65,135Z"/><path class="cls-164" d="M95.17,131.53h-.09c0-.22-.14-.52.21-.64Z"/><path class="cls-165" d="M95,132.28l.1.11a.54.54,0,0,1-.09.35C94.78,132.59,94.86,132.44,95,132.28Z"/><path class="cls-166" d="M94.76,134.23h-.1a.33.33,0,0,1,.08-.33h.1A.34.34,0,0,1,94.76,134.23Z"/><path class="cls-167" d="M94.45,135.86h.09l0,.53h-.11Z"/><path class="cls-11" d="M84.82,51.18C85.88,49.09,87.6,48.62,90,49L82.63,56.6a4.87,4.87,0,0,1,.92-1.67,3.66,3.66,0,0,0,.72-2.08,3.17,3.17,0,0,1,.36-1.23c.11,0,.15.08.18.17,0,.48-.08,1-.09,1.44,0,.14-.1.26-.12.39l0,.15a.37.37,0,0,0,0-.15,4.61,4.61,0,0,1,1.46-1.7c.48-.38,1-.74,1.45-1.11.28-.22.27-.38,0-.57a1.05,1.05,0,0,0-1.3,0c-.51.32-.83.84-1.31,1.18C84.76,51.38,84.74,51.29,84.82,51.18Z"/><path class="cls-14" d="M96.58,42.51A1.18,1.18,0,0,0,97,42c.15,0,.37.1.45-.16s-.18-.28-.31-.36a.54.54,0,0,1-.11-.93c.23-.22.49-.41.74-.61a.84.84,0,0,1,0,.27,1.15,1.15,0,0,0,.84,1.24.48.48,0,0,1,.31.68c0,.11,0,.29-.18.26s-.4.06-.44-.2,0-.28-.25-.25-.18.22-.18.37-.1.49.4.47a34.32,34.32,0,0,0-6.16,5.92c-.1,0-.15,0-.11-.12l4.08-5.41A2.15,2.15,0,0,0,96.58,42.51Z"/><path class="cls-11" d="M81.39,48.15A11,11,0,0,0,79,49.52c-.2.15-.25,0-.31-.15-.59-1.27-1.32-2.45-2-3.69A12.22,12.22,0,0,0,81.39,48.15Z"/><path class="cls-168" d="M82.42,29l.11-.13c.52.62,1,1.27,1.55,1.86a6.31,6.31,0,0,0,6.16,2c.55-.11.85,0,1.05.49.06.1,0,.11-.08.1a.71.71,0,0,0-.77-.32,16,16,0,0,1-2.59.09,5.71,5.71,0,0,1-3.73-1.84A11.18,11.18,0,0,1,82.42,29Z"/><path class="cls-169" d="M73.59,37.15,73.47,37c.24-.22.35-.6.75-.62Z"/><path class="cls-170" d="M92.05,48.58l.11.12-.53.66c-.07,0-.08-.07-.1-.12A2.37,2.37,0,0,1,92.05,48.58Z"/><path class="cls-167" d="M91.94,34a1.83,1.83,0,0,1,.42.54c0,.05,0,.11-.1.13a1.58,1.58,0,0,1-.41-.58C91.82,34,91.85,34,91.94,34Z"/><path class="cls-171" d="M88.93,52.93l-.1-.12.41-.56a.23.23,0,0,1,.1.12A1.72,1.72,0,0,1,88.93,52.93Z"/><path class="cls-86" d="M90.69,50.55a2.66,2.66,0,0,1-.47.63.13.13,0,0,1-.09-.1,1.34,1.34,0,0,1,.43-.54S90.65,50.49,90.69,50.55Z"/><path class="cls-74" d="M90,51.5l-.41.55a.14.14,0,0,1-.09-.11l.41-.55A.16.16,0,0,1,90,51.5Z"/><path class="cls-170" d="M94.11,36.92l.42.55s0,.1-.1.11L94,37A.18.18,0,0,1,94.11,36.92Z"/><path class="cls-172" d="M92.89,35.38a.45.45,0,0,1,.33.42s0,.06-.07,0a.62.62,0,0,1-.31-.43Z"/><path class="cls-172" d="M93.15,35.84a.1.1,0,0,0,.07,0c.23.06.28.28.39.46,0,.05-.08.06-.13,0A.72.72,0,0,1,93.15,35.84Z"/><path class="cls-171" d="M91.53,49.24l.1.12a1,1,0,0,1-.36.41s-.09,0-.12,0Z"/><path class="cls-173" d="M92.89,35.38l0,0a.61.61,0,0,1-.32-.44l0,0A.43.43,0,0,1,92.89,35.38Z"/><path class="cls-174" d="M90.69,50.55h-.13a.73.73,0,0,1,.34-.43s.09,0,.12,0A1,1,0,0,1,90.69,50.55Z"/><path class="cls-175" d="M91.21,33.25l.08-.1.33.43c0,.11,0,.12-.1.1Z"/><path class="cls-150" d="M91.52,33.68l.1-.1a1,1,0,0,1,.32.43l-.09.09A.92.92,0,0,1,91.52,33.68Z"/><path class="cls-171" d="M93.48,36.27h.13l.33.43c0,.06-.08.06-.13,0A.63.63,0,0,1,93.48,36.27Z"/><path class="cls-146" d="M94.43,37.58l.1-.11.31.43a.14.14,0,0,1-.09.11Z"/><path class="cls-38" d="M92.57,34.94l0,0c-.15,0-.2-.17-.26-.29l.1-.13C92.45,34.67,92.61,34.75,92.57,34.94Z"/><path class="cls-176" d="M84.82,51.18l.07.21c.12.2,0,.3-.17.35l-.09-.12C84.71,51.48,84.66,51.29,84.82,51.18Z"/><path class="cls-177" d="M91,50.13l-.12,0a.59.59,0,0,1,.25-.35h.12C91.26,49.94,91.12,50,91,50.13Z"/><path class="cls-178" d="M61.94,61.79l.1.1a.44.44,0,0,1-.47.06A.49.49,0,0,1,61.94,61.79Z"/><path class="cls-179" d="M94.75,38l.09-.11.24.32-.1.11Z"/><path class="cls-180" d="M89.48,51.94l.09.11-.23.32-.1-.12Z"/><path class="cls-181" d="M90,51.5l-.09-.11.24-.31.09.1Z"/><path class="cls-182" d="M93.81,36.7h.13l.17.23L94,37C93.93,36.93,93.8,36.86,93.81,36.7Z"/><path class="cls-183" d="M99.63,36.2l.09,0a.2.2,0,0,1,.12.1A4.8,4.8,0,0,1,99,37c-.06,0-.07-.09,0-.14C99.11,36.54,99.44,36.45,99.63,36.2Z"/><path class="cls-134" d="M102,31.37c.12.23.27.46.11.73C102,31.87,101.82,31.65,102,31.37Z"/><path class="cls-184" d="M101.05,35.3a1.2,1.2,0,0,1-.5.44c0-.18.13-.21.15-.32S100.91,35.27,101.05,35.3Z"/><path class="cls-113" d="M99,36.84,99,37c-.17.1-.22.41-.52.27A1.41,1.41,0,0,1,99,36.84Z"/><path class="cls-185" d="M102.3,32.61l-.11.27c-.06-.19-.18-.37,0-.54C102.32,32.4,102.31,32.51,102.3,32.61Z"/><path class="cls-186" d="M101.83,34.65c-.17.12-.22.42-.52.33C101.46,34.83,101.55,34.6,101.83,34.65Z"/><path class="cls-187" d="M39.58,91.58c-.12,2-.31,3.91-.53,5.89a4.3,4.3,0,0,1-.63-2.71,11.26,11.26,0,0,1,1.06-3.59C39.72,91.26,39.6,91.43,39.58,91.58Z"/><path class="cls-188" d="M38.6,86.81a5.55,5.55,0,0,0,1.27-1.21c.06,1.09-.08,2.1-.11,3.19a2,2,0,0,1-1.15-2Z"/><path class="cls-189" d="M38.29,88.66a3.42,3.42,0,0,1,.13-1.59,8.34,8.34,0,0,0,0,1.58A.07.07,0,0,1,38.29,88.66Z"/><path class="cls-190" d="M37.74,82.16c-.25-.13-.55-.06-.81-.2.27.06.55-.1.8.12,0,0,.05,0,0,0S37.75,82.16,37.74,82.16Z"/><path class="cls-191" d="M38.61,86.8c-.07,0-.2.22-.2,0a1,1,0,0,1,.22-.57l0,.6Z"/><path class="cls-192" d="M39,85.09a1.09,1.09,0,0,1-.31.75c0-.36.06-.57.25-.74Z"/><path class="cls-193" d="M38.29,88.66h.11a.88.88,0,0,1,.12.63A1.19,1.19,0,0,1,38.29,88.66Z"/><path class="cls-126" d="M39.14,84c0-.13-.07-.33.08-.36s.1.16.12.26S39.25,84.07,39.14,84Z"/><path class="cls-120" d="M40.08,83.14a.88.88,0,0,1-.54-.46A.84.84,0,0,1,40.08,83.14Z"/><path class="cls-148" d="M38.49,82.91,38,82.66c.31-.13.44,0,.59.16C38.6,82.89,38.54,82.89,38.49,82.91Z"/><path class="cls-194" d="M38.71,82.32a.56.56,0,0,1,.49.19.47.47,0,0,1-.49-.15Z"/><path class="cls-195" d="M39.58,91.58c-.07-.13,0-.3-.1-.41l.1-.17s.09.06.09.09A.76.76,0,0,1,39.58,91.58Z"/><path class="cls-196" d="M38.71,82.32v0l-.52-.1c0-.1,0-.14.09-.1A.51.51,0,0,1,38.71,82.32Z"/><path class="cls-197" d="M38.28,82.16l-.09.1-.45-.1s0-.06,0-.08C37.91,82.09,38.12,82,38.28,82.16Z"/><path class="cls-198" d="M39,85.09h0l0,0c0-.2.09-.35.12-.53.09,0,.13,0,.09.11A.61.61,0,0,1,39,85.09Z"/><path class="cls-199" d="M39.14,84l.2-.1a.51.51,0,0,1-.08.43c-.07,0-.08-.08-.12-.12Z"/><path class="cls-200" d="M38.49,82.91l.12-.09c.1.05.29.13.2.23S38.59,83,38.49,82.91Z"/><path class="cls-109" d="M39.14,84.23l.12.12c0,.11,0,.24-.11.33l-.09-.11Z"/><path class="cls-201" d="M66.4,112.94l-.26.1c-.29-.09-.6,0-.87-.17v-.11A4.3,4.3,0,0,1,66.4,112.94Z"/><path class="cls-42" d="M75.85,104.16c.06-.17,0-.38.22-.49A.37.37,0,0,1,75.85,104.16Z"/><path class="cls-202" d="M75.65,104.88l-.11-.12c.11-.11,0-.41.31-.32Z"/><path class="cls-203" d="M64.14,111.46l.26-.1c1.13.24,2.28.4,3.39.73a.3.3,0,0,1-.29.1Z"/><path class="cls-204" d="M69.85,112.51l-.25.1-1.51-.29c-.14,0-.23-.07-.23-.23A12.36,12.36,0,0,1,69.85,112.51Z"/><path class="cls-2" d="M89.56,97l-1.07-1c.29,0,.44.36.83.23.05,0,.14,0,.07,0s-.1,0-.14,0a.11.11,0,0,0,.08,0c.08,0,0,0,0,0-.16-.24-.15-.45.1-.54s.26-.26.27-.52l.5.74,0-.25c.27,0,.1.26.17.38s-.09.2-.08.3c0,.31-.06.48-.41.45C89.75,96.77,89.68,97,89.56,97Z"/><path class="cls-101" d="M90.19,89.94l-.1,2.28s0,0-.07,0a6.93,6.93,0,0,1,.1-2.27Z"/><path class="cls-205" d="M90.3,96.11a.6.6,0,0,0-.08-.45v-.74s.07,0,.1,0l.13,1c0,.11.08.22-.08.27S90.28,96.18,90.3,96.11Z"/><path class="cls-206" d="M90.31,94.93h-.1c-.18-.34-.07-.71-.12-1.07,0-.11,0-.13.11-.1Z"/><path class="cls-96" d="M90.2,93.75l-.11.1a1,1,0,0,1-.07-.67c.06-.06,0-.17.1-.21A1.38,1.38,0,0,1,90.2,93.75Z"/><path class="cls-207" d="M90.19,89.94h-.07v-.76h.17Z"/><path class="cls-208" d="M85.81,91.13l-.13.13c-.2-.1-.46-.11-.55-.37A1.36,1.36,0,0,1,85.81,91.13Z"/><path class="cls-209" d="M90.12,93l-.1.21v-1h.07Z"/><path class="cls-210" d="M86.9,56.91a.74.74,0,0,1,.32-.43s.08,0,.11,0a.84.84,0,0,1-.31.43S86.94,57,86.9,56.91Z"/><path class="cls-211" d="M86.9,56.91H87c-.12.19-.19.44-.46.5A1,1,0,0,1,86.9,56.91Z"/><path class="cls-212" d="M84,61.66l-.09-.11c0-.14.12-.28.3-.3A.74.74,0,0,1,84,61.66Z"/><path class="cls-213" d="M87.33,56.49h-.11c0-.15.13-.23.21-.33l.09.12Z"/><path class="cls-214" d="M86.11,58.14c0-.21,0-.4.32-.35Z"/><path class="cls-215" d="M83.31,81.32c-.15-.14-.13-.34-.2-.51A.39.39,0,0,1,83.31,81.32Z"/><path class="cls-216" d="M82.9,80.33l.1-.12a.46.46,0,0,1,.09.47C83,80.61,83,80.45,82.9,80.33Z"/><path class="cls-217" d="M99.84,36.28l-.12-.1a.52.52,0,0,1,.48-.3C100.17,36.1,100,36.18,99.84,36.28Z"/><path class="cls-218" d="M96.15,98.26l-.1-.1c.09-.08.22-.23.29-.13S96.24,98.19,96.15,98.26Z"/><path class="cls-219" d="M90.34,96.22l.1-.25a.46.46,0,0,1,.08.36l-.1.12C90.25,96.42,90.24,96.34,90.34,96.22Z"/><path class="cls-2" d="M90.34,96.22a.23.23,0,0,0,.08.23c0,.49.19,1,.11,1.56a5,5,0,0,1-1-1c0-.47.3-.42.63-.34.07-.18-.2-.43.11-.56Z"/><path class="cls-220" d="M84.72,51.74c.13-.08.11-.24.17-.35A4.38,4.38,0,0,1,86.36,50a.91.91,0,0,1,1,0c.23.14.45.3.7.46-1.09,1.11-2.63,1.74-3.37,3.19-.26,0-.12-.23-.12-.36A9.14,9.14,0,0,1,84.72,51.74Z"/><path class="cls-221" d="M84.58,53.3c.06.12,0,.27.12.36l-.12.38A1,1,0,0,1,84.58,53.3Z"/><path class="cls-2" d="M89.21,96.38c.09-.26.21-.39.4-.42,0,0,.11.06.11.08C89.66,96.26,89.5,96.33,89.21,96.38Z"/><text class="cls-222" transform="translate(144.67 71.73)"><tspan class="cls-223">I</tspan><tspan x="2.99" y="0">n</tspan><tspan class="cls-224" x="9.65" y="0">f</tspan><tspan x="13" y="0">o</tspan><tspan class="cls-225" x="19.58" y="0">g</tspan><tspan class="cls-226" x="26.22" y="0">r</tspan><tspan x="30.08" y="0">afik</tspan><tspan class="cls-227" x="47.77" y="0"> </tspan><tspan x="51.26" y="0">mengenai</tspan><tspan class="cls-228" x="101.91" y="0"> </tspan><tspan class="cls-229" x="104.8" y="0">W</tspan><tspan class="cls-230" x="114.56" y="0">a</tspan><tspan class="cls-231" x="120.25" y="0">y</tspan><tspan x="125.85" y="0">ang </tspan><tspan x="0" y="14.4">t</tspan><tspan class="cls-232" x="3.97" y="14.4">r</tspan><tspan x="7.84" y="14.4">adisional</tspan><tspan class="cls-233" x="52.62" y="14.4"> </tspan><tspan x="66.78" y="14.4">da</tspan><tspan class="cls-234" x="79.33" y="14.4">r</tspan><tspan x="83.31" y="14.4">i</tspan><tspan class="cls-233" x="86.11" y="14.4"> </tspan><tspan x="100.28" y="14.4">be</tspan><tspan class="cls-234" x="113.12" y="14.4">r</tspan><tspan x="117.09" y="14.4">bagai </tspan><tspan x="0" y="28.8">dae</tspan><tspan class="cls-232" x="18.56" y="28.8">r</tspan><tspan x="22.43" y="28.8">ah</tspan><tspan class="cls-235" x="34.87" y="28.8"> </tspan><tspan class="cls-231" x="44.22" y="28.8">y</tspan><tspan x="49.82" y="28.8">ang</tspan><tspan class="cls-236" x="68.97" y="28.8"> </tspan><tspan x="78.32" y="28.8">dap</tspan><tspan class="cls-237" x="97.7" y="28.8">a</tspan><tspan x="103.44" y="28.8">t</tspan><tspan class="cls-235" x="107.41" y="28.8"> </tspan><tspan class="cls-238" x="116.75" y="28.8">k</tspan><tspan class="cls-239" x="122.6" y="28.8">amu </tspan><tspan x="0" y="43.2">ba</tspan><tspan class="cls-240" x="12.61" y="43.2">g</tspan><tspan x="19.25" y="43.2">i</tspan><tspan class="cls-238" x="22.06" y="43.2">k</tspan><tspan x="27.9" y="43.2">an ke sosial media.</tspan></text><line class="cls-241" x1="1.94" y1="11.21" x2="1.94" y2="42.21"/><line class="cls-241" x1="1.94" y1="11.21" x2="39.44" y2="11.21"/><line class="cls-242" x1="103.43" y1="143.35" x2="123.17" y2="143.23"/><path class="cls-242" d="M17.06,19.88v31"/><text class="cls-243" transform="translate(14.94 15.38) scale(0.88 1)">2</text><text class="cls-243" transform="translate(131.65 145.38) scale(0.88 1)">1</text><rect class="cls-1" x="139" y="4.79" width="21.18" height="21.18" transform="translate(79.51 -117.68) rotate(56.35)"/><rect class="cls-1" x="151.91" y="32.77" width="12.86" height="12.86" transform="translate(68.56 -97) rotate(42.7)"/><line class="cls-242" x1="17.51" y1="49.85" x2="40.51" y2="49.7"/></g></g></svg>