<svg xmlns="http://www.w3.org/2000/svg" viewBox="0 0 188.54 89.9"><defs><style>.cls-1{font-size:12px;fill:#231f20;font-family:MyriadPro-Regular, Myriad Pro;}.cls-2{letter-spacing:-0.05em;}.cls-3{letter-spacing:0.02em;}.cls-4{letter-spacing:0.02em;}.cls-5{letter-spacing:1.05em;}.cls-6{letter-spacing:1.05em;}.cls-7{letter-spacing:0.01em;}.cls-8{letter-spacing:0.05em;}.cls-9{letter-spacing:-0.01em;}.cls-10{letter-spacing:-0.01em;}.cls-11{letter-spacing:0em;}.cls-12{letter-spacing:0.19em;}.cls-13{letter-spacing:0.19em;}.cls-14{letter-spacing:0em;}.cls-15{letter-spacing:0.8em;}.cls-16{letter-spacing:0.8em;}.cls-17{letter-spacing:-0.01em;}.cls-18{letter-spacing:0em;}.cls-19{letter-spacing:0em;}.cls-20{letter-spacing:0.01em;}</style></defs><title>SP-2</title><g id="Layer_2" data-name="Layer 2"><g id="STEP_2" data-name="STEP 2"><text class="cls-1" transform="translate(0.01 10.04)"><tspan class="cls-2">T</tspan><tspan x="5.42" y="0">unju</tspan><tspan class="cls-3" x="28.22" y="0">k</tspan><tspan class="cls-4" x="34.06" y="0">k</tspan><tspan x="39.9" y="0">an</tspan><tspan class="cls-5" x="52.34" y="0"> </tspan><tspan x="67.54" y="0">kebanggaanmu</tspan><tspan class="cls-6" x="146.72" y="0"> </tspan><tspan x="161.91" y="0">a</tspan><tspan class="cls-4" x="167.7" y="0">k</tspan><tspan x="173.54" y="0">an </tspan><tspan class="cls-7" x="0" y="14.4">I</tspan><tspan x="2.99" y="14.4">ndonesia</tspan><tspan class="cls-8" x="49.02" y="14.4"> </tspan><tspan x="52.16" y="14.4">dengan</tspan><tspan class="cls-8" x="90.75" y="14.4"> </tspan><tspan x="93.89" y="14.4">mengunggah</tspan><tspan class="cls-8" x="162.42" y="14.4"> </tspan><tspan class="cls-9" x="165.56" y="14.4">f</tspan><tspan x="168.9" y="14.4">o</tspan><tspan class="cls-10" x="175.49" y="14.4">t</tspan><tspan x="179.39" y="14.4">o </tspan><tspan x="0" y="28.8">di</tspan><tspan class="cls-11" x="9.58" y="28.8">r</tspan><tspan x="13.55" y="28.8">imu</tspan><tspan class="cls-12" x="32.97" y="28.8"> </tspan><tspan x="37.76" y="28.8">dengan</tspan><tspan class="cls-12" x="76.35" y="28.8"> </tspan><tspan x="81.14" y="28.8">bing</tspan><tspan class="cls-4" x="104.14" y="28.8">k</tspan><tspan x="109.99" y="28.8">ai</tspan><tspan class="cls-13" x="118.58" y="28.8"> </tspan><tspan class="cls-14" x="123.37" y="28.8">y</tspan><tspan x="128.97" y="28.8">ang</tspan><tspan class="cls-12" x="148.12" y="28.8"> </tspan><tspan x="152.91" y="28.8">meng</tspan><tspan x="182.3" y="28.8">-</tspan><tspan x="0" y="43.2">gamba</tspan><tspan class="cls-11" x="35.11" y="43.2">r</tspan><tspan class="cls-4" x="39.08" y="43.2">k</tspan><tspan x="44.93" y="43.2">an</tspan><tspan class="cls-15" x="57.37" y="43.2"> </tspan><tspan class="cls-7" x="69.56" y="43.2">I</tspan><tspan x="72.55" y="43.2">ndonesia</tspan><tspan class="cls-16" x="118.58" y="43.2"> </tspan><tspan x="130.77" y="43.2">ke</tspan><tspan class="cls-15" x="142.41" y="43.2"> </tspan><tspan x="154.6" y="43.2">media </tspan><tspan x="0" y="57.6">sosia</tspan><tspan class="cls-17" x="24.68" y="57.6">l</tspan><tspan x="27.4" y="57.6">. #</tspan><tspan class="cls-18" x="38.39" y="57.6">A</tspan><tspan class="cls-19" x="45.69" y="57.6">k</tspan><tspan x="51.37" y="57.6">uBangga</tspan><tspan class="cls-20" x="96.13" y="57.6">I</tspan><tspan x="99.12" y="57.6">ndonesia</tspan></text></g></g></svg>