<svg xmlns="http://www.w3.org/2000/svg" viewBox="0 0 413.3 685.9"><defs><style>.cls-1{fill:#b8774b;}.cls-2{fill:#fbb773;}.cls-3{fill:#5c4039;}.cls-4{fill:#d5985a;}.cls-5{fill:#dfc2ad;}.cls-6{fill:#fff5ec;}.cls-7{fill:#e9dfd9;}.cls-8{fill:#fed4ab;}.cls-9{fill:#e8ddd5;}.cls-10{fill:#d0b8a8;}.cls-11{fill:#d1bbad;}.cls-12{fill:#fffdfc;}.cls-13{fill:#fff9f2;}.cls-14{fill:#fedebd;}.cls-15{fill:#fed0a3;}</style></defs><title>Asset 24</title><g id="Layer_2" data-name="Layer 2"><g id="HOME"><path class="cls-1" d="M28,455.54h0L31,454.47l4.25-1.5c1.4-.2,2.88-.09,4.08-1.05h0c7-.78,13.89-1.63,20.84-2.34a21.14,21.14,0,0,0,13.43-7c7.71-8.15,11.94-17.7,10.33-29.08-1.28-9.09-7-22-17.84-23.48-2.21-.31-4.19-1.11-4,2.68.16,4-2.31,6.59-6.33,7-3.85.42-6.49-1.68-7.42-5.3-1-4.1.62-7.43,4.62-8.82,9.72-3.37,19.12-2.83,27.37,3.9C94,400.63,98.8,425.05,90.65,440.71a80.81,80.81,0,0,1-9.4,13.68c12.37-.2,19.86-7.49,19.86-18.93,0-9-.32-18,.08-27,.54-12.09-3.86-22.07-11.62-31a120.75,120.75,0,0,0-35-27.84c-18.29-9.6-22.64-30.38-19.65-48.41,4.7,12.83,13.59,18.75,26.77,19.28-3,4.24-7.71,5.48-9.08,9.66-1.42,4.35-.38,8.31,2.15,12.31,2.84-10,6.11-13.71,12.62-14.54a13.29,13.29,0,0,1,13.21,7.21c3.44,7.05,1.07,12.89-4.6,18.17,7.58,3.68,13.87,8.69,19.91,14.43,1.91-3.79,2-7.34,2.87-10.69.56-2.23-.23-3.55-2.07-5-12-9.54-16.71-22.44-16.39-37.39a25,25,0,0,1,3.9-12.25c1.21-2,2.23-3,4.57-1.09,6.8,5.41,13.37,11,18.47,18.15,3,4.13,5.08,8.59,4.77,13.87a41.61,41.61,0,0,1-4,19.11c-1.32,2.81,0,5.88.58,8.78.34,1.73,1.75,1.7,3.15,1.49,3.39-.51,6.56-1.47,7.89-5.08,1.28-3.46-1-5.45-3.16-7.65-3.34-3.38-6.07-7.13-3.43-12.28l.84-1.81c2.64-5.91,7.55-8.72,13-7.48,5.84,1.31,9.28,6,9.27,12.48,0,1.41-.63,2.89.49,4.72a29.78,29.78,0,0,0,5.73-11.5c1-3.67-.1-6.18-3.47-7.77s-6.66-3-9.93-4.69c-2.68-1.35-3-3.37-.24-4.73,10.08-4.93,13.29-14.38,16.23-24,2-6.47,2.84-13.19,3.83-20.17,2.15,1.55,2.49,3.6,3.18,5.37a73.28,73.28,0,0,1,3.49,42.19c-4.07,19.59-15,35-29.71,47.95a27.81,27.81,0,0,0-8.95,15.17,60.75,60.75,0,0,0-1.73,13.34c-.06,14.16-.2,28.31-.07,42.47.07,7.95-3.48,13.67-9.84,17.95a35.45,35.45,0,0,1-11,4.65c-9.66,2.51-19.43,2.25-29.28,1.46-10.26-.83-20.6-2.1-30.63,1.69-.43.2-1.1.29-1.26.63-.69,1.41.5,1.13,1.19,1.12,3,0,5.93-.11,8.9-.18h0a36.78,36.78,0,0,1,3.75,1.28c4.31,2,7.72,4.95,7.64,10.05s-3.49,8-7.84,9.93a20.68,20.68,0,0,1-25.51-7.33c-5.56-8.55-4.32-16.12,3.9-23.75h0Z"/><path class="cls-2" d="M5,204.76c3-5.49,5.67-10.6,8.49-15.64,6.74-12.06,14.79-22.94,27.3-29.74a12.69,12.69,0,0,1,12-.23c4.38,2.06,6,6.06,6.28,10.6a7.23,7.23,0,0,1-4.68,7.57c-4.06,1.56-7.87.58-10.94-2.67-.55-.58-1-1.34-2.05-1.13-.65,5.07,1.93,8.5,7,9.33,9.86,1.59,20-6.74,20.26-16.78.09-3.06-1-5.56-4.16-6.69s-6.09-2.16-10.25-3.64c8.68-3,14.11-8.52,19.7-13.93,1.7-1.64,3-5.28,5.41-4.29s3.11,4.5,3.74,7.29c0,.17.05.33.08.5,2.11,12.05-.66,23.38-6.66,33.57C67.63,194,53.75,204,37.81,210.6a27.86,27.86,0,0,0-16.38,17,138.11,138.11,0,0,0-9.33,48.26c-.19,37.49,0,75-.1,112.46,0,1.7.71,3.61-1.26,5.81C7.4,388.15,3.62,389,0,392.86V195.53C1.62,198.53,3.27,201.59,5,204.76Zm7.62,11.93c7.59-10.15,18.07-16.09,29.68-21.61-4.43-2.46-8.6-3.81-11.67-6.93-.89-.91-1.9-.39-2.6.4-7,7.92-12.67,16.62-15.89,26.77C12.05,215.56,12.32,215.91,12.61,216.69Z"/><path class="cls-3" d="M2.24,397.84c2.07-2.26,3.47-2.32,5.56,0a42.21,42.21,0,0,1,9.39,18c1.53,5.79,1.52,5.76,7.25,3.2a88.79,88.79,0,0,1,32.76-8.06c6.22-.26,6.42.06,5.24,6-3,15.32-11.29,26.78-25.28,34h0l-3,1h0l-4.43,1.62h0a6.22,6.22,0,0,0-3.83,1.07h0c-1.4.17-2.87.07-4.08,1h0c-.83,0-1.67,0-2.49.09-8.86.87-7.25-.32-7.25,8Q12,570.83,12.06,678c0,7.76,0,7.39-7.94,7.89A8.28,8.28,0,0,1,0,685.37V400.55C.7,399.62,1.43,398.72,2.24,397.84Z"/><path class="cls-4" d="M94.81,299.67c-7.86-11.75-5.47-31,5-40.46,4.25-3.82,9.14-5.28,14.79-3.82,7.09,1.84,10.4,6.43,9,12.57-1.63,7.23-6,9.91-13.77,8.46-1.75-.32-4-2.11-4.85,1.14-.69,2.73.76,4.28,3.27,5.32,9,3.73,17.71-1.74,18.92-12.15a50.75,50.75,0,0,0-1.13-16.88c-3.39-15.32-9-29.32-23-38.33-7.63-4.92-14.95-4.12-21,2.66-2.43,2.73-4.51,5.77-6.82,8.61-3.09,3.79-6.48,7.71-11.44,8.43a48.24,48.24,0,0,1-33.37-6.95c-.16-.1-.05-.6-.07-1,33.19-7.67,55-28.79,69.23-59.28.71,1,1.23,1.64,1.63,2.34,11.65,20.39,22.73,41.09,32.86,62.29a110.23,110.23,0,0,1,10.61,36.74c1.19,11.88-.5,22.95-8.54,32.35C124.93,314.89,104.29,313.86,94.81,299.67Z"/><path class="cls-2" d="M59.63,142.52c-6.37,3.35-13.36,5-20.19,7.1-3.18.95-5.53-.35-5.57-4.28C33.8,139,30.66,134,27,129.11c-4.52-6-8.9-12-13.3-18.1A20.7,20.7,0,0,1,9.91,99.32c-.61-14.85,5.32-27.54,13-39.63a9.71,9.71,0,0,1,8-4.52c3.81-.14,7.66.9,8.69,5.16,1,4-2,6.06-5.35,7.19-4.76,1.59-6.57,5-5.88,9.66.61,4,0,7.94-.24,11.91-.14,1.88-2.71,4.32.32,5.62,2.75,1.17,4.66-1,6.24-3,2.72-3.5,3.81-7.72,5.15-11.83a16.16,16.16,0,0,1,1.55-4.16c1.49-2.19,3.83-2.53,6.25-1.86a4.64,4.64,0,0,1,3.4,4.47,5,5,0,0,1-3,5.25c-1.27.6-3.47.17-3.53,2.11-.08,2.44,2.48,2.36,4,3,14.39,6,15.63,25.45,4.28,33.63a35.84,35.84,0,0,0-4.54,3.89c-1.38,1.38-3.65,3.22-2.53,4.93,1.26,1.94,3.93.83,5.92,0a15.38,15.38,0,0,0,6.46-5.34,77.39,77.39,0,0,0,8-14.37c.72-1.61,1-3.53,3.34-4.57,2.58,8.4,2,18.94-1.37,26.12C66.19,137,63.6,140.43,59.63,142.52Zm-16-40.13c-2.21,5.27-4.61,9.7-9.18,13.54,4.27,1.15,7.68,1.57,10-1.29C47.53,110.89,46,106.91,43.66,102.39Z"/><path class="cls-2" d="M0,101.89V91.2A32.5,32.5,0,0,1,0,101.89Z"/><path class="cls-2" d="M10,124.27c7,10.31,13.94,20.69,17.51,32.86,1,3.27.79,5.68-2.8,7.34s-5.26,5-6.92,8.29c-3,5.91-5.79,12-8.67,18-1.25-.69-.77-2-1.11-3H8a314.33,314.33,0,0,0-1.91-43.92h0c0-1.65-.05-3.3-.07-4.95a.58.58,0,0,1-.18-.2l.18.2c0-1.34,0-2.68,0-4a.69.69,0,0,1-.23-.25l.23.25c.07-1.25.39-2.72-1.08-3.28-.64-.25-.72.75-.7,1.36,0,1.33,0,2.66,0,4s0,2.63,0,3.94h0A433.69,433.69,0,0,0,1.72,191C1.11,190,.55,189,0,187.91V124.37C4.87,117.21,5.16,117.18,10,124.27Z"/><path class="cls-4" d="M19.17,255.94a2.07,2.07,0,0,1,2.34.09c1,.55,2,1.19,3,1.8,12.75,7.87,25.14,8.14,37.77-.74,10.08-7.08,21.81-7.93,34.87-7.25-3.93,3.13-6.93,5.68-10.1,8-10.52,7.71-16.33,18.28-18.51,30.9a51.1,51.1,0,0,0,.25,16.91c.43,2.66,1.75,6.56-1.21,7.75-3.27,1.33-4.84-2.6-6.64-4.85a29.15,29.15,0,0,1-2.61-4.25,56.58,56.58,0,0,1-6.06-18.41c-.26-1.7-.28-3.07-2.63-3.42-11.48-1.7-19.34-9.09-26.52-17.41a19.71,19.71,0,0,1-4-6.84C18.85,257.49,18.31,256.6,19.17,255.94Z"/><path class="cls-2" d="M3.17,1.7c1.44-2.57,2.5-2,3.74.15C12.2,10.92,17.32,20.08,21,30c2.24,6.13,1.65,12-1.33,17.85C14.94,57,9,65.54,5.11,76.8A107.71,107.71,0,0,0,0,65.45V7.37Q1.58,4.54,3.17,1.7Z"/><path class="cls-1" d="M19.91,327.18a9.86,9.86,0,0,1,.81,2c2,12,8.9,20.92,18.24,28.19a80.34,80.34,0,0,0,23.7,12.52A56.79,56.79,0,0,1,86.2,385.22c-1.91.83-2.87-.39-4-1a62.08,62.08,0,0,0-19.63-7c-7.4-1.27-14.81-1.86-22.24.24-7.66,2.16-13.87,5.86-16.29,14.91C20.81,380.47,22.7,375,31.7,369.49,15.39,360.46,14.41,341.89,19.91,327.18Z"/><path class="cls-5" d="M36,466.25c-.73-.06-2.13.51-1.68-1.24,2.73,1.74,6.17-.58,8.82,1.57C40.83,465.94,38.41,466.47,36,466.25Z"/><path class="cls-5" d="M34.29,466.76c-.69,0-1.88.29-1.19-1.12.16-.34.83-.43,1.26-.63-.45,1.75,1,1.18,1.68,1.24,2.37.22,4.79-.31,7.14.33h0C40.22,466.65,37.26,466.73,34.29,466.76Z"/><path class="cls-6" d="M5.11,137.82l0,0c0,.43,0,.87,0,1.3.41,1.51.24,3.13.9,4.59-.62-1-1.25-2-1.88-3h0A4,4,0,0,0,5.11,137.82Z"/><path class="cls-6" d="M5.15,137.86l.67.74a.58.58,0,0,0,.18.2c0,1.65,0,3.3.07,4.95h0c-.66-1.46-.49-3.08-.9-4.59C5.15,138.73,5.15,138.29,5.15,137.86Z"/><path class="cls-6" d="M4.23,136.85c.29.32.58.65.88,1a4,4,0,0,1-.92,3h0C4.21,139.48,4.22,138.17,4.23,136.85Z"/><path class="cls-7" d="M25.92,455.27a7,7,0,0,1,.84-.29h0a3.47,3.47,0,0,0-1.63,1.78h0c-.79-1.27-2.2-.76-3.3-1.15h0C23.15,455,24.56,455.44,25.92,455.27Z"/><path class="cls-7" d="M26.76,455l1.2.56-2.83,1.22h0A3.47,3.47,0,0,1,26.76,455Z"/><path class="cls-7" d="M25.91,454.59h0l.85.39a7,7,0,0,0-.84.29c-1.36.17-2.77-.31-4.09.34,1.21-.95,2.68-.85,4.08-1Z"/><path class="cls-8" d="M9.09,190.71c-.24.77-.9,1.92-1.46,1.26C6.56,190.68,7,189,8,187.67,7.89,188.85,6.63,190.46,9.09,190.71Z"/><path class="cls-8" d="M9.09,190.71c-2.46-.25-1.2-1.86-1.11-3H8C8.32,188.69,7.84,190,9.09,190.71Z"/><path class="cls-9" d="M36,452a2.53,2.53,0,0,0,1.16-1.11l2.2,1.05h0C38.26,452.59,37.12,452,36,452Z"/><path class="cls-9" d="M34.75,452.45A10.42,10.42,0,0,0,36,452c1.12,0,2.26.62,3.36-.05-1.2,1-2.68.85-4.08,1.05Z"/><path class="cls-9" d="M36,452a2.25,2.25,0,0,0-.68.07l-.76.23-.39-.37h0l3-1h0A2.53,2.53,0,0,1,36,452Z"/><path class="cls-9" d="M35.32,452A2.25,2.25,0,0,1,36,452a10.42,10.42,0,0,1-1.25.48l-.19-.18Z"/><path class="cls-10" d="M34.17,452.66c.1.38.43.52,1.11.31L31,454.47l-.62-.46Z"/><path class="cls-10" d="M30.82,453.49l-.76.27-.32-.24h0l4.43-1.62a3.13,3.13,0,0,0,0,.5C33,452.75,31.93,453.15,30.82,453.49Z"/><path class="cls-10" d="M34.17,452.66,30.41,454l-.35-.25.76-.27c1.11-.34,2.2-.74,3.31-1.09A.68.68,0,0,0,34.17,452.66Z"/><path class="cls-10" d="M34.17,452.66l.18-.06.4-.15.53.52C34.6,453.18,34.27,453,34.17,452.66Z"/><path class="cls-10" d="M34.56,452.27l-.43.13a3.13,3.13,0,0,1,0-.5h0Z"/><path class="cls-10" d="M34.17,452.66a.68.68,0,0,1,0-.26l.43-.13.19.18-.4.15Z"/><path class="cls-11" d="M27.87,454.71a15.17,15.17,0,0,0,2-.51l.25-.09a4.45,4.45,0,0,0,.9.36L28,455.54h0A2.08,2.08,0,0,0,27.87,454.71Z"/><path class="cls-11" d="M27.79,454.55c-.36-.56-1.22-.05-1.88,0a6.22,6.22,0,0,1,3.83-1.07.87.87,0,0,0,.12.31Z"/><path class="cls-11" d="M30.13,454.11l-.25.09a15.17,15.17,0,0,1-2,.51.6.6,0,0,0-.08-.16l2.07-.72A.81.81,0,0,0,30.13,454.11Z"/><polygon class="cls-11" points="26.76 454.98 26.76 454.98 26.76 454.98 26.76 454.98"/><path class="cls-11" d="M27.87,454.71a2.08,2.08,0,0,1,.09.83h0l-1.2-.56h0A11.2,11.2,0,0,1,27.87,454.71Z"/><path class="cls-11" d="M27.79,454.55l-.15.05a4.67,4.67,0,0,0-.88.38h0l-.85-.39h0C26.57,454.5,27.43,454,27.79,454.55Z"/><path class="cls-11" d="M26.76,455a4.67,4.67,0,0,1,.88-.38l.15-.05a.6.6,0,0,1,.08.16A11.2,11.2,0,0,0,26.76,455Z"/><path class="cls-11" d="M30.41,454l.62.46a4.45,4.45,0,0,1-.9-.36Z"/><path class="cls-11" d="M30.06,453.76l-.2.07a.87.87,0,0,1-.12-.31h0Z"/><path class="cls-11" d="M30.13,454.11a.81.81,0,0,1-.27-.28l.2-.07.35.25Z"/><path class="cls-12" d="M30.62,188.15c3.07,3.12,7.24,4.47,11.67,6.93-11.61,5.52-22.09,11.46-29.68,21.61-.29-.78-.56-1.13-.48-1.37C15.35,205.17,21,196.47,28,188.55,28.72,187.76,29.73,187.24,30.62,188.15Z"/><path class="cls-13" d="M34.48,115.93c4.57-3.84,7-8.27,9.18-13.54,2.32,4.52,3.87,8.5.83,12.25C42.16,117.5,38.75,117.08,34.48,115.93Z"/><path class="cls-14" d="M5.12,135.17a1.32,1.32,0,0,0,0,.28v1.35h0Z"/><path class="cls-14" d="M5.15,133.84c0,.3,0,.61,0,.92,0-.33,0-.65,0-1Z"/><path class="cls-14" d="M5.11,134.76c0,.14,0,.27,0,.41v1.62a1.49,1.49,0,0,0-.89.06c0-1.33,0-2.66,0-4,.28.31.57.61.86.92C5.1,134.11,5.11,134.43,5.11,134.76Z"/><path class="cls-14" d="M5.14,136.8v-1.35a1.32,1.32,0,0,1,0-.28c0-.14,0-.27,0-.41,0-.31,0-.62,0-.92l.64.69a.69.69,0,0,0,.23.25c0,1.34,0,2.68,0,4l-.18-.2C5.51,138.08,5.76,137,5.14,136.8Z"/><path class="cls-14" d="M5.11,134.76c0,.14,0,.27,0,.41C5.11,135,5.11,134.9,5.11,134.76Z"/><path class="cls-14" d="M5.12,136.79h0c0,.35,0,.71,0,1.06l0,0c0-.23,0-.45,0-.68Z"/><path class="cls-14" d="M5.12,136.79v.35c0,.23,0,.45,0,.68-.3-.32-.59-.65-.88-1A1.49,1.49,0,0,1,5.12,136.79Z"/><path class="cls-14" d="M5.14,136.8c.62.24.37,1.28.68,1.8l-.67-.74C5.14,137.51,5.14,137.15,5.14,136.8Z"/><path class="cls-15" d="M4.82,132.29a1.82,1.82,0,0,1,.22.47H5A2.08,2.08,0,0,0,4.82,132.29Z"/><path class="cls-15" d="M4.82,132.29a2.28,2.28,0,0,0-.29-.34A1.05,1.05,0,0,1,4.82,132.29Z"/><path class="cls-15" d="M5,132.76a1.82,1.82,0,0,0-.22-.47,1.05,1.05,0,0,0-.29-.34,2.28,2.28,0,0,1,.29.34,2.08,2.08,0,0,1,.16.46,1.69,1.69,0,0,0-.74.11c0-.61.06-1.61.7-1.36,1.47.56,1.15,2,1.08,3.28l-.23-.25C5.5,134,5.77,132.91,5,132.76Z"/><path class="cls-15" d="M5.09,133.48c0-.24-.06-.49-.11-.73H5a3.48,3.48,0,0,1,.11,1.08l-.05-.06C5.09,133.68,5.09,133.58,5.09,133.48Z"/><path class="cls-15" d="M5,132.75c0,.24.08.49.11.73s0,.2,0,.3c-.29-.31-.58-.61-.86-.92A1.69,1.69,0,0,1,5,132.75Z"/><path class="cls-15" d="M5,132.76c.73.15.46,1.21.75,1.77l-.64-.69A3.48,3.48,0,0,0,5,132.76Z"/><path class="cls-1" d="M385.34,455.54h0l-3.07-1.07L378,453c-1.4-.2-2.88-.09-4.08-1.05h0c-6.95-.78-13.89-1.63-20.84-2.34a21.14,21.14,0,0,1-13.43-7c-7.71-8.15-11.94-17.7-10.33-29.08,1.29-9.09,7-22,17.84-23.48,2.21-.31,4.19-1.11,4,2.68-.16,4,2.31,6.59,6.33,7,3.85.42,6.49-1.68,7.42-5.3,1-4.1-.62-7.43-4.62-8.82-9.72-3.37-19.12-2.83-27.37,3.9-13.67,11.14-18.48,35.56-10.33,51.22a80.81,80.81,0,0,0,9.4,13.68c-12.37-.2-19.86-7.49-19.86-18.93,0-9,.32-18-.08-27-.54-12.09,3.87-22.07,11.62-31a120.75,120.75,0,0,1,35-27.84c18.29-9.6,22.64-30.38,19.65-48.41-4.7,12.83-13.59,18.75-26.77,19.28,3,4.24,7.71,5.48,9.08,9.66,1.42,4.35.38,8.31-2.15,12.31-2.84-10-6.11-13.71-12.62-14.54a13.29,13.29,0,0,0-13.21,7.21c-3.44,7.05-1.07,12.89,4.6,18.17-7.58,3.68-13.87,8.69-19.91,14.43-1.91-3.79-2-7.34-2.87-10.69-.56-2.23.23-3.55,2.07-5,12-9.54,16.71-22.44,16.39-37.39a25,25,0,0,0-3.9-12.25c-1.21-2-2.23-3-4.57-1.09-6.8,5.41-13.37,11-18.47,18.15-3,4.13-5.08,8.59-4.77,13.87a41.61,41.61,0,0,0,4,19.11c1.32,2.81,0,5.88-.57,8.78-.35,1.73-1.76,1.7-3.16,1.49-3.39-.51-6.56-1.47-7.89-5.08-1.28-3.46,1-5.45,3.16-7.65,3.34-3.38,6.07-7.13,3.43-12.28-.28-.6-.56-1.2-.83-1.81-2.65-5.91-7.56-8.72-13.06-7.48-5.84,1.31-9.28,6-9.27,12.48,0,1.41.63,2.89-.49,4.72a29.78,29.78,0,0,1-5.73-11.5c-1-3.67.1-6.18,3.47-7.77s6.66-3,9.93-4.69c2.68-1.35,3-3.37.24-4.73-10.07-4.93-13.29-14.38-16.23-24-2-6.47-2.84-13.19-3.83-20.17-2.15,1.55-2.49,3.6-3.17,5.37a73.2,73.2,0,0,0-3.5,42.19c4.07,19.59,15,35,29.71,47.95a27.81,27.81,0,0,1,8.95,15.17,60.15,60.15,0,0,1,1.73,13.34c.06,14.16.2,28.31.07,42.47-.07,7.95,3.48,13.67,9.85,17.95a35.3,35.3,0,0,0,11,4.65c9.66,2.51,19.43,2.25,29.28,1.46,10.26-.83,20.6-2.1,30.63,1.69.44.2,1.1.29,1.26.63.7,1.41-.5,1.13-1.19,1.12-3,0-5.93-.11-8.89-.18h0a36.14,36.14,0,0,0-3.76,1.28c-4.31,2-7.72,4.95-7.64,10.05s3.49,8,7.85,9.93a20.67,20.67,0,0,0,25.5-7.33c5.56-8.55,4.32-16.12-3.9-23.75h0Z"/><path class="cls-2" d="M408.31,204.76c-3-5.49-5.67-10.6-8.49-15.64-6.74-12.06-14.79-22.94-27.29-29.74a12.71,12.71,0,0,0-12-.23c-4.38,2.06-6,6.06-6.28,10.6a7.23,7.23,0,0,0,4.68,7.57c4.06,1.56,7.87.58,10.94-2.67.56-.58,1-1.34,2-1.13.65,5.07-1.93,8.5-7,9.33-9.86,1.59-20-6.74-20.26-16.78-.09-3.06,1-5.56,4.16-6.69s6.09-2.16,10.25-3.64c-8.68-3-14.11-8.52-19.7-13.93-1.7-1.64-3-5.28-5.41-4.29s-3.11,4.5-3.74,7.29a4.29,4.29,0,0,0-.07.5c-2.12,12.05.65,23.38,6.65,33.57,8.92,15.16,22.8,25.12,38.74,31.72a27.9,27.9,0,0,1,16.39,17,138.1,138.1,0,0,1,9.32,48.26c.19,37.49.05,75,.1,112.46,0,1.7-.71,3.61,1.27,5.81,3.33-5.93,7.12-5,10.73-1.22V195.53C411.68,198.53,410,201.59,408.31,204.76Zm-7.62,11.93c-7.59-10.15-18.07-16.09-29.67-21.61,4.42-2.46,8.59-3.81,11.66-6.93.89-.91,1.9-.39,2.6.4,7,7.92,12.67,16.62,15.9,26.77C401.25,215.56,401,215.91,400.69,216.69Z"/><path class="cls-3" d="M411.06,397.84c-2.07-2.26-3.47-2.32-5.56,0a42.21,42.21,0,0,0-9.39,18c-1.53,5.79-1.52,5.76-7.25,3.2a88.79,88.79,0,0,0-32.76-8.06c-6.22-.26-6.42.06-5.24,6,3,15.32,11.29,26.78,25.28,34h0l3,1h0l4.43,1.62h0a6.2,6.2,0,0,1,3.83,1.07h0c1.4.17,2.87.07,4.08,1h0c.83,0,1.67,0,2.49.09,8.86.87,7.25-.32,7.25,8q.07,107.15,0,214.29c0,7.76,0,7.39,7.94,7.89a8.28,8.28,0,0,0,4.12-.49V400.55C412.6,399.62,411.87,398.72,411.06,397.84Z"/><path class="cls-4" d="M318.49,299.67c7.86-11.75,5.48-31-5-40.46-4.25-3.82-9.14-5.28-14.79-3.82-7.09,1.84-10.4,6.43-9,12.57,1.63,7.23,6,9.91,13.77,8.46,1.75-.32,4-2.11,4.85,1.14.69,2.73-.76,4.28-3.27,5.32-9,3.73-17.71-1.74-18.92-12.15a50.75,50.75,0,0,1,1.13-16.88c3.39-15.32,9-29.32,23-38.33,7.63-4.92,14.95-4.12,21,2.66,2.43,2.73,4.51,5.77,6.82,8.61,3.1,3.79,6.48,7.71,11.44,8.43a48.28,48.28,0,0,0,33.38-6.95c.15-.1,0-.6.06-1-33.19-7.67-55-28.79-69.23-59.28-.71,1-1.23,1.64-1.63,2.34-11.65,20.39-22.73,41.09-32.86,62.29a110.47,110.47,0,0,0-10.61,36.74c-1.19,11.88.5,22.95,8.54,32.35C288.37,314.89,309,313.86,318.49,299.67Z"/><path class="cls-2" d="M353.67,142.52c6.37,3.35,13.36,5,20.19,7.1,3.18.95,5.53-.35,5.57-4.28.07-6.32,3.22-11.37,6.89-16.23,4.52-6,8.9-12,13.3-18.1a20.79,20.79,0,0,0,3.78-11.69c.6-14.85-5.32-27.54-13-39.63a9.71,9.71,0,0,0-8-4.52c-3.81-.14-7.65.9-8.69,5.16-1,4,2,6.06,5.35,7.19,4.76,1.59,6.57,5,5.88,9.66-.6,4,0,7.94.24,11.91.14,1.88,2.71,4.32-.32,5.62-2.75,1.17-4.66-1-6.23-3-2.73-3.5-3.82-7.72-5.16-11.83a15.8,15.8,0,0,0-1.55-4.16c-1.49-2.19-3.83-2.53-6.25-1.86a4.64,4.64,0,0,0-3.4,4.47,5,5,0,0,0,3,5.25c1.27.6,3.47.17,3.54,2.11.08,2.44-2.49,2.36-4,3-14.39,6-15.63,25.45-4.27,33.63a36.46,36.46,0,0,1,4.53,3.89c1.38,1.38,3.65,3.22,2.53,4.93-1.25,1.94-3.93.83-5.92,0a15.44,15.44,0,0,1-6.46-5.34,77.39,77.39,0,0,1-8-14.37c-.72-1.61-1-3.53-3.34-4.57-2.58,8.4-2,18.94,1.37,26.12C347.11,137,349.7,140.43,353.67,142.52Zm16-40.13c2.21,5.27,4.61,9.7,9.18,13.54-4.27,1.15-7.68,1.57-10-1.29C365.77,110.89,367.32,106.91,369.64,102.39Z"/><path class="cls-2" d="M413.3,101.89V91.2A32.5,32.5,0,0,0,413.3,101.89Z"/><path class="cls-2" d="M403.33,124.27c-7,10.31-13.94,20.69-17.51,32.86-1,3.27-.79,5.68,2.8,7.34s5.26,5,6.92,8.29c3,5.91,5.79,12,8.67,18,1.25-.69.77-2,1.11-3h0a314.33,314.33,0,0,1,1.91-43.92h0c0-1.65,0-3.3.08-4.95a.55.55,0,0,0,.17-.2l-.18.2c0-1.34,0-2.68,0-4a.61.61,0,0,0,.23-.25l-.23.25c-.07-1.25-.39-2.72,1.08-3.28.65-.25.72.75.71,1.36v4c0,1.32,0,2.63,0,3.94h0A433.7,433.7,0,0,1,411.59,191c.6-1,1.17-2.07,1.71-3.11V124.37C408.43,117.21,408.14,117.18,403.33,124.27Z"/><path class="cls-4" d="M394.13,255.94a2.07,2.07,0,0,0-2.34.09c-1,.55-2,1.19-3,1.8-12.74,7.87-25.14,8.14-37.76-.74-10.09-7.08-21.82-7.93-34.88-7.25,3.93,3.13,6.94,5.68,10.1,8,10.52,7.71,16.33,18.28,18.51,30.9a51.1,51.1,0,0,1-.25,16.91c-.43,2.66-1.75,6.56,1.21,7.75,3.27,1.33,4.84-2.6,6.64-4.85a28.31,28.31,0,0,0,2.61-4.25A56.58,56.58,0,0,0,361,285.9c.26-1.7.28-3.07,2.63-3.42,11.48-1.7,19.34-9.09,26.52-17.41a19.71,19.71,0,0,0,4-6.84C394.45,257.49,395,256.6,394.13,255.94Z"/><path class="cls-2" d="M410.13,1.7c-1.44-2.57-2.5-2-3.74.15C401.1,10.92,396,20.08,392.35,30c-2.24,6.13-1.64,12,1.33,17.85,4.68,9.18,10.63,17.71,14.51,29a107.71,107.71,0,0,1,5.11-11.35V7.37C412.25,5.48,411.2,3.59,410.13,1.7Z"/><path class="cls-1" d="M393.39,327.18a9.86,9.86,0,0,0-.81,2c-2,12-8.89,20.92-18.24,28.19a80.34,80.34,0,0,1-23.7,12.52,56.79,56.79,0,0,0-23.54,15.35c1.91.83,2.87-.39,4-1a62.08,62.08,0,0,1,19.63-7c7.4-1.27,14.81-1.86,22.24.24,7.66,2.16,13.87,5.86,16.29,14.91,3.27-11.89,1.38-17.36-7.62-22.87C397.91,360.46,398.89,341.89,393.39,327.18Z"/><path class="cls-5" d="M377.26,466.25c.73-.06,2.13.51,1.68-1.24-2.72,1.74-6.17-.58-8.82,1.57C372.48,465.94,374.89,466.47,377.26,466.25Z"/><path class="cls-5" d="M379,466.76c.69,0,1.89.29,1.19-1.12-.16-.34-.82-.43-1.26-.63.45,1.75-.95,1.18-1.68,1.24-2.37.22-4.78-.31-7.14.33h0C373.08,466.65,376,466.73,379,466.76Z"/><path class="cls-6" d="M408.2,137.82l-.05,0c0,.43,0,.87,0,1.3-.41,1.51-.24,3.13-.9,4.59l1.88-3h0A3.93,3.93,0,0,1,408.2,137.82Z"/><path class="cls-6" d="M408.15,137.86l-.67.74a.55.55,0,0,1-.17.2c0,1.65-.06,3.3-.08,4.95h0c.66-1.46.49-3.08.9-4.59C408.15,138.73,408.15,138.29,408.15,137.86Z"/><path class="cls-6" d="M409.07,136.85l-.87,1a3.93,3.93,0,0,0,.91,3h0C409.1,139.48,409.08,138.17,409.07,136.85Z"/><path class="cls-7" d="M387.38,455.27a6.42,6.42,0,0,0-.84-.29h0a3.47,3.47,0,0,1,1.63,1.78h0c.8-1.27,2.2-.76,3.3-1.15h0C390.15,455,388.74,455.44,387.38,455.27Z"/><path class="cls-7" d="M386.54,455l-1.2.56,2.83,1.22h0A3.47,3.47,0,0,0,386.54,455Z"/><path class="cls-7" d="M387.39,454.59h0l-.85.39a6.42,6.42,0,0,1,.84.29c1.36.17,2.77-.31,4.09.34-1.21-.95-2.68-.85-4.08-1Z"/><path class="cls-8" d="M404.21,190.71c.24.77.91,1.92,1.46,1.26,1.07-1.29.67-2.93-.35-4.3C405.41,188.85,406.67,190.46,404.21,190.71Z"/><path class="cls-8" d="M404.21,190.71c2.46-.25,1.2-1.86,1.11-3h0C405,188.69,405.46,190,404.21,190.71Z"/><path class="cls-9" d="M377.3,452a2.53,2.53,0,0,1-1.16-1.11l-2.2,1.05h0C375,452.59,376.18,452,377.3,452Z"/><path class="cls-9" d="M378.55,452.45a11.11,11.11,0,0,1-1.25-.48c-1.12,0-2.26.62-3.36-.05,1.2,1,2.68.85,4.08,1.05Z"/><path class="cls-9" d="M377.3,452a2.25,2.25,0,0,1,.68.07l.76.23.39-.37h0l-3-1h0A2.53,2.53,0,0,0,377.3,452Z"/><path class="cls-9" d="M378,452a2.25,2.25,0,0,0-.68-.07,11.11,11.11,0,0,0,1.25.48l.19-.18Z"/><path class="cls-10" d="M379.14,452.66c-.11.38-.44.52-1.12.31l4.25,1.5.62-.46Z"/><path class="cls-10" d="M382.48,453.49l.76.27.32-.24h0l-4.43-1.62a3.13,3.13,0,0,1,0,.5C380.28,452.75,381.37,453.15,382.48,453.49Z"/><path class="cls-10" d="M379.14,452.66l3.75,1.35.35-.25-.76-.27c-1.11-.34-2.2-.74-3.31-1.09A1,1,0,0,1,379.14,452.66Z"/><path class="cls-10" d="M379.14,452.66l-.19-.06-.4-.15L378,453C378.7,453.18,379,453,379.14,452.66Z"/><path class="cls-10" d="M378.74,452.27l.43.13a3.13,3.13,0,0,0,0-.5h0Z"/><path class="cls-10" d="M379.14,452.66a1,1,0,0,0,0-.26l-.43-.13-.19.18.4.15Z"/><path class="cls-11" d="M385.43,454.71a15.57,15.57,0,0,1-2-.51l-.25-.09a4.45,4.45,0,0,1-.9.36l3.07,1.07h0A2.28,2.28,0,0,1,385.43,454.71Z"/><path class="cls-11" d="M385.51,454.55c.36-.56,1.22-.05,1.88,0a6.2,6.2,0,0,0-3.83-1.07.87.87,0,0,1-.12.31Z"/><path class="cls-11" d="M383.17,454.11l.25.09a15.57,15.57,0,0,0,2,.51.6.6,0,0,1,.08-.16l-2.07-.72A.81.81,0,0,1,383.17,454.11Z"/><polygon class="cls-11" points="386.54 454.98 386.54 454.98 386.54 454.98 386.54 454.98"/><path class="cls-11" d="M385.43,454.71a2.28,2.28,0,0,0-.09.83h0l1.2-.56h0A10.56,10.56,0,0,0,385.43,454.71Z"/><path class="cls-11" d="M385.51,454.55l.15.05a4.67,4.67,0,0,1,.88.38h0l.85-.39h0C386.73,454.5,385.87,454,385.51,454.55Z"/><path class="cls-11" d="M386.54,455a4.67,4.67,0,0,0-.88-.38l-.15-.05a.6.6,0,0,0-.08.16A10.56,10.56,0,0,1,386.54,455Z"/><path class="cls-11" d="M382.89,454l-.62.46a4.45,4.45,0,0,0,.9-.36Z"/><path class="cls-11" d="M383.24,453.76l.2.07a.87.87,0,0,0,.12-.31h0Z"/><path class="cls-11" d="M383.17,454.11a.81.81,0,0,0,.27-.28l-.2-.07-.35.25Z"/><path class="cls-12" d="M382.68,188.15c-3.07,3.12-7.24,4.47-11.66,6.93,11.6,5.52,22.08,11.46,29.67,21.61.29-.78.56-1.13.49-1.37-3.23-10.15-8.91-18.85-15.9-26.77C384.58,187.76,383.57,187.24,382.68,188.15Z"/><path class="cls-13" d="M378.82,115.93c-4.57-3.84-7-8.27-9.18-13.54-2.32,4.52-3.87,8.5-.82,12.25C371.14,117.5,374.55,117.08,378.82,115.93Z"/><path class="cls-14" d="M408.18,135.17a2.62,2.62,0,0,1,0,.28c0,.45,0,.9,0,1.35h0Z"/><path class="cls-14" d="M408.15,133.84c0,.3,0,.61,0,.92,0-.33,0-.65,0-1Z"/><path class="cls-14" d="M408.19,134.76c0,.14,0,.27,0,.41v1.62a1.49,1.49,0,0,1,.89.06v-4c-.29.31-.58.61-.86.92C408.2,134.11,408.19,134.43,408.19,134.76Z"/><path class="cls-14" d="M408.17,136.8c0-.45,0-.9,0-1.35a2.62,2.62,0,0,0,0-.28c0-.14,0-.27,0-.41,0-.31,0-.62,0-.92l-.64.69a.61.61,0,0,1-.23.25c0,1.34,0,2.68,0,4l.18-.2C407.8,138.08,407.54,137,408.17,136.8Z"/><path class="cls-14" d="M408.19,134.76c0,.14,0,.27,0,.41C408.19,135,408.19,134.9,408.19,134.76Z"/><path class="cls-14" d="M408.18,136.79h0c0,.35,0,.71,0,1.06l.05,0c0-.23,0-.45,0-.68S408.19,136.91,408.18,136.79Z"/><path class="cls-14" d="M408.18,136.79c0,.12,0,.24,0,.35s0,.45,0,.68l.87-1A1.49,1.49,0,0,0,408.18,136.79Z"/><path class="cls-14" d="M408.17,136.8c-.63.24-.37,1.28-.69,1.8l.67-.74C408.16,137.51,408.17,137.15,408.17,136.8Z"/><path class="cls-15" d="M408.49,132.29a1.58,1.58,0,0,0-.23.47h.07A1.4,1.4,0,0,1,408.49,132.29Z"/><path class="cls-15" d="M408.49,132.29a1.74,1.74,0,0,1,.28-.34A1,1,0,0,0,408.49,132.29Z"/><path class="cls-15" d="M408.26,132.76a1.58,1.58,0,0,1,.23-.47,1,1,0,0,1,.28-.34,1.74,1.74,0,0,0-.28.34,1.4,1.4,0,0,0-.16.46,1.71,1.71,0,0,1,.74.11c0-.61-.06-1.61-.71-1.36-1.47.56-1.15,2-1.08,3.28l.23-.25C407.8,134,407.53,132.91,408.26,132.76Z"/><path class="cls-15" d="M408.21,133.48c0-.24.07-.49.12-.73h-.07a3.48,3.48,0,0,0-.11,1.08l.06-.06Z"/><path class="cls-15" d="M408.33,132.75c-.05.24-.09.49-.12.73v.3c.28-.31.57-.61.86-.92A1.71,1.71,0,0,0,408.33,132.75Z"/><path class="cls-15" d="M408.26,132.76c-.73.15-.46,1.21-.75,1.77l.64-.69A3.48,3.48,0,0,1,408.26,132.76Z"/></g></g></svg>