<svg xmlns="http://www.w3.org/2000/svg" viewBox="0 0 135.64 149.38"><defs><style>.cls-1{fill:#1f1a18;}.cls-2{fill:#f7f5f3;}.cls-3{fill:#252121;}.cls-4{fill:#24201f;}.cls-5{fill:#262020;}.cls-6{fill:#3d3937;}.cls-7{fill:#201b19;}.cls-8{fill:#201b18;}.cls-9{fill:#201a18;}.cls-10{fill:#fefefe;}.cls-11{fill:#1f1c1b;}.cls-12{fill:#fdfcfc;}.cls-13{fill:#fcfcfb;}.cls-14{fill:#f9f9f7;}.cls-15{fill:#232020;}.cls-16{fill:#f2f0ee;}.cls-17{fill:#373433;}.cls-18{fill:#4b4845;}.cls-19{fill:#393735;}.cls-20{fill:#e3e0de;}.cls-21{fill:#e0dddb;}.cls-22{fill:#e2dedb;}.cls-23{fill:#f5f3f2;}.cls-24{fill:#43403e;}.cls-25{fill:#eae5e4;}.cls-26{fill:#d9d5d3;}.cls-27{fill:#afa9a7;}.cls-28{fill:#3a3736;}.cls-29{fill:#3e3c3b;}.cls-30{fill:#575451;}.cls-31{fill:#bbb7b4;}.cls-32{fill:#454241;}.cls-33{fill:#413e3c;}.cls-34{fill:#ccc9c7;}.cls-35{fill:#454341;}.cls-36{fill:#43413f;}.cls-37{fill:#d4d0cd;}.cls-38{fill:#3f3d3b;}.cls-39{fill:#dddad8;}.cls-40{fill:#44403e;}.cls-41{fill:#a29d9a;}.cls-42{fill:#0c0908;}.cls-43{fill:#494543;}.cls-44{fill:#eae5e1;}.cls-45{fill:#4a4746;}.cls-46{fill:#4f4d4b;}.cls-47{fill:#7e7a7a;}.cls-48{fill:#484644;}.cls-49{fill:#cdc7c5;}.cls-50{fill:#fefefd;}.cls-51{fill:#fcf9f7;}.cls-52{fill:#5b5858;}.cls-53{fill:#dddad7;}.cls-54{fill:#c2bdba;}.cls-55{fill:#444241;}.cls-56{fill:#928e8c;}.cls-57{fill:#6f6867;}.cls-58{fill:#6e6a6a;}.cls-59{fill:#3a3735;}.cls-60{fill:#cfcbc8;}.cls-61{fill:#595554;}.cls-62{fill:#585554;}.cls-63{fill:#84817f;}.cls-64{fill:#a39d9a;}.cls-65{fill:#0d0c0a;}.cls-66{fill:#9e9a98;}.cls-67{fill:#3f3d3d;}.cls-68{fill:#cdc9c6;}.cls-69{fill:#272524;}.cls-70{fill:#565351;}.cls-71{fill:#5a5756;}.cls-72{fill:#8f8b8a;}.cls-73{fill:#cac5c2;}.cls-74{fill:#494644;}.cls-75{fill:#6d6b6a;}.cls-76{fill:#3f3d3c;}.cls-77{fill:#c4bfbe;}.cls-78{fill:#f0eeec;}.cls-79{fill:#beb8b5;}.cls-80{fill:#908a87;}.cls-81{fill:#413d3d;}.cls-82{fill:#ece3e4;}.cls-83{fill:#edeae7;}.cls-84{fill:#514e4d;}.cls-85{fill:#c0bab7;}.cls-86{fill:#433f3d;}.cls-87{fill:#1c1b1a;}.cls-88{fill:#cfc9c6;}.cls-89{fill:#fdfdfd;}.cls-90{fill:#f3f1ee;}.cls-91{fill:#e3dedb;}.cls-92{fill:#e0ddd9;}.cls-93{fill:#403c39;}.cls-94{fill:#474443;}.cls-95{fill:#6f6a67;}.cls-96{fill:#c4bfbc;}.cls-97{fill:#8a8582;}.cls-98{fill:#3c3837;}.cls-99{fill:#3e3936;}.cls-100{fill:#9a9592;}.cls-101{fill:#464343;}.cls-102{fill:#3c3a38;}.cls-103{fill:#585350;}.cls-104{fill:#8b8683;}.cls-105{fill:#3b3734;}.cls-106{fill:#514d4a;}.cls-107{fill:#5a5552;}.cls-108{fill:#9e9996;}.cls-109{fill:#8e8986;}.cls-110{fill:#c8c2bf;}.cls-111{fill:#a8a29f;}.cls-112{fill:#dbd6d3;}.cls-113{fill:#d7d3cf;}.cls-114{fill:#a29c99;}.cls-115{fill:#8e8885;}.cls-116{fill:#a09b98;}.cls-117{fill:#55504d;}.cls-118{fill:#cec9c6;}.cls-119{fill:#beb9b6;}.cls-120{fill:#ada8a5;}.cls-121{fill:#a39e9b;}.cls-122{fill:#928d8a;}.cls-123{fill:#999491;}.cls-124{fill:#6b6663;}.cls-125{fill:#3d3835;}.cls-126{fill:#8f8987;}.cls-127{fill:#918c89;}.cls-128{fill:#9b9693;}.cls-129{fill:#cdc8c5;}.cls-130{fill:#938e8b;}.cls-131{fill:#6a6562;}.cls-132{fill:#faf6f4;}.cls-133{fill:#c7c1be;}.cls-134{fill:#75706d;}.cls-135{fill:#ebe6e3;}.cls-136{fill:#494340;}.cls-137{fill:#eee9e6;}.cls-138{fill:#837e7b;}.cls-139{fill:#696461;}.cls-140{fill:#544f4c;}.cls-141{fill:#fefdfd;}.cls-142{fill:#fbfbfb;}.cls-143{fill:#dad5d2;}.cls-144{fill:#d7d2cf;}.cls-145{fill:#d8d4d1;}.cls-146{fill:#a7a3a0;}.cls-147{fill:#d5d1ce;}.cls-148{fill:#b2aeab;}.cls-149{fill:#c9c4c1;}.cls-150{fill:#9c9896;}.cls-151{fill:#a49e9c;}.cls-152{fill:#aea8a6;}.cls-153{fill:#a19b98;}.cls-154{fill:#c5bfbc;}.cls-155{fill:#65605d;}.cls-156{fill:#56514e;}.cls-157{fill:#bfb9b6;}.cls-158{fill:#aaa1a2;}.cls-159{fill:#95918e;}.cls-160{fill:#aea9a6;}.cls-161{fill:#979390;}.cls-162{fill:#a39e9c;}.cls-163{fill:#a9a4a0;}.cls-164{fill:#726d6a;}.cls-165{fill:#86817e;}.cls-166{fill:#c7c2bf;}.cls-167{fill:#f5f3f1;}.cls-168{fill:#ccc7c4;}.cls-169{fill:#d4cfcc;}.cls-170{fill:#d5d0cd;}.cls-171{fill:#c8c3c0;}.cls-172{fill:#c9c5c2;}.cls-173{fill:#c5bfbd;}.cls-174{fill:#eeeae8;}.cls-175{fill:#cecbc8;}.cls-176{fill:#d9d5d2;}.cls-177{fill:#75716e;}.cls-178{fill:#efeae7;}.cls-179{fill:#ece9e6;}.cls-180{fill:#e6e2df;}.cls-181{fill:#e0dcd9;}.cls-182{fill:#d0cbc8;}.cls-183{fill:#736f6b;}.cls-184{fill:#dcd9d8;}.cls-185{fill:#afa8a6;}.cls-186{fill:#fbfaf9;}.cls-187{fill:#faf9f9;}.cls-188{fill:#b5b0ad;}.cls-189{fill:#413c39;}.cls-190{fill:#c3bebc;}.cls-191{fill:#b0aaa8;}.cls-192{fill:#aca6a2;}.cls-193{fill:#ada7a4;}.cls-194{fill:#85817d;}.cls-195{fill:#999492;}.cls-196{fill:#6b6763;}.cls-197{fill:#d5d0cc;}.cls-198{fill:#5d5855;}.cls-199{fill:#e5e1de;}.cls-200{fill:#cdc7c4;}.cls-201{fill:#a8a3a1;}.cls-202{fill:#e2dddb;}.cls-203{fill:#ddd8d5;}.cls-204{fill:#c3beba;}.cls-205{fill:#a49f9c;}.cls-206{fill:#dfdbd8;}.cls-207{fill:#d1ccc9;}.cls-208{fill:#989390;}.cls-209{fill:#c0bbb8;}.cls-210{fill:#bbb5b3;}.cls-211{fill:#c4c0be;}.cls-212{fill:#e6e1de;}.cls-213{fill:#b0adaa;}.cls-214{fill:#9b9293;}.cls-215{fill:#9e9898;}.cls-216{fill:#e1ddda;}.cls-217{fill:#73706f;}.cls-218{fill:#bebab7;}.cls-219{fill:#201c19;}.cls-220{fill:#423f3d;}.cls-221,.cls-222{fill:none;}.cls-222,.cls-223{stroke:#231f20;stroke-miterlimit:10;}.cls-222{stroke-width:2px;}.cls-223{font-size:12px;fill:#231f20;font-family:MyriadPro-Regular, Myriad Pro;}</style></defs><title>Asset 19</title><g id="Layer_2" data-name="Layer 2"><g id="STEP_1" data-name="STEP 1"><path class="cls-1" d="M88.07,116.54a4.9,4.9,0,0,0,2.55.86,9.1,9.1,0,0,0,3.49-.35A4.83,4.83,0,0,1,92,119.79a12.07,12.07,0,0,1-2.57,1.08,9.11,9.11,0,0,0-2.57,1.19,5.25,5.25,0,0,0-2.08,4.81,43.26,43.26,0,0,0,.46,4.39,31.26,31.26,0,0,1,.34,6.34,5.87,5.87,0,0,1-.07.6,15.17,15.17,0,0,1-2.91-5.58,19.4,19.4,0,0,1-.35-7.81,2.25,2.25,0,0,0,0-.26.47.47,0,0,1,0-.31,1.34,1.34,0,0,0,.1-.52c0-.14.08-.29.1-.34a2.52,2.52,0,0,1-.1.32,1.11,1.11,0,0,1-.08.44c0,.14,0,.31-.17.41a11.47,11.47,0,0,0-.4,4.47,29,29,0,0,1-1,6.3q-1.45,6.88-3,13.76a2.64,2.64,0,0,1-.1.3H75.53c-.22-.31-.06-.63,0-.93.64-2.79,1.26-5.58,1.89-8.36.32-1.39.65-2.77.94-4.16a.68.68,0,0,0,0-.51,1.08,1.08,0,0,0-.32.71c-1,4.17-2.08,8.34-3.13,12.5-.07.27-.07.59-.37.75H72.62c-.12-.15-.06-.31,0-.46,1.38-4.88,2.72-9.77,4.15-14.63a.82.82,0,0,1,.1-.24c-.07.06-.07.14-.1.21a13.1,13.1,0,0,1-2.85,4.89,7.1,7.1,0,0,1-2.65,1.8,1,1,0,0,0-.69.81c-.48,2.23-1,4.45-1.49,6.67a1.79,1.79,0,0,1-.34.95H67c-.21-.24-.15-.54-.15-.83,0-3.61,0-7.22,0-10.84,0-2.36-.14-4.73-.21-7.1,0-.44-.11-.89-.09-1.34v-.59a6,6,0,0,1,0-1.12v-1a9.88,9.88,0,0,0,5.8,0c.36-.1.49-.2.42-.65a22.33,22.33,0,0,1,2.09-13.66c.14-.29.26-.36.58-.21a8.9,8.9,0,0,0,4.72,1,15.61,15.61,0,0,0,2.23-.6c.49-.13.78-.27.69-.83,0-.22.17-.25.3-.33l1.64-1a4.27,4.27,0,0,0-3.59-.88c-2,.22-3.91.9-5.88,1.28-.58.12-1.16.2-1.75.29a1.69,1.69,0,0,1-1.41,0,3.67,3.67,0,0,1-1.51-.45,15.63,15.63,0,0,0,2.27-.54,2.35,2.35,0,0,0,1.08-.54c0-.08,0-.13.06-.17l.4-.24h.07a2.42,2.42,0,0,0,1-1.76c.11-.49.2-1,.32-1.47a.78.78,0,0,1,.23-.49c.08,0,.09,0,.08,0-.06.9.15,1.36.7,1.5a2,2,0,0,0,2-.88.79.79,0,0,1,.85-.52,4.89,4.89,0,0,0,.54,0c1,0,1.37-.42,1.33-1.38a19.39,19.39,0,0,1-.18-2.85A2,2,0,0,1,83,99.47c.16-.06.34-.09.44-.27A9.46,9.46,0,0,1,86.55,96a1,1,0,0,1,.41-.3c.28-.14.56-.28.83-.45a1,1,0,0,1,.21-.1c.89-.23,1.76-.47,2.63-.74l.15,0a1.94,1.94,0,0,0,.54-.13l.14,0a1.07,1.07,0,0,0,.38-.13A.54.54,0,0,1,92,94c.53,0,1-.42,1.53-.41a.22.22,0,0,1,.16.16c0,.29-.25.38-.44.51-.87.56-1.77,1.09-2.69,1.57l-2.54,1.32a4.09,4.09,0,0,0-2.46,3,7.17,7.17,0,0,1,3.55-2.89c1-.46,2.11-.83,3.14-1.3.56-.25,1.1-.52,1.65-.8a.73.73,0,0,1,.5-.16.2.2,0,0,1,.15.16c0,.33-.29.44-.5.58-1.1.76-2.24,1.45-3.34,2.2A8.65,8.65,0,0,0,88.44,100a2,2,0,0,0-.46,1.48A5.16,5.16,0,0,1,91.4,98a29.38,29.38,0,0,0,3.4-1.36.52.52,0,0,1,.42-.06.21.21,0,0,1,.13.19,4.44,4.44,0,0,1-1.24,1,136.63,136.63,0,0,0,15.23-4.67c4.69-1.68,9.36-3.41,14.14-4.82a6.26,6.26,0,0,1,2-.48.24.24,0,0,1,.17.18c0,.09,0,.16-.17.13a1.38,1.38,0,0,0-.77.17c-5.7,2-11.25,4.34-16.79,6.7-4.51,1.93-9,3.8-13.69,5.37a4,4,0,0,1-2.37-.1c-.32-.1-.36-.41-.42-.75a11.79,11.79,0,0,0-2.79,2.85,14.93,14.93,0,0,0-1.28,2.36.45.45,0,0,0,.08.57c1.06,1.21,1.05,2.07,0,3.32a9.43,9.43,0,0,0-1.39,1.77c-.16.32-.5.66-.17,1.07-.34.16-.35-.19-.55-.33a5.73,5.73,0,0,1-.32,2.35c0,.07-.1.16,0,.22.47.19.64.65,1,1a5.87,5.87,0,0,0,1,.94,1,1,0,0,1,.18.1,1.76,1.76,0,0,0,.39.38C87.76,116.26,88,116.34,88.07,116.54Z"/><path class="cls-1" d="M125.52,88.15l.13-.09c.14-.2.44-.19.54-.44.28-.21.65-.2,1-.37-1,.22-1.83.4-2.7.61s-1,.18-1.42-.54c-2.28-3.46-4.64-6.86-7-10.23a1.05,1.05,0,0,0-1.22-.53,3.1,3.1,0,0,1-1.54-.15,2.07,2.07,0,0,1-1.3-3c.06-.13.12-.29.28-.29s.21.18.27.31a4.45,4.45,0,0,0,1,1.42,1.7,1.7,0,0,0,1,.47c.07-.21-.09-.32-.17-.43-2.77-3.84-5.64-7.6-8.56-11.33-1.39-1.77-2.77-3.54-4.17-5.3-.25-.32-.45-.49-.91-.36a20.78,20.78,0,0,1-2.35.34,25.64,25.64,0,0,0-3.57.82c-.59.18-.61.24-.3.78a13.17,13.17,0,0,1,1.7,4.69,11.49,11.49,0,0,1-.8,6.34A22.07,22.07,0,0,1,92,76.24c-.55.67-1.2,1.25-1.74,1.91a.5.5,0,0,1-.41.23c-.28-.09,0-.36-.16-.5a2.79,2.79,0,0,1,0-1.89,1.5,1.5,0,0,0,0-1.26c2.42,0,3.64-1.55,4.54-3.42a12.67,12.67,0,0,0,.43-9.49,18.11,18.11,0,0,0-2.79-5.42c-.1-.14-.18-.3-.27-.45s-.18-.34-.3-.49a.81.81,0,0,0-.31-.44c-.09-.05-.16-.15-.29-.12a17.75,17.75,0,0,0-1.28-1.32c.17-.31.43-.11.65-.12a50.92,50.92,0,0,0,8.18-.78c1-.15,2-.27,3-.42-.09.3-.37.32-.52.48a10,10,0,0,1-1.23.9c-.16.09-.3.22-.45.32s-.29.23-.45.33-.31.3-.48.42a1.52,1.52,0,0,0-.4.32,1.48,1.48,0,0,1,.37-.29,228,228,0,0,1,1-.79,5.59,5.59,0,0,1,.47-.33c.43-.26.77-.66,1.31-.73.08,0,.13.07.09.17-.29.31-.61.61-.87.94a1.33,1.33,0,0,0-.31,1.14c.3-.43.53-.81.81-1.16a3.61,3.61,0,0,1,1.84-1.49c.68-.18.87-.12,1.25.46,2.61,4,5.25,8,8,11.85.13.19.29.37.43.55a10,10,0,0,1,1.36,1.75,1.62,1.62,0,0,0,.34.44,10.76,10.76,0,0,1,.9,1.12s0,.1.06.11,0-.07.06-.1a5.52,5.52,0,0,0,.16-.54,2.6,2.6,0,0,1,.79-1.19,2.43,2.43,0,0,1,.29-.26.27.27,0,0,1,.36,0,.4.4,0,0,1-.06.43,1.46,1.46,0,0,0-.44.88.33.33,0,0,1,0,.14c-.13.15-.09.38-.23.52-.29,0-.18-.24-.25-.39-.16.26,0,.33.22.49.47.37.94.75,1.43,1.1a1,1,0,0,0,.38.31,2.2,2.2,0,0,1,.67.58c.08.12.23.23.12.41-.45.18-.88-.06-1.31-.1-.2,0-.39-.09-.66-.12.59.8,1.14,1.57,1.74,2.3.19.24.29.11.37-.09a1.88,1.88,0,0,0,.06-1.32c-.06-.17-.22-.36,0-.54h.15a6.71,6.71,0,0,1,.58.48,1,1,0,0,1,.32.49,1,1,0,0,0,.22.5.42.42,0,0,1,0,.22,1.85,1.85,0,0,0,0,.74c0,.29-.07.6-.38.74s-.35.35-.12.64c2,2.6,4.09,5.15,6.26,7.62l.12.18c0,.28,0,.28-.38.11a25.4,25.4,0,0,1-2.64-2.85c-1.32-1.51-2.61-3.05-3.91-4.59.8,1,1.66,2,2.51,3.06,2.13,2.5,4.26,5,6.56,7.37a4.65,4.65,0,0,0,1.32,1l.86.46v3.24a1.29,1.29,0,0,1-.82.54c-6.34,2.16-12.82,3.82-19.3,5.5-4.48,1.16-8.95,2.39-13.39,3.72a2.33,2.33,0,0,1-.36.08c-.11,0-.15,0-.15-.1,3.1-1.35,6.25-2.58,9.4-3.8,5.43-2.1,10.92-4,16.25-6.39,1.23-.54,2.43-1.13,3.64-1.71C125.28,88.4,125.49,88.37,125.52,88.15Z"/><path class="cls-1" d="M85.69,149.38c.27-5.57.28-11.15.19-16.72,0-2.5-.2-5-.3-7.49,0-.8,0-.79.78-.71A6.24,6.24,0,0,0,91.17,123a10.61,10.61,0,0,0,2.07-2.46,1,1,0,0,1,.37-.4c-.25,1.06-.49,2.12-.74,3.17Q89.93,136,87,148.61c-.06.26-.14.51-.21.77Z"/><path class="cls-1" d="M93.8,121.65c0,.79-.27,1.55-.25,2.35a1.3,1.3,0,0,1,0,.65,3.64,3.64,0,0,0-.11,1.09.65.65,0,0,1,0,.31,1.21,1.21,0,0,0-.17.66,5.54,5.54,0,0,0-.12.69.81.81,0,0,0,0,.51.58.58,0,0,1,0,.23,2.89,2.89,0,0,0-.18.92,1.23,1.23,0,0,0-.06.39c0,.25-.11.48-.1.74s-.1.56-.11.85a3.07,3.07,0,0,1,0,.53,4.81,4.81,0,0,1-.29,1.3c-.52,3.25-.86,6.52-1.12,9.81-.13.27.1.53,0,.8s0,.51-.14.72a39,39,0,0,0-.22,5.18H87.2c.41-1.79.8-3.59,1.22-5.39q2.56-11,5.15-22c0-.16.08-.31.12-.47C93.79,121.51,93.85,121.53,93.8,121.65Z"/><path class="cls-1" d="M63.65,149.38c.11-1.21.41-2.4.6-3.6.43-2.69.84-5.39,1.13-8.1.32-3,.63-5.89.94-8.84,0-.37,0-.75.06-1.13.28,0,.17.25.18.39a8.69,8.69,0,0,0,0,.89,1.51,1.51,0,0,1,0,.3c.06,3.61.22,7.22.24,10.83,0,1.22,0,2.45,0,3.67,0,1.69.08,3.37,0,5.06a1,1,0,0,1,0,.53Z"/><path class="cls-1" d="M93.35,149.38a13.23,13.23,0,0,0-.81-1.9.62.62,0,0,1-.06-.5,3.58,3.58,0,0,1,2.38-2.36,3.76,3.76,0,0,0,1.83-.85,1.68,1.68,0,0,1-.66.92c-.32.3-.66.56-1,.88a.91.91,0,0,0,.2,1.43c1.14.46,1.24,1.37,1.21,2.38Z"/><path class="cls-2" d="M66.89,149.38q-.17-9.93-.34-19.87c0-.11,0-.22,0-.32s.06-.05.09,0c.34,5.79.36,11.59.37,17.4,0,.93,0,1.86,0,2.79Z"/><path class="cls-3" d="M84.17,149.38a6.45,6.45,0,0,1,.17-2.11,15.81,15.81,0,0,0,.7,2.11Z"/><path class="cls-4" d="M91.41,149.38a1.59,1.59,0,0,1,.15-.21c.19-.21.32-.67.55-.61a1.12,1.12,0,0,1,.6.82Z"/><path class="cls-5" d="M61.93,149.38a3.86,3.86,0,0,1,.16-1.6l.48,1.6Z"/><path class="cls-6" d="M69.59,149.38c0-.2.12-.31.27-.45l.38.45Z"/><path class="cls-1" d="M60.66,57a48.61,48.61,0,0,0,6.44-1.18,1,1,0,0,1,1,.2,5.25,5.25,0,0,1,2,5.51,40.78,40.78,0,0,1-1.31,4.26l-2.24-2a15.78,15.78,0,0,0-8.17-3.66,77.9,77.9,0,0,0-11.82-.89c-1.56-.08-3.12,0-4.67,0-.17,0-.4.14-.51-.14l13.26-1.23c1.2-.11,2.39-.27,3.59-.41.18,0,.36,0,.33-.29a12.66,12.66,0,0,1,.43-3.73,5.08,5.08,0,0,0-2-5.41l3.31.53c.15,0,.29,0,.43.06s.25-.05.22-.26a21.66,21.66,0,0,1,.27-6.12c.29-2.37.4-4.73-.71-7a12.25,12.25,0,0,0-4.23-4.58c-.4-.28-.8-.54-1.27-.85a8.34,8.34,0,0,1,2-.36,14.44,14.44,0,0,1,8.48,2.47c.73.45,1.43,1,2.15,1.42.35,0,.55.32.79.53a34.92,34.92,0,0,1,4.79,4.86c.05.06.1.11.1.15a11.9,11.9,0,0,1-.62-1.18,12.85,12.85,0,0,0-.74-1.25,5.21,5.21,0,0,0-1.54-1.56c-.46-.3-.46-.34-.12-.79s.92-1.16,1.35-1.76c.2-.26.42-.52.62-.79s.15-.32.33-.37c.51-.38,1-.78.77-1.52-.44-1.59.21-3,.68-4.48.25-.75.47-1.5.73-2.24.12-.32.08-.43-.25-.53-1.06-.33-2.11-.71-3.15-1.07a1.24,1.24,0,0,1-.2-.1c3.39-1.41,6-1,8.35,1.72a3.29,3.29,0,0,0,.62.67c.29.08.38.35.56.55A11.71,11.71,0,0,0,83,26.85a5.24,5.24,0,0,0,3.12,1.2,9.37,9.37,0,0,0,2-.06c.43-.07.91-.16,1.25.28.11.17.24.32.36.49s.2.32.31.47.27.37.42.54.15.22.23.33.22.29.33.43l.32.43c.12.14.22.29.32.43s.22.29.33.43l.25.33c.13.18.27.34.39.52l.33.45c.08.11.17.21.25.33s.19.22.16.38a1.52,1.52,0,0,1,.31,1.29,12.45,12.45,0,0,0-.13,1.72,1,1,0,0,1-.25.63c-1.45,1.88-2.9,3.77-4.33,5.68l5.66-5.54c.1,0,.13,0,.14.13a1.51,1.51,0,0,1-.37.65c-1.39,1.78-2.74,3.6-4.12,5.39-.19.22-.35.45-.53.68s-.26.32-.37.5-.21.24-.31.37-.21.3-.33.44-.26.35-.39.52-.17.23-.26.35-.26.34-.38.52-.18.22-.27.34-.29.38-.42.59c-1.78,2.24-3.48,4.54-5.22,6.81a15.26,15.26,0,0,0-1.85,2.71,3.21,3.21,0,0,0-.25,2.89c-.14.26-.31.07-.46,0l-.51-.24a1.34,1.34,0,0,1-.72-.49,2.31,2.31,0,0,1-.45-.79,3.37,3.37,0,0,0-.21-.77A5.14,5.14,0,0,1,78,55.09a6.1,6.1,0,0,1,1.36-1.91,1.06,1.06,0,0,0,.29-1.44.4.4,0,0,1-.17-.34c0-.25.08-.49.08-.74a4.39,4.39,0,0,0-.19-1.44.9.9,0,0,0-.78-.64c-.42-.06-.6.18-.78.49-.36.63-.74,1.24-1.11,1.85a2.9,2.9,0,0,0-.53,1.32A1.88,1.88,0,0,1,75,53.59a12.2,12.2,0,0,1-3.83,1.19,3.34,3.34,0,0,0-.69.18,9.11,9.11,0,0,0,5.68-1.44c-.23.44-.47.88-.7,1.33a8.86,8.86,0,0,0,1,10c.47.62.94,1.23,1.43,1.83a4.72,4.72,0,0,1,1.2,2.65,26.63,26.63,0,0,1,.45,3.89c-.06.82-.14.95-.94,1.08s-1.63.27-2.44.42a.65.65,0,0,1-.63-.18A3.91,3.91,0,0,1,74,72.29a8.32,8.32,0,0,0-3.2-4.77.61.61,0,0,1-.2-.89,16.94,16.94,0,0,0,1.24-7.14,5.08,5.08,0,0,0-2.06-4.2.53.53,0,0,1-.19-.7,3.14,3.14,0,0,0,.14-1.33,1.68,1.68,0,0,0-2.32-1.57l-1,.27c-1.64.41-2.23,1.58-1.5,3.09.23.48.12.57-.32.69-1.35.35-2.69.73-4,1.1-.14.14-.32.13-.49.17a2.19,2.19,0,0,1-.34.1c-.07,0,0,0,0,0s.29-.1.43-.17S60.48,57,60.66,57Z"/><path class="cls-1" d="M96.54,32.42c-.92.49-1.84,1-2.75,1.47-.15.08-.23,0-.33-.07a.9.9,0,0,1-.36-.39,2.6,2.6,0,0,1-.25-.33c-.08-.17-.24-.28-.33-.44s-.3-.31-.38-.51a1.94,1.94,0,0,0-.23-.27,1.51,1.51,0,0,0-.32-.43,4.39,4.39,0,0,0-.34-.5l-.33-.43c-.1-.15-.22-.29-.32-.44l-.24-.32-.42-.55a5.33,5.33,0,0,1-.32-.46,3.43,3.43,0,0,1-.36-.47.74.74,0,0,0-.84-.33,8.12,8.12,0,0,1-3,0,7.4,7.4,0,0,1-4.33-3.11c-.19-.24-.36-.49-.53-.74a2.21,2.21,0,0,1-.39-.66,7.26,7.26,0,0,0-4.08-3.38,7.59,7.59,0,0,0-4.32.39c-.19.06-.37.13-.56.18s-.1,0-.16,0a8.15,8.15,0,0,1,4.55-5.8c1.53-.82,3-1.74,4.51-2.6.18-.1.34-.28.58-.22a5.5,5.5,0,0,1,1.29.51.72.72,0,0,0,.57-.07c.73-.26,1.43-.57,2.17-.79.41-.12.48-.45.62-.75.09-.72.08-.72.69-.34a63.43,63.43,0,0,1,6.14,4.14,19.28,19.28,0,0,1,5,5.78C98,22,98.67,23.59,99.4,25.15c.12.25.23.52.35.78.16.08.19.25.27.39a.78.78,0,0,1,.09.27,1.64,1.64,0,0,0,.14.61.51.51,0,0,1,.09.27,1.35,1.35,0,0,0,0,.6,7.46,7.46,0,0,1-.11.95c-.08.2-.21.38-.27.58l0,.15c0,.09,0,.13-.1.17a1.19,1.19,0,0,0-.37.3c-.12.11-.2.26-.36.34a.86.86,0,0,1-.36.08c-.14,0-.28,0-.42,0s-.59-.14-.52.35a.13.13,0,0,1-.07.13c-.36.07,0,.15,0,.22,0,.39-.4.49-.62.71a3.16,3.16,0,0,1-.44.38A.12.12,0,0,1,96.54,32.42Z"/><path class="cls-1" d="M75.72,95.16a50.14,50.14,0,0,0,.88-10.71c-.19.09-.17.26-.21.41a6,6,0,0,1-1.84,3.27,5.43,5.43,0,0,1-1.47.77c-.9.35-1,.52-.56,1.38,0,.1.14.18,0,.34l-4.71-3.34a8,8,0,0,0,2.72-.15,10,10,0,0,0,3.36-1.88,13.89,13.89,0,0,1,2.42-1.6.36.36,0,0,0,.25-.41c0-.77-.11-1.54-.14-2.31,0-.35-.16-.45-.52-.46a31.38,31.38,0,0,1-7.89-1c-5.54-1.59-8.78-5.33-10.13-10.84a29.42,29.42,0,0,1-.74-5.44c0-.2-.12-.44.28-.39a43.07,43.07,0,0,1,6.67,1.15,22.77,22.77,0,0,1,4.32,1.9c.24.13.25.26.18.51A18.67,18.67,0,0,0,67.92,70a5.93,5.93,0,0,0,.71,3.85A4.61,4.61,0,0,0,72,75.72a8.48,8.48,0,0,0,1,.15c1,0,1.62.85,2.4,1.33a1.08,1.08,0,0,0,.94.3,10,10,0,0,1,2.25.07c.21,0,.23.17.27.28q.86,2.18,1.69,4.35a1.39,1.39,0,0,1,.07.53c0,.83,0,1.66,0,2.48a13.34,13.34,0,0,1-4.26,9.51A2.25,2.25,0,0,1,75.72,95.16Z"/><path class="cls-1" d="M49,109.58c-.18.93-.37,1.86-.53,2.8a22.26,22.26,0,0,0-.29,6.91c.51,3.39,2.18,5.18,5.5,5.91,1.46.32,3,.41,4.43.62a10.76,10.76,0,0,1,3.56,1,1,1,0,0,0,.26,0,9.19,9.19,0,0,1-1-2.41,10.55,10.55,0,0,1,.37-5.2,19,19,0,0,0,.81-3.72A3.82,3.82,0,0,0,60.39,112a15.09,15.09,0,0,0-5.18-2.14,57.41,57.41,0,0,0-5.64-1.12,18.61,18.61,0,0,1,3.69-1,9.61,9.61,0,0,1,6,.7,9.22,9.22,0,0,1,4,4.34,52.65,52.65,0,0,1,2,5.15,10.77,10.77,0,0,1-1.53,10.73.66.66,0,0,1-.18.19c-1.67,1.08-3.24,2.32-5,3.24A8.62,8.62,0,0,1,50.6,132a10.09,10.09,0,0,1-5.94-8.22c-.61-4.08.56-7.81,2.44-11.37a23.34,23.34,0,0,1,1.78-2.91Z"/><path class="cls-1" d="M38.26,72.05l.31-7.8h.1c0,.55.09,1.1.13,1.64q.39,6.87.79,13.74c.08,1.49.18,3,.29,4.47,0,.13-.08.37.18.36s.14-.22.13-.35c-.19-3.27-.39-6.54-.58-9.8q-.26-4.26-.47-8.52A23.42,23.42,0,0,1,39,62.94c1.28,1.48,2.84,1.11,4.36.85.43-.07.44.08.38.4C43.08,67.78,42.65,71.4,42.3,75c-.25,2.73-.44,5.45-.57,8.18v.55c1-.53,1.25-1.57.9-3.48a2,2,0,0,1,.64,3.53,4.52,4.52,0,0,1-1.27.9.58.58,0,0,0-.38.62c-.17,4-.36,7.9-.54,11.86a1,1,0,0,1-.06.21,2,2,0,0,1-.14-.79c-.19-3.5-.38-7-.59-10.51,0-.22.14-.66-.21-.64s-.09.43-.08.65q.42,7.31.86,14.6a6.44,6.44,0,0,0,.1,1.45,3.07,3.07,0,0,1-1.41,1.54,2.87,2.87,0,0,1-2,.47,3.53,3.53,0,0,1-1.8-1.3c-.13-.15-.08-.3-.05-.45.55-3,1-6,1.35-9a.68.68,0,0,0-.28-.64A8.93,8.93,0,0,1,34.23,89,5.64,5.64,0,0,1,34,86.33c.05-.25.14-.29.35-.24a2.58,2.58,0,0,1,.26.08,2.41,2.41,0,0,0,2.55-.52,6.59,6.59,0,0,1-2-1.34,4.81,4.81,0,0,1-1.6-4.15,3.5,3.5,0,0,1,.92-1.91c.24-.26.15-.39-.08-.54l-.18-.11A1.21,1.21,0,0,1,33.47,76a2.65,2.65,0,0,0,1.92.75c.26,0,.45,0,.43-.38a1.33,1.33,0,0,1,.47-.89,2.61,2.61,0,0,0,.57-2.7c0-.06,0-.13,0-.19s0,0,.06-.08c.49.27,1,.5,1.2,1.1a5.71,5.71,0,0,1,0,1.37C38.11,74,38.24,73,38.26,72.05Z"/><path class="cls-1" d="M85.79,67.3c.26-.08.24-.3.22-.48a5.18,5.18,0,0,1,1-3.59,7.65,7.65,0,0,0,1.44-4.81,1.45,1.45,0,0,0-.15-.67c-.46-.8-.9-1.62-1.38-2.5-1,1-1.79,2.09-2.77,3a.27.27,0,0,1,0-.31c1-1.31,2-2.62,3.08-3.93,2.92-3.71,5.86-7.41,8.78-11.12.25-.31.4-.37.78-.18a14.3,14.3,0,0,0,10,.85,47.85,47.85,0,0,0,6-1.92l.26-.07c.23-.09.3,0,.22.22-1.1,1.42-2.21,2.83-3.3,4.25a.48.48,0,0,1-.45.22c-2.24-.16-4.48-.3-6.72-.44l-5.22-.34a.92.92,0,0,0-.59.21,33.65,33.65,0,0,0-7.24,6.33c-.67.73-1.3,1.49-2,2.22-.21.23-.19.35,0,.55.67.59,1.29,1.26,2,1.81a11.24,11.24,0,0,1,2.87,4A7.69,7.69,0,0,1,93.49,64a14.59,14.59,0,0,1-.61,4.48c-.56,1.85-1.85,3-3.12,4.26a1.14,1.14,0,0,1-1.7.12c-.45-.34-1-.79-1.49-.75s-.84.66-1.26,1l-1.17,1.07c-.77-1.25-1.52-2.47-2.29-3.67a.44.44,0,0,1,0-.49c.17-.33.33-.67.5-1-.53-.15-1,.16-1.51-.15a.57.57,0,0,1-.24-.45c.06-.16,0-.27-.11-.4a5.91,5.91,0,0,1-.72-3,24.68,24.68,0,0,0,4.94,2c.14.05.29,0,.42,0a.66.66,0,0,1,.28,0A1.18,1.18,0,0,0,85.79,67.3Z"/><path class="cls-1" d="M71,97.16c-4.41-2.13-8.9-3.85-13-6.32A32.72,32.72,0,0,1,46.56,79.36a.83.83,0,0,1-.07-.13.21.21,0,0,1,.26,0,64.4,64.4,0,0,0,14.35,6.1A31.94,31.94,0,0,1,70.87,90q1.27.94,2.49,2a.44.44,0,0,1,.15.59,9.09,9.09,0,0,1-1.76,2.68A2.88,2.88,0,0,0,71,97.16Z"/><path class="cls-1" d="M100.05,26.54l-.11-.13a5.62,5.62,0,0,0-.1-.7,16.4,16.4,0,0,0-1.43-4,21.5,21.5,0,0,0-6.67-7.84c-1.76-1.34-3.62-2.53-5.5-3.69a.32.32,0,0,1-.18-.21c.92.05,1.84.14,2.76.16,2.14,0,4,1.09,6,1.62.23.06.44.18.67.22,2,.35,3.34,1.86,4.81,3.09s2.79,2.33,4.15,3.53a18,18,0,0,1,2,2.55c1.73,2.21,3.43,4.43,5.14,6.65a3.75,3.75,0,0,1,.22.35c-.85,0-1.33-.65-2-1a1.56,1.56,0,0,1-.76-.5,7.37,7.37,0,0,0-1.34-1.08,1.52,1.52,0,0,0-2.06.14,1.91,1.91,0,0,1-.28.15,3.93,3.93,0,0,0-.88,1.43.74.74,0,0,1-.45.48l-3.37,1.19a.75.75,0,0,1-.26,0c-.29-.31-.09-.71-.21-1.05,0-.13,0-.26,0-.39l-.12-.23C100.17,27,100.05,26.79,100.05,26.54Z"/><path class="cls-1" d="M44.87,109.66A32.14,32.14,0,0,0,42.22,116a20.48,20.48,0,0,0,.06,12.3c1.37,4,3.81,7,7.87,8.5a12.5,12.5,0,0,0,9.77-.74,21,21,0,0,0,5.13-3.43,1.25,1.25,0,0,1,.53-.38,6.82,6.82,0,0,1-.12,1.81c-.27,2.47-.56,4.93-.84,7.39-.05.44,0,.82-.66.91a22.69,22.69,0,0,1-12-1.28,17.92,17.92,0,0,1-11.24-13.88,23,23,0,0,1,2.11-14.29,21.73,21.73,0,0,1,1.87-3.37C44.85,109.5,44.91,109.53,44.87,109.66Z"/><path class="cls-1" d="M49,101.36A25.14,25.14,0,0,1,54,96a9.14,9.14,0,0,1,8.89-1.45A59.78,59.78,0,0,1,68.6,97l1.75.77a22,22,0,0,0-2.11,3.55,5.94,5.94,0,0,0-.6,3.13c0,.25,0,.39-.32.38a5.27,5.27,0,0,1-4.78-2.38c-1.5-2.44-3.76-2.9-6.35-2.63a38.35,38.35,0,0,0-6.78,1.41Z"/><path class="cls-1" d="M60.5,125.62a6.14,6.14,0,0,0-3.4-2.15c-1.18-.35-2.4-.61-3.57-1a5.83,5.83,0,0,1-4.46-5.78,25.53,25.53,0,0,1,.58-6.58c0-.18,0-.45.37-.37a19.36,19.36,0,0,1,5.93,2,6.57,6.57,0,0,1,3.28,4.92c.24,1.42.28,2.86.41,4.29a21,21,0,0,0,.79,4.17A.78.78,0,0,1,60.5,125.62Z"/><path class="cls-1" d="M72.51,31.12l-.23.46c-.32.16-.48.47-.72.7-.55.62-1.18,1.15-1.68,1.81a.58.58,0,0,1-.93.11,5.9,5.9,0,0,1-1.3-1,21.06,21.06,0,0,1-1.74-2,3.74,3.74,0,0,0-1.69-1l2.67-.59c.32-.07.54-.12.25-.52a4.06,4.06,0,0,1-.51-1.12,2.63,2.63,0,0,1,.52-2.67c.34-.4.69-.78,1-1.18.13-.15.21-.3-.06-.4A17.63,17.63,0,0,1,65.33,22,5.29,5.29,0,0,0,62,21.05a3.55,3.55,0,0,1,4-1.19c.8.3,1.56.71,2.35,1.05a3.44,3.44,0,0,0,1.84.31.8.8,0,0,1,.46.09c1.09.44,2.18.91,3.28,1.33.32.13.33.26.23.55-.43,1.24-.75,2.52-1.25,3.72A7.67,7.67,0,0,0,72.51,31.12Z"/><path class="cls-1" d="M66.08,64a23.25,23.25,0,0,0-6.89-1.38,69,69,0,0,0-9.54-.08,80.39,80.39,0,0,0-9.16,1,.42.42,0,0,1-.45-.14,3.39,3.39,0,0,1-1.27-1.75,3.45,3.45,0,0,1,.47-2.11c.1-.2.28-.14.43-.14,3.4,0,6.8-.05,10.2.19A51.39,51.39,0,0,1,60,61.15a18.1,18.1,0,0,1,5.83,2.56A.58.58,0,0,1,66.08,64Z"/><path class="cls-1" d="M64.85,108.32a14.84,14.84,0,0,1,3.11,1,4,4,0,0,1,1.86,1.57,1.59,1.59,0,0,1,0,1.76,11.13,11.13,0,0,0-1.59,4.07,6,6,0,0,0,.44,3,8,8,0,0,1,.25,4.71,1.13,1.13,0,0,1-.47.73c-.88.58-1.73,1.22-2.6,1.84-.09-.19.07-.27.14-.38a9.46,9.46,0,0,0,1.55-3.68,5.39,5.39,0,0,0-.73-3.78,23.83,23.83,0,0,1-2.39-5.27,10.84,10.84,0,0,0-4.79-5.94,1.52,1.52,0,0,1-.24-.19l3.16.21a1.58,1.58,0,0,1,.75,0c.3.08.61.09.9.16A.9.9,0,0,1,64.85,108.32Z"/><path class="cls-1" d="M74.23,98.65s.13,0,.15-.05c.88-1.44,2.17-2.55,3.14-3.93.26-.36.49-.74.73-1.11.2,0,.14.11.1.22a7.31,7.31,0,0,0,0,2.19,1.94,1.94,0,0,0,1.51,1.57l.1,0c.36.14.9,0,1.06.41a2.64,2.64,0,0,1,.33,1.81c-.21.76-.38,1.53-.56,2.29a5.55,5.55,0,0,0-.13,2.29c.06.31,0,.36-.28.43a8.14,8.14,0,0,1-4.1-.07c-.43-.09-.87-.2-1.31-.25a2,2,0,0,0-1.63.37,14.28,14.28,0,0,1,.32-4.59.36.36,0,0,1,0-.27,3.88,3.88,0,0,0,.14-.45,1.12,1.12,0,0,1,.08-.26,1,1,0,0,0,.2-.41A.35.35,0,0,1,74.23,98.65Z"/><path class="cls-1" d="M74.35,109.42l-.11.11L70.63,109c-1.58-.23-3.16-.45-4.74-.71-.34-.06-.71,0-1-.14-.14.1-.28,0-.42,0-.37-.09-.75-.09-1.1-.2a1.81,1.81,0,0,1-.76-.15c-2.85-.53-5.73-.92-8.6-1.32-2.36-.33-4.72-.66-7.09-.93s-4.92-.54-7.39-.69c-.22,0-.56.07-.63-.15s.22-.38.38-.54l.43-.4a10.86,10.86,0,0,0,1.38-1.5,4.41,4.41,0,0,0,.06-2.08,39.6,39.6,0,0,0,4.65,2.14A81.09,81.09,0,0,0,59,106l1.16.22a10.35,10.35,0,0,1,2.07.31c1.19.22,2.34.57,3.55.68a.45.45,0,0,1,.16,0,13.61,13.61,0,0,0,1.78.44c2,.41,4.07.91,6.08,1.42C74,109.14,74.29,109.11,74.35,109.42Z"/><path class="cls-1" d="M89.7,77.88c.06,0,.18-.12.16.06a2.29,2.29,0,0,1-.07.36c-.2.9-.62,1.72-.84,2.61a26.07,26.07,0,0,0-.63,3.49,3.78,3.78,0,0,1,0,.75,16.32,16.32,0,0,0-.06,2.21v1a1.89,1.89,0,0,0,.07.71c.08.35,0,.71.1,1.06a3,3,0,0,1,0,.67c0,.15,0,.35-.18.4s-.13-.12-.12-.22c-.17.13-.31-.44-.52,0a1.78,1.78,0,0,0-.22.41.83.83,0,0,1-.07.13c-.35.2-.56-.17-.85-.21s-.7-.5-1.09-.69-.29-.37-.25-.64c.07-.55.15-1.1.25-1.64a.76.76,0,0,0-.25-.77,4.45,4.45,0,0,0-1.25-1.08c-.2-.1-.42-.16-.63-.24A.53.53,0,0,1,83,86a20,20,0,0,1,1.33-5.55c.45-1.17.92-2.32,1.39-3.49.34.2.66.42,1,.62a1.06,1.06,0,0,0,1.33-.15c.69-.6.75-.58,1.23.18a2.24,2.24,0,0,0,.27.39C89.7,78.12,89.66,77.93,89.7,77.88Z"/><path class="cls-1" d="M65.92,107.26h-.07c-1.15-.1-2.26-.47-3.4-.65a10.18,10.18,0,0,1-2-.52,127.25,127.25,0,0,1-12.61-3.36,37.71,37.71,0,0,1-5.64-2.39c0-.1,0-.16.13-.11,2.51.67,5,1.37,7.53,2A143.45,143.45,0,0,0,63.9,105a49.79,49.79,0,0,0,8.27.58c.21,0,.37,0,.48.24a3.87,3.87,0,0,0,1.86,1.8c.49.26.7.54.38,1.06a1.71,1.71,0,0,0-.12.47l0,0c-.28.21-.56.07-.83,0-2-.48-4-.94-6.06-1.36A13.6,13.6,0,0,1,65.92,107.26Z"/><path class="cls-1" d="M83,86l.18.07a4.37,4.37,0,0,0,.61.31,3.28,3.28,0,0,1,.67.45,2.07,2.07,0,0,1,.73,2.4c-.12.36-.2.73-.29,1.09s0,.68.45.77a3.25,3.25,0,0,1,2.2,1.75,3.78,3.78,0,0,0,1.27,1.45c.3.18.27.38,0,.57a4.65,4.65,0,0,1-.87.42l-.12.14c-.37,0-.61.28-.94.34a1.21,1.21,0,0,1-.46.17,5.23,5.23,0,0,0-2.53,2c-.19.24-.36.49-.57.79a5.38,5.38,0,0,0-4.57-2.26c.53-.61,1-1.17,1.52-1.72a11,11,0,0,0,2.59-6.64C82.93,87.38,83,86.68,83,86Z"/><path class="cls-1" d="M73.91,99.33v.28c-.16.06-.18.21-.24.33a1.26,1.26,0,0,1-.18.3,7.79,7.79,0,0,0-1.23,4.6c0,.18,0,.26-.21.24-1.09-.13-2.18-.26-3.27-.36-.3,0-.34-.13-.28-.42a28.44,28.44,0,0,1,3.43-8.41A40,40,0,0,0,75.48,89c.27-.78.5-1.59.79-2.48a28.79,28.79,0,0,1-.14,4,26.76,26.76,0,0,1-1.87,7.92,1.09,1.09,0,0,0,0,.26.19.19,0,0,1-.1.19A4.31,4.31,0,0,1,73.91,99.33Z"/><path class="cls-1" d="M117,69.91c-.49-.12-.76-.58-1.2-.78-.15-.06-.14-.52-.45-.18.11-.26-.34-.27-.24-.54a.82.82,0,0,1,.32-.47c.11.21-.08.48.15.66.1-.19.08-.43.21-.6h0a1.6,1.6,0,0,1,.42-.91l.12-.44a.38.38,0,0,1,0-.21s0-.07,0-.07-.19.2-.3.28-.3.16-.26.37a2.55,2.55,0,0,0-.78,1.18c-.16.13-.15.35-.28.5s-.13.08-.19,0c-.39-.28-.49-.81-.9-1.07a3.74,3.74,0,0,0-.28-.52c-.37-.65-.87-1.2-1.25-1.85s0-1.28.19-2c.19.17.18.4.26.59a2.5,2.5,0,0,0,1.83,1.58,1.54,1.54,0,0,1,1.15.62c.12.2.25,0,.36,0a2.38,2.38,0,0,0,1.17-1.65c0-.15,0-.33.12-.46a1.62,1.62,0,0,1,.29,2c-.29.65-.29.65.38.85a3.9,3.9,0,0,1,2.8,3.4A6.26,6.26,0,0,1,120,74a.37.37,0,0,0-.06.31,2.24,2.24,0,0,0,2.27-1.1c.24-.37.41-.41.74,0a6.72,6.72,0,0,1,1.57,5.66c0,.41-.12.82-.18,1.23-.12.06-.15,0-.2-.11A5.85,5.85,0,0,0,121.5,76a13.36,13.36,0,0,0-1.92-1.15c-.18-.09-.36-.17-.3-.43l.32-.74c0-.27,0-.54,0-.8v-.21a.76.76,0,0,1-.21-.43l-.31-.4a1.84,1.84,0,0,0-.56-.55h0c-.23-.14-.27-.49-.59-.54l-.54-.54A.56.56,0,0,1,117,69.91Z"/><path class="cls-1" d="M82.79,59.51a.81.81,0,0,0-.26.37c-.14.35-.34.47-.61.13s-.39-.13-.56,0c-.38.26-.74.55-1.22.9.43-1.3,1.11-2.36,1.55-3.53a1.39,1.39,0,0,1,.24-.59,1.54,1.54,0,0,0,.21-.45,27.91,27.91,0,0,1,1.93-3.08,1.23,1.23,0,0,0,.3-.38,1.2,1.2,0,0,1,.18-.31,2.86,2.86,0,0,0,.42-.5,4.59,4.59,0,0,0,.33-.44,3,3,0,0,1,.23-.27c.19-.2.29-.49.6-.57,1.11-1.17,2.19-2.37,3.38-3.47,1.41-1.31,2.94-2.48,4.4-3.73a2.3,2.3,0,0,1,.35-.17A14.48,14.48,0,0,1,93,45.65a74.9,74.9,0,0,1-7,9.12,30.32,30.32,0,0,0-2.92,3.93,2.21,2.21,0,0,0-.36.83Z"/><path class="cls-1" d="M73.82,111.24h1a36,36,0,0,0-1.67,4.48A31.53,31.53,0,0,0,72,125.89c0,.42-.07.52-.48.5-.82,0-1.65,0-2.52,0,.24-.91.5-1.79.71-2.68a45.9,45.9,0,0,0,1-10.32c0-.56,0-1.12,0-1.68,0-.4.11-.48.47-.46s.83,0,1.24,0A2.49,2.49,0,0,1,73.82,111.24Z"/><path class="cls-1" d="M84.62,52.58l-.13.37a.63.63,0,0,0-.32.36,34.47,34.47,0,0,0-2,3.11,2.62,2.62,0,0,0-.24.34c-.12.17-.18.39-.37.51l-.37.52c-.1,0-.14,0-.16-.13a2.68,2.68,0,0,1,.49-1.07,85.8,85.8,0,0,1,5.34-8.49c.13-.2.3-.38.42-.59s.18-.21.26-.33.3-.34.4-.55.18-.21.26-.33.32-.36.41-.59a2.07,2.07,0,0,0,.34-.44c.09-.13.24-.22.32-.36s.23-.29.33-.45a7,7,0,0,1,.55-.67A30,30,0,0,1,94,39.67c.56-.48,1.1-1,1.69-1.42.16-.12.26-.22.14-.44a.63.63,0,0,1,0-.47c.08-.37.35-.45.61-.19.11.1.2.32.37.13s.07-.36-.12-.5a.87.87,0,0,0-.18-.11c-.71-.27-.79-.85-.75-1.49l0-.06h.91c.14,0,.3,0,.29.2s-.15.14-.26.16-.41-.1-.46.15.13.39.34.49.15.1.24.14c.42.19.79.41.53,1.05a8.77,8.77,0,0,1,2.92-1,34.31,34.31,0,0,1-2.54,3.28,34.46,34.46,0,0,1-5.94,5,28.73,28.73,0,0,0-5.74,5.81,1.79,1.79,0,0,0-.12.24,2.06,2.06,0,0,1-.45.69,3.65,3.65,0,0,1-.26.32c-.05.17-.22.28-.31.43S84.72,52.41,84.62,52.58Z"/><path class="cls-1" d="M112.35,28.75a46.91,46.91,0,0,0,6.9,6.46c1.23.95,2.46,1.92,3.77,2.95a5.13,5.13,0,0,0-1.37.47,1.42,1.42,0,0,1-1.43-.09,9.74,9.74,0,0,0-1.72-.75c-.22-.09-.31,0-.42.15-.27.46-.58.9-.85,1.37a.47.47,0,0,1-.52.27c-.32,0-.64,0-1,0s-.69-.07-.61.48c0,.27-.22.18-.36.17l-2.47-.11a.91.91,0,0,0-.69.21,11.11,11.11,0,0,0-1.34,1c-.72.76-1.59.59-2.46.56-.23,0-.29-.19-.37-.34-.41-.71-.82-1.43-1.22-2.15-.09-.16-.18-.34-.38-.34s-.23.25-.3.4c-.26.59-.52,1.18-.76,1.78a.43.43,0,0,1-.48.31,4.36,4.36,0,0,0-1,0,2.18,2.18,0,0,1-1.87-.75c-.34-.31-.21-.69,0-1a4.67,4.67,0,0,1,.64-.61c.15.06.17.25.27.39s.15.17,0,.27-.14.12-.24,0c-.31-.25-.36.09-.45.23s-.07.33.1.51c.71.77,1.62.52,2.48.55.15,0,.17-.13.22-.25.26-.63.53-1.26.81-1.88.07-.16.06-.47.32-.42s.65,0,.84.35c.35.69.75,1.35,1.1,2a.83.83,0,0,0,.82.52,2.06,2.06,0,0,0,1.71-.55l.09-.06c1.8-1.31,1.8-1.31,4-1.08.36,0,.72.13.62-.45,0-.21.1-.23.27-.21a4.49,4.49,0,0,1,.64,0c1,.27,1.52-.29,1.88-1.1,0-.1.17-.21,0-.28-.62-.31-1.1-.92-1.92-.83-.44,0-.34.3-.38.56a.57.57,0,0,0,.4.67.25.25,0,0,0,.27-.37c-.06-.13-.2-.2,0-.35s.23,0,.3.08.4.16.26.39-.39.51-.59.77c0,.06-.12,0-.19,0a1.83,1.83,0,0,1-.74-2,.22.22,0,0,1,.22-.12,6.41,6.41,0,0,1,1.38,0c.08-.29-.11-.51-.23-.74-.84-1.7-1.93-3.26-2.91-4.89a15.64,15.64,0,0,1-1.18-2.16C112.19,28.77,112.24,28.74,112.35,28.75Z"/><path class="cls-1" d="M80.59,68.48a.58.58,0,0,1,.24.45,5.49,5.49,0,0,0,.85,1.95c.71,1.26,1.49,2.48,2.24,3.73.25.43.46.89.7,1.33a3.52,3.52,0,0,1-.15,3.43A11.59,11.59,0,0,0,83,82.74c-.28-.07-.11-.29-.14-.44s0-.43,0-.64a16.51,16.51,0,0,0-.91-4c0-.1-.07-.21-.19-.24a2.34,2.34,0,0,1-.38-.87,1.17,1.17,0,0,0-.19-.57.31.31,0,0,1,0-.13A1.83,1.83,0,0,0,81,75.4c0-.11,0-.23,0-.33a20.48,20.48,0,0,1-.6-3.64A9.17,9.17,0,0,1,80.59,68.48Z"/><path class="cls-1" d="M80.88,12c-.54-.22-.63-.64-.61-1.18,0-1,0-2,0-3a.71.71,0,0,1,.42-.72c1-.55,1-.56,1.81.21L85,9.61a.55.55,0,0,1,.22.51c0,.27,0,.54,0,.81s-.15.49-.41.59c-.92.34-1.83.74-2.78,1A3.37,3.37,0,0,1,80.88,12Z"/><path class="cls-1" d="M103.77,33.65a1.23,1.23,0,0,0,.34-.11,2.14,2.14,0,0,1,2.22-.18,5.71,5.71,0,0,0,2.5.26.48.48,0,0,0,.43-.32,3.72,3.72,0,0,1,1.16-1.53,2.13,2.13,0,0,0,.58-.62c.22-.41.35-.28.59,0a6.57,6.57,0,0,1,1.54,2.37,7.1,7.1,0,0,0,1.31,2.23,15.28,15.28,0,0,1-4-.45c-1.89-.45-3.71-1.12-5.64-1.39-.35-.06-.7-.1-1.06-.15Z"/><path class="cls-1" d="M73,73.53c-.42-.09-.85,0-1.28-.15a2.62,2.62,0,0,1-2.26-2.61,7.35,7.35,0,0,1,.08-2.09A.84.84,0,0,1,71,68.07a4.76,4.76,0,0,1,1.32,1.47,18.4,18.4,0,0,1,1.8,3.64c.12.3.12.48-.3.4A4.65,4.65,0,0,0,73,73.53Z"/><path class="cls-7" d="M87.56,59A7.42,7.42,0,0,1,86,61.7a7.21,7.21,0,0,1-5.17,2.64c-3.08.21-5.63-1.68-5.58-5a12.19,12.19,0,0,1,1.89-5.82c.12.07.09.16.08.23a1.59,1.59,0,0,1-.07.2,15.29,15.29,0,0,0-.77,4.92,5.65,5.65,0,0,0,1.15,3.52,4.3,4.3,0,0,0,5,1.09,8.81,8.81,0,0,0,4.62-4C87.25,59.28,87.28,59.06,87.56,59Z"/><path class="cls-8" d="M81.37,76.49a2.44,2.44,0,0,1,.32.94c-.22.13,0,.29,0,.42a29.09,29.09,0,0,1,.42,5.74A38.26,38.26,0,0,1,81,92.18a6.43,6.43,0,0,1-.92,2.27c-.34.46-.73.42-1,0a.4.4,0,0,1,0-.48,19.28,19.28,0,0,0,2-6.86,33,33,0,0,0,.22-5.71,37,37,0,0,0-.82-6.45c.17,0,.19.19.3.28a.45.45,0,0,1,.18.28c0,.13.1.26.13.39l0,.13A1.33,1.33,0,0,1,81.37,76.49Z"/><path class="cls-1" d="M97.69,31.37c0-.07-.08-.13-.16-.09s-.18.19-.23,0a.15.15,0,0,1,.15-.18c.26,0,.32,0,.19-.3s.16-.45.28-.39.6,0,.84.19.21-.13.35-.12l.26-.32c.22,0,.3-.29.52-.33a.16.16,0,0,0,0-.07c.2-.06.19.08.19.21l-.06,3.39a.71.71,0,0,1-.1.35l-1.72,2.86a4.28,4.28,0,0,0-1.84-3.27c-.32-.26-.3-.4,0-.6a.32.32,0,0,0,.14-.27h0c.24,0,.31-.27.49-.37s.53-.44.81-.64l.12-.09c-.07,0-.08.07-.14.07A.19.19,0,0,1,97.69,31.37Z"/><path class="cls-9" d="M101.16,32c0-.65-.09-1.27-.12-1.9a1,1,0,0,1,.81-1.2c.39-.12.8-.2,1.19-.31.19-.06.31.06.44.14a7.38,7.38,0,0,0,3.65,1.13c.28,0,.41.07.35.36,0,.07,0,.14,0,.21-.08,1.21-.08,1.21-1.28.92a10.56,10.56,0,0,0-2.1-.42,3.32,3.32,0,0,0-2.52.84c-.1.09-.2.15-.3.23Z"/><path class="cls-8" d="M109.77,27.24c.69,1.11,1.56,2.09,2.33,3.14a7.56,7.56,0,0,1,.68,1.05c-1.18-1-2.67-1.27-4-2a5.39,5.39,0,0,1-.82-.6.42.42,0,0,1-.2-.35,1.31,1.31,0,0,0-1.71-1.32c-.41.09-.81.26-1.24.37.66-.36.4-1.1.7-1.6s.71-.71,1.33-.4a2.3,2.3,0,0,1,.84.64,1.87,1.87,0,0,0,1.55.81C109.48,27,109.68,27,109.77,27.24Z"/><path class="cls-1" d="M88.69,74.82a1.93,1.93,0,0,1-1.81,2,2,2,0,0,1,0-3.94A2,2,0,0,1,88.69,74.82Z"/><path class="cls-10" d="M87,48.09c-1.06,1.64-2.13,3.28-3.17,4.93s-1.88,3-2.68,4.66a2.13,2.13,0,0,1-.27.64,2.23,2.23,0,0,0-.26.48l-1,1.7a1.41,1.41,0,0,1-.37-1.38,7.05,7.05,0,0,1,1.65-3.39c1.82-2.38,3.63-4.76,5.46-7.14.16-.21.34-.41.52-.62C87,48,87,48,87,48.09Z"/><path class="cls-7" d="M85.37,67.09l-.24.1c0-.16-.24-.17-.31-.31A9.45,9.45,0,0,0,80.52,65c-.06-.21.16-.1.21-.18a7.9,7.9,0,0,0,4.93-1.57c0,.06,0,.12,0,.15a2.56,2.56,0,0,0-.25,2.77c.14.33.24.67.36,1C85.61,67.34,85.48,67.24,85.37,67.09Z"/><path class="cls-7" d="M79.53,51.44l.11.3a8.87,8.87,0,0,1-2.32,2.86c.69-1.43.36-2.88.69-4.25a6,6,0,0,1,.56-1.54,4.58,4.58,0,0,1,.86,2A.87.87,0,0,1,79.53,51.44Z"/><path class="cls-11" d="M106,37.92c.64-.23.92.22,1.16.8s.44.94.67,1.41a.61.61,0,0,0,1.06.17c.6-.59,1.2-1.19,1.78-1.79a1,1,0,0,1,.75-.34c.76,0,1.51,0,2.27-.05.14,0,.36-.08.36.18s-.23.16-.35.17a14.62,14.62,0,0,1-1.62.06,1.79,1.79,0,0,0-1.62.71c-.41.5-.91.92-1.36,1.39a.81.81,0,0,1-.51.23,1,1,0,0,1-1.24-.77c-.17-.5-.47-1-.68-1.46a.41.41,0,0,0-.49-.29c-.41,0-.82-.07-1.24.18-.66.4-.58,1-.61,1.6,0,.24.12.59-.12.69a3.33,3.33,0,0,1-1,.11c-.15,0-.16-.13-.16-.23s.17-.17.29-.15c.6.1.64-.24.63-.72C103.92,38.52,104.55,37.92,106,37.92Z"/><path class="cls-12" d="M67.65,33.17c.49.32,1,.64,1.47,1,.24.18.38.12.57-.08a23.19,23.19,0,0,1,1.84-1.87q.16,0,.12.12a21.23,21.23,0,0,1-1.46,1.93c-.14.18-.17.27.06.39a5.62,5.62,0,0,1,2.17,2.41c.36.67.7,1.34,1,2.05a44.83,44.83,0,0,0-5.87-5.82Z"/><path class="cls-13" d="M129,86.93a1.7,1.7,0,0,1-1.22-.67c-3-3.07-5.73-6.35-8.48-9.63-.27-.33-.55-.66-.82-1-.09-.11-.31-.24-.12-.4s.27.08.36.19c1.1,1.31,2.19,2.62,3.3,3.92s2,2.41,3.16,3.53c.72.6,1.35,1.31,2,2,.3.42.73.72,1,1.14A2.74,2.74,0,0,1,129,86.93Z"/><path class="cls-14" d="M109.77,27.24s-.06,0-.09,0a3.11,3.11,0,0,1-2.45-1.28c-.58-.6-1.08-.54-1.67,0l-.11-.11a1.56,1.56,0,0,1,2.33-.43,12.4,12.4,0,0,1,2.11,1.72Z"/><path class="cls-15" d="M95,37.17c0-.06,0-.12,0-.16-.14-.2-.53-.13-.49-.54s.08-1,.6-1.27.45-.6.45-1-.21-.86.13-.86.15.53.2.81a1.38,1.38,0,0,1,0,1h0a1.87,1.87,0,0,1-.52.6c-.38.33-.37.53,0,.85.15.12.3.23.23.44a.39.39,0,0,1-.48.26A.38.38,0,0,1,95,37.17Z"/><path class="cls-16" d="M82,12.45c.91-.35,1.82-.71,2.74-1a.64.64,0,0,0,.48-.48h.11c.09.5-.13.73-.6.88-.78.25-1.54.56-2.3.86-.19.07-.36.15-.54,0S82,12.5,82,12.45Z"/><path class="cls-17" d="M127.13,84.92a18.9,18.9,0,0,1-1.95-2c.12-.11.25.34.36,0l1.72,2C127.27,84.9,127.25,85,127.13,84.92Z"/><path class="cls-18" d="M41.3,59c.18.15.38.08.57.09h4c.2,0,.4-.07.57.08H40.07v-.06Z"/><path class="cls-19" d="M77.57,59l.45.72c.07.32.44.41.53.71a2.8,2.8,0,0,0,.87.65c0,.09,0,.16-.12.09a3,3,0,0,1-1.83-1.93C77.42,59.1,77.38,59,77.57,59Z"/><path class="cls-20" d="M41.05,102.29a2.52,2.52,0,0,1-1.38,1.5l-.12-.1A9,9,0,0,0,41,102.15Z"/><path class="cls-21" d="M112.14,65.26a6.17,6.17,0,0,1,1.31,1.81c.06.12,0,.13-.1.12l-1.29-1.84Z"/><path class="cls-22" d="M60.41,106.09l2.05.43c0,.22-.15.12-.26.11a11.94,11.94,0,0,1-2-.43Z"/><path class="cls-23" d="M38.26,72.05c.08,1.08-.14,2.14-.15,3.21a5.7,5.7,0,0,1,0-1.7c.19-.3,0-.63.1-.94S38.11,72.22,38.26,72.05Z"/><path class="cls-24" d="M86.54,58.77a2,2,0,0,1-.79,1.34,8.51,8.51,0,0,0,.67-1.59C86.53,58.57,86.47,58.7,86.54,58.77Z"/><path class="cls-25" d="M100.36,27.78a6.44,6.44,0,0,1,.13,1.16.34.34,0,0,1-.22.23c-.14,0-.18,0-.12-.16a3.11,3.11,0,0,1,.1-1C100.25,27.94,100.14,27.79,100.36,27.78Z"/><path class="cls-26" d="M100.78,52.92l-1.26.78c-.12,0-.13,0-.12-.11a7.85,7.85,0,0,1,1.3-.85l.11.09s0,.06,0,.07Z"/><path class="cls-27" d="M73.82,111.24H72.39v-.18h1.41Z"/><path class="cls-28" d="M84.16,58l0,.31a3.14,3.14,0,0,1-.65.71.14.14,0,0,1-.18,0A5.85,5.85,0,0,1,84.16,58Z"/><path class="cls-29" d="M44.87,109.66l-.13-.14a5.62,5.62,0,0,1,.68-1.06c.09,0,.15,0,.1.12A6,6,0,0,1,44.87,109.66Z"/><path class="cls-30" d="M82.79,81.66c.24.33,0,.74.18,1.08l-.12,1.18c-.09,0-.14,0-.09-.1Z"/><path class="cls-31" d="M66.55,129c-.15-.41,0-.87-.17-1.28,0-.15.07-.16.18-.15a3.34,3.34,0,0,1,.1,1.09C66.58,128.75,66.68,128.91,66.55,129Z"/><path class="cls-32" d="M127.13,84.92l.13-.11c.33.38.79.66,1,1.17A6.14,6.14,0,0,1,127.13,84.92Z"/><path class="cls-33" d="M113.54,41.12a3.06,3.06,0,0,1,1-.61,1.67,1.67,0,0,1-1,.78A.12.12,0,0,1,113.54,41.12Z"/><path class="cls-34" d="M82,12.45l-.11.19A6,6,0,0,1,80.7,12l.18,0C81.29,12.06,81.6,12.39,82,12.45Z"/><path class="cls-35" d="M77.57,59l-.1.24a1.8,1.8,0,0,1-.19-1C77.59,58.4,77.52,58.71,77.57,59Z"/><path class="cls-36" d="M91.28,55.41c.06.2.65.13.27.54a1.24,1.24,0,0,1-.52-.69C91.17,55.21,91.23,55.31,91.28,55.41Z"/><path class="cls-37" d="M85.49,51.32a2.71,2.71,0,0,1,.51-.66l.13.12-.55.66A.27.27,0,0,1,85.49,51.32Z"/><path class="cls-38" d="M83.36,59l.18,0a5.54,5.54,0,0,1-.63.65c-.26.21-.09-.07-.12-.13v0C83,59.4,83.15,59.13,83.36,59Z"/><path class="cls-33" d="M113.23,41.82a.2.2,0,0,0-.22-.22v-.21a.53.53,0,0,1,.53,0A.68.68,0,0,1,113.23,41.82Z"/><path class="cls-39" d="M78.55,60.41c-.21-.21-.55-.33-.53-.71l.64.58Z"/><path class="cls-40" d="M86.46,58v-.61a1.4,1.4,0,0,1,.11,1.06C86.43,58.34,86.56,58.15,86.46,58Z"/><path class="cls-37" d="M80.18,23.45l.41.55c0,.05,0,.12-.11.13l-.42-.56Z"/><path class="cls-41" d="M79.53,51.44a1.91,1.91,0,0,1-.1-.67l.12-.11C79.64,50.92,79.75,51.18,79.53,51.44Z"/><path class="cls-42" d="M113.53,41.38H113l-.39,0c.31-.15.65,0,.93-.24l0,.17A.14.14,0,0,1,113.53,41.38Z"/><path class="cls-43" d="M80.82,58.28a1.25,1.25,0,0,1,.32-.6l.1.11a2,2,0,0,1-.41.67A.15.15,0,0,1,80.82,58.28Z"/><path class="cls-44" d="M62.57,107.82l.76.1a.08.08,0,0,1,0,.08s0,0,0,0a1.64,1.64,0,0,1-.76-.11Z"/><path class="cls-45" d="M82.13,61.6a4.58,4.58,0,0,0,1-.11s0,0,0,0,0,0,0,0a1.5,1.5,0,0,1-1,.1s0,0,0-.05Z"/><path class="cls-46" d="M100.78,52.92l0-.09c.18,0,.32-.26.54-.11h0c-.06.21-.27.25-.42.35Z"/><path class="cls-47" d="M82.13,61.6v.07a2.1,2.1,0,0,1-.93-.07Z"/><path class="cls-48" d="M95,37.17h.12c0,.3-.1.5-.44.51l-.08-.07A.9.9,0,0,1,95,37.17Z"/><path class="cls-49" d="M99.84,25.71c.08.23.29.44.1.7-.16-.12-.14-.32-.19-.48Z"/><path class="cls-50" d="M100.15,29l.12.16c0,.21-.15.32-.29.43A.81.81,0,0,1,100.15,29Z"/><path class="cls-51" d="M86.43,95.92l.44-.22c.11-.06.12,0,.1.09l-.42.22Z"/><path class="cls-52" d="M45.52,108.58l-.1-.12.3-.45c.05,0,.09.06.1.11A1.08,1.08,0,0,1,45.52,108.58Z"/><path class="cls-53" d="M81.61,57.27l.31-.55c.09,0,.15,0,.1.11s-.14.41-.33.54Z"/><path class="cls-54" d="M60.66,57c-.17.14-.37.08-.56.11s-.13,0-.1-.11l.53-.11Z"/><path class="cls-55" d="M79.3,61.15l.12-.09.54.22c0,.09,0,.15-.13.09A1,1,0,0,1,79.3,61.15Z"/><path class="cls-56" d="M80.73,64.83l-.21.18c-.13,0-.23,0-.36-.14A1,1,0,0,1,80.73,64.83Z"/><path class="cls-57" d="M90,53.46c-.2.11-.46-.06-.65.12-.12-.06-.19-.17,0-.18A2.54,2.54,0,0,1,90,53.46Z"/><path class="cls-58" d="M124.14,79.93l.2.11a.44.44,0,0,1-.15.42A.9.9,0,0,1,124.14,79.93Z"/><path class="cls-59" d="M112.35,28.75l-.11.14a1.72,1.72,0,0,1-.3-.59A.65.65,0,0,1,112.35,28.75Z"/><path class="cls-60" d="M64.46,108.11l.39,0v.18l-.65-.12C64.23,108,64.36,108.11,64.46,108.11Z"/><path class="cls-61" d="M79.83,61.37l.13-.09.43.14A.5.5,0,0,1,79.83,61.37Z"/><path class="cls-37" d="M93.14,33.39a1.13,1.13,0,0,1,.32.43H93.3L93,33.49A.17.17,0,0,1,93.14,33.39Z"/><path class="cls-62" d="M82.78,84.15a2.1,2.1,0,0,1-.06.7,1.36,1.36,0,0,1,0-.69S82.74,84.12,82.78,84.15Z"/><path class="cls-63" d="M90.65,54.9c0-.06,0-.17.08-.16A.44.44,0,0,1,91,55c0,.07-.11.1-.1.19A.53.53,0,0,1,90.65,54.9Z"/><path class="cls-64" d="M85.37,67.09a.61.61,0,0,0,.42.09v.12C85.57,67.4,85.38,67.42,85.37,67.09Z"/><path class="cls-65" d="M86.46,58c.13.13,0,.31.11.45l0,.3-.12-.25Z"/><path class="cls-66" d="M90.89,55.17A.19.19,0,0,1,91,55c.13.12.34.19.29.43L91,55.26Z"/><path class="cls-67" d="M45.82,108.12l-.1-.11a.49.49,0,0,1,.27-.28C46.05,107.92,45.9,108,45.82,108.12Z"/><path class="cls-68" d="M84.82,66.88c.11.09.39,0,.31.31L84.7,67Z"/><path class="cls-69" d="M80.82,58.28v.18a.49.49,0,0,1-.22.34C80.46,58.54,80.76,58.46,80.82,58.28Z"/><path class="cls-70" d="M78.35,93.78l-.1-.22c0-.11,0-.25.18-.3A.6.6,0,0,1,78.35,93.78Z"/><path class="cls-71" d="M101.35,52.72c0-.2.13-.25.32-.27,0,.24-.16.26-.33.26Z"/><path class="cls-72" d="M82.78,84.15h-.1a.31.31,0,0,1,.08-.34l.09.1A.18.18,0,0,1,82.78,84.15Z"/><path class="cls-73" d="M73.49,100.24l.11-.32c.1,0,.16,0,.11.12s0,.16-.08.21Z"/><path class="cls-74" d="M42.29,100.23l-.13.11-.34-.15A.37.37,0,0,1,42.29,100.23Z"/><path class="cls-75" d="M84.38,61.22a.94.94,0,0,1-.22.07s0-.06-.08-.1l.19-.07C84.34,61.09,84.36,61.13,84.38,61.22Z"/><path class="cls-76" d="M83.09,61.57v-.08l.42-.07C83.4,61.64,83.24,61.57,83.09,61.57Z"/><path class="cls-77" d="M81,75.5l-.12-.32.1-.11a.39.39,0,0,1,.12.31C81.11,75.49,81.05,75.51,81,75.5Z"/><path class="cls-1" d="M87.14,115.79H87a12.9,12.9,0,0,1-1-1.08c-.15-.25-.29-.5-.44-.74-.5-.83-.4-1.48.38-2.51a22.21,22.21,0,0,1,3.11-4.11,8.12,8.12,0,0,0,2.13-6.28c0-.21,0-.42,0-.69a9.58,9.58,0,0,1,5.44,5.37,10.39,10.39,0,0,1-.15,8.51A4.62,4.62,0,0,1,92.35,117a9.37,9.37,0,0,1-4.17-.56,1.53,1.53,0,0,1-.59-.28C87.4,116.09,87.3,115.9,87.14,115.79Z"/><path class="cls-1" d="M93,128.12v-.21c-.08-.14,0-.27,0-.4a4.41,4.41,0,0,1,.13-.81.81.81,0,0,1,.16-.64v-.31a8.44,8.44,0,0,1,.12-1c.07-.24,0-.52.18-.74.31-1.27.6-2.55.93-3.81a.37.37,0,0,0-.19-.48l-.59-.41a1.66,1.66,0,0,0,.51-1.46c0-.42,0-1,.37-1.1s.51.42.74.68a11.06,11.06,0,0,1,2.47,8.9,23.33,23.33,0,0,1-5.44,12,.75.75,0,0,1-.41.33c.12-1.92.23-3.81.35-5.7a5.5,5.5,0,0,1,.13-1.4c0-.18,0-.36,0-.53a2.46,2.46,0,0,0,.11-.85,2.72,2.72,0,0,0,.11-.75c0-.14.06-.28.1-.41A1.93,1.93,0,0,1,93,128.12Z"/><path class="cls-8" d="M91.3,143a3,3,0,0,1,1.45-2.07.53.53,0,0,1,0,.5,1.89,1.89,0,0,0,.69,2.11c.07,0,.13.12.2.18.46.49.44.58-.17.81a3.9,3.9,0,0,0-2,1.84,2.36,2.36,0,0,1-.32.48,14.76,14.76,0,0,0,0-2.66,2.07,2.07,0,0,1,0-.7C91.21,143.34,91.16,143.15,91.3,143Z"/><path class="cls-78" d="M86,111.47l0,0a2.53,2.53,0,0,0,.18,3.17c0,.12,0,.15-.12.13a8.33,8.33,0,0,1-.7-.87c-.18-.26-.29-.19-.47,0a7.44,7.44,0,0,0,.4-3.14c.43.07.29.65.69.66Z"/><path class="cls-79" d="M92.58,131.56A7.56,7.56,0,0,1,92.4,133l-.1-.11a4.41,4.41,0,0,1,.17-1.31C92.51,131.51,92.54,131.51,92.58,131.56Z"/><path class="cls-80" d="M91.3,143a.48.48,0,0,1-.09.43c0,.05-.07.05-.11,0,0-.26-.07-.53.08-.77C91.25,142.78,91.12,143,91.3,143Z"/><path class="cls-81" d="M93.8,121.65l-.11-.13.12-.65a.06.06,0,0,1,.1,0A1.49,1.49,0,0,1,93.8,121.65Z"/><path class="cls-82" d="M93.66,124l-.11.75c-.1,0-.15,0-.11-.12s0-.44.11-.63Z"/><path class="cls-83" d="M87.63,116.12l.55.32-.11.1a1.57,1.57,0,0,1-.54-.33C87.51,116.12,87.52,116.06,87.63,116.12Z"/><path class="cls-84" d="M95.65,100.59a1.33,1.33,0,0,1-.55.19c.07-.25.28-.23.43-.29S95.64,100.51,95.65,100.59Z"/><path class="cls-85" d="M91.1,143.45h.11l0,.76h-.1Z"/><path class="cls-86" d="M93.91,120.87h-.1l.14-.6C94,120.55,94.05,120.72,93.91,120.87Z"/><path class="cls-87" d="M95.65,100.59l-.12-.1.31-.12.15.1C95.9,100.58,95.77,100.56,95.65,100.59Z"/><path class="cls-88" d="M82,124.55l.11-.43c.09,0,.14,0,.09.11l0,.32Z"/><path class="cls-1" d="M88.36,84.36l.12-.53.29.71a10.59,10.59,0,0,0,2.63,3.75A6.23,6.23,0,0,1,93,90.23c.09.21.24.17.4.16a3.1,3.1,0,0,0,3-1.79,3.12,3.12,0,0,1-2.6,3.32,5.4,5.4,0,0,0-.58.11c-.32.07-.51.3-.36.59.35.66-.09.93-.54,1.21l-.39.24-.09.12c-.15,0-.32,0-.46.11h0c-.17.1-.41,0-.54.21h-.12c-.3-.1-.58.06-.88,0a.78.78,0,0,1-.83-.61c-.21-.79-.42-1.59-.59-2.39a2.22,2.22,0,0,0-.06-.44c0-.35-.07-.7-.08-1a11.43,11.43,0,0,1-.13-1.16,5.42,5.42,0,0,0-.07-.81c0-.25,0-.5,0-.75a14.58,14.58,0,0,1,.08-2.19C88.26,84.91,88.16,84.61,88.36,84.36Z"/><path class="cls-89" d="M72.63,133.48c.26-1.56.77-3.06,1.15-4.58.2-.76.42-1.51.64-2.33a10.34,10.34,0,0,1-1.54.52c1-1.52,2.64-2.17,4.06-3.1-.63,1.08-1.26,2.13-1.79,3.24A42.39,42.39,0,0,0,73,132.78c-.08.24-.17.47-.26.71A.08.08,0,0,1,72.63,133.48Z"/><path class="cls-12" d="M88.58,91.5c.21.8.43,1.59.61,2.39.09.4.3.5.67.52s.63-.14.9.11a19.06,19.06,0,0,1-2.81.75c.29-.32.73-.42,1.08-.73a3.45,3.45,0,0,1-1.68-1.79,2.9,2.9,0,0,0-2.08-1.55c-.56-.09-.57-.41-.51-.8a5.67,5.67,0,0,1,.26-1,2.11,2.11,0,0,0-1-2.78l-.3-.22c0-.11,0-.16.13-.12.76.22,1.09,1,1.66,1.4.11.09,0,.27,0,.41-.1.62-.19,1.24-.29,1.85a.39.39,0,0,0,.23.51,12.28,12.28,0,0,1,1.07.7,5.09,5.09,0,0,1,1.17.94,2.71,2.71,0,0,0,.75.76c0-.43-.2-.84-.06-1.25C88.44,91.54,88.49,91.48,88.58,91.5Z"/><path class="cls-78" d="M67.91,107.68l5.51,1.14,1.37.27a.51.51,0,0,1-.44.33c-1.66-.54-3.38-.87-5.07-1.28l-1.62-.36C67.67,107.57,67.81,107.67,67.91,107.68Z"/><path class="cls-90" d="M81.28,116.05c-.18.42-.4.84-.54,1.27s-.41.15-.59.34a11.77,11.77,0,0,1-1.26,1.06c-.11,0-.14,0-.12-.12a30.53,30.53,0,0,0,2.4-2.69C81.28,115.9,81.32,115.94,81.28,116.05Z"/><path class="cls-91" d="M78.77,118.6l.12.12-1,.88-.11-.11Z"/><path class="cls-92" d="M86,114.82l.12-.13A7.47,7.47,0,0,1,87,115.8,3.44,3.44,0,0,1,86,114.82Z"/><path class="cls-93" d="M71.21,139l-.34,1.32A2.4,2.4,0,0,1,71.1,139S71.17,139,71.21,139Z"/><path class="cls-94" d="M94.41,95.05l.86-.59a1.33,1.33,0,0,1-.71.73Z"/><path class="cls-95" d="M71.32,138.15a3.71,3.71,0,0,1,.32-1.3s.06,0,.09,0l-.31,1.29C71.39,138.19,71.35,138.2,71.32,138.15Z"/><path class="cls-96" d="M87,95.79l-.1-.09c.3-.14.57-.42,1-.29Z"/><path class="cls-97" d="M79.73,122.49a3.52,3.52,0,0,1-.3,1.14,3.61,3.61,0,0,1,.22-1.14S79.7,122.44,79.73,122.49Z"/><path class="cls-98" d="M125.51,87.92a1.38,1.38,0,0,1,.68-.2c0,.4-.36.23-.54.34Z"/><path class="cls-99" d="M77.38,132.11l.22-.77a.72.72,0,0,1-.12.76C77.45,132.15,77.41,132.15,77.38,132.11Z"/><path class="cls-100" d="M78.79,126.71A1.75,1.75,0,0,1,79,126a1.18,1.18,0,0,1-.1.74A.07.07,0,0,1,78.79,126.71Z"/><path class="cls-101" d="M95.17,96.66l.7-.44c-.1.37-.37.44-.57.57Z"/><path class="cls-102" d="M93.54,93.64l.57-.31c.11,0,.12,0,.1.1l-.53.34Z"/><path class="cls-103" d="M71.32,138.15h.1l-.21.87H71.1A1.75,1.75,0,0,1,71.32,138.15Z"/><path class="cls-104" d="M79.22,124.54l.16-.8c0,.28.1.56-.07.8Q79.27,124.62,79.22,124.54Z"/><path class="cls-105" d="M78.12,130l-.29.86a1,1,0,0,1,.19-.85C78.05,130,78.08,130,78.12,130Z"/><path class="cls-106" d="M78.12,130H78a1.92,1.92,0,0,1,.2-.88.18.18,0,0,1,.1.11Z"/><path class="cls-107" d="M77.38,132.11h.1a2,2,0,0,1-.2.77c-.07,0-.08-.07-.11-.11Z"/><path class="cls-108" d="M72.27,134.79l-.13.5c-.06-.22-.12-.42,0-.61A.24.24,0,0,1,72.27,134.79Z"/><path class="cls-96" d="M80.49,118.38l-.12.65s-.05,0-.08,0a1,1,0,0,1,.1-.64S80.45,118.33,80.49,118.38Z"/><path class="cls-109" d="M71.79,136.12l.11-.55.16,0-.14.55Z"/><path class="cls-110" d="M72.61,133.5l-.17.65a.65.65,0,0,1,0-.65C72.53,133.45,72.57,133.46,72.61,133.5Z"/><path class="cls-111" d="M84.8,114.49c-.08.17,0,.4-.28.53a1.29,1.29,0,0,1,.18-.65C84.77,114.38,84.77,114.44,84.8,114.49Z"/><path class="cls-112" d="M81.28,116.05l-.11-.14.26-.44A.62.62,0,0,1,81.28,116.05Z"/><path class="cls-113" d="M80.49,118.38h-.1a1,1,0,0,1,.15-.69C80.66,118,80.48,118.17,80.49,118.38Z"/><path class="cls-114" d="M75.88,121.54a.53.53,0,0,1-.36.38A.53.53,0,0,1,75.88,121.54Z"/><path class="cls-54" d="M78.79,126.71h.11c0,.21,0,.45-.18.64C78.61,127.1,78.8,126.92,78.79,126.71Z"/><path class="cls-115" d="M90.88,94.51c.05-.39.35-.15.54-.21C91.28,94.49,91.05,94.43,90.88,94.51Z"/><path class="cls-116" d="M79.2,125.08a.77.77,0,0,1-.21.68l.14-.67Z"/><path class="cls-117" d="M82.24,123.69l.13-.5c.1.21.11.35,0,.49S82.28,123.73,82.24,123.69Z"/><path class="cls-118" d="M87.63,116.12l-.1.09c-.18-.1-.39-.16-.39-.42A1.1,1.1,0,0,1,87.63,116.12Z"/><path class="cls-119" d="M80.29,119h.08l-.1.54q0,.08-.09,0C80.18,119.39,80.14,119.19,80.29,119Z"/><path class="cls-120" d="M80.18,119.57h.09l-.11.65a.06.06,0,0,1-.09,0A1,1,0,0,1,80.18,119.57Z"/><path class="cls-121" d="M80.07,120.22h.09l-.11.54s0,0-.08,0S79.92,120.38,80.07,120.22Z"/><path class="cls-122" d="M77.17,133.2c0,.15,0,.31-.18.4-.13-.19.07-.34.08-.51S77.22,133.08,77.17,133.2Z"/><path class="cls-116" d="M80,120.76h.08l-.12.65h-.07A.93.93,0,0,1,80,120.76Z"/><path class="cls-123" d="M79.86,121.41h.07l-.1.54s0,0-.08,0S79.7,121.56,79.86,121.41Z"/><path class="cls-85" d="M84.8,114.49l-.1-.12c0-.13,0-.29.16-.34C85,114.22,84.81,114.34,84.8,114.49Z"/><path class="cls-124" d="M84.27,115.79c0-.12,0-.25.16-.3.09.16-.06.27-.05.4S84.23,115.9,84.27,115.79Z"/><path class="cls-125" d="M84.28,116.22a.49.49,0,0,1-.14.34c-.13-.12-.08-.23,0-.33S84.24,116.17,84.28,116.22Z"/><path class="cls-126" d="M79.75,122h.08l-.1.54h-.08A.69.69,0,0,1,79.75,122Z"/><path class="cls-127" d="M75,122.48c.11-.16.13-.31.37-.3C75.3,122.33,75.26,122.47,75,122.48Z"/><path class="cls-128" d="M82.24,123.69h.11c0,.18,0,.39-.11.55l-.09-.11Z"/><path class="cls-122" d="M79.2,125.08h-.07l.09-.55h.09A.73.73,0,0,1,79.2,125.08Z"/><path class="cls-129" d="M78.7,127.46c.11.21,0,.35-.08.63C78.53,127.78,78.54,127.62,78.7,127.46Z"/><path class="cls-130" d="M78.34,128.75c0-.14,0-.32.2-.42l-.12.51s-.08,0-.11,0S78.32,128.78,78.34,128.75Z"/><path class="cls-131" d="M78.34,128.75l.08.09c0,.15-.06.29-.1.44l-.1-.11C78.23,129,78.2,128.86,78.34,128.75Z"/><path class="cls-132" d="M72.7,132.74h.12l-.12.43c-.09,0-.15,0-.09-.11S72.59,132.83,72.7,132.74Z"/><path class="cls-133" d="M72.27,134.79l-.09-.11c0-.13,0-.28.15-.39C72.41,134.49,72.27,134.63,72.27,134.79Z"/><path class="cls-22" d="M66.55,129l.11-.34v.54h-.09Z"/><path class="cls-134" d="M77.17,133.2l-.1-.11.1-.33.11.11A.49.49,0,0,1,77.17,133.2Z"/><path class="cls-135" d="M72.61,133.07l.09.11-.09.32h-.12C72.51,133.35,72.49,133.19,72.61,133.07Z"/><path class="cls-136" d="M74.09,123.83c.06.16,0,.27,0,.29S74,124.05,74,124A.93.93,0,0,1,74.09,123.83Z"/><path class="cls-137" d="M76.85,134.16h-.11a.45.45,0,0,1,.16-.35A.26.26,0,0,1,76.85,134.16Z"/><path class="cls-138" d="M91.41,94.3c.13-.13.27-.22.46-.11A.46.46,0,0,1,91.41,94.3Z"/><path class="cls-139" d="M74.28,123.65c0-.15,0-.29.15-.26s0,.12,0,.18A.74.74,0,0,1,74.28,123.65Z"/><path class="cls-140" d="M84.28,116.22h-.12c0-.16,0-.32.11-.44l.11.1Z"/><path class="cls-104" d="M71.73,136.85h-.09l0-.43C71.87,136.59,71.72,136.72,71.73,136.85Z"/><path class="cls-141" d="M99.88,55.54a13.93,13.93,0,0,1,2.31,1.63,72.59,72.59,0,0,1,8.43,8.48c2.35,2.7,4.59,5.49,6.86,8.24,0,.06.09.12.14.17s.17.2,0,.32-.23,0-.3-.11l-1.62-2A136.59,136.59,0,0,0,104.59,60c-1.16-1.1-2.36-2.15-3.62-3.14A4.18,4.18,0,0,1,99.88,55.54Z"/><path class="cls-142" d="M118.38,71.25a2.5,2.5,0,0,1-.1,2.23,1.5,1.5,0,0,1-.14.2l-2.29-3a11,11,0,0,0,2.35.45C118.34,71.05,118.4,71.11,118.38,71.25Z"/><path class="cls-143" d="M97.05,55.41l-1.52,1.72,1.61-1.63Z"/><path class="cls-144" d="M98.1,54.75a2.19,2.19,0,0,1-.75.6,1.88,1.88,0,0,1,.74-.74A.08.08,0,0,1,98.1,54.75Z"/><path class="cls-99" d="M116,66.66a2.89,2.89,0,0,1,.65-.67c-.07.32-.32.44-.32.67l-.32.11s-.05,0,0-.08S116,66.66,116,66.66Z"/><path class="cls-145" d="M116.24,67.1l-.42.91A.68.68,0,0,1,116.24,67.1Z"/><path class="cls-146" d="M119.6,72.88a.75.75,0,0,1,0,.8A.75.75,0,0,1,119.6,72.88Z"/><path class="cls-147" d="M98.1,54.75v-.14c.16-.14.26-.35.51-.35h.06l0,0A1.26,1.26,0,0,1,98.1,54.75Z"/><path class="cls-148" d="M118.38,71.25c-.1,0-.13-.09-.18-.16l-.27-.33c.37,0,.51.24.59.54Z"/><path class="cls-149" d="M98.64,54.32a.21.21,0,0,0,0-.06c.05-.21.22-.28.39-.34s.12,0,.09.09A.81.81,0,0,1,98.64,54.32Z"/><path class="cls-150" d="M118.51,71.29c.35,0,.47.27.56.55A1.84,1.84,0,0,1,118.51,71.29Z"/><path class="cls-145" d="M114.57,68.7a.15.15,0,0,0,.19-.09c.09,0,.15,0,.1.11l0,.4C114.62,69,114.51,68.92,114.57,68.7Z"/><path class="cls-73" d="M99.08,54,99,53.92a.94.94,0,0,1,.41-.33l.12.11Z"/><path class="cls-151" d="M115.82,68a.6.6,0,0,1-.21.6C115.64,68.38,115.47,68.1,115.82,68Z"/><path class="cls-152" d="M114.86,68.72l-.1-.11c.06-.16,0-.39.28-.4Z"/><path class="cls-153" d="M119.38,72.24a.73.73,0,0,1,.21.43C119.29,72.64,119.29,72.46,119.38,72.24Z"/><path class="cls-154" d="M113.35,67.19l.1-.12c.13.17.29.32.22.56C113.48,67.54,113.46,67.33,113.35,67.19Z"/><path class="cls-148" d="M92.17,56.34a.67.67,0,0,1-.42-.36C92,55.94,92,56.11,92.17,56.34Z"/><path class="cls-155" d="M116,66.66v.11l-.22.26C115.67,66.78,115.93,66.76,116,66.66Z"/><path class="cls-116" d="M95,57.7a.43.43,0,0,1-.3.31C94.79,57.83,94.83,57.71,95,57.7Z"/><path class="cls-156" d="M94.39,58.52c0-.08,0-.13,0-.15a.29.29,0,0,1,.15-.12s.06.06,0,.11S94.46,58.45,94.39,58.52Z"/><path class="cls-157" d="M117,69.91l.36.31C117.17,70.23,117,70.22,117,69.91Z"/><path class="cls-158" d="M93.44,124.63l.11.12a3.47,3.47,0,0,1-.19,1A1.66,1.66,0,0,1,93.44,124.63Z"/><path class="cls-159" d="M93,128.12l-.13.95s-.06,0-.09,0C92.84,128.75,92.73,128.39,93,128.12Z"/><path class="cls-160" d="M92.71,130.16a1.58,1.58,0,0,1-.11.86s-.06,0-.09,0l.11-.87A.06.06,0,0,1,92.71,130.16Z"/><path class="cls-161" d="M93.23,126.7l-.11.85c-.09,0-.15,0-.1-.1a1.5,1.5,0,0,1,.12-.75S93.2,126.65,93.23,126.7Z"/><path class="cls-162" d="M92.71,130.16h-.09l.1-.75s.06,0,.1,0A1.52,1.52,0,0,1,92.71,130.16Z"/><path class="cls-163" d="M93.23,126.7h-.09c0-.22-.14-.52.21-.64Z"/><path class="cls-164" d="M93,127.45l.1.1c0,.14,0,.24-.09.36C92.84,127.76,92.92,127.61,93,127.45Z"/><path class="cls-165" d="M92.82,129.4h-.1a.32.32,0,0,1,.09-.33h.09A.36.36,0,0,1,92.82,129.4Z"/><path class="cls-166" d="M92.51,131h.09l0,.54h-.11Z"/><path class="cls-10" d="M82.88,46.35c1.06-2.09,2.78-2.56,5.22-2.16l-7.41,7.58a4.78,4.78,0,0,1,.92-1.67A3.59,3.59,0,0,0,82.33,48a3.17,3.17,0,0,1,.36-1.23c.11,0,.15.08.18.17,0,.48-.07,1-.09,1.44,0,.14-.1.25-.12.39l0,.15a.42.42,0,0,0,0-.15,4.53,4.53,0,0,1,1.46-1.7L85.58,46c.28-.21.27-.37,0-.56a1.07,1.07,0,0,0-1.3,0c-.51.32-.83.85-1.31,1.19C82.82,46.55,82.8,46.46,82.88,46.35Z"/><path class="cls-13" d="M94.64,37.68a1.35,1.35,0,0,0,.44-.51c.14-.05.36.1.44-.17s-.18-.27-.31-.35a.54.54,0,0,1-.11-.93c.23-.22.5-.41.74-.61a.82.82,0,0,1,0,.26,1.15,1.15,0,0,0,.84,1.25.47.47,0,0,1,.31.67c0,.12,0,.3-.18.27s-.4,0-.44-.2,0-.28-.24-.25-.19.22-.19.37-.1.49.4.47a34.62,34.62,0,0,0-6.16,5.91c-.1,0-.15,0-.11-.11l4.08-5.41A2.42,2.42,0,0,0,94.64,37.68Z"/><path class="cls-10" d="M79.45,43.32A11,11,0,0,0,77,44.69c-.2.15-.25,0-.31-.16-.59-1.26-1.31-2.44-2-3.69A12.24,12.24,0,0,0,79.45,43.32Z"/><path class="cls-167" d="M80.48,24.13l.11-.13c.52.62,1,1.27,1.55,1.86a6.28,6.28,0,0,0,6.16,2c.55-.1.86,0,1.06.5,0,.1,0,.11-.09.1a.71.71,0,0,0-.77-.33,16,16,0,0,1-2.59.1,5.71,5.71,0,0,1-3.73-1.84A11.18,11.18,0,0,1,80.48,24.13Z"/><path class="cls-168" d="M71.65,32.32l-.12-.12c.24-.22.35-.6.75-.62Z"/><path class="cls-169" d="M90.11,43.75l.11.11-.53.67c-.07,0-.08-.08-.1-.12A2.57,2.57,0,0,1,90.11,43.75Z"/><path class="cls-166" d="M90,29.18a1.71,1.71,0,0,1,.42.54c0,.05,0,.11-.1.13a1.53,1.53,0,0,1-.41-.59C89.88,29.17,89.91,29.14,90,29.18Z"/><path class="cls-170" d="M87,48.09l-.1-.12.41-.55a.21.21,0,0,1,.1.11A1.62,1.62,0,0,1,87,48.09Z"/><path class="cls-85" d="M88.75,45.72a2.41,2.41,0,0,1-.47.63.13.13,0,0,1-.09-.1,1.34,1.34,0,0,1,.43-.54C88.67,45.66,88.71,45.66,88.75,45.72Z"/><path class="cls-73" d="M88,46.67l-.41.55a.14.14,0,0,1-.09-.11l.41-.55A.14.14,0,0,1,88,46.67Z"/><path class="cls-169" d="M92.17,32.08l.42.56s0,.1-.1.11l-.42-.55A.23.23,0,0,1,92.17,32.08Z"/><path class="cls-171" d="M91,30.54a.46.46,0,0,1,.33.43s0,.06-.07,0a.67.67,0,0,1-.31-.44Z"/><path class="cls-171" d="M91.21,31l.07,0c.23.06.29.28.39.45a.07.07,0,0,1-.13,0A.72.72,0,0,1,91.21,31Z"/><path class="cls-170" d="M89.59,44.41l.1.12a1,1,0,0,1-.36.41s-.09,0-.12,0Z"/><path class="cls-172" d="M91,30.54a.05.05,0,0,1,0,0,.59.59,0,0,1-.32-.43l0,0A.43.43,0,0,1,91,30.54Z"/><path class="cls-173" d="M88.75,45.72h-.13a.7.7,0,0,1,.34-.43c.05,0,.09,0,.12,0A1.16,1.16,0,0,1,88.75,45.72Z"/><path class="cls-174" d="M89.27,28.42l.09-.1.32.42c0,.12,0,.13-.1.11Z"/><path class="cls-149" d="M89.58,28.85l.1-.11a1.07,1.07,0,0,1,.32.44l-.09.08A.89.89,0,0,1,89.58,28.85Z"/><path class="cls-170" d="M91.54,31.44l.13,0,.33.44c0,.05-.08.06-.13,0A.63.63,0,0,1,91.54,31.44Z"/><path class="cls-145" d="M92.49,32.75l.1-.11.31.43a.14.14,0,0,1-.09.11Z"/><path class="cls-37" d="M90.63,30.11l0,0a.53.53,0,0,1-.26-.29l.1-.13C90.51,29.84,90.67,29.92,90.63,30.11Z"/><path class="cls-175" d="M82.88,46.35l.07.21c.12.2,0,.3-.17.35l-.09-.12C82.77,46.65,82.72,46.46,82.88,46.35Z"/><path class="cls-176" d="M89.08,45.29H89c0-.17.14-.25.25-.35h.12C89.32,45.11,89.18,45.19,89.08,45.29Z"/><path class="cls-177" d="M60,57l.1.11a.43.43,0,0,1-.46.06A.51.51,0,0,1,60,57Z"/><path class="cls-178" d="M92.81,33.18l.09-.11.24.32-.1.1Z"/><path class="cls-179" d="M87.54,47.11l.09.11-.23.31-.1-.11Z"/><path class="cls-180" d="M88,46.67,88,46.56l.24-.31.09.1Z"/><path class="cls-181" d="M91.87,31.87H92l.17.22-.1.12C92,32.1,91.87,32,91.87,31.87Z"/><path class="cls-182" d="M97.69,31.37l.1,0a.18.18,0,0,1,.11.1,4.35,4.35,0,0,1-.85.69c-.06,0-.06-.08,0-.13C97.17,31.71,97.5,31.62,97.69,31.37Z"/><path class="cls-133" d="M100.05,26.54c.12.23.27.46.11.73C100,27,99.89,26.81,100.05,26.54Z"/><path class="cls-183" d="M99.11,30.47a1.2,1.2,0,0,1-.5.44c0-.18.13-.21.15-.32S99,30.43,99.11,30.47Z"/><path class="cls-112" d="M97,32l0,.13c-.16.11-.22.41-.51.28A1.22,1.22,0,0,1,97,32Z"/><path class="cls-184" d="M100.36,27.78l-.11.27c-.06-.19-.18-.38,0-.55C100.38,27.57,100.37,27.67,100.36,27.78Z"/><path class="cls-185" d="M99.89,29.82c-.17.12-.22.42-.52.33C99.52,30,99.61,29.77,99.89,29.82Z"/><path class="cls-186" d="M37.64,86.75c-.12,2-.31,3.9-.53,5.89a4.4,4.4,0,0,1-.63-2.71,11.52,11.52,0,0,1,1.06-3.59C37.78,86.42,37.66,86.6,37.64,86.75Z"/><path class="cls-187" d="M36.66,82a5.79,5.79,0,0,0,1.28-1.21c.05,1.09-.09,2.1-.12,3.19a2,2,0,0,1-1.15-2Z"/><path class="cls-188" d="M36.35,83.82a3.44,3.44,0,0,1,.13-1.59,8.45,8.45,0,0,0,0,1.59S36.39,83.86,36.35,83.82Z"/><path class="cls-189" d="M35.81,77.33c-.26-.13-.56-.06-.82-.2.27.05.56-.1.8.11,0,0,.05,0,0,.06S35.82,77.33,35.81,77.33Z"/><path class="cls-190" d="M36.67,82c-.07,0-.2.22-.2,0a1,1,0,0,1,.22-.57l0,.6Z"/><path class="cls-191" d="M37.06,80.26a1.11,1.11,0,0,1-.31.75c0-.36.06-.58.25-.75Z"/><path class="cls-192" d="M36.35,83.82h.11a.88.88,0,0,1,.12.63A1.32,1.32,0,0,1,36.35,83.82Z"/><path class="cls-125" d="M37.2,79.19c0-.13-.07-.33.08-.37s.1.17.12.27S37.31,79.24,37.2,79.19Z"/><path class="cls-119" d="M38.14,78.31a.88.88,0,0,1-.54-.46A.84.84,0,0,1,38.14,78.31Z"/><path class="cls-147" d="M36.55,78.08l-.46-.26c.3-.12.44,0,.58.17C36.66,78.05,36.6,78.06,36.55,78.08Z"/><path class="cls-193" d="M36.77,77.49a.53.53,0,0,1,.49.18.45.45,0,0,1-.49-.14Z"/><path class="cls-194" d="M37.64,86.75c-.07-.13,0-.3-.1-.41l.1-.17s.09.06.09.09A.76.76,0,0,1,37.64,86.75Z"/><path class="cls-195" d="M36.77,77.49v0l-.52-.11c0-.09,0-.13.09-.09A.5.5,0,0,1,36.77,77.49Z"/><path class="cls-196" d="M36.34,77.33l-.09.09-.44-.09a.29.29,0,0,1,0-.09C36,77.26,36.18,77.17,36.34,77.33Z"/><path class="cls-197" d="M37.06,80.26H37c0-.19.1-.34.12-.52.1,0,.13,0,.09.11A.63.63,0,0,1,37.06,80.26Z"/><path class="cls-198" d="M37.2,79.19l.2-.1a.51.51,0,0,1-.08.43c-.07,0-.08-.08-.12-.12Z"/><path class="cls-199" d="M36.55,78.08l.12-.09c.1.05.29.12.2.23S36.66,78.14,36.55,78.08Z"/><path class="cls-108" d="M37.2,79.4l.12.12c0,.11,0,.24-.11.33l-.09-.11Z"/><path class="cls-200" d="M64.46,108.11l-.26.09a3.62,3.62,0,0,1-.87-.17v-.11A4.77,4.77,0,0,1,64.46,108.11Z"/><path class="cls-41" d="M73.91,99.33c.06-.17,0-.38.22-.49A.37.37,0,0,1,73.91,99.33Z"/><path class="cls-201" d="M73.71,100l-.11-.12c.11-.1,0-.4.31-.31Z"/><path class="cls-202" d="M62.2,106.63l.26-.11c1.13.24,2.28.41,3.39.74a.32.32,0,0,1-.29.1Z"/><path class="cls-203" d="M67.91,107.68l-.25.1-1.51-.3c-.14,0-.23-.06-.23-.22A12.36,12.36,0,0,1,67.91,107.68Z"/><path class="cls-1" d="M87.62,92.18l-1.07-1c.29,0,.44.36.83.23.05,0,.14,0,.07,0s-.1,0-.14,0a.12.12,0,0,0,.09,0c.07,0,0,0,0,0-.16-.24-.14-.45.1-.55s.27-.26.27-.52l.5.75,0-.25c.27,0,.09.26.16.38s-.09.2-.08.3c0,.31-.06.47-.41.44C87.81,91.94,87.74,92.12,87.62,92.18Z"/><path class="cls-100" d="M88.25,85.11l-.09,2.28s-.06,0-.08,0a7.21,7.21,0,0,1,.1-2.27Z"/><path class="cls-204" d="M88.36,91.28a.64.64,0,0,0-.07-.45v-.74a.06.06,0,0,1,.09,0l.14,1c0,.11.07.22-.09.27A.09.09,0,0,1,88.36,91.28Z"/><path class="cls-205" d="M88.37,90.09h-.09c-.19-.34-.08-.72-.13-1.07,0-.11,0-.13.11-.1Z"/><path class="cls-95" d="M88.26,88.92l-.11.1a1,1,0,0,1-.07-.67c.06-.06,0-.17.1-.21A1.37,1.37,0,0,1,88.26,88.92Z"/><path class="cls-206" d="M88.25,85.11h0l0,0,0-.76h.16Z"/><path class="cls-207" d="M83.87,86.3l-.13.12c-.2-.09-.46-.1-.55-.36A1.36,1.36,0,0,1,83.87,86.3Z"/><path class="cls-208" d="M88.18,88.14l-.1.21v-1h.08Z"/><path class="cls-209" d="M85,52.07a.75.75,0,0,1,.32-.42s.08,0,.11,0a.94.94,0,0,1-.3.43S85,52.12,85,52.07Z"/><path class="cls-210" d="M85,52.07l.13,0c-.13.19-.2.44-.47.49A1,1,0,0,1,85,52.07Z"/><path class="cls-211" d="M82,56.83l-.1-.11c0-.15.12-.28.3-.3A.79.79,0,0,1,82,56.83Z"/><path class="cls-212" d="M85.39,51.66h-.11c0-.15.13-.23.21-.33l.09.12Z"/><path class="cls-213" d="M84.17,53.31c0-.21,0-.41.32-.36Z"/><path class="cls-214" d="M81.37,76.49c-.14-.14-.13-.34-.2-.51A.38.38,0,0,1,81.37,76.49Z"/><path class="cls-215" d="M81,75.5l.1-.12a.45.45,0,0,1,.09.47C81,75.78,81,75.62,81,75.5Z"/><path class="cls-216" d="M97.9,31.45l-.11-.1a.5.5,0,0,1,.48-.3C98.23,31.27,98.05,31.35,97.9,31.45Z"/><path class="cls-217" d="M94.21,93.43l-.1-.1c.09-.08.22-.23.29-.13S94.3,93.36,94.21,93.43Z"/><path class="cls-218" d="M88.4,91.39l.11-.25a.5.5,0,0,1,.07.36l-.1.12C88.32,91.59,88.3,91.51,88.4,91.39Z"/><path class="cls-1" d="M88.4,91.39a.23.23,0,0,0,.08.23c0,.49.19,1,.11,1.56a5,5,0,0,1-1-1c0-.48.3-.42.63-.34.07-.18-.2-.44.11-.56Z"/><path class="cls-219" d="M82.78,46.91c.13-.08.11-.24.17-.35a4.38,4.38,0,0,1,1.47-1.4.92.92,0,0,1,1,0c.23.14.44.29.69.45-1.08,1.12-2.63,1.74-3.37,3.2-.26,0-.12-.23-.12-.36A9,9,0,0,1,82.78,46.91Z"/><path class="cls-220" d="M82.64,48.47c.06.12,0,.27.12.36l-.12.37A.93.93,0,0,1,82.64,48.47Z"/><path class="cls-1" d="M87.27,91.55c.09-.26.21-.39.41-.43a.18.18,0,0,1,.1.09C87.73,91.43,87.56,91.5,87.27,91.55Z"/><line class="cls-221" y1="6.38" y2="37.38"/><line class="cls-221" y1="6.38" x2="37.5" y2="6.38"/><line class="cls-222" x1="101.49" y1="138.52" x2="121.23" y2="138.39"/><path class="cls-222" d="M15.13,15V46"/><text class="cls-223" transform="translate(13 10.54) scale(0.88 1)">2</text><text class="cls-223" transform="translate(129.71 140.54) scale(0.88 1)">1</text><line class="cls-222" x1="15.57" y1="45.02" x2="38.57" y2="44.87"/></g></g></svg>