<svg xmlns="http://www.w3.org/2000/svg" viewBox="0 0 86.42 118.06"><defs><style>.cls-1{fill:#242121;}.cls-2{fill:#242122;}.cls-3{fill:#262324;}.cls-4{fill:#fdfdfd;}.cls-5{fill:#fefefe;}.cls-6{fill:#fff;}.cls-7{fill:#282526;}.cls-8{fill:#292627;}.cls-9{fill:#201e1e;}.cls-10{fill:#383535;}</style></defs><title>Asset 23</title><g id="Layer_2" data-name="Layer 2"><g id="STEP_2" data-name="STEP 2"><path class="cls-1" d="M67.5,118.06c-.25-.37-.69-.43-1-.6l-10.66-5c-.27-.12-.8-.08-.51-.69.13-.3-.25-.29-.41-.35a12,12,0,0,0-5.85-.89,28.36,28.36,0,0,1-14.54-2.21,65.33,65.33,0,0,1-8.89-4.26c-2.73-1.64-4.45-4-4.31-7.34,0-.6.16-.84.82-.81,1.24,0,2.48,0,3.73,0,.46,0,.67.1.57.61A2.77,2.77,0,0,0,28,99.6c4.56,2.51,9.22,4.8,14.39,5.79a21.66,21.66,0,0,0,6.33.07,14.28,14.28,0,0,1,5,.33c.57.15.73-.05.94-.49q7-15.12,14-30.23a.87.87,0,0,0,0-.92c-3.1-5.39-6-10.93-9.66-16a11.4,11.4,0,0,0-6.88-4.73,5.16,5.16,0,0,0-3.62.38A2,2,0,0,0,48,57.21a12.68,12.68,0,0,0,4.28,3,3.94,3.94,0,0,1,2.22,2.59A2.91,2.91,0,0,1,53.52,66a11.63,11.63,0,0,1-4.2,2.07c-.42.14-.52,0-.51-.44,0-.76,0-1.52,0-2.27a1,1,0,0,0-.66-1.12,11.46,11.46,0,0,1-5.26-5.56c-1.54-3.48-.5-6.6,2.93-8.29a12.86,12.86,0,0,1,14.29,1.51,28.91,28.91,0,0,1,5.51,6.82c2.71,4.19,5.07,8.59,7.54,12.91.15.26.24,1,.79.28,0,0,.38.1.56.18,3.81,1.77,7.6,3.55,11.43,5.28.75.34.41.71.22,1.12Q80,91.78,73.81,105.07q-2.85,6.12-5.69,12.24c-.11.23-.32.45-.25.75Z"/><path class="cls-2" d="M41.57,49.61a1.57,1.57,0,0,1-.14-1c0-3.33,0-6.66,0-10,0-.69-.19-.85-.87-.85q-15.48,0-31,0c-.59,0-.82.08-.82.76q0,20.67,0,41.34c0,.63.21.72.76.72q15.54,0,31.08,0c.71,0,.83-.22.82-.87,0-5.21,0-10.42,0-15.63V62.89a21,21,0,0,0,4.73,3.82c.31.22.29.5.29.8,0,6.23,0,12.47,0,18.71a7.12,7.12,0,0,1-7.29,7.23q-14,.08-28.08,0A7.21,7.21,0,0,1,3.74,86q0-26.71,0-53.42A7.26,7.26,0,0,1,11.31,25q13.82,0,27.62,0a7.21,7.21,0,0,1,7.52,7.47c0,4.72,0,9.45,0,14.17,0,.3.14.66-.36.79A12.69,12.69,0,0,0,41.57,49.61Z"/><path class="cls-3" d="M28.88,63.79a9.76,9.76,0,0,1,5.61,6.11c.62,1.95.42,4,.44,5.95,0,.63-.53.38-.82.38H15.3c-.31,0-.53,0-.51-.42a39.55,39.55,0,0,1,.1-4.36,9.32,9.32,0,0,1,5.19-7.31l.38-.23a.3.3,0,0,0,.05-.1A9.84,9.84,0,0,1,14.9,56.3a9.2,9.2,0,0,1,1.74-7.12c.48-.65.62-1.07-.05-1.59-.08-.06-.11-.2-.21-.38.57.12,1,.63,1.62.45l-.8-1.32c.05,0,.14-.07.16-.06.88.89,1.63.51,2.58,0a9.82,9.82,0,0,1,9.84,17Z"/><path class="cls-4" d="M25.11,34.54c-2,0-4.05,0-6.08,0-.5,0-.66-.13-.67-.65,0-1.91-.05-1.91,1.87-1.91,3.6,0,7.2,0,10.8,0,.66,0,.87.15.85.84,0,1.72,0,1.72-1.69,1.72Z"/><path class="cls-5" d="M22.41,85.11a2.7,2.7,0,0,1,2.73-2.67,2.76,2.76,0,0,1,2.69,2.74,2.79,2.79,0,0,1-2.75,2.69A2.73,2.73,0,0,1,22.41,85.11Z"/><path class="cls-4" d="M36.63,31.73a1.56,1.56,0,0,1,1.57,1.53,1.59,1.59,0,0,1-1.55,1.56,1.52,1.52,0,0,1-1.55-1.54A1.5,1.5,0,0,1,36.63,31.73Z"/><path class="cls-6" d="M24.64,63.06a8.23,8.23,0,0,1-6.82-12.79c.32-.49.52-.59,1.1-.24a10.87,10.87,0,0,0,5.87,1.24,10.34,10.34,0,0,0,5.82-1.41c.56-.37.62.16.78.39A8.21,8.21,0,0,1,26.71,62.8,9.62,9.62,0,0,1,24.64,63.06Z"/><path class="cls-7" d="M24.58,61.36a3.49,3.49,0,0,1-2.46-1c-.25-.26-.4-.57-.14-.89s.53-.2.82-.06a4,4,0,0,0,3.65,0c.32-.16.65-.25.87.12s0,.64-.25.88A3.56,3.56,0,0,1,24.58,61.36Z"/><path class="cls-8" d="M21.46,56.29A1.41,1.41,0,0,1,20,54.87a1.43,1.43,0,0,1,1.42-1.46,1.47,1.47,0,0,1,1.45,1.44A1.43,1.43,0,0,1,21.46,56.29Z"/><path class="cls-8" d="M27.77,56.29a1.41,1.41,0,0,1-1.39-1.47,1.44,1.44,0,0,1,1.46-1.41,1.48,1.48,0,0,1,1.41,1.48A1.45,1.45,0,0,1,27.77,56.29Z"/><path class="cls-9" d="M35.67,19.35a.78.78,0,0,0,.39.6,2.32,2.32,0,0,0,1.8.43A3.54,3.54,0,0,0,39.1,20a2.62,2.62,0,0,0,1.26-1.26s0-.11,0-.14-.07,0-.11.05a1.09,1.09,0,0,1-1,.24,1,1,0,0,1-.67-.71,1.23,1.23,0,0,1,.16-1.1,1.17,1.17,0,0,1,.74-.44c.05,0,.11,0,.16,0h.14s.11,0,.16,0a1.46,1.46,0,0,1,1.08.95,2.55,2.55,0,0,1,.16.83v.4l.68-.08a.11.11,0,0,1,.08,0,2.06,2.06,0,0,0,.26,0,4.09,4.09,0,0,1,2.14.69,3.14,3.14,0,0,1,1.27,1.64.83.83,0,0,1-.1.76.55.55,0,0,1-.57.27.57.57,0,0,1-.5-.47c0-.2-.11-.42.09-.59s.19-.06.28-.11.07-.05,0-.1a2.15,2.15,0,0,0-1.31-.89,4.79,4.79,0,0,0-1.73,0,10.13,10.13,0,0,0-2,.57,10.5,10.5,0,0,1-2.45.68c-.09,0-.18,0-.27,0a0,0,0,0,0-.06,0c-.1,0-.22,0-.32,0a4.77,4.77,0,0,1-2.45-1,15.68,15.68,0,0,1-1.76-1.6c-.34-.35-.66-.72-1-1.09s-.75-.9-1.12-1.36h0a2.89,2.89,0,0,1,.08.5.53.53,0,0,1,0,.25,1.71,1.71,0,0,1-1.73,1.58,1.54,1.54,0,0,1-.86-.2,1.4,1.4,0,0,1-.67-1.38,1.32,1.32,0,0,1,.94-1h.34a1.12,1.12,0,0,1,.69.44,1.23,1.23,0,0,1,.14.46c0,.06,0,.08.08,0a.61.61,0,0,0,.31-.7,1.16,1.16,0,0,0-1-1,2.28,2.28,0,0,0-1.48.16,1.86,1.86,0,0,0-1,1.38.93.93,0,0,0,0,.33,1,1,0,0,0,0,.34,2,2,0,0,0,1.35,1.89,1.18,1.18,0,0,0,.37,0,1,1,0,0,0,.34,0,2.66,2.66,0,0,0,1.11-.3,5.85,5.85,0,0,0,1.11-.69,5.93,5.93,0,0,0,.84-.74c.09-.09.13-.08.2,0h0c.17.18.17.19,0,.39a6,6,0,0,1-1.93,1.76,3.13,3.13,0,0,1-1.79.4,2.71,2.71,0,0,1-1.48-.64,2.83,2.83,0,0,1-1-1.57,2.87,2.87,0,0,1-.06-1.13,2.82,2.82,0,0,1,.37-1.09,3.18,3.18,0,0,1,.92-1,3,3,0,0,1,1.25-.47c.05,0,.11,0,.17,0h.28c.06,0,.13,0,.19,0a4.64,4.64,0,0,1,2.34,1.31,12.7,12.7,0,0,1,1.62,1.82c0,.07.09.06.14,0a11.54,11.54,0,0,1,1.1-.58,13.75,13.75,0,0,1,3.31-1.12c.42-.08.85-.14,1.27-.19.06,0,.13,0,.2,0h.45a2.09,2.09,0,0,1,.5,0h.45s.11,0,.16,0a10.13,10.13,0,0,1,4,1.23,11.58,11.58,0,0,1,1.84,1.27,13.22,13.22,0,0,1,1.41,1.39,13.9,13.9,0,0,1,1.7,2.4c.2.35.38.7.56,1.05h-.12a2.16,2.16,0,0,0-.56-.18.23.23,0,0,1-.13-.1c-.35-.52-.72-1-1.11-1.52s-.68-.81-1-1.19a13.65,13.65,0,0,0-3.13-2.45A10.58,10.58,0,0,0,42,16.68a9.55,9.55,0,0,0-1.46-.39,4.6,4.6,0,0,0-1-.11,7.06,7.06,0,0,0-.92,0,2.44,2.44,0,0,0-.71.1c-.12,0-.19.09-.18.22s0,.21,0,.31a.49.49,0,0,1,0,.24.52.52,0,0,1-.32.09.68.68,0,0,0-.28.07.24.24,0,0,0-.14.26,1.15,1.15,0,0,1-.22.82.66.66,0,0,1-.31.21c-.14.05-.21,0-.25-.14a2.12,2.12,0,0,0-.39-.83,1.12,1.12,0,0,0-.6-.35,3.2,3.2,0,0,1-.44,0,4.11,4.11,0,0,0-1.43.56l-.17.11c-.17.1-.17.11-.06.28a1.53,1.53,0,0,0,.83.63l.19.07a1.94,1.94,0,0,0,.68,0,.15.15,0,0,1,.16,0,1.61,1.61,0,0,0,.44-.06c.11,0,.15,0,.18.11s0,.19,0,.28S35.64,19.3,35.67,19.35Z"/><path class="cls-9" d="M10,16.18a7.85,7.85,0,0,0-1.67.26,10.36,10.36,0,0,0-3.81,1.94,13.86,13.86,0,0,0-1.6,1.46,18.65,18.65,0,0,0-2,2.57c-.12.18-.31.18-.47.24l-.3.1c-.06,0-.08,0-.07-.07a6.52,6.52,0,0,0,.43-.77,13.65,13.65,0,0,1,1.09-1.7,12.71,12.71,0,0,1,1.53-1.75,11.26,11.26,0,0,1,1.66-1.35,10.66,10.66,0,0,1,1.66-.9,11.58,11.58,0,0,1,1.36-.48,8.75,8.75,0,0,1,1.51-.29,2.06,2.06,0,0,0,.26,0c.06,0,.13,0,.2,0h.45a2.09,2.09,0,0,1,.5,0h.45c.05,0,.11,0,.16,0a13.28,13.28,0,0,1,4.32,1.18,14.23,14.23,0,0,1,1.34.7c.09.05.13.05.2-.05s.35-.44.52-.66a12.34,12.34,0,0,1,1.17-1.23,5.55,5.55,0,0,1,1-.74,3.9,3.9,0,0,1,1.27-.47c.06,0,.12,0,.17,0h.29c.06,0,.13,0,.19,0A2.89,2.89,0,0,1,24,15.83,2.92,2.92,0,0,1,23.64,19,2.74,2.74,0,0,1,21,20a4.07,4.07,0,0,1-1.68-.79,6.92,6.92,0,0,1-.79-.74,6.56,6.56,0,0,1-.57-.71.09.09,0,0,1,0-.12c.2-.26.2-.26.44,0a7.64,7.64,0,0,0,1.77,1.27,3,3,0,0,0,1.28.36A1.71,1.71,0,0,0,23,18.4a2.35,2.35,0,0,0,.16-2.28A1.87,1.87,0,0,0,21.47,15a1.86,1.86,0,0,0-1.21.28,1.16,1.16,0,0,0-.43,1.17.55.55,0,0,0,.12.21c.06.07.14.14.22.12s0-.12,0-.19a1,1,0,0,1,1.63-.52,1.29,1.29,0,0,1-.41,2.23,1.77,1.77,0,0,1-2.33-1.13,2.36,2.36,0,0,1,0-1.09l-.32.39c-.6.72-1.21,1.43-1.86,2.12a12.77,12.77,0,0,1-2,1.78,5.19,5.19,0,0,1-1.59.72,4.68,4.68,0,0,1-.54.07c-.11,0-.22,0-.33,0s0,0,0,0-.18,0-.27,0a7.37,7.37,0,0,1-1.53-.35c-.6-.19-1.18-.42-1.77-.62a6.84,6.84,0,0,0-1.49-.33,4.58,4.58,0,0,0-1.11,0,2.12,2.12,0,0,0-1.16.49,2.55,2.55,0,0,0-.42.45c0,.06-.05.1,0,.13.38.11.4.2.4.44a.72.72,0,0,1-.47.69.57.57,0,0,1-.72-.36,1.12,1.12,0,0,1,.11-1,3.47,3.47,0,0,1,.69-.92,3.71,3.71,0,0,1,.72-.53,3.88,3.88,0,0,1,1.33-.45c.18,0,.36,0,.55-.06a.49.49,0,0,1,.24,0,4.18,4.18,0,0,1,.71.09c.1,0,.06,0,.06-.09a2.67,2.67,0,0,1,0-.4,2.35,2.35,0,0,1,.2-.87,1.4,1.4,0,0,1,1-.83c.06,0,.12,0,.17,0h.13c.05,0,.11,0,.17,0a1.16,1.16,0,0,1,.85.67,1.2,1.2,0,0,1-.66,1.59,1.08,1.08,0,0,1-.92-.19c-.08,0-.12-.13-.23-.16A2.48,2.48,0,0,0,10.36,20a3.3,3.3,0,0,0,1.84.43,2.2,2.2,0,0,0,1.28-.49.91.91,0,0,0,.36-.62c0-.09,0-.19,0-.29s0-.08,0-.12,0-.1.13-.08a3.32,3.32,0,0,0,1.47,0,1.63,1.63,0,0,0,1-.8c0-.05,0-.08,0-.11a4.91,4.91,0,0,0-1.4-.68,1.44,1.44,0,0,0-1,0,1.4,1.4,0,0,0-.7,1,.38.38,0,0,0,0,.1c0,.07,0,.18-.08.19a.4.4,0,0,1-.36-.08,1,1,0,0,1-.36-.87c0-.34-.1-.3-.35-.4h-.08c-.33-.05-.31,0-.32-.32,0-.06,0-.11,0-.17,0-.3,0-.36-.41-.43a2.42,2.42,0,0,0-.47,0A7.06,7.06,0,0,0,10,16.18Z"/><path class="cls-10" d="M19.56,5.08C20.73,4.34,22,3.74,23.1,2.9a3.81,3.81,0,0,0,1.26-1.41,1,1,0,0,0,.09-.28.52.52,0,0,1-.56-.08.63.63,0,0,1-.18-.78A.67.67,0,0,1,24.48,0l.06,0a.4.4,0,0,0,.41,0,.67.67,0,0,1,.84.3.65.65,0,0,1-.22.82.55.55,0,0,1-.53,0,2.64,2.64,0,0,0,.53.94A6.86,6.86,0,0,0,27.11,3.4c.75.47,1.52.9,2.28,1.34.38.25.77.48,1.14.74A6.61,6.61,0,0,1,32.36,7.3,3.82,3.82,0,0,1,32.93,9a7.27,7.27,0,0,1,0,.81c0,.1,0,.12.1.13a4.37,4.37,0,0,1,1.95.7,3,3,0,0,1,1,1.33,8,8,0,0,0,.61,1.29,2.4,2.4,0,0,0,1.42.92,7.06,7.06,0,0,0,.92.15c.06,0,.13,0,.14.08s-.07.08-.12.1a4.14,4.14,0,0,1-1.7.28,3.71,3.71,0,0,1-1.46-.37,1.08,1.08,0,0,1-.35-.22,2.42,2.42,0,0,1-1.62,1.06,1.85,1.85,0,0,1-.47,0A1.42,1.42,0,0,1,32.11,14a1.28,1.28,0,0,1,.29-1.21,1.18,1.18,0,0,1,2,.82c0,.16-.07.31-.06.47.19,0,.27-.16.36-.27a1.93,1.93,0,0,0,.45-1.19A1.52,1.52,0,0,0,33.88,11a3.27,3.27,0,0,0-.76-.13c-.07,0-.14,0-.2,0h-.2a4.21,4.21,0,0,0-.71,0h-.2c-.07,0-.14,0-.2,0a6.53,6.53,0,0,0-1.52.32,6.76,6.76,0,0,0-1.22.49s-.11,0-.12.09-.1,0-.14,0l-.78-.49s0,0,0-.06a7,7,0,0,1,1.46-.7A11.42,11.42,0,0,1,31,9.94c.2,0,.2,0,.2-.24a4.33,4.33,0,0,0-1.05-2.86,9.09,9.09,0,0,0-1.44-1.33c-.55-.43-1.12-.84-1.68-1.26a13.5,13.5,0,0,1-1.29-1.11A7,7,0,0,1,24.83,2c0-.08-.09-.13-.16,0a9.21,9.21,0,0,1-2,2c-.61.49-1.26.93-1.88,1.41a13.19,13.19,0,0,0-1.07.91A4.65,4.65,0,0,0,18.35,9a5.52,5.52,0,0,0-.06.81c0,.12.08.15.17.17a12.15,12.15,0,0,1,2.13.64,6.84,6.84,0,0,1,1,.48.2.2,0,0,1,.1.08s0,.07-.07.09c-.24.18-.5.33-.76.49a.06.06,0,0,1-.08,0,4.41,4.41,0,0,0-.91-.42,6.79,6.79,0,0,0-1.24-.37,4.32,4.32,0,0,0-.72-.11c-.06,0-.13,0-.19,0h-.23a4.21,4.21,0,0,0-.71,0h-.17c-.07,0-.14,0-.21,0a2.84,2.84,0,0,0-1.44.42,1.36,1.36,0,0,0-.58,1.15.49.49,0,0,0,0,.24A1.89,1.89,0,0,0,15,14l.11.08s.06,0,.08,0,0,0,0-.07a2,2,0,0,1-.07-.35,1,1,0,0,1,0-.25,1.12,1.12,0,0,1,1.05-.95,1.16,1.16,0,0,1,1.26,1.41A1.55,1.55,0,0,1,16.69,15a1.65,1.65,0,0,1-.54.19,1.77,1.77,0,0,1-.46,0,2.33,2.33,0,0,1-1.45-.79c-.07-.08-.11-.23-.18-.24s-.19.09-.28.14a3.86,3.86,0,0,1-2,.42,4.08,4.08,0,0,1-1.29-.28c-.06,0-.09,0-.09-.09s.05-.08.11-.09a5.27,5.27,0,0,0,1.12-.21,2.35,2.35,0,0,0,1.05-.63,3.26,3.26,0,0,0,.57-1,6.66,6.66,0,0,1,.65-1.31,2.66,2.66,0,0,1,1.13-.89,4.51,4.51,0,0,1,1.44-.38c.09,0,.1-.07.08-.13a2.69,2.69,0,0,1,0-.4.19.19,0,0,1,0-.15A3.62,3.62,0,0,1,17,7.53a4.77,4.77,0,0,1,.81-1.08A9.7,9.7,0,0,1,19.21,5.3C19.32,5.22,19.44,5.15,19.56,5.08Z"/><path class="cls-9" d="M27.85,11.12l0,0c0,.09-.06.08-.12.08h-.32s0,.12,0,.17h-.05a.3.3,0,0,1-.15-.07,7.66,7.66,0,0,1-1.39-1.28,3.75,3.75,0,0,1-.85-2A6.1,6.1,0,0,1,25,6.6a3.59,3.59,0,0,1,0-.47A.27.27,0,0,1,25.1,6a.55.55,0,0,1,.22,0h2.26a.41.41,0,0,0,.18,0,1.13,1.13,0,0,0-.68-.28,2.13,2.13,0,0,0-.71.09c-.19.06-.32,0-.37-.24a2.25,2.25,0,0,0-.08-.24c-.08-.21-.08-.21-.31-.21h-.27a.16.16,0,0,0-.14.25.45.45,0,0,1,0,.32c0,.07,0,.13-.14.11S25,5.62,25,5.55A10.72,10.72,0,0,0,24.85,4a1.38,1.38,0,0,1,0-.35c-.05.5-.14,1-.19,1.48a8.37,8.37,0,0,0,0,1.66,4.48,4.48,0,0,1-.24,2.32,4.44,4.44,0,0,1-1.2,1.64,7.77,7.77,0,0,1-.91.72c-.19.11-.36.25-.54.37a3.53,3.53,0,0,1-.32.21,2.7,2.7,0,0,0-.57.38A6.89,6.89,0,0,0,19,14.22a3.36,3.36,0,0,0-.46,1,1.6,1.6,0,0,1-.39.6,4,4,0,0,1-.29.29s-.06.07-.1,0a.09.09,0,0,1,0-.12,9.91,9.91,0,0,1,.58-1.77,5.36,5.36,0,0,1,1-1.46,8.57,8.57,0,0,1,1.4-1.08l.1,0,.89-.58c0-.07.07-.1.12-.13a8.64,8.64,0,0,0,1.1-.9,3.87,3.87,0,0,0,1.14-1.87,2.57,2.57,0,0,0,0-1.17.89.89,0,0,0-.67-.64,1.13,1.13,0,0,0-1.12.1,1.19,1.19,0,0,0-.4.79c0,.09,0,.11.11.06a.78.78,0,0,1,.93,0,1,1,0,0,1,.53.87,1.13,1.13,0,0,1-1.13,1.27,1,1,0,0,1-.79-.36c-.11-.14-.11-.14-.19,0a2,2,0,0,1-.55.67,1.1,1.1,0,0,1-1,.17,2.2,2.2,0,0,1-.36-.13.12.12,0,0,1-.09-.11.13.13,0,0,1,.09-.12c.61-.1.79-.57.92-1.08a8.86,8.86,0,0,1,.37-1.34,3.77,3.77,0,0,1,.65-1.11,1.76,1.76,0,0,1,1.24-.64,1.6,1.6,0,0,1,.61.1c.16,0,.16,0,.2-.1a4,4,0,0,1,.79-1.6,3.82,3.82,0,0,1,.34-.36.31.31,0,0,1,.47,0,4,4,0,0,1,1.1,1.91c.05.2.05.19.23.14A1.56,1.56,0,0,1,28.08,6a4,4,0,0,1,1,2,5.92,5.92,0,0,0,.28,1,1.15,1.15,0,0,0,.22.35s.08.07,0,.13-.18,0-.24-.07a1.44,1.44,0,0,1-.23-.4c-.07-.19-.09-.2-.29-.2H26.61c-.05,0-.11,0-.13,0s0,.1.05.14a.9.9,0,0,0,.68.35A.86.86,0,0,0,28,8.93a.22.22,0,0,1,.39,0,2.9,2.9,0,0,0,.39.53.38.38,0,0,0,.35.17c.18,0,.36,0,.54,0,0-.08-.11-.15,0-.22s.07,0,.1,0a.74.74,0,0,0,.4.16.1.1,0,0,1,.11.11c0,.06,0,.1-.08.13A1.25,1.25,0,0,1,28.5,9.5a2.2,2.2,0,0,1-.21-.32c-.11-.18-.1-.2-.25,0a.93.93,0,0,1-.65.34,1.13,1.13,0,0,1-1.24-1.06,1.14,1.14,0,0,1,.37-1,.85.85,0,0,1,1.07-.11s.06,0,.09,0,0-.06,0-.1a1,1,0,0,0-.95-.95,1.55,1.55,0,0,0-.93.28s-.07.05-.12,0,0-.2.26-.34h-.6a.13.13,0,0,0-.13.09.74.74,0,0,0-.06.36,1,1,0,0,1,0,.35s0,.09.06.09.08,0,.08-.07a1.34,1.34,0,0,1,.16-.39c0-.1.11-.16.23-.1s0,.09,0,.13a1.29,1.29,0,0,0-.21.66,2.91,2.91,0,0,0,.6,2,7.44,7.44,0,0,0,1.6,1.52C27.74,11,27.83,11,27.85,11.12Z"/><path class="cls-10" d="M27.36,11.42h0a8.23,8.23,0,0,1,.78.53s.06.05,0,.09a2,2,0,0,0-.62.39,8.11,8.11,0,0,0-1.77,1.88,6.06,6.06,0,0,0-.83,2c0,.12-.07.24-.11.36s-.05.1-.12.1-.09,0-.11-.1c-.08-.27-.17-.54-.23-.81a4.83,4.83,0,0,0-.7-1.55,6.81,6.81,0,0,0-1.23-1.45A6.44,6.44,0,0,0,21.32,12a.1.1,0,0,1,0,0c.29-.17.55-.37.82-.56a3.28,3.28,0,0,1,.66.5,6.21,6.21,0,0,1,1.95,3.71.31.31,0,0,1,0,.13,1.49,1.49,0,0,1,.06-.4,6.06,6.06,0,0,1,1.37-2.89A5.43,5.43,0,0,1,27.36,11.42Z"/><path class="cls-9" d="M28.19,12a2.24,2.24,0,0,0-.46-.35c-.11-.1-.25-.16-.35-.27a.16.16,0,0,0,0-.1s-.07,0-.05-.08.07,0,.11,0a1,1,0,0,1,.34,0s.07,0,.09-.05l.9.55a5.89,5.89,0,0,1,2.57,2.63,10.4,10.4,0,0,1,.57,1.71.12.12,0,0,1-.05.13.08.08,0,0,1-.12,0,3.59,3.59,0,0,1-.59-.7,5.67,5.67,0,0,1-.23-.62,4.58,4.58,0,0,0-.6-1,6.22,6.22,0,0,0-.65-.71A11.7,11.7,0,0,0,28.23,12Z"/><path class="cls-4" d="M10,16.18a4,4,0,0,1,.92,0Z"/><path class="cls-4" d="M38.63,16.18a4,4,0,0,1,.92,0Z"/><path class="cls-4" d="M16.76,10.8a2.12,2.12,0,0,1,.71,0Z"/><path class="cls-4" d="M32,10.8a2.12,2.12,0,0,1,.71,0Z"/><path class="cls-4" d="M39.36,15.38h-.5A1.06,1.06,0,0,1,39.36,15.38Z"/><path class="cls-4" d="M10.65,15.38h-.5A1.06,1.06,0,0,1,10.65,15.38Z"/><path class="cls-4" d="M33.35,15.23h.47A.76.76,0,0,1,33.35,15.23Z"/><path class="cls-4" d="M15.69,15.23h.46A.72.72,0,0,1,15.69,15.23Z"/><path class="cls-4" d="M8.32,18.32v.4A.68.68,0,0,1,8.32,18.32Z"/><path class="cls-6" d="M35,18.86s-.11,0-.16,0S34.94,18.76,35,18.86Z"/><path class="cls-6" d="M28.47,15.84h-.34A.5.5,0,0,1,28.47,15.84Z"/><path class="cls-6" d="M26.11,17.28a.65.65,0,0,1,0-.34Z"/><path class="cls-6" d="M41.92,18.72h-.06c0-.11.09-.12.16,0S42,18.7,41.92,18.72Z"/><path class="cls-6" d="M28.17,19.22a.5.5,0,0,1-.34,0Z"/><path class="cls-4" d="M12.42,21.2a1.84,1.84,0,0,1,.33,0C12.64,21.23,12.53,21.19,12.42,21.2Z"/><path class="cls-4" d="M36.73,21.17a1.66,1.66,0,0,1,.32,0C36.94,21.19,36.83,21.23,36.73,21.17Z"/><path class="cls-4" d="M41.92,18.72a.12.12,0,0,1,.1,0c.06,0,.13,0,.18,0Z"/><path class="cls-4" d="M13.86,19a.7.7,0,0,1,0,.29A.57.57,0,0,1,13.86,19Z"/><path class="cls-4" d="M37.11,21.2a1.24,1.24,0,0,1,.27,0C37.29,21.23,37.2,21.19,37.11,21.2Z"/><path class="cls-6" d="M30.45,16.84v-.25A.28.28,0,0,1,30.45,16.84Z"/><path class="cls-4" d="M15.09,13.43v.25A.36.36,0,0,1,15.09,13.43Z"/><path class="cls-4" d="M7.55,18.72H7.31A.26.26,0,0,1,7.55,18.72Z"/><path class="cls-4" d="M37.75,17.05v-.24A.25.25,0,0,1,37.75,17.05Z"/><path class="cls-4" d="M12.13,21.17a1.24,1.24,0,0,1,.27,0C12.31,21.19,12.22,21.23,12.13,21.17Z"/><path class="cls-4" d="M14.36,12.64a.33.33,0,0,1,0-.24Z"/><path class="cls-4" d="M16.38,10.83a.5.5,0,0,1,.21,0C16.52,10.86,16.45,10.83,16.38,10.83Z"/><path class="cls-4" d="M17.7,10.81a.4.4,0,0,1,.19,0C17.83,10.83,17.76,10.86,17.7,10.81Z"/><path class="cls-4" d="M28.43,14.14l-.19,0C28.3,14.12,28.37,14.09,28.43,14.14Z"/><path class="cls-4" d="M9.7,15.39a.68.68,0,0,1-.2,0C9.56,15.36,9.63,15.39,9.7,15.39Z"/><path class="cls-4" d="M21.72,14.14l-.19,0C21.59,14.12,21.66,14.09,21.72,14.14Z"/><path class="cls-4" d="M38.41,15.39l-.2,0C38.27,15.36,38.34,15.39,38.41,15.39Z"/><path class="cls-4" d="M32.92,10.81a.44.44,0,0,1,.2,0C33.05,10.83,33,10.86,32.92,10.81Z"/><path class="cls-4" d="M31.61,10.83a.44.44,0,0,1,.2,0C31.75,10.86,31.68,10.83,31.61,10.83Z"/><path class="cls-4" d="M39.64,16.59a.29.29,0,0,1-.16,0C39.53,16.57,39.59,16.6,39.64,16.59Z"/><path class="cls-4" d="M39.94,16.62a.3.3,0,0,1-.16,0S39.89,16.57,39.94,16.62Z"/><path class="cls-4" d="M16.55,9.23v.15A.11.11,0,0,1,16.55,9.23Z"/><path class="cls-4" d="M28,14.12a.52.52,0,0,1-.17,0C27.84,14.1,27.9,14.12,28,14.12Z"/><path class="cls-4" d="M11.26,15.41l-.16,0C11.15,15.39,11.21,15.37,11.26,15.41Z"/><path class="cls-4" d="M35.67,19.35c0-.05,0-.11,0-.16S35.67,19.3,35.67,19.35Z"/><path class="cls-4" d="M40,15.41l-.16,0S39.92,15.36,40,15.41Z"/><path class="cls-4" d="M21.24,14.12a.47.47,0,0,1-.17,0C21.12,14.1,21.19,14.12,21.24,14.12Z"/><path class="cls-4" d="M9.73,16.59a.32.32,0,0,1-.17,0C9.61,16.57,9.67,16.6,9.73,16.59Z"/><path class="cls-4" d="M10,16.62a.32.32,0,0,1-.17,0C9.92,16.6,10,16.57,10,16.62Z"/><path class="cls-4" d="M11.75,16.65a.25.25,0,0,1,0,.17C11.73,16.76,11.71,16.7,11.75,16.65Z"/><path class="cls-9" d="M27.65,8.48H26.41c-.13,0-.18-.05-.17-.18a1.27,1.27,0,0,1,.21-.6.43.43,0,0,1,.42-.22c.15,0,.3,0,.45,0a1.78,1.78,0,0,0,.61,0,3.55,3.55,0,0,1,.73,0c.11,0,.16,0,.19.15a5.89,5.89,0,0,0,.16.67c0,.17,0,.17-.14.17Z"/><path class="cls-9" d="M29.64,9.45c-.06.12.06.17.11.24s-.07,0-.11,0a4.51,4.51,0,0,0-.52,0,.5.5,0,0,1-.43-.2A2.8,2.8,0,0,1,28.32,9c-.08-.16-.22-.16-.34,0a.9.9,0,0,1-.71.35,1,1,0,0,1-.88-.45c-.06-.09-.08-.15.08-.15H29a.18.18,0,0,1,.2.14,1.81,1.81,0,0,0,.22.44.28.28,0,0,0,.26.14Z"/><path class="cls-9" d="M25,6V5.73a.25.25,0,0,0,.07-.39c-.12-.1,0-.16,0-.24s.09-.08.16-.08h.45c.09,0,.15,0,.16.13s.11.28.14.44a.2.2,0,0,0,.28.13,1.69,1.69,0,0,1,.77-.1,1.11,1.11,0,0,1,.79.39Z"/><path class="cls-9" d="M27.29,6.26H28a.18.18,0,0,1,.18.08,4,4,0,0,1,.44.78c0,.09,0,.13-.07.13H28c-.06,0-.12,0-.13-.07a1.58,1.58,0,0,0-.53-.89Z"/><path class="cls-9" d="M25.4,4.77h-.08c-.27,0-.26,0-.29-.27s-.06-.38-.09-.57-.05-.11,0-.14a.16.16,0,0,1,.18.06c.07.09.15.18.21.27a3.65,3.65,0,0,1,.32.54c0,.09,0,.12-.07.11Z"/><path class="cls-9" d="M25.66,6.63c-.13,0-.19.06-.23.17s-.13.23-.13.37-.11.08-.17.07-.05-.06-.06-.11.07-.35,0-.52a.07.07,0,0,1,0-.09.11.11,0,0,0,.06-.09c0-.19.13-.18.26-.17H26c-.14.13-.39.13-.37.38Z"/><path class="cls-9" d="M27.09,11c-.25,0-.38-.17-.54-.3A7.4,7.4,0,0,1,26,10.1s-.07,0,0-.1.07,0,.11,0a.37.37,0,0,1,.34.13,8.07,8.07,0,0,0,.82.73s.11,0,.09.1-.09,0-.13,0Z"/><path class="cls-9" d="M25.86,9.72a.3.3,0,0,1-.31-.2c-.1-.21-.18-.43-.28-.65,0,0-.05-.1,0-.13s.13,0,.17,0a5.67,5.67,0,0,0,.47.79s.08.07.05.12S25.89,9.71,25.86,9.72Z"/><path class="cls-9" d="M25.09,8.15c0-.18,0-.34-.11-.47a.14.14,0,0,1,0-.16s.11,0,.17,0,.06.08.06.12a3.57,3.57,0,0,0,.1.73c0,.06,0,.11-.05.13a.1.1,0,0,1-.14-.08C25.11,8.31,25.06,8.22,25.09,8.15Z"/></g></g></svg>