<svg xmlns="http://www.w3.org/2000/svg" viewBox="0 0 73.98 43.48"><defs><style>.cls-1{fill:#262324;}.cls-2{fill:#252223;}</style></defs><title>Asset 21</title><g id="Layer_2" data-name="Layer 2"><g id="HOME"><path class="cls-1" d="M0,29.39c.83-2.9,2.81-3.86,5.72-3.73,3.48.15,7,.11,10.47,0a4.43,4.43,0,0,1,4.71,4.55c0,4.21,0,8.42,0,12.64,0,.45-.15.62-.63.62-6.57,0-13.15,0-19.72,0A3.7,3.7,0,0,1,0,43.4Z"/><path class="cls-2" d="M37,43.47c-4.09,0-8.18,0-12.28,0-.59,0-.73-.19-.73-.73,0-5.32,0-10.64,0-16a5.46,5.46,0,0,1,4.48-5.42,5.65,5.65,0,0,1,1-.06c5,0,10,.05,15,0A5.37,5.37,0,0,1,50,26.55c.1,5.44,0,10.88,0,16.32,0,.55-.25.61-.71.61C45.19,43.46,41.07,43.47,37,43.47Z"/><path class="cls-1" d="M63.5,43.47c-3.23,0-6.46,0-9.68,0-.63,0-.77-.21-.77-.78,0-4.09,0-8.19,0-12.28a5.69,5.69,0,0,1,.17-1.36,4.22,4.22,0,0,1,4.29-3.36c4,0,8,0,12,0A4.32,4.32,0,0,1,74,30c0,4.28,0,8.57,0,12.86,0,.51-.23.58-.66.58C70.05,43.46,66.77,43.47,63.5,43.47Z"/><path class="cls-1" d="M37,0a9.86,9.86,0,1,1-9.81,9.9A9.82,9.82,0,0,1,37,0Z"/><path class="cls-1" d="M71.41,16.53a7.89,7.89,0,1,1-7.85-7.92A7.88,7.88,0,0,1,71.41,16.53Z"/><path class="cls-1" d="M10.37,24.42a7.91,7.91,0,1,1,8-7.58A7.86,7.86,0,0,1,10.37,24.42Z"/></g></g></svg>