<svg xmlns="http://www.w3.org/2000/svg" viewBox="0 0 125.25 84.4"><defs><style>.cls-1,.cls-2{fill:none;stroke:#000;stroke-miterlimit:10;}.cls-1{stroke-width:2px;}.cls-2{stroke-width:0.75px;}.cls-3{fill:#20222c;}.cls-4{fill:#22232d;}.cls-5{fill:#fff;}.cls-6{fill:#fbfbfb;}.cls-7{fill:#32323a;}.cls-8{fill:#393841;}.cls-9{fill:#3e3d45;}.cls-10{fill:#383840;}.cls-11{fill:#3f3d45;}.cls-12{fill:#37373f;}.cls-13{fill:#37363f;}.cls-14{fill:#3f3d46;}</style></defs><title>Asset 22</title><g id="Layer_2" data-name="Layer 2"><g id="STEP_3" data-name="STEP 3"><rect class="cls-1" x="22.01" y="1" width="82.02" height="82.02" rx="12" ry="12"/><path class="cls-2" d="M111,14V72c0,6.6,3.65,12,8.11,12h5.76V2h-5.76C114.66,2,111,7.4,111,14Z"/><path class="cls-2" d="M15,71V13C15,6.4,11.7,1,7.62,1H.38V83H7.62C11.7,83,15,77.62,15,71Z"/><path d="M36,26.69c1.82-2.57,4.19-1.72,6.09-1.33a30.53,30.53,0,0,1,6,1.45c4.51,1.92,9,.92,13.57.19,1.25-.2,1.87-1.2,2.65-2,4.06-4.05,5.57-4.32,10.75-2,3.86,1.75,8,2.74,11.58,5.2a14.15,14.15,0,0,1,2.54,2.21c1.79,2,2.62,4.74,5.57,5.88a2.67,2.67,0,0,1,.68,4.21,39.29,39.29,0,0,0-3.11,4.79c-.6,1-1.81,1.46-2.41,1.07-2-1.33-2.62.3-3.87,1.17s-3.18,1.27-4.79,1.9c-3.2,1.27-5.7,3.23-6.29,6.86-.24,1.43-1.44.5-2.06,1s-1.65.16-1.94,1.09.57,1.26,1.15,1.75c1,.88.12,3.5-1.43,4a5.17,5.17,0,0,1-1.79.25c-1.29,0-3,0-3.46-1.16s1.31-1.62,2.21-2.14c2.28-1.33,2.45-3.33,1.13-5-1.83-2.36-2.65-5.65-6-6.76-.91-.3-1.49-1.63-2.19-2.51-1.62-2-3.49-3.68-6.17-4C51.9,42.6,50.66,40,48,39.93c-1.88-.08-3.43.93-5.32.68a7.83,7.83,0,0,1-6.89-5.83,6.66,6.66,0,0,0-2.61-3.67c-2.08-1.51-2.07-2.33,0-3.67.8-.51.64-.78.1-1.34-.72-.74-2.27-1.07-1.6-2.58.28-.64,1.1-.5,1.66-.4a2.52,2.52,0,0,1,2.38,2.59A8.73,8.73,0,0,0,36,26.69Z"/><path d="M85.42,54.22c1.57-.08,5.18,4.92,4.83,6.72a16.79,16.79,0,0,1-.68,2.86c-.46,1.19-1,2.32-2.68,1.21-1-.67-2.35-.86-3.41-1.48-1.69-1-4.71-.62-4.28-3.91A6.44,6.44,0,0,1,85.42,54.22Z"/><path class="cls-3" d="M72.6,31.82a3.68,3.68,0,0,1,1.29.16,3.25,3.25,0,0,1,1.59,5.42,8.68,8.68,0,0,1-1,1,2.18,2.18,0,0,0-.89,1.91,1,1,0,0,1-1,1,1,1,0,0,1-1.1-.88,3.77,3.77,0,0,1,.73-2.77,13.6,13.6,0,0,1,1.32-1.31,2,2,0,0,0,.68-1.16.88.88,0,0,0-.38-1,2.09,2.09,0,0,0-2-.19.84.84,0,0,0-.41.42,1,1,0,1,1-1.89-.86,3.08,3.08,0,0,1,2.78-1.81A2.62,2.62,0,0,1,72.6,31.82Z"/><path class="cls-4" d="M72.52,45a1.21,1.21,0,1,1,1.25-1.17A1.21,1.21,0,0,1,72.52,45Z"/><path class="cls-5" d="M71.86,39.81a3.3,3.3,0,0,1,1.08-2.35l.82-.77a2.94,2.94,0,0,0,.39-.4,1.73,1.73,0,0,0,.4-1.73,1.69,1.69,0,0,0-1.5-1,2.31,2.31,0,0,0-.94,0,1.39,1.39,0,0,0-1,.76.62.62,0,0,1-.87.32.66.66,0,0,1-.35-.89,2.24,2.24,0,0,1,1.41-1.36,3.73,3.73,0,0,1,3.1.12,2.85,2.85,0,0,1,.83,4.61A15.62,15.62,0,0,1,74,38.37a2.08,2.08,0,0,0-.73,1.6c0,.68-.25,1-.71,1S71.85,40.62,71.86,39.81Z"/><path class="cls-6" d="M72.54,44.62a.86.86,0,1,1,.88-.84A.9.9,0,0,1,72.54,44.62Z"/><path class="cls-7" d="M75.05,36.54a3.52,3.52,0,0,0,.44-1.42,2,2,0,0,0-.7-1.64c-.07-.06-.24-.15-.12-.26s.19.06.26.14a2.47,2.47,0,0,1,.23,3.3C75.06,36.67,75,36.65,75.05,36.54Z"/><path class="cls-8" d="M74.1,32.86a1.19,1.19,0,0,1-.87-.25A1,1,0,0,1,74.1,32.86Z"/><path class="cls-9" d="M75.05,36.54l.11.12a1.31,1.31,0,0,1-.51.57C74.66,36.87,74.91,36.74,75.05,36.54Z"/><path class="cls-10" d="M73.06,32.62c0,.1-.14.07-.22.06s-.12,0-.1-.1.14-.07.22-.07A.1.1,0,0,1,73.06,32.62Z"/><path class="cls-11" d="M72.91,44.12c-.25.25-.48.22-.75,0,.24-.09.46.11.64-.06C72.89,44,72.93,44,72.91,44.12Z"/><path class="cls-12" d="M72.91,44.12,72.8,44a.44.44,0,0,0,0-.51.13.13,0,0,1,.11-.1A.45.45,0,0,1,72.91,44.12Z"/><path class="cls-13" d="M72.91,43.4l-.11.1-.48-.16C72.58,43.19,72.75,43.21,72.91,43.4Z"/><path class="cls-14" d="M72.05,43.5a.29.29,0,0,1,.17-.08c.07,0,.1.09.06.12s0,.22-.17.21S72,43.68,72.05,43.5Z"/></g></g></svg>