<?xml version="1.0" encoding="iso-8859-1"?>
<!-- Generator: Adobe Illustrator 16.0.0, SVG Export Plug-In . SVG Version: 6.00 Build 0)  -->
<!DOCTYPE svg PUBLIC "-//W3C//DTD SVG 1.1//EN" "http://www.w3.org/Graphics/SVG/1.1/DTD/svg11.dtd">
<svg version="1.1" id="Capa_1" xmlns="http://www.w3.org/2000/svg" xmlns:xlink="http://www.w3.org/1999/xlink" x="0px" y="0px"
	 width="344.928px" height="344.928px" viewBox="0 0 344.928 344.928" style="enable-background:new 0 0 344.928 344.928;"
	 xml:space="preserve">
<g>
	<g>
		<path d="M308.646,68.581h-58.343l-5.902-28.058c-1.411-6.671-7.296-11.448-14.105-11.448H114.623
			c-6.812,0-12.697,4.777-14.105,11.448l-5.903,28.058H36.272C15.925,68.581,0,81.542,0,98.109v188.218
			c0,16.555,15.931,29.525,36.272,29.525h272.375c20.351,0,36.281-12.959,36.281-29.525V98.109
			C344.928,81.542,328.991,68.581,308.646,68.581z M172.458,260.885c-38.443,0-69.71-31.261-69.71-69.704
			c0-38.434,31.267-69.7,69.71-69.7c38.431,0,69.691,31.267,69.691,69.7C242.149,229.624,210.895,260.885,172.458,260.885z"/>
		<path d="M172.458,150.318c-22.542,0-40.872,18.335-40.872,40.862c0,22.53,18.336,40.869,40.872,40.869
			c22.53,0,40.856-18.339,40.856-40.869C213.314,168.653,194.988,150.318,172.458,150.318z"/>
	</g>
</g>
<g>
</g>
<g>
</g>
<g>
</g>
<g>
</g>
<g>
</g>
<g>
</g>
<g>
</g>
<g>
</g>
<g>
</g>
<g>
</g>
<g>
</g>
<g>
</g>
<g>
</g>
<g>
</g>
<g>
</g>
</svg>
